<svg width="3840" height="5520" viewBox="0 0 3840 5520" fill="none" xmlns="http://www.w3.org/2000/svg">
<g clip-path="url(#clip0_423_15133)">
<rect width="3840" height="5520" fill="#290C60"/>
<rect x="200" y="825" width="3440" height="3870" rx="400" fill="url(#paint0_linear_423_15133)"/>
<rect x="400" y="1050" width="3040" height="3420" rx="400" fill="url(#paint1_linear_423_15133)"/>
<g filter="url(#filter0_f_423_15133)">
<path d="M1025.98 641.158C1028.69 637.634 1034.31 639.139 1034.9 643.548L1044.02 712.045C1044.27 713.903 1045.53 715.467 1047.3 716.095L1112.4 739.257C1116.59 740.748 1116.9 746.557 1112.89 748.477L1050.56 778.317C1048.87 779.127 1047.77 780.815 1047.72 782.689L1045.81 851.763C1045.69 856.209 1040.26 858.294 1037.19 855.072L989.554 805.018C988.261 803.659 986.317 803.139 984.519 803.669L918.235 823.198C913.968 824.455 910.308 819.934 912.424 816.022L945.308 755.247C946.2 753.598 946.095 751.588 945.035 750.041L905.979 693.036C903.465 689.367 906.633 684.489 911.007 685.293L978.97 697.786C980.814 698.125 982.692 697.404 983.836 695.918L1025.98 641.158Z" fill="#7D38CA"/>
</g>
<path d="M1019.96 663.643C1022.67 660.119 1028.29 661.624 1028.88 666.033L1035.88 718.636C1036.13 720.495 1037.39 722.059 1039.16 722.687L1089.16 740.474C1093.35 741.965 1093.65 747.774 1089.64 749.695L1041.78 772.611C1040.08 773.42 1038.99 775.108 1038.94 776.982L1037.47 830.03C1037.35 834.475 1031.92 836.56 1028.85 833.338L992.265 794.898C990.972 793.54 989.029 793.019 987.23 793.549L936.326 808.547C932.06 809.804 928.399 805.283 930.515 801.371L955.769 754.698C956.661 753.049 956.556 751.039 955.496 749.492L925.502 705.714C922.989 702.045 926.157 697.166 930.531 697.971L982.724 707.565C984.568 707.904 986.447 707.183 987.59 705.697L1019.96 663.643Z" fill="url(#paint2_radial_423_15133)"/>
<g filter="url(#filter1_f_423_15133)">
<path d="M3654.05 721.704C3656.77 718.179 3662.39 719.685 3662.97 724.093L3668.42 765.012C3668.67 766.87 3669.93 768.434 3671.7 769.063L3710.59 782.899C3714.78 784.389 3715.09 790.199 3711.08 792.119L3673.84 809.945C3672.15 810.754 3671.06 812.442 3671 814.316L3669.86 855.58C3669.74 860.026 3664.31 862.11 3661.24 858.889L3632.79 828.987C3631.49 827.629 3629.55 827.108 3627.75 827.638L3588.15 839.304C3583.89 840.561 3580.23 836.04 3582.34 832.129L3601.99 795.823C3602.88 794.174 3602.77 792.164 3601.71 790.618L3578.38 756.564C3575.87 752.895 3579.04 748.017 3583.41 748.821L3624.01 756.284C3625.86 756.623 3627.73 755.902 3628.88 754.416L3654.05 721.704Z" fill="#7D38CA"/>
</g>
<path d="M3650.02 736.757C3652.73 733.233 3658.35 734.738 3658.94 739.147L3662.97 769.425C3663.22 771.284 3664.48 772.847 3666.25 773.476L3695.03 783.714C3699.22 785.205 3699.52 791.014 3695.51 792.935L3667.96 806.125C3666.27 806.934 3665.17 808.622 3665.12 810.496L3664.28 841.03C3664.16 845.476 3658.72 847.56 3655.66 844.339L3634.6 822.213C3633.31 820.855 3631.36 820.334 3629.57 820.864L3600.27 829.496C3596 830.753 3592.34 826.232 3594.46 822.321L3608.99 795.456C3609.88 793.807 3609.78 791.797 3608.72 790.25L3591.45 765.052C3588.94 761.383 3592.11 756.505 3596.48 757.309L3626.52 762.831C3628.37 763.17 3630.25 762.449 3631.39 760.963L3650.02 736.757Z" fill="url(#paint3_radial_423_15133)"/>
<g filter="url(#filter2_f_423_15133)">
<path d="M3459.54 2692.46C3458.73 2686.29 3465.79 2682.22 3470.73 2686L3544.53 2742.45C3546.61 2744.05 3549.42 2744.34 3551.79 2743.22L3635.71 2703.34C3641.33 2700.67 3647.38 2706.12 3645.31 2711.99L3614.43 2799.62C3613.55 2802.09 3614.14 2804.85 3615.94 2806.76L3679.8 2874.25C3684.08 2878.77 3680.77 2886.21 3674.55 2886.06L3581.66 2883.76C3579.04 2883.69 3576.6 2885.1 3575.34 2887.41L3530.89 2969C3527.91 2974.47 3519.81 2973.61 3518.03 2967.65L3491.51 2878.6C3490.76 2876.08 3488.67 2874.2 3486.09 2873.71L3394.75 2856.65C3388.63 2855.5 3386.94 2847.54 3392.07 2844L3468.56 2791.27C3470.72 2789.78 3471.87 2787.2 3471.53 2784.6L3459.54 2692.46Z" fill="#7D38CA"/>
</g>
<path d="M3475.3 2719.77C3474.5 2713.59 3481.55 2709.52 3486.5 2713.31L3543.05 2756.56C3545.13 2758.16 3547.93 2758.45 3550.3 2757.33L3614.61 2726.77C3620.23 2724.1 3626.29 2729.55 3624.22 2735.42L3600.55 2802.57C3599.68 2805.04 3600.26 2807.8 3602.07 2809.71L3651 2861.42C3655.28 2865.94 3651.96 2873.38 3645.74 2873.23L3574.57 2871.47C3571.94 2871.4 3569.5 2872.81 3568.25 2875.12L3534.18 2937.64C3531.2 2943.11 3523.1 2942.25 3521.33 2936.29L3501.01 2868.05C3500.26 2865.54 3498.16 2863.65 3495.58 2863.17L3425.6 2850.09C3419.48 2848.95 3417.78 2840.98 3422.91 2837.45L3481.53 2797.04C3483.69 2795.55 3484.83 2792.97 3484.49 2790.37L3475.3 2719.77Z" fill="url(#paint4_radial_423_15133)"/>
<g filter="url(#filter3_f_423_15133)">
<path d="M1650.95 1741.18C1663.29 1736.1 1675.63 1748.44 1670.54 1760.77L1551.68 2048.91C1549.53 2054.11 1550.48 2060.08 1554.13 2064.36L1756.21 2301.67C1764.86 2311.83 1756.94 2327.38 1743.63 2326.35L1432.87 2302.35C1427.26 2301.91 1421.88 2304.65 1418.93 2309.45L1255.68 2574.97C1248.7 2586.34 1231.46 2583.61 1228.33 2570.64L1155.12 2267.66C1153.8 2262.19 1149.53 2257.93 1144.06 2256.6L841.086 2183.4C828.116 2180.26 825.386 2163.03 836.753 2156.04L1102.28 1992.79C1107.07 1989.85 1109.81 1984.47 1109.38 1978.86L1085.38 1668.09C1084.35 1654.79 1099.9 1646.86 1110.06 1655.51L1347.37 1857.6C1351.65 1861.24 1357.61 1862.19 1362.81 1860.04L1650.95 1741.18Z" fill="#7D38CA"/>
</g>
<path d="M1581.16 1810.98C1593.49 1805.89 1605.83 1818.23 1600.74 1830.57L1507.81 2055.86C1505.66 2061.06 1506.61 2067.02 1510.25 2071.31L1668.26 2256.86C1676.91 2267.01 1668.99 2282.56 1655.69 2281.54L1412.7 2262.77C1407.09 2262.34 1401.71 2265.08 1398.77 2269.87L1271.13 2477.48C1264.14 2488.85 1246.9 2486.12 1243.77 2473.15L1186.53 2236.25C1185.21 2230.79 1180.94 2226.52 1175.47 2225.2L938.577 2167.96C925.608 2164.82 922.878 2147.59 934.244 2140.6L1141.86 2012.96C1146.65 2010.01 1149.39 2004.63 1148.95 1999.02L1130.19 1756.04C1129.16 1742.74 1144.71 1734.81 1154.87 1743.46L1340.42 1901.47C1344.7 1905.12 1350.66 1906.06 1355.86 1903.92L1581.16 1810.98Z" fill="url(#paint5_radial_423_15133)"/>
<g filter="url(#filter4_f_423_15133)">
<path d="M314.199 921.764C313.625 917.354 318.663 914.445 322.195 917.147L433.971 1002.66C435.46 1003.8 437.461 1004.01 439.155 1003.2L566.266 942.8C570.283 940.891 574.606 944.784 573.128 948.979L526.344 1081.71C525.721 1083.48 526.139 1085.44 527.428 1086.81L624.152 1189.03C627.209 1192.26 624.843 1197.58 620.397 1197.47L479.707 1193.99C477.833 1193.94 476.09 1194.95 475.193 1196.59L407.861 1320.17C405.733 1324.08 399.948 1323.47 398.679 1319.21L358.512 1184.33C357.976 1182.53 356.481 1181.19 354.638 1180.84L216.3 1154.99C211.928 1154.18 210.718 1148.49 214.38 1145.96L330.245 1066.08C331.788 1065.02 332.607 1063.18 332.365 1061.32L314.199 921.764Z" fill="#7D38CA"/>
</g>
<path d="M335.744 959.081C335.169 954.671 340.207 951.762 343.74 954.464L431.944 1021.94C433.433 1023.08 435.434 1023.29 437.128 1022.49L537.434 974.822C541.451 972.914 545.774 976.806 544.296 981.001L507.377 1085.74C506.754 1087.51 507.173 1089.48 508.461 1090.84L584.789 1171.51C587.845 1174.74 585.479 1180.05 581.033 1179.94L470.012 1177.2C468.138 1177.15 466.395 1178.16 465.498 1179.8L412.365 1277.32C410.237 1281.23 404.452 1280.62 403.182 1276.36L371.486 1169.92C370.951 1168.12 369.455 1166.78 367.612 1166.43L258.447 1146.04C254.075 1145.22 252.865 1139.53 256.527 1137L347.958 1073.97C349.502 1072.9 350.32 1071.07 350.078 1069.21L335.744 959.081Z" fill="url(#paint6_radial_423_15133)"/>
<g filter="url(#filter5_f_423_15133)">
<path d="M2897.61 838.617C2897.03 834.207 2902.07 831.298 2905.6 834L2964.41 878.99C2965.9 880.129 2967.9 880.339 2969.6 879.534L3036.47 847.755C3040.49 845.847 3044.81 849.739 3043.34 853.934L3018.72 923.766C3018.1 925.535 3018.52 927.503 3019.8 928.865L3070.69 982.648C3073.75 985.879 3071.39 991.193 3066.94 991.083L2992.92 989.253C2991.04 989.207 2989.3 990.213 2988.4 991.859L2952.98 1056.88C2950.85 1060.78 2945.07 1060.18 2943.8 1055.91L2922.66 984.95C2922.13 983.153 2920.63 981.806 2918.79 981.462L2846 967.862C2841.63 967.045 2840.42 961.355 2844.09 958.831L2905.05 916.803C2906.59 915.739 2907.41 913.9 2907.17 912.041L2897.61 838.617Z" fill="#7D38CA"/>
</g>
<path d="M2909.93 859.962C2909.36 855.551 2914.39 852.643 2917.93 855.345L2963.25 890.02C2964.74 891.159 2966.74 891.37 2968.44 890.565L3019.98 866.072C3024 864.163 3028.32 868.055 3026.84 872.25L3007.87 926.073C3007.25 927.841 3007.67 929.809 3008.96 931.171L3048.18 972.625C3051.24 975.855 3048.87 981.17 3044.42 981.06L2987.37 979.649C2985.5 979.603 2983.76 980.609 2982.86 982.255L2955.55 1032.37C2953.43 1036.27 2947.64 1035.67 2946.37 1031.4L2930.08 976.708C2929.55 974.911 2928.05 973.565 2926.21 973.221L2870.11 962.739C2865.74 961.922 2864.53 956.232 2868.19 953.707L2915.18 921.315C2916.72 920.251 2917.54 918.412 2917.3 916.553L2909.93 859.962Z" fill="url(#paint7_radial_423_15133)"/>
<g filter="url(#filter6_f_423_15133)">
<path d="M3447.32 1261.36C3455.46 1250.79 3472.32 1255.31 3474.08 1268.53L3496.13 1434.16C3496.87 1439.73 3500.67 1444.42 3505.97 1446.31L3663.39 1502.31C3675.96 1506.79 3676.87 1524.21 3664.84 1529.98L3514.13 1602.13C3509.06 1604.56 3505.77 1609.62 3505.62 1615.24L3501 1782.27C3500.63 1795.6 3484.34 1801.86 3475.14 1792.19L3359.95 1671.16C3356.07 1667.09 3350.24 1665.52 3344.84 1667.11L3184.57 1714.33C3171.77 1718.11 3160.79 1704.54 3167.14 1692.81L3246.65 1545.85C3249.33 1540.91 3249.01 1534.88 3245.83 1530.24L3151.39 1392.4C3143.85 1381.39 3153.36 1366.76 3166.48 1369.17L3330.81 1399.38C3336.34 1400.39 3341.98 1398.23 3345.41 1393.77L3447.32 1261.36Z" fill="#7D38CA"/>
</g>
<path d="M3432.12 1318.08C3440.26 1307.5 3457.12 1312.02 3458.88 1325.25L3475.59 1450.78C3476.34 1456.36 3480.14 1461.05 3485.43 1462.94L3604.76 1505.39C3617.33 1509.86 3618.24 1527.29 3606.2 1533.05L3491.98 1587.74C3486.9 1590.17 3483.61 1595.23 3483.46 1600.85L3479.96 1727.45C3479.59 1740.79 3463.3 1747.04 3454.1 1737.38L3366.79 1645.64C3362.91 1641.56 3357.08 1640 3351.68 1641.59L3230.2 1677.38C3217.4 1681.15 3206.42 1667.59 3212.77 1655.86L3273.04 1544.47C3275.71 1539.52 3275.4 1533.49 3272.22 1528.85L3200.64 1424.38C3193.09 1413.37 3202.6 1398.73 3215.72 1401.15L3340.28 1424.04C3345.81 1425.06 3351.45 1422.9 3354.88 1418.44L3432.12 1318.08Z" fill="url(#paint8_radial_423_15133)"/>
<g filter="url(#filter7_f_423_15133)">
<path d="M2672.22 2071.38C2669.51 2067.86 2663.89 2069.36 2663.3 2073.77L2654.1 2142.86C2653.86 2144.72 2652.59 2146.28 2650.82 2146.91L2585.16 2170.27C2580.97 2171.76 2580.66 2177.57 2584.67 2179.49L2647.54 2209.59C2649.23 2210.4 2650.33 2212.09 2650.38 2213.96L2652.3 2283.63C2652.43 2288.08 2657.86 2290.16 2660.92 2286.94L2708.97 2236.46C2710.27 2235.1 2712.21 2234.58 2714.01 2235.11L2780.87 2254.8C2785.13 2256.06 2788.79 2251.54 2786.68 2247.63L2753.51 2186.33C2752.62 2184.68 2752.72 2182.67 2753.78 2181.12L2793.17 2123.63C2795.69 2119.96 2792.52 2115.08 2788.15 2115.88L2719.6 2128.48C2717.75 2128.82 2715.87 2128.1 2714.73 2126.62L2672.22 2071.38Z" fill="#7D38CA"/>
</g>
<path d="M2678.29 2094.03C2675.58 2090.5 2669.96 2092.01 2669.37 2096.42L2662.3 2149.5C2662.05 2151.36 2660.79 2152.92 2659.02 2153.55L2608.57 2171.5C2604.38 2172.99 2604.07 2178.8 2608.09 2180.72L2656.39 2203.84C2658.08 2204.65 2659.17 2206.34 2659.22 2208.22L2660.7 2261.75C2660.83 2266.19 2666.26 2268.28 2669.32 2265.06L2706.24 2226.27C2707.54 2224.91 2709.48 2224.39 2711.28 2224.92L2762.65 2240.05C2766.91 2241.31 2770.57 2236.79 2768.46 2232.87L2742.97 2185.78C2742.08 2184.13 2742.19 2182.12 2743.25 2180.57L2773.51 2136.39C2776.03 2132.73 2772.86 2127.85 2768.48 2128.65L2715.82 2138.33C2713.97 2138.67 2712.09 2137.95 2710.95 2136.46L2678.29 2094.03Z" fill="url(#paint9_radial_423_15133)"/>
<g filter="url(#filter8_f_423_15133)">
<path d="M94.2102 2718.45C91.4976 2714.92 85.8786 2716.43 85.2916 2720.84L79.8439 2761.75C79.5965 2763.61 78.33 2765.18 76.5635 2765.8L37.6721 2779.64C33.4819 2781.13 33.1774 2786.94 37.1889 2788.86L74.421 2806.69C76.1121 2807.5 77.2081 2809.18 77.2599 2811.06L78.4007 2852.32C78.5236 2856.77 83.9545 2858.85 87.0206 2855.63L115.479 2825.73C116.772 2824.37 118.715 2823.85 120.514 2824.38L160.11 2836.05C164.377 2837.3 168.038 2832.78 165.921 2828.87L146.277 2792.57C145.385 2790.92 145.49 2788.91 146.55 2787.36L169.881 2753.31C172.395 2749.64 169.227 2744.76 164.852 2745.56L124.254 2753.03C122.409 2753.36 120.531 2752.64 119.387 2751.16L94.2102 2718.45Z" fill="#7D38CA"/>
</g>
<path d="M98.2441 2733.5C95.5315 2729.97 89.9124 2731.48 89.3255 2735.89L85.2944 2766.17C85.047 2768.03 83.7805 2769.59 82.014 2770.22L53.2359 2780.46C49.0457 2781.95 48.7412 2787.76 52.7527 2789.68L80.303 2802.87C81.9941 2803.68 83.0901 2805.36 83.1419 2807.24L83.9861 2837.77C84.109 2842.22 89.5398 2844.3 92.606 2841.08L113.664 2818.95C114.957 2817.6 116.901 2817.08 118.699 2817.61L147.999 2826.24C152.265 2827.49 155.926 2822.97 153.81 2819.06L139.274 2792.2C138.382 2790.55 138.487 2788.54 139.547 2786.99L156.811 2761.79C159.325 2758.13 156.156 2753.25 151.782 2754.05L121.74 2759.57C119.896 2759.91 118.018 2759.19 116.874 2757.71L98.2441 2733.5Z" fill="url(#paint10_radial_423_15133)"/>
<g filter="url(#filter9_f_423_15133)">
<path d="M465.838 4345.15C466.641 4338.98 459.588 4334.91 454.643 4338.69L365.867 4406.61C363.782 4408.2 360.98 4408.5 358.609 4407.37L257.652 4359.4C252.028 4356.72 245.976 4362.17 248.046 4368.05L285.204 4473.46C286.076 4475.94 285.49 4478.7 283.686 4480.6L206.864 4561.79C202.584 4566.32 205.897 4573.76 212.121 4573.6L323.862 4570.84C326.487 4570.77 328.926 4572.18 330.182 4574.49L383.66 4672.64C386.639 4678.11 394.739 4677.26 396.516 4671.29L428.418 4564.16C429.167 4561.65 431.261 4559.76 433.841 4559.28L543.715 4538.75C549.835 4537.61 551.529 4529.64 546.402 4526.11L454.378 4462.66C452.217 4461.17 451.071 4458.6 451.41 4455.99L465.838 4345.15Z" fill="#7D38CA"/>
</g>
<path d="M447.463 4376.98C448.267 4370.8 441.214 4366.73 436.268 4370.52L367.595 4423.05C365.51 4424.65 362.708 4424.94 360.337 4423.81L282.241 4386.7C276.617 4384.03 270.565 4389.48 272.635 4395.35L301.378 4476.9C302.251 4479.38 301.665 4482.13 299.861 4484.04L240.434 4546.85C236.155 4551.37 239.468 4558.81 245.692 4558.65L332.13 4556.52C334.754 4556.45 337.194 4557.86 338.45 4560.17L379.818 4636.09C382.797 4641.56 390.897 4640.71 392.674 4634.74L417.352 4551.87C418.101 4549.36 420.195 4547.47 422.775 4546.99L507.769 4531.11C513.89 4529.97 515.583 4522 510.457 4518.46L439.27 4469.39C437.109 4467.9 435.963 4465.32 436.302 4462.72L447.463 4376.98Z" fill="url(#paint11_radial_423_15133)"/>
<g filter="url(#filter10_f_423_15133)">
<path d="M2361.04 4125.31C2347.81 4123.59 2339.08 4138.7 2347.19 4149.3L2712.31 4626.57C2715.73 4631.04 2716.36 4637.05 2713.94 4642.13L2456.03 5184.88C2450.31 5196.94 2461.98 5209.9 2474.57 5205.47L3041.31 5005.7C3046.62 5003.83 3052.52 5005.09 3056.61 5008.96L3493.1 5421.97C3502.79 5431.14 3518.74 5424.04 3518.41 5410.7L3503.55 4809.96C3503.41 4804.34 3506.43 4799.11 3511.37 4796.42L4039.05 4508.92C4050.77 4502.53 4048.94 4485.18 4036.16 4481.37L3460.23 4309.86C3454.84 4308.25 3450.8 4303.77 3449.77 4298.24L3339.4 3707.54C3336.95 3694.42 3319.88 3690.8 3312.3 3701.78L2971.22 4196.52C2968.02 4201.15 2962.51 4203.6 2956.93 4202.88L2361.04 4125.31Z" fill="#7D38CA"/>
</g>
<path d="M2515.79 4214.66C2502.56 4212.94 2493.83 4228.05 2501.94 4238.65L2792.28 4618.17C2795.7 4622.64 2796.33 4628.64 2793.92 4633.72L2588.83 5065.32C2583.1 5077.37 2594.78 5090.34 2607.36 5085.9L3058.03 4927.05C3063.34 4925.18 3069.24 4926.44 3073.33 4930.3L3420.42 5258.72C3430.11 5267.89 3446.06 5260.79 3445.73 5247.46L3433.91 4769.76C3433.78 4764.13 3436.79 4758.91 3441.73 4756.22L3861.34 4527.6C3873.05 4521.21 3871.23 4503.86 3858.44 4500.05L3400.47 4363.66C3395.08 4362.06 3391.04 4357.57 3390.01 4352.04L3302.25 3882.33C3299.79 3869.21 3282.72 3865.58 3275.15 3876.57L3003.92 4269.98C3000.73 4274.61 2995.22 4277.06 2989.64 4276.34L2515.79 4214.66Z" fill="url(#paint12_radial_423_15133)"/>
<g filter="url(#filter11_f_423_15133)">
<path d="M2178.96 2859.27C2175.17 2854.34 2167.3 2856.44 2166.48 2862.62L2152.71 2966.02C2152.37 2968.62 2150.59 2970.81 2148.12 2971.69L2049.84 3006.66C2043.97 3008.75 2043.54 3016.88 2049.16 3019.57L2143.25 3064.61C2145.62 3065.75 2147.15 3068.11 2147.22 3070.73L2150.11 3175.01C2150.28 3181.24 2157.88 3184.15 2162.17 3179.64L2234.09 3104.08C2235.9 3102.18 2238.62 3101.45 2241.14 3102.19L2341.21 3131.67C2347.18 3133.43 2352.3 3127.1 2349.34 3121.63L2299.7 3029.88C2298.45 3027.57 2298.6 3024.76 2300.08 3022.59L2359.04 2936.53C2362.56 2931.4 2358.13 2924.57 2352 2925.69L2249.4 2944.55C2246.82 2945.03 2244.19 2944.02 2242.59 2941.94L2178.96 2859.27Z" fill="#7D38CA"/>
</g>
<path d="M2187.94 2892.77C2184.14 2887.84 2176.28 2889.95 2175.46 2896.12L2164.84 2975.84C2164.5 2978.45 2162.72 2980.64 2160.25 2981.52L2084.47 3008.47C2078.61 3010.56 2078.18 3018.69 2083.8 3021.38L2156.34 3056.11C2158.71 3057.25 2160.24 3059.61 2160.31 3062.23L2162.54 3142.63C2162.71 3148.85 2170.31 3151.77 2174.61 3147.26L2230.05 3089C2231.86 3087.1 2234.58 3086.37 2237.1 3087.11L2314.25 3109.84C2320.22 3111.6 2325.35 3105.28 2322.39 3099.8L2284.11 3029.06C2282.86 3026.75 2283.01 3023.94 2284.49 3021.77L2329.95 2955.43C2333.47 2950.29 2329.04 2943.46 2322.91 2944.58L2243.81 2959.13C2241.23 2959.6 2238.6 2958.59 2237 2956.51L2187.94 2892.77Z" fill="url(#paint13_radial_423_15133)"/>
<g filter="url(#filter12_f_423_15133)">
<path d="M1170.06 3798.52C1161.92 3787.95 1145.06 3792.47 1143.3 3805.69L1115.57 4013.94C1114.83 4019.52 1111.03 4024.21 1105.73 4026.1L907.797 4096.51C895.226 4100.99 894.313 4118.41 906.347 4124.17L1095.84 4214.9C1100.91 4217.33 1104.2 4222.39 1104.35 4228.01L1110.16 4438.02C1110.53 4451.36 1126.82 4457.61 1136.02 4447.95L1280.86 4295.76C1284.74 4291.69 1290.57 4290.13 1295.96 4291.72L1497.49 4351.09C1510.28 4354.86 1521.27 4341.3 1514.92 4329.57L1414.94 4144.79C1412.27 4139.84 1412.58 4133.81 1415.76 4129.17L1534.5 3955.86C1542.04 3944.85 1532.54 3930.22 1519.42 3932.63L1312.79 3970.61C1307.26 3971.63 1301.62 3969.47 1298.19 3965.01L1170.06 3798.52Z" fill="#7D38CA"/>
</g>
<path d="M1188.33 3866.72C1180.19 3856.15 1163.33 3860.67 1161.57 3873.89L1140.27 4033.94C1139.52 4039.51 1135.72 4044.2 1130.42 4046.09L978.307 4100.21C965.737 4104.68 964.823 4122.11 976.858 4127.87L1122.48 4197.59C1127.56 4200.02 1130.85 4205.08 1131 4210.71L1135.46 4372.1C1135.83 4385.44 1152.13 4391.69 1161.32 4382.03L1272.63 4265.07C1276.51 4261 1282.34 4259.44 1287.74 4261.03L1442.61 4306.66C1455.41 4310.43 1466.4 4296.86 1460.05 4285.13L1383.21 4143.13C1380.54 4138.18 1380.85 4132.15 1384.03 4127.51L1475.29 3994.32C1482.83 3983.31 1473.32 3968.67 1460.2 3971.08L1301.4 4000.28C1295.87 4001.29 1290.24 3999.13 1286.81 3994.67L1188.33 3866.72Z" fill="url(#paint14_radial_423_15133)"/>
</g>
<defs>
<filter id="filter0_f_423_15133" x="885.088" y="619.203" width="250.64" height="257.432" filterUnits="userSpaceOnUse" color-interpolation-filters="sRGB">
<feFlood flood-opacity="0" result="BackgroundImageFix"/>
<feBlend mode="normal" in="SourceGraphic" in2="BackgroundImageFix" result="shape"/>
<feGaussianBlur stdDeviation="10" result="effect1_foregroundBlur_423_15133"/>
</filter>
<filter id="filter1_f_423_15133" x="3557.49" y="699.748" width="176.424" height="180.703" filterUnits="userSpaceOnUse" color-interpolation-filters="sRGB">
<feFlood flood-opacity="0" result="BackgroundImageFix"/>
<feBlend mode="normal" in="SourceGraphic" in2="BackgroundImageFix" result="shape"/>
<feGaussianBlur stdDeviation="10" result="effect1_foregroundBlur_423_15133"/>
</filter>
<filter id="filter2_f_423_15133" x="3369.04" y="2664.54" width="332.699" height="328.111" filterUnits="userSpaceOnUse" color-interpolation-filters="sRGB">
<feFlood flood-opacity="0" result="BackgroundImageFix"/>
<feBlend mode="normal" in="SourceGraphic" in2="BackgroundImageFix" result="shape"/>
<feGaussianBlur stdDeviation="10" result="effect1_foregroundBlur_423_15133"/>
</filter>
<filter id="filter3_f_423_15133" x="729.603" y="1551.9" width="1130.23" height="1130.22" filterUnits="userSpaceOnUse" color-interpolation-filters="sRGB">
<feFlood flood-opacity="0" result="BackgroundImageFix"/>
<feBlend mode="normal" in="SourceGraphic" in2="BackgroundImageFix" result="shape"/>
<feGaussianBlur stdDeviation="50" result="effect1_foregroundBlur_423_15133"/>
</filter>
<filter id="filter4_f_423_15133" x="192.214" y="896.105" width="453.317" height="446.677" filterUnits="userSpaceOnUse" color-interpolation-filters="sRGB">
<feFlood flood-opacity="0" result="BackgroundImageFix"/>
<feBlend mode="normal" in="SourceGraphic" in2="BackgroundImageFix" result="shape"/>
<feGaussianBlur stdDeviation="10" result="effect1_foregroundBlur_423_15133"/>
</filter>
<filter id="filter5_f_423_15133" x="2821.92" y="812.958" width="270.153" height="266.53" filterUnits="userSpaceOnUse" color-interpolation-filters="sRGB">
<feFlood flood-opacity="0" result="BackgroundImageFix"/>
<feBlend mode="normal" in="SourceGraphic" in2="BackgroundImageFix" result="shape"/>
<feGaussianBlur stdDeviation="10" result="effect1_foregroundBlur_423_15133"/>
</filter>
<filter id="filter6_f_423_15133" x="3088.72" y="1195.5" width="644.64" height="661.383" filterUnits="userSpaceOnUse" color-interpolation-filters="sRGB">
<feFlood flood-opacity="0" result="BackgroundImageFix"/>
<feBlend mode="normal" in="SourceGraphic" in2="BackgroundImageFix" result="shape"/>
<feGaussianBlur stdDeviation="30" result="effect1_foregroundBlur_423_15133"/>
</filter>
<filter id="filter7_f_423_15133" x="2561.83" y="2049.43" width="252.232" height="259.078" filterUnits="userSpaceOnUse" color-interpolation-filters="sRGB">
<feFlood flood-opacity="0" result="BackgroundImageFix"/>
<feBlend mode="normal" in="SourceGraphic" in2="BackgroundImageFix" result="shape"/>
<feGaussianBlur stdDeviation="10" result="effect1_foregroundBlur_423_15133"/>
</filter>
<filter id="filter8_f_423_15133" x="14.3477" y="2696.49" width="176.424" height="180.703" filterUnits="userSpaceOnUse" color-interpolation-filters="sRGB">
<feFlood flood-opacity="0" result="BackgroundImageFix"/>
<feBlend mode="normal" in="SourceGraphic" in2="BackgroundImageFix" result="shape"/>
<feGaussianBlur stdDeviation="10" result="effect1_foregroundBlur_423_15133"/>
</filter>
<filter id="filter9_f_423_15133" x="184.933" y="4317.23" width="384.501" height="379.06" filterUnits="userSpaceOnUse" color-interpolation-filters="sRGB">
<feFlood flood-opacity="0" result="BackgroundImageFix"/>
<feBlend mode="normal" in="SourceGraphic" in2="BackgroundImageFix" result="shape"/>
<feGaussianBlur stdDeviation="10" result="effect1_foregroundBlur_423_15133"/>
</filter>
<filter id="filter10_f_423_15133" x="2244.06" y="3595.29" width="1902.82" height="1930.82" filterUnits="userSpaceOnUse" color-interpolation-filters="sRGB">
<feFlood flood-opacity="0" result="BackgroundImageFix"/>
<feBlend mode="normal" in="SourceGraphic" in2="BackgroundImageFix" result="shape"/>
<feGaussianBlur stdDeviation="50" result="effect1_foregroundBlur_423_15133"/>
</filter>
<filter id="filter11_f_423_15133" x="2005.18" y="2816.53" width="395.106" height="405.299" filterUnits="userSpaceOnUse" color-interpolation-filters="sRGB">
<feFlood flood-opacity="0" result="BackgroundImageFix"/>
<feBlend mode="normal" in="SourceGraphic" in2="BackgroundImageFix" result="shape"/>
<feGaussianBlur stdDeviation="20" result="effect1_foregroundBlur_423_15133"/>
</filter>
<filter id="filter12_f_423_15133" x="837.824" y="3732.66" width="759.35" height="779.977" filterUnits="userSpaceOnUse" color-interpolation-filters="sRGB">
<feFlood flood-opacity="0" result="BackgroundImageFix"/>
<feBlend mode="normal" in="SourceGraphic" in2="BackgroundImageFix" result="shape"/>
<feGaussianBlur stdDeviation="30" result="effect1_foregroundBlur_423_15133"/>
</filter>
<linearGradient id="paint0_linear_423_15133" x1="1920" y1="825" x2="1920" y2="4695" gradientUnits="userSpaceOnUse">
<stop stop-color="#3B04B9"/>
<stop offset="1" stop-color="#3B04B9" stop-opacity="0"/>
</linearGradient>
<linearGradient id="paint1_linear_423_15133" x1="1920" y1="1050" x2="1920" y2="4470" gradientUnits="userSpaceOnUse">
<stop stop-color="#6824EB"/>
<stop offset="1" stop-color="#6824EB" stop-opacity="0"/>
</linearGradient>
<radialGradient id="paint2_radial_423_15133" cx="0" cy="0" r="1" gradientUnits="userSpaceOnUse" gradientTransform="translate(1001.68 749.682) rotate(105) scale(98.9362)">
<stop stop-color="#FAFBE2"/>
<stop offset="1" stop-color="#EFD7C2"/>
</radialGradient>
<radialGradient id="paint3_radial_423_15133" cx="0" cy="0" r="1" gradientUnits="userSpaceOnUse" gradientTransform="translate(3640.21 791.21) rotate(105) scale(66.2361)">
<stop stop-color="#FAFBE2"/>
<stop offset="1" stop-color="#EFD7C2"/>
</radialGradient>
<radialGradient id="paint4_radial_423_15133" cx="0" cy="0" r="1" gradientUnits="userSpaceOnUse" gradientTransform="translate(3540.14 2819.14) rotate(60) scale(134.012 134.012)">
<stop stop-color="#FAFBE2"/>
<stop offset="1" stop-color="#EFD7C2"/>
</radialGradient>
<radialGradient id="paint5_radial_423_15133" cx="0" cy="0" r="1" gradientUnits="userSpaceOnUse" gradientTransform="translate(1317.86 2093.86) rotate(135) scale(419.505)">
<stop stop-color="#FAFBE2"/>
<stop offset="1" stop-color="#EFD7C2"/>
</radialGradient>
<radialGradient id="paint6_radial_423_15133" cx="0" cy="0" r="1" gradientUnits="userSpaceOnUse" gradientTransform="translate(425.756 1105.75) rotate(60) scale(183.128)">
<stop stop-color="#FAFBE2"/>
<stop offset="1" stop-color="#EFD7C2"/>
</radialGradient>
<radialGradient id="paint7_radial_423_15133" cx="0" cy="0" r="1" gradientUnits="userSpaceOnUse" gradientTransform="translate(2960.75 938.753) rotate(60) scale(104.745)">
<stop stop-color="#FAFBE2"/>
<stop offset="1" stop-color="#EFD7C2"/>
</radialGradient>
<radialGradient id="paint8_radial_423_15133" cx="0" cy="0" r="1" gradientUnits="userSpaceOnUse" gradientTransform="translate(3389.53 1530.54) rotate(105) scale(249.54 249.54)">
<stop stop-color="#FAFBE2"/>
<stop offset="1" stop-color="#EFD7C2"/>
</radialGradient>
<radialGradient id="paint9_radial_423_15133" cx="0" cy="0" r="1" gradientUnits="userSpaceOnUse" gradientTransform="translate(2696.74 2180.74) rotate(75) scale(99.6377)">
<stop stop-color="#FAFBE2"/>
<stop offset="1" stop-color="#EFD7C2"/>
</radialGradient>
<radialGradient id="paint10_radial_423_15133" cx="0" cy="0" r="1" gradientUnits="userSpaceOnUse" gradientTransform="translate(108.055 2787.95) rotate(75) scale(66.2361)">
<stop stop-color="#FAFBE2"/>
<stop offset="1" stop-color="#EFD7C2"/>
</radialGradient>
<radialGradient id="paint11_radial_423_15133" cx="0" cy="0" r="1" gradientUnits="userSpaceOnUse" gradientTransform="translate(371.545 4495.55) rotate(120) scale(156.18 156.18)">
<stop stop-color="#FAFBE2"/>
<stop offset="1" stop-color="#EFD7C2"/>
</radialGradient>
<radialGradient id="paint12_radial_423_15133" cx="0" cy="0" r="1" gradientUnits="userSpaceOnUse" gradientTransform="translate(3137.72 4589.72) rotate(30) scale(759.442)">
<stop stop-color="#FAFBE2"/>
<stop offset="1" stop-color="#EFD7C2"/>
</radialGradient>
<radialGradient id="paint13_radial_423_15133" cx="0" cy="0" r="1" gradientUnits="userSpaceOnUse" gradientTransform="translate(2215.83 3021.83) rotate(75) scale(147.415)">
<stop stop-color="#FAFBE2"/>
<stop offset="1" stop-color="#EFD7C2"/>
</radialGradient>
<radialGradient id="paint14_radial_423_15133" cx="0" cy="0" r="1" gradientUnits="userSpaceOnUse" gradientTransform="translate(1244 4128) rotate(75) scale(300.082)">
<stop stop-color="#FAFBE2"/>
<stop offset="1" stop-color="#EFD7C2"/>
</radialGradient>
<clipPath id="clip0_423_15133">
<rect width="3840" height="5520" fill="white"/>
</clipPath>
</defs>
</svg>
