<svg width="3840" height="2660" viewBox="0 0 3840 2660" fill="none" xmlns="http://www.w3.org/2000/svg">
<g clip-path="url(#clip0_423_17117)">
<rect width="3840" height="2660" fill="#290C60"/>
<g filter="url(#filter0_f_423_17117)">
<circle cx="1920.37" cy="1330.37" r="1265.37" fill="url(#paint0_linear_423_17117)"/>
</g>
<g filter="url(#filter1_f_423_17117)">
<circle cx="1920.37" cy="1330.37" r="912.244" fill="url(#paint1_linear_423_17117)"/>
</g>
<g filter="url(#filter2_f_423_17117)">
<path d="M727.054 371.703C729.767 368.179 735.386 369.685 735.973 374.093L741.421 415.011C741.668 416.87 742.935 418.434 744.701 419.062L783.593 432.898C787.783 434.389 788.087 440.198 784.076 442.119L746.844 459.944C745.153 460.754 744.057 462.442 744.005 464.316L742.864 505.58C742.741 510.025 737.31 512.11 734.244 508.888L705.786 478.987C704.493 477.629 702.549 477.108 700.751 477.638L661.154 489.304C656.888 490.561 653.227 486.04 655.344 482.128L674.987 445.823C675.88 444.174 675.774 442.164 674.715 440.617L651.383 406.564C648.87 402.895 652.038 398.016 656.412 398.82L697.011 406.284C698.855 406.623 700.734 405.902 701.877 404.416L727.054 371.703Z" fill="#7D38CA"/>
</g>
<path d="M723.021 386.757C725.734 383.232 731.353 384.738 731.94 389.147L735.971 419.424C736.218 421.283 737.485 422.847 739.251 423.475L768.029 433.714C772.219 435.204 772.524 441.014 768.512 442.934L740.962 456.124C739.271 456.934 738.175 458.622 738.123 460.496L737.279 491.029C737.156 495.475 731.725 497.56 728.659 494.338L707.601 472.212C706.308 470.854 704.365 470.333 702.566 470.863L673.266 479.496C669 480.753 665.339 476.232 667.456 472.32L681.991 445.455C682.884 443.806 682.778 441.797 681.718 440.25L664.454 415.052C661.941 411.383 665.109 406.504 669.483 407.308L699.525 412.831C701.369 413.17 703.248 412.449 704.391 410.963L723.021 386.757Z" fill="url(#paint2_radial_423_17117)"/>
<g filter="url(#filter3_f_423_17117)">
<path d="M3627.07 394.445C3629.78 390.92 3635.4 392.426 3635.99 396.834L3641.43 437.753C3641.68 439.611 3642.95 441.175 3644.71 441.803L3683.61 455.64C3687.8 457.13 3688.1 462.94 3684.09 464.86L3646.86 482.686C3645.17 483.495 3644.07 485.183 3644.02 487.057L3642.88 528.321C3642.75 532.767 3637.32 534.851 3634.26 531.63L3605.8 501.728C3604.51 500.37 3602.56 499.849 3600.76 500.379L3561.17 512.045C3556.9 513.302 3553.24 508.781 3555.36 504.87L3575 468.564C3575.89 466.915 3575.79 464.905 3574.73 463.359L3551.4 429.305C3548.88 425.636 3552.05 420.758 3556.43 421.562L3597.02 429.025C3598.87 429.364 3600.75 428.643 3601.89 427.157L3627.07 394.445Z" fill="#7D38CA"/>
</g>
<path d="M3623.03 409.498C3625.75 405.974 3631.37 407.479 3631.95 411.888L3635.98 442.166C3636.23 444.024 3637.5 445.588 3639.26 446.217L3668.04 456.455C3672.23 457.946 3672.54 463.755 3668.53 465.676L3640.97 478.866C3639.28 479.675 3638.19 481.363 3638.14 483.237L3637.29 513.771C3637.17 518.217 3631.74 520.301 3628.67 517.08L3607.61 494.954C3606.32 493.596 3604.38 493.075 3602.58 493.605L3573.28 502.237C3569.01 503.494 3565.35 498.973 3567.47 495.062L3582 468.197C3582.9 466.548 3582.79 464.538 3581.73 462.991L3564.47 437.793C3561.95 434.124 3565.12 429.246 3569.5 430.05L3599.54 435.572C3601.38 435.911 3603.26 435.19 3604.4 433.704L3623.03 409.498Z" fill="url(#paint3_radial_423_17117)"/>
<g filter="url(#filter4_f_423_17117)">
<path d="M3492.54 1994.46C3491.73 1988.29 3498.79 1984.22 3503.73 1988L3577.53 2044.45C3579.61 2046.05 3582.42 2046.34 3584.79 2045.22L3668.71 2005.34C3674.33 2002.67 3680.38 2008.12 3678.31 2013.99L3647.43 2101.62C3646.55 2104.09 3647.14 2106.85 3648.94 2108.76L3712.8 2176.25C3717.08 2180.77 3713.77 2188.21 3707.55 2188.06L3614.66 2185.76C3612.04 2185.69 3609.6 2187.1 3608.34 2189.41L3563.89 2271C3560.91 2276.47 3552.81 2275.61 3551.03 2269.65L3524.51 2180.6C3523.76 2178.08 3521.67 2176.2 3519.09 2175.71L3427.75 2158.65C3421.63 2157.5 3419.94 2149.54 3425.07 2146L3501.56 2093.27C3503.72 2091.78 3504.87 2089.2 3504.53 2086.6L3492.54 1994.46Z" fill="#7D38CA"/>
</g>
<path d="M3508.3 2021.77C3507.5 2015.59 3514.55 2011.52 3519.5 2015.31L3576.05 2058.56C3578.13 2060.16 3580.93 2060.45 3583.3 2059.33L3647.61 2028.77C3653.23 2026.1 3659.29 2031.55 3657.22 2037.42L3633.55 2104.57C3632.68 2107.04 3633.26 2109.8 3635.07 2111.71L3684 2163.42C3688.28 2167.94 3684.96 2175.38 3678.74 2175.23L3607.57 2173.47C3604.94 2173.4 3602.5 2174.81 3601.25 2177.12L3567.18 2239.64C3564.2 2245.11 3556.1 2244.25 3554.33 2238.29L3534.01 2170.05C3533.26 2167.54 3531.16 2165.65 3528.58 2165.17L3458.6 2152.09C3452.48 2150.95 3450.78 2142.98 3455.91 2139.45L3514.53 2099.04C3516.69 2097.55 3517.83 2094.97 3517.49 2092.37L3508.3 2021.77Z" fill="url(#paint4_radial_423_17117)"/>
<g filter="url(#filter5_f_423_17117)">
<path d="M987.954 1489.18C1000.29 1484.1 1012.63 1496.44 1007.54 1508.77L888.68 1796.91C886.535 1802.11 887.48 1808.08 891.127 1812.36L1093.21 2049.67C1101.86 2059.83 1093.94 2075.38 1080.64 2074.35L769.866 2050.35C764.257 2049.91 758.878 2052.65 755.932 2057.45L592.684 2322.97C585.696 2334.34 568.46 2331.61 565.326 2318.64L492.12 2015.66C490.799 2010.19 486.53 2005.93 481.063 2004.6L178.086 1931.4C165.117 1928.26 162.387 1911.03 173.753 1904.04L439.279 1740.79C444.071 1737.85 446.811 1732.47 446.378 1726.86L422.376 1416.09C421.349 1402.79 436.898 1394.86 447.057 1403.51L684.367 1605.6C688.649 1609.24 694.612 1610.19 699.812 1608.04L987.954 1489.18Z" fill="#7D38CA"/>
</g>
<path d="M918.158 1558.98C930.492 1553.89 942.832 1566.23 937.744 1578.57L844.809 1803.86C842.664 1809.06 843.609 1815.02 847.255 1819.31L1005.26 2004.86C1013.91 2015.01 1005.99 2030.56 992.687 2029.54L749.7 2010.77C744.092 2010.34 738.713 2013.08 735.767 2017.87L608.126 2225.48C601.138 2236.85 583.901 2234.12 580.767 2221.15L523.529 1984.25C522.207 1978.79 517.939 1974.52 512.471 1973.2L275.578 1915.96C262.609 1912.82 259.879 1895.59 271.245 1888.6L478.856 1760.96C483.647 1758.01 486.388 1752.63 485.955 1747.02L467.188 1504.04C466.161 1490.74 481.71 1482.81 491.869 1491.46L677.418 1649.47C681.701 1653.12 687.663 1654.06 692.863 1651.92L918.158 1558.98Z" fill="url(#paint5_radial_423_17117)"/>
<g filter="url(#filter6_f_423_17117)">
<path d="M1136.76 745.61C1140.56 740.676 1148.42 742.784 1149.25 748.956L1166.93 881.752C1167.27 884.354 1169.05 886.544 1171.52 887.424L1297.74 932.327C1303.6 934.414 1304.03 942.547 1298.41 945.236L1177.58 1003.09C1175.21 1004.22 1173.68 1006.58 1173.61 1009.21L1169.9 1143.12C1169.73 1149.35 1162.13 1152.27 1157.84 1147.76L1065.48 1050.71C1063.67 1048.81 1060.95 1048.08 1058.43 1048.83L929.921 1086.69C923.949 1088.45 918.823 1082.12 921.787 1076.64L985.539 958.815C986.788 956.506 986.641 953.693 985.157 951.527L909.438 841.01C905.918 835.874 910.354 829.043 916.478 830.169L1048.24 854.391C1050.82 854.865 1053.45 853.856 1055.05 851.775L1136.76 745.61Z" fill="#7D38CA"/>
</g>
<path d="M1125.66 787.035C1129.46 782.101 1137.33 784.209 1138.15 790.381L1151.93 893.898C1152.28 896.5 1154.05 898.689 1156.52 899.569L1254.91 934.572C1260.78 936.659 1261.2 944.792 1255.59 947.481L1161.4 992.577C1159.03 993.71 1157.49 996.073 1157.42 998.697L1154.54 1103.09C1154.36 1109.31 1146.76 1112.23 1142.47 1107.72L1070.47 1032.07C1068.66 1030.17 1065.94 1029.44 1063.42 1030.18L963.25 1059.7C957.278 1061.46 952.152 1055.13 955.115 1049.65L1004.81 957.805C1006.06 955.497 1005.91 952.683 1004.43 950.518L945.405 864.368C941.886 859.231 946.321 852.401 952.445 853.527L1055.15 872.408C1057.74 872.882 1060.37 871.873 1061.97 869.793L1125.66 787.035Z" fill="url(#paint6_radial_423_17117)"/>
<g filter="url(#filter7_f_423_17117)">
<path d="M362.608 655.617C362.034 651.206 367.072 648.298 370.604 651L429.413 695.989C430.902 697.129 432.903 697.339 434.597 696.534L501.474 664.755C505.491 662.846 509.814 666.739 508.335 670.933L483.721 740.766C483.098 742.534 483.516 744.503 484.805 745.865L535.694 799.648C538.751 802.879 536.385 808.193 531.939 808.083L457.918 806.253C456.044 806.207 454.301 807.213 453.404 808.859L417.978 873.878C415.85 877.784 410.065 877.176 408.796 872.913L387.663 801.949C387.128 800.153 385.632 798.806 383.789 798.462L311.005 784.862C306.633 784.045 305.424 778.355 309.085 775.831L370.045 733.803C371.589 732.739 372.407 730.9 372.165 729.041L362.608 655.617Z" fill="#7D38CA"/>
</g>
<path d="M374.931 676.962C374.357 672.551 379.395 669.643 382.927 672.345L428.253 707.02C429.742 708.159 431.744 708.37 433.437 707.565L484.982 683.071C488.999 681.163 493.322 685.055 491.844 689.25L472.872 743.073C472.249 744.841 472.668 746.809 473.956 748.171L513.179 789.624C516.236 792.855 513.87 798.169 509.424 798.059L452.373 796.649C450.498 796.602 448.755 797.609 447.858 799.255L420.555 849.368C418.427 853.274 412.641 852.665 411.372 848.403L395.084 793.708C394.549 791.911 393.053 790.565 391.21 790.22L335.112 779.739C330.74 778.922 329.531 773.232 333.193 770.707L380.177 738.315C381.721 737.25 382.539 735.412 382.297 733.553L374.931 676.962Z" fill="url(#paint7_radial_423_17117)"/>
<g filter="url(#filter8_f_423_17117)">
<path d="M3044.61 672.617C3044.03 668.206 3049.07 665.298 3052.6 668L3111.41 712.989C3112.9 714.129 3114.9 714.339 3116.6 713.534L3183.47 681.755C3187.49 679.846 3191.81 683.739 3190.34 687.933L3165.72 757.766C3165.1 759.534 3165.52 761.503 3166.8 762.865L3217.69 816.648C3220.75 819.879 3218.39 825.193 3213.94 825.083L3139.92 823.253C3138.04 823.207 3136.3 824.213 3135.4 825.859L3099.98 890.878C3097.85 894.784 3092.07 894.176 3090.8 889.913L3069.66 818.949C3069.13 817.153 3067.63 815.806 3065.79 815.462L2993 801.862C2988.63 801.045 2987.42 795.355 2991.09 792.831L3052.05 750.803C3053.59 749.739 3054.41 747.9 3054.17 746.041L3044.61 672.617Z" fill="#7D38CA"/>
</g>
<path d="M3056.93 693.962C3056.36 689.551 3061.39 686.643 3064.93 689.345L3110.25 724.02C3111.74 725.159 3113.74 725.37 3115.44 724.565L3166.98 700.071C3171 698.163 3175.32 702.055 3173.84 706.25L3154.87 760.073C3154.25 761.841 3154.67 763.809 3155.96 765.171L3195.18 806.624C3198.24 809.855 3195.87 815.169 3191.42 815.059L3134.37 813.649C3132.5 813.602 3130.76 814.609 3129.86 816.255L3102.55 866.368C3100.43 870.274 3094.64 869.665 3093.37 865.403L3077.08 810.708C3076.55 808.911 3075.05 807.565 3073.21 807.22L3017.11 796.739C3012.74 795.922 3011.53 790.232 3015.19 787.707L3062.18 755.315C3063.72 754.25 3064.54 752.412 3064.3 750.553L3056.93 693.962Z" fill="url(#paint8_radial_423_17117)"/>
<g filter="url(#filter9_f_423_17117)">
<path d="M3212.32 1360.36C3220.46 1349.79 3237.32 1354.31 3239.08 1367.53L3261.13 1533.16C3261.87 1538.73 3265.67 1543.42 3270.97 1545.31L3428.39 1601.31C3440.96 1605.79 3441.87 1623.21 3429.84 1628.98L3279.13 1701.13C3274.06 1703.56 3270.77 1708.62 3270.62 1714.24L3266 1881.27C3265.63 1894.6 3249.34 1900.86 3240.14 1891.19L3124.95 1770.16C3121.07 1766.09 3115.24 1764.52 3109.84 1766.11L2949.57 1813.33C2936.77 1817.1 2925.79 1803.54 2932.14 1791.81L3011.65 1644.85C3014.33 1639.91 3014.01 1633.88 3010.83 1629.24L2916.39 1491.4C2908.85 1480.39 2918.36 1465.75 2931.48 1468.17L3095.81 1498.38C3101.34 1499.39 3106.98 1497.23 3110.41 1492.77L3212.32 1360.36Z" fill="#7D38CA"/>
</g>
<path d="M3197.12 1417.08C3205.26 1406.5 3222.12 1411.02 3223.88 1424.25L3240.59 1549.78C3241.34 1555.36 3245.14 1560.05 3250.43 1561.94L3369.76 1604.39C3382.33 1608.86 3383.24 1626.29 3371.2 1632.05L3256.98 1686.74C3251.9 1689.17 3248.61 1694.23 3248.46 1699.85L3244.96 1826.45C3244.59 1839.79 3228.3 1846.04 3219.1 1836.38L3131.79 1744.64C3127.91 1740.56 3122.08 1739 3116.68 1740.59L2995.2 1776.38C2982.4 1780.15 2971.42 1766.59 2977.77 1754.86L3038.04 1643.47C3040.71 1638.52 3040.4 1632.49 3037.22 1627.85L2965.64 1523.38C2958.09 1512.37 2967.6 1497.73 2980.72 1500.15L3105.28 1523.04C3110.81 1524.06 3116.45 1521.9 3119.88 1517.44L3197.12 1417.08Z" fill="url(#paint9_radial_423_17117)"/>
</g>
<defs>
<filter id="filter0_f_423_17117" x="625" y="35" width="2590.74" height="2590.74" filterUnits="userSpaceOnUse" color-interpolation-filters="sRGB">
<feFlood flood-opacity="0" result="BackgroundImageFix"/>
<feBlend mode="normal" in="SourceGraphic" in2="BackgroundImageFix" result="shape"/>
<feGaussianBlur stdDeviation="15" result="effect1_foregroundBlur_423_17117"/>
</filter>
<filter id="filter1_f_423_17117" x="988.127" y="398.128" width="1864.49" height="1864.49" filterUnits="userSpaceOnUse" color-interpolation-filters="sRGB">
<feFlood flood-opacity="0" result="BackgroundImageFix"/>
<feBlend mode="normal" in="SourceGraphic" in2="BackgroundImageFix" result="shape"/>
<feGaussianBlur stdDeviation="10" result="effect1_foregroundBlur_423_17117"/>
</filter>
<filter id="filter2_f_423_17117" x="630.493" y="349.748" width="176.424" height="180.703" filterUnits="userSpaceOnUse" color-interpolation-filters="sRGB">
<feFlood flood-opacity="0" result="BackgroundImageFix"/>
<feBlend mode="normal" in="SourceGraphic" in2="BackgroundImageFix" result="shape"/>
<feGaussianBlur stdDeviation="10" result="effect1_foregroundBlur_423_17117"/>
</filter>
<filter id="filter3_f_423_17117" x="3530.51" y="372.489" width="176.424" height="180.703" filterUnits="userSpaceOnUse" color-interpolation-filters="sRGB">
<feFlood flood-opacity="0" result="BackgroundImageFix"/>
<feBlend mode="normal" in="SourceGraphic" in2="BackgroundImageFix" result="shape"/>
<feGaussianBlur stdDeviation="10" result="effect1_foregroundBlur_423_17117"/>
</filter>
<filter id="filter4_f_423_17117" x="3402.04" y="1966.54" width="332.698" height="328.111" filterUnits="userSpaceOnUse" color-interpolation-filters="sRGB">
<feFlood flood-opacity="0" result="BackgroundImageFix"/>
<feBlend mode="normal" in="SourceGraphic" in2="BackgroundImageFix" result="shape"/>
<feGaussianBlur stdDeviation="10" result="effect1_foregroundBlur_423_17117"/>
</filter>
<filter id="filter5_f_423_17117" x="66.6035" y="1299.9" width="1130.22" height="1130.22" filterUnits="userSpaceOnUse" color-interpolation-filters="sRGB">
<feFlood flood-opacity="0" result="BackgroundImageFix"/>
<feBlend mode="normal" in="SourceGraphic" in2="BackgroundImageFix" result="shape"/>
<feGaussianBlur stdDeviation="50" result="effect1_foregroundBlur_423_17117"/>
</filter>
<filter id="filter6_f_423_17117" x="868.191" y="702.873" width="474.2" height="487.071" filterUnits="userSpaceOnUse" color-interpolation-filters="sRGB">
<feFlood flood-opacity="0" result="BackgroundImageFix"/>
<feBlend mode="normal" in="SourceGraphic" in2="BackgroundImageFix" result="shape"/>
<feGaussianBlur stdDeviation="20" result="effect1_foregroundBlur_423_17117"/>
</filter>
<filter id="filter7_f_423_17117" x="286.92" y="629.958" width="270.153" height="266.53" filterUnits="userSpaceOnUse" color-interpolation-filters="sRGB">
<feFlood flood-opacity="0" result="BackgroundImageFix"/>
<feBlend mode="normal" in="SourceGraphic" in2="BackgroundImageFix" result="shape"/>
<feGaussianBlur stdDeviation="10" result="effect1_foregroundBlur_423_17117"/>
</filter>
<filter id="filter8_f_423_17117" x="2968.92" y="646.958" width="270.153" height="266.53" filterUnits="userSpaceOnUse" color-interpolation-filters="sRGB">
<feFlood flood-opacity="0" result="BackgroundImageFix"/>
<feBlend mode="normal" in="SourceGraphic" in2="BackgroundImageFix" result="shape"/>
<feGaussianBlur stdDeviation="10" result="effect1_foregroundBlur_423_17117"/>
</filter>
<filter id="filter9_f_423_17117" x="2853.72" y="1294.5" width="644.641" height="661.383" filterUnits="userSpaceOnUse" color-interpolation-filters="sRGB">
<feFlood flood-opacity="0" result="BackgroundImageFix"/>
<feBlend mode="normal" in="SourceGraphic" in2="BackgroundImageFix" result="shape"/>
<feGaussianBlur stdDeviation="30" result="effect1_foregroundBlur_423_17117"/>
</filter>
<linearGradient id="paint0_linear_423_17117" x1="1920.37" y1="65" x2="1920.37" y2="2595.74" gradientUnits="userSpaceOnUse">
<stop stop-color="#3B04B9"/>
<stop offset="1" stop-color="#3B04B9" stop-opacity="0"/>
</linearGradient>
<linearGradient id="paint1_linear_423_17117" x1="1920.37" y1="418.128" x2="1920.37" y2="2242.62" gradientUnits="userSpaceOnUse">
<stop stop-color="#6824EB"/>
<stop offset="1" stop-color="#6824EB" stop-opacity="0"/>
</linearGradient>
<radialGradient id="paint2_radial_423_17117" cx="0" cy="0" r="1" gradientUnits="userSpaceOnUse" gradientTransform="translate(713.21 441.209) rotate(105) scale(66.2361)">
<stop stop-color="#FAFBE2"/>
<stop offset="1" stop-color="#EFD7C2"/>
</radialGradient>
<radialGradient id="paint3_radial_423_17117" cx="0" cy="0" r="1" gradientUnits="userSpaceOnUse" gradientTransform="translate(3613.22 463.951) rotate(105) scale(66.2361)">
<stop stop-color="#FAFBE2"/>
<stop offset="1" stop-color="#EFD7C2"/>
</radialGradient>
<radialGradient id="paint4_radial_423_17117" cx="0" cy="0" r="1" gradientUnits="userSpaceOnUse" gradientTransform="translate(3573.14 2121.14) rotate(60) scale(134.012 134.012)">
<stop stop-color="#FAFBE2"/>
<stop offset="1" stop-color="#EFD7C2"/>
</radialGradient>
<radialGradient id="paint5_radial_423_17117" cx="0" cy="0" r="1" gradientUnits="userSpaceOnUse" gradientTransform="translate(654.862 1841.86) rotate(135) scale(419.505)">
<stop stop-color="#FAFBE2"/>
<stop offset="1" stop-color="#EFD7C2"/>
</radialGradient>
<radialGradient id="paint6_radial_423_17117" cx="0" cy="0" r="1" gradientUnits="userSpaceOnUse" gradientTransform="translate(1088.75 949.752) rotate(105) scale(182.265)">
<stop stop-color="#FAFBE2"/>
<stop offset="1" stop-color="#EFD7C2"/>
</radialGradient>
<radialGradient id="paint7_radial_423_17117" cx="0" cy="0" r="1" gradientUnits="userSpaceOnUse" gradientTransform="translate(425.752 755.753) rotate(60) scale(104.745)">
<stop stop-color="#FAFBE2"/>
<stop offset="1" stop-color="#EFD7C2"/>
</radialGradient>
<radialGradient id="paint8_radial_423_17117" cx="0" cy="0" r="1" gradientUnits="userSpaceOnUse" gradientTransform="translate(3107.75 772.753) rotate(60) scale(104.745)">
<stop stop-color="#FAFBE2"/>
<stop offset="1" stop-color="#EFD7C2"/>
</radialGradient>
<radialGradient id="paint9_radial_423_17117" cx="0" cy="0" r="1" gradientUnits="userSpaceOnUse" gradientTransform="translate(3154.53 1629.53) rotate(105) scale(249.54 249.54)">
<stop stop-color="#FAFBE2"/>
<stop offset="1" stop-color="#EFD7C2"/>
</radialGradient>
<clipPath id="clip0_423_17117">
<rect width="3840" height="2660" fill="white"/>
</clipPath>
</defs>
</svg>
