<svg width="25" height="26" viewBox="0 0 25 26" fill="none" xmlns="http://www.w3.org/2000/svg">
<g id="Face" clip-path="url(#clip0_353_11027)">
<path id="Vector" d="M9.37499 12.7395C8.65624 12.7395 8.07291 13.3228 8.07291 14.0416C8.07291 14.7603 8.65624 15.3437 9.37499 15.3437C10.0937 15.3437 10.6771 14.7603 10.6771 14.0416C10.6771 13.3228 10.0937 12.7395 9.37499 12.7395ZM15.625 12.7395C14.9062 12.7395 14.3229 13.3228 14.3229 14.0416C14.3229 14.7603 14.9062 15.3437 15.625 15.3437C16.3437 15.3437 16.9271 14.7603 16.9271 14.0416C16.9271 13.3228 16.3437 12.7395 15.625 12.7395ZM12.5 2.58325C6.74999 2.58325 2.08333 7.24992 2.08333 12.9999C2.08333 18.7499 6.74999 23.4166 12.5 23.4166C18.25 23.4166 22.9167 18.7499 22.9167 12.9999C22.9167 7.24992 18.25 2.58325 12.5 2.58325ZM12.5 21.3333C7.90624 21.3333 4.16666 17.5937 4.16666 12.9999C4.16666 12.6978 4.18749 12.3958 4.21874 12.1041C6.67708 11.0103 8.62499 8.99992 9.64583 6.51034C11.5312 9.177 14.6354 10.9166 18.1458 10.9166C18.9583 10.9166 19.7396 10.8228 20.4896 10.6458C20.7083 11.3853 20.8333 12.177 20.8333 12.9999C20.8333 17.5937 17.0937 21.3333 12.5 21.3333Z" fill="white"/>
</g>
<defs>
<clipPath id="clip0_353_11027">
<rect width="25" height="25" fill="white" transform="translate(0 0.5)"/>
</clipPath>
</defs>
</svg>
