<svg width="25" height="26" viewBox="0 0 25 26" fill="none" xmlns="http://www.w3.org/2000/svg">
<g id="Group" clip-path="url(#clip0_353_11051)">
<path id="Vector" d="M16.6667 11.9583C18.3958 11.9583 19.7812 10.5624 19.7812 8.83325C19.7812 7.10409 18.3958 5.70825 16.6667 5.70825C14.9375 5.70825 13.5417 7.10409 13.5417 8.83325C13.5417 10.5624 14.9375 11.9583 16.6667 11.9583ZM8.33332 11.9583C10.0625 11.9583 11.4479 10.5624 11.4479 8.83325C11.4479 7.10409 10.0625 5.70825 8.33332 5.70825C6.60416 5.70825 5.20832 7.10409 5.20832 8.83325C5.20832 10.5624 6.60416 11.9583 8.33332 11.9583ZM8.33332 14.0416C5.90624 14.0416 1.04166 15.2603 1.04166 17.6874V19.2499C1.04166 19.8228 1.51041 20.2916 2.08332 20.2916H14.5833C15.1562 20.2916 15.625 19.8228 15.625 19.2499V17.6874C15.625 15.2603 10.7604 14.0416 8.33332 14.0416ZM16.6667 14.0416C16.3646 14.0416 16.0208 14.0624 15.6562 14.0937C15.6771 14.1041 15.6875 14.1249 15.6979 14.1353C16.8854 14.9999 17.7083 16.1562 17.7083 17.6874V19.2499C17.7083 19.6145 17.6354 19.9687 17.5208 20.2916H22.9167C23.4896 20.2916 23.9583 19.8228 23.9583 19.2499V17.6874C23.9583 15.2603 19.0937 14.0416 16.6667 14.0416Z" fill="white" fill-opacity="0.53"/>
</g>
<defs>
<clipPath id="clip0_353_11051">
<rect width="25" height="25" fill="white" transform="translate(0 0.5)"/>
</clipPath>
</defs>
</svg>
