<svg width="600" height="400" viewBox="0 0 600 400" fill="none" xmlns="http://www.w3.org/2000/svg">
<rect x="42.1457" y="278.076" width="514.591" height="75.4213" rx="17.8132" fill="#441FE2"/>
<path d="M88.5313 300.449H94.1603V318.761H88.5313V300.449ZM80.8716 318.441V309.498H74.7082V304.439H80.8716V300.592H86.4293V318.441H80.8716ZM79.3753 316.624C77.5583 317.3 74.3163 317.621 71.7512 317.621H64.4122V300.627H70.1124V312.669H72.2856C74.6726 312.669 77.5227 312.348 79.3753 311.743V316.624ZM66.0154 324.996V319.83H94.1603V331.23H88.2107V324.996H66.0154Z" fill="#FFC339"/>
<path d="M112.612 312.028C109.085 316.802 103.848 319.83 98.0405 319.866V314.165C104.097 314.13 109.726 308.501 110.83 300.342L116.958 301.304C116.673 303.442 116.103 305.437 115.284 307.325L128.252 315.127L125.081 320.008L112.612 312.028ZM97.4349 329.805V324.176H128.216V329.805H97.4349Z" fill="#FFC339"/>
<path d="M154.541 300.449H160.562V330.874H154.541V317.336H150.195V311.707H154.541V300.449ZM138.224 323.927H143.996C146.881 323.927 150.017 323.357 151.869 322.466V327.988C150.017 328.915 146.917 329.449 143.996 329.449H132.203V301.162H149.696V306.684H138.224V312.455H148.271V317.942H138.224V323.927Z" fill="#FFC339"/>
<path d="M179.94 313.702C176.52 317.55 171.211 319.83 165.582 319.866V314.343C170.641 314.237 175.344 311.422 176.983 306.684H166.117V301.162H193.763V306.684H183.609C183.396 307.503 183.146 308.323 182.861 309.071L195.045 315.27L192.231 320.115L179.94 313.702ZM164.549 324.176H195.33V329.805H164.549V324.176Z" fill="#FFC339"/>
<path d="M226.867 306.933H230.928V300.449H236.949V323.001H230.928V312.17H226.867V306.933ZM218.245 313.56C215.894 316.73 212.26 319.011 207.913 319.117V313.667C212.01 313.346 214.575 309.819 215.11 305.936H208.341V300.805H227.722V305.936H221.166C221.095 306.898 220.917 307.859 220.632 308.786L229.04 314.593L225.655 318.868L218.245 313.56ZM215.858 325.495H237.376V330.874H209.73V320.222H215.858V325.495Z" fill="#FFC339"/>
<path d="M273.071 308.287H269.508V310.781H273.071V315.875H269.508V319.402H263.487V300.449H269.508V303.192H273.071V308.287ZM241.613 307.539H253.833V305.437H241.542V300.805H259.782V311.885H247.562V314.023H255.044C257.787 314.023 260.459 313.631 262.062 312.954V317.55C260.495 318.227 257.68 318.654 254.83 318.654H241.613V307.539ZM242.503 325.495V320.471H269.508V331.23H263.381V325.495H242.503Z" fill="#FFC339"/>
<path d="M298.007 300.449H304.027V318.904H298.007V311.921H293.981V306.755H298.007V300.449ZM285.288 313.239C282.936 316.232 279.338 318.369 275.027 318.476V313.061C279.124 312.776 281.69 309.427 282.188 305.864H275.455V300.805H294.836V305.864H288.28C288.209 306.791 288.031 307.681 287.746 308.572L296.047 313.88L292.876 318.227L285.288 313.239ZM276.666 325.138V319.972H304.027V331.23H297.9V325.138H276.666Z" fill="#FFC339"/>
<path d="M340.729 300.449H346.75V318.191H340.729V300.449ZM339.126 316.588C337.523 317.265 334.566 317.657 331.716 317.657H318.32V300.805H337.345V305.366H324.27V307.111H336.739V311.351H324.27V313.097H332.108C334.851 313.097 337.523 312.705 339.126 312.099V316.588ZM319.532 330.874V319.26H346.75V330.874H319.532ZM325.517 323.963V326.171H340.765V323.963H325.517Z" fill="#FFC339"/>
<path d="M389.58 300.449V315.697H383.559V300.449H389.58ZM380.032 300.805V315.056H361.15V300.805H367.028V303.299H374.154V300.805H380.032ZM367.028 310.353H374.154V307.859H367.028V310.353ZM368.311 326.848H389.901V330.874H362.397V321.968H383.666V320.792H362.326V316.766H389.58V325.673H368.311V326.848Z" fill="#FFC339"/>
<path d="M423.137 300.449V317.194H417.116V300.449H423.137ZM413.945 300.805V305.758H400.764V311.03H408.673C411.416 311.03 414.088 310.638 415.691 309.961V314.914C414.124 315.59 411.452 315.982 408.601 315.982H394.707V300.805H413.945ZM409.528 317.621C417.294 317.621 423.422 319.367 423.422 324.426C423.422 329.485 417.294 331.23 409.528 331.23C401.761 331.23 395.633 329.485 395.633 324.426C395.633 319.367 401.761 317.621 409.528 317.621ZM409.528 322.431C405.431 322.431 402.117 323.001 402.117 324.426C402.117 325.886 405.431 326.421 409.528 326.421C413.625 326.421 416.938 325.886 416.938 324.426C416.938 323.001 413.625 322.431 409.528 322.431Z" fill="#FFC339"/>
<path d="M460.088 300.449H466.109V330.874H460.088V315.911H453.676V310.282H460.088V300.449ZM450.398 301.269C450.398 305.294 450.113 308.964 449.543 312.242L458.378 326.207L453.213 329.414L447.477 319.794C445.018 325.958 441.171 329.414 436.539 329.449V323.179C441.206 322.644 444.27 313.773 444.27 301.055L450.398 301.269Z" fill="#FFC339"/>
<path d="M493.467 300.449H499.488V330.874H493.467V300.449ZM483.563 310.104V301.162H489.477V329.449H471.45V301.162H477.364V310.104H483.563ZM477.364 323.927H483.563V315.59H477.364V323.927Z" fill="#FFC339"/>
<path d="M518.83 312.028C515.303 316.802 510.066 319.83 504.259 319.866V314.165C510.316 314.13 515.945 308.501 517.049 300.342L523.177 301.304C522.892 303.442 522.322 305.437 521.502 307.325L534.47 315.127L531.3 320.008L518.83 312.028ZM503.654 329.805V324.176H534.435V329.805H503.654Z" fill="#FFC339"/>
<mask id="path-3-outside-1_352_47702" maskUnits="userSpaceOnUse" x="119.529" y="46.8765" width="349" height="220" fill="black">
<rect fill="white" x="119.529" y="46.8765" width="349" height="220"/>
<path fill-rule="evenodd" clip-rule="evenodd" d="M131.529 130.598C131.529 90.9873 163.64 58.8765 203.251 58.8765C229.891 58.8765 253.138 73.4009 265.507 94.9629C270.75 89.7108 277.998 86.4615 286.006 86.4615C302.002 86.4615 314.97 99.4293 314.97 115.426V125.02L322.794 111.299C326.462 104.867 333.441 102.235 339.819 103.403C339.804 103.045 339.797 102.685 339.797 102.323C339.797 88.2309 351.221 76.8069 365.313 76.8069L403.932 76.8069C418.024 76.8069 429.448 88.2309 429.448 102.323C429.448 116.395 418.057 127.807 403.992 127.839H432.207C445.918 127.839 457.034 138.955 457.034 152.666C457.034 166.377 445.918 177.493 432.207 177.493H368.761C364.363 177.493 360.231 176.349 356.648 174.342H314.97V225.767C314.97 241.763 302.002 254.731 286.006 254.731C270.009 254.731 257.041 241.763 257.041 225.767V205.624C243.899 220.513 224.672 229.904 203.251 229.904C163.64 229.904 131.529 197.794 131.529 158.183V130.598ZM361.035 129.065L360.024 127.291C361.73 127.65 363.499 127.839 365.313 127.839H368.702C366.026 127.846 363.449 128.275 361.035 129.065Z"/>
</mask>
<path fill-rule="evenodd" clip-rule="evenodd" d="M131.529 130.598C131.529 90.9873 163.64 58.8765 203.251 58.8765C229.891 58.8765 253.138 73.4009 265.507 94.9629C270.75 89.7108 277.998 86.4615 286.006 86.4615C302.002 86.4615 314.97 99.4293 314.97 115.426V125.02L322.794 111.299C326.462 104.867 333.441 102.235 339.819 103.403C339.804 103.045 339.797 102.685 339.797 102.323C339.797 88.2309 351.221 76.8069 365.313 76.8069L403.932 76.8069C418.024 76.8069 429.448 88.2309 429.448 102.323C429.448 116.395 418.057 127.807 403.992 127.839H432.207C445.918 127.839 457.034 138.955 457.034 152.666C457.034 166.377 445.918 177.493 432.207 177.493H368.761C364.363 177.493 360.231 176.349 356.648 174.342H314.97V225.767C314.97 241.763 302.002 254.731 286.006 254.731C270.009 254.731 257.041 241.763 257.041 225.767V205.624C243.899 220.513 224.672 229.904 203.251 229.904C163.64 229.904 131.529 197.794 131.529 158.183V130.598ZM361.035 129.065L360.024 127.291C361.73 127.65 363.499 127.839 365.313 127.839H368.702C366.026 127.846 363.449 128.275 361.035 129.065Z" fill="#441FE2"/>
<path d="M265.507 94.9629L255.6 100.646L263.034 113.606L273.59 103.032L265.507 94.9629ZM314.97 125.02H303.549V168.106L324.892 130.677L314.97 125.02ZM322.794 111.299L332.716 116.957V116.957L322.794 111.299ZM339.819 103.403L337.761 114.638L351.826 117.214L351.231 102.928L339.819 103.403ZM365.313 76.8069V65.3857V76.8069ZM403.932 76.8069V65.3857V76.8069ZM403.992 127.839L403.966 116.418L403.992 139.261V127.839ZM356.648 174.342L362.229 164.377L359.628 162.921H356.648V174.342ZM314.97 174.342V162.921H303.549V174.342H314.97ZM257.041 205.624H268.463V175.424L248.478 198.066L257.041 205.624ZM360.024 127.291L362.379 116.115L337.515 110.873L350.102 132.948L360.024 127.291ZM361.035 129.065L351.114 134.722L355.73 142.818L364.587 139.92L361.035 129.065ZM368.702 127.839L368.729 139.261L368.702 116.418V127.839ZM203.251 47.4552C157.332 47.4552 120.108 84.6795 120.108 130.598H142.95C142.95 97.295 169.948 70.2977 203.251 70.2977V47.4552ZM275.414 89.28C261.093 64.3141 234.147 47.4552 203.251 47.4552V70.2977C225.634 70.2977 245.184 82.4877 255.6 100.646L275.414 89.28ZM286.006 75.0403C274.844 75.0403 264.722 79.5835 257.424 86.8939L273.59 103.032C276.778 99.8382 281.153 97.8827 286.006 97.8827V75.0403ZM326.391 115.426C326.391 93.1215 308.31 75.0403 286.006 75.0403V97.8827C295.695 97.8827 303.549 105.737 303.549 115.426H326.391ZM326.391 125.02V115.426H303.549V125.02H326.391ZM312.872 105.642L305.049 119.362L324.892 130.677L332.716 116.957L312.872 105.642ZM341.877 92.1692C331.144 90.203 319.147 94.6377 312.872 105.642L332.716 116.957C333.776 115.096 335.738 114.267 337.761 114.638L341.877 92.1692ZM328.376 102.323C328.376 102.844 328.386 103.362 328.408 103.879L351.231 102.928C351.222 102.728 351.218 102.526 351.218 102.323H328.376ZM365.313 65.3857C344.913 65.3857 328.376 81.9232 328.376 102.323H351.218C351.218 94.5387 357.529 88.2281 365.313 88.2281V65.3857ZM403.932 65.3857L365.313 65.3857V88.2281L403.932 88.2281V65.3857ZM440.87 102.323C440.87 81.9232 424.332 65.3857 403.932 65.3857V88.2281C411.717 88.2281 418.027 94.5387 418.027 102.323H440.87ZM404.018 139.261C424.379 139.214 440.87 122.694 440.87 102.323H418.027C418.027 110.096 411.734 116.4 403.966 116.418L404.018 139.261ZM432.207 116.418H403.992V139.261H432.207V116.418ZM468.455 152.666C468.455 132.647 452.226 116.418 432.207 116.418V139.261C439.611 139.261 445.612 145.262 445.612 152.666H468.455ZM432.207 188.914C452.226 188.914 468.455 172.685 468.455 152.666H445.612C445.612 160.07 439.611 166.071 432.207 166.071V188.914ZM368.761 188.914H432.207V166.071H368.761V188.914ZM351.068 184.307C356.312 187.244 362.359 188.914 368.761 188.914V166.071C366.367 166.071 364.151 165.454 362.229 164.377L351.068 184.307ZM314.97 185.764H356.648V162.921H314.97V185.764ZM326.391 225.767V174.342H303.549V225.767H326.391ZM286.006 266.152C308.31 266.152 326.391 248.071 326.391 225.767H303.549C303.549 235.455 295.695 243.31 286.006 243.31V266.152ZM245.62 225.767C245.62 248.071 263.701 266.152 286.006 266.152V243.31C276.317 243.31 268.463 235.455 268.463 225.767H245.62ZM245.62 205.624V225.767H268.463V205.624H245.62ZM203.251 241.326C228.084 241.326 250.386 230.423 265.604 213.182L248.478 198.066C237.413 210.603 221.259 218.483 203.251 218.483V241.326ZM120.108 158.183C120.108 204.101 157.332 241.326 203.251 241.326V218.483C169.948 218.483 142.95 191.486 142.95 158.183H120.108ZM120.108 130.598V158.183H142.95V130.598H120.108ZM350.102 132.948L351.114 134.722L370.957 123.408L369.945 121.633L350.102 132.948ZM365.313 116.418C364.296 116.418 363.316 116.312 362.379 116.115L357.668 138.466C360.144 138.988 362.703 139.261 365.313 139.261V116.418ZM368.702 116.418H365.313V139.261H368.702V116.418ZM364.587 139.92C365.877 139.498 367.264 139.264 368.729 139.261L368.676 116.418C364.787 116.427 361.022 117.053 357.484 118.21L364.587 139.92Z" fill="#441FE2" mask="url(#path-3-outside-1_352_47702)"/>
<mask id="path-5-outside-2_352_47702" maskUnits="userSpaceOnUse" x="440.25" y="33.4818" width="152.364" height="156.898" fill="black">
<rect fill="white" x="440.25" y="33.4818" width="152.364" height="156.898"/>
<path fill-rule="evenodd" clip-rule="evenodd" d="M511.681 51.1802C508.144 49.546 503.951 51.0889 502.317 54.6264L454.479 158.177C452.845 161.715 454.388 165.907 457.925 167.541C461.463 169.176 465.655 167.633 467.29 164.095L490.962 112.854L527.149 129.571C529.816 131.293 531.975 133.358 531.088 135.277C530.348 136.878 531.934 139.554 536.678 141.746L537.98 142.347C537.995 142.354 538.009 142.361 538.023 142.368L549.006 147.441C551.869 148.764 555.262 147.515 556.585 144.652L575.467 103.779C576.418 101.721 576.04 99.3887 574.689 97.7488C574.638 97.6864 574.585 97.625 574.531 97.5647C574.028 97.0044 573.405 96.5351 572.678 96.1992L556.512 88.731L557.076 87.5098C558.399 84.6467 557.15 81.2534 554.287 79.9307L514.634 61.6121L515.128 60.5445C516.762 57.007 515.219 52.8145 511.681 51.1802Z"/>
</mask>
<path fill-rule="evenodd" clip-rule="evenodd" d="M511.681 51.1802C508.144 49.546 503.951 51.0889 502.317 54.6264L454.479 158.177C452.845 161.715 454.388 165.907 457.925 167.541C461.463 169.176 465.655 167.633 467.29 164.095L490.962 112.854L527.149 129.571C529.816 131.293 531.975 133.358 531.088 135.277C530.348 136.878 531.934 139.554 536.678 141.746L537.98 142.347C537.995 142.354 538.009 142.361 538.023 142.368L549.006 147.441C551.869 148.764 555.262 147.515 556.585 144.652L575.467 103.779C576.418 101.721 576.04 99.3887 574.689 97.7488C574.638 97.6864 574.585 97.625 574.531 97.5647C574.028 97.0044 573.405 96.5351 572.678 96.1992L556.512 88.731L557.076 87.5098C558.399 84.6467 557.15 81.2534 554.287 79.9307L514.634 61.6121L515.128 60.5445C516.762 57.007 515.219 52.8145 511.681 51.1802Z" fill="#441FE2"/>
<path d="M502.317 54.6264L512.685 59.4163L502.317 54.6264ZM454.479 158.177L464.847 162.967L464.847 162.967L454.479 158.177ZM457.925 167.541L462.715 157.173L462.715 157.173L457.925 167.541ZM467.29 164.095L477.658 168.885L477.658 168.885L467.29 164.095ZM490.962 112.854L495.752 102.485L485.384 97.6955L480.594 108.064L490.962 112.854ZM527.149 129.571L533.343 119.975L532.668 119.54L531.939 119.203L527.149 129.571ZM531.088 135.277L520.72 130.487L520.72 130.487L531.088 135.277ZM536.678 141.746L541.468 131.378L541.468 131.378L536.678 141.746ZM537.98 142.347L542.853 132.018L542.812 131.998L542.77 131.979L537.98 142.347ZM538.023 142.368L533.233 152.736L533.234 152.736L538.023 142.368ZM549.006 147.441L544.216 157.809L544.216 157.809L549.006 147.441ZM556.585 144.652L566.953 149.442L556.585 144.652ZM575.467 103.779L565.099 98.9888L575.467 103.779ZM574.689 97.7488L565.873 105.01L565.874 105.011L574.689 97.7488ZM574.531 97.5647L566.034 105.196L566.034 105.196L574.531 97.5647ZM572.678 96.1992L577.468 85.831L577.468 85.831L572.678 96.1992ZM556.512 88.731L546.144 83.941L541.354 94.3093L551.722 99.0992L556.512 88.731ZM557.076 87.5098L567.444 92.2998L567.444 92.2997L557.076 87.5098ZM554.287 79.9307L549.497 90.299L554.287 79.9307ZM514.634 61.6121L504.266 56.8222L499.476 67.1905L509.844 71.9804L514.634 61.6121ZM515.128 60.5445L504.759 55.7546L504.759 55.7546L515.128 60.5445ZM512.685 59.4163C511.674 61.605 509.08 62.5597 506.892 61.5485L516.471 40.812C507.208 36.5323 496.229 40.5727 491.949 49.8365L512.685 59.4163ZM464.847 162.967L512.685 59.4163L491.949 49.8365L444.111 153.387L464.847 162.967ZM462.715 157.173C464.904 158.184 465.859 160.778 464.847 162.967L444.111 153.387C439.831 162.651 443.872 173.63 453.135 177.91L462.715 157.173ZM456.921 159.305C457.932 157.117 460.526 156.162 462.715 157.173L453.135 177.91C462.399 182.189 473.378 178.149 477.658 168.885L456.921 159.305ZM480.594 108.064L456.921 159.305L477.658 168.885L501.33 117.644L480.594 108.064ZM531.939 119.203L495.752 102.485L486.172 123.222L522.359 139.94L531.939 119.203ZM541.456 140.067C544.521 133.433 541.366 127.759 539.437 125.3C537.495 122.825 535.017 121.056 533.343 119.975L520.955 139.167C521.948 139.808 521.883 139.933 521.466 139.4C521.216 139.082 520.512 138.112 520.124 136.518C519.682 134.701 519.776 132.53 520.72 130.487L541.456 140.067ZM541.468 131.378C540.105 130.748 540.23 130.498 540.811 131.239C541.213 131.751 543.647 135.324 541.456 140.067L520.72 130.487C517.789 136.832 520.646 142.544 522.842 145.341C525.217 148.368 528.507 150.552 531.888 152.114L541.468 131.378ZM542.77 131.979L541.468 131.378L531.888 152.114L533.19 152.716L542.77 131.979ZM542.814 132C542.827 132.006 542.84 132.012 542.853 132.018L533.107 152.677C533.149 152.697 533.191 152.716 533.233 152.736L542.814 132ZM553.796 137.073L542.813 131.999L533.234 152.736L544.216 157.809L553.796 137.073ZM546.217 139.862C547.539 136.999 550.933 135.75 553.796 137.073L544.216 157.809C552.805 161.778 562.985 158.031 566.953 149.442L546.217 139.862ZM565.099 98.9888L546.217 139.862L566.953 149.442L585.836 108.569L565.099 98.9888ZM565.874 105.011C564.542 103.394 564.141 101.062 565.099 98.9888L585.836 108.569C588.695 102.379 587.539 95.3836 583.505 90.4868L565.874 105.011ZM566.034 105.196C565.979 105.135 565.925 105.073 565.873 105.01L583.505 90.4879C583.351 90.3001 583.192 90.115 583.028 89.9329L566.034 105.196ZM567.888 106.568C567.18 106.241 566.548 105.769 566.034 105.196L583.028 89.9332C581.507 88.2396 579.63 86.8297 577.468 85.831L567.888 106.568ZM551.722 99.0992L567.888 106.568L577.468 85.831L561.302 78.3627L551.722 99.0992ZM546.708 82.7199L546.144 83.941L566.88 93.5209L567.444 92.2998L546.708 82.7199ZM549.497 90.299C546.634 88.9763 545.385 85.583 546.708 82.7199L567.444 92.2997C571.413 83.7104 567.666 73.5306 559.077 69.5625L549.497 90.299ZM509.844 71.9804L549.497 90.299L559.077 69.5625L519.424 51.2439L509.844 71.9804ZM504.759 55.7546L504.266 56.8222L525.003 66.402L525.496 65.3344L504.759 55.7546ZM506.892 61.5485C504.703 60.5374 503.748 57.9433 504.759 55.7546L525.496 65.3344C529.775 56.0707 525.735 45.0916 516.471 40.812L506.892 61.5485Z" fill="#441FE2" mask="url(#path-5-outside-2_352_47702)"/>
<g filter="url(#filter0_di_352_47702)">
<rect x="457.034" y="127.839" width="49.6533" height="113.099" rx="24.8266" transform="rotate(90 457.034 127.839)" fill="url(#paint0_linear_352_47702)"/>
</g>
<g filter="url(#filter1_di_352_47702)">
<rect x="429.432" y="76.96" width="56.1544" height="89.4662" rx="28.0772" transform="rotate(90 429.432 76.96)" fill="url(#paint1_linear_352_47702)"/>
</g>
<rect x="505.276" y="48.2212" width="14.1113" height="167.228" rx="7.05567" transform="rotate(24.7958 505.276 48.2212)" fill="#7E61FF"/>
<path d="M520.817 126.231L503.93 118.43L528.054 88.0192L552.36 86.8124L572.678 96.1989C575.541 97.5216 576.79 100.915 575.467 103.778L556.585 144.651C555.262 147.514 551.869 148.763 549.006 147.44L536.678 141.746C531.934 139.554 530.348 136.878 531.088 135.277C532.725 131.733 523.98 127.692 520.817 126.231Z" fill="#633FFE"/>
<path d="M505.834 63.8375C507.157 60.9743 510.55 59.7256 513.413 61.0483L554.286 79.9308C557.149 81.2535 558.398 84.6468 557.075 87.5099L535.798 133.567L489.741 112.29C486.877 110.967 485.629 107.574 486.951 104.711L505.834 63.8375Z" fill="#633FFE"/>
<path d="M556.511 88.7305L572.678 96.199C575.541 97.5217 576.79 100.915 575.467 103.778L556.584 144.651C555.262 147.515 551.868 148.763 549.005 147.441L538.023 142.367C535.16 141.044 533.911 137.651 535.234 134.788L556.511 88.7305Z" fill="url(#paint2_linear_352_47702)"/>
<g filter="url(#filter2_di_352_47702)">
<rect x="131.529" y="58.8765" width="143.443" height="171.028" rx="71.7214" fill="url(#paint3_linear_352_47702)"/>
</g>
<g filter="url(#filter3_di_352_47702)">
<rect x="257.041" y="86.4614" width="57.9288" height="168.269" rx="28.9644" fill="url(#paint4_linear_352_47702)"/>
</g>
<g filter="url(#filter4_di_352_47702)">
<path d="M322.793 111.299C329.001 100.412 344.696 100.412 350.904 111.299L373.056 150.147C379.207 160.934 371.418 174.342 359.001 174.342H314.697C302.28 174.342 294.491 160.934 300.641 150.147L322.793 111.299Z" fill="url(#paint5_linear_352_47702)"/>
</g>
<g filter="url(#filter5_i_352_47702)">
<rect x="207.388" y="119.564" width="62.0666" height="79.997" rx="19.3096" fill="url(#paint6_linear_352_47702)"/>
</g>
<g filter="url(#filter6_d_352_47702)">
<path fill-rule="evenodd" clip-rule="evenodd" d="M245.536 285.461C251.578 285.008 256.613 282.939 260.711 279.935C264.275 283.654 269.084 285.493 274.034 285.493H289.567C293.411 285.493 297.169 284.384 300.325 282.148C303.482 284.384 307.24 285.493 311.083 285.493H392.403C397.541 285.493 402.527 283.512 406.126 279.504C406.607 278.967 407.049 278.412 407.453 277.841C412.18 282.021 418.271 284.902 425.745 285.461L425.753 285.461C435.569 286.189 441.269 286.188 451.186 285.462L451.197 285.461L451.207 285.461C457.249 285.008 462.284 282.939 466.383 279.935C469.946 283.654 474.755 285.493 479.705 285.493H495.238C500.377 285.493 505.362 283.512 508.961 279.504C512.456 275.612 513.855 270.709 513.855 266.077V180.646C513.855 176.013 512.456 171.111 508.961 167.219C505.362 163.211 500.377 161.23 495.238 161.23H479.705C474.759 161.23 469.955 163.065 466.392 166.777C462.303 163.788 457.274 161.735 451.24 161.264L451.213 161.262L451.186 161.26C441.269 160.535 435.569 160.534 425.753 161.261L425.745 161.262C418.271 161.82 412.18 164.701 407.453 168.882C407.049 168.31 406.607 167.755 406.126 167.219C402.527 163.211 397.541 161.23 392.403 161.23H311.083C307.24 161.23 303.482 162.338 300.325 164.574C297.169 162.338 293.411 161.23 289.567 161.23H274.034C269.088 161.23 264.284 163.065 260.721 166.777C256.632 163.788 251.603 161.735 245.569 161.264L245.542 161.262L245.515 161.26C235.598 160.535 229.898 160.534 220.082 161.261L220.074 161.262C212.6 161.82 206.509 164.701 201.781 168.882C201.378 168.31 200.936 167.755 200.454 167.219C196.855 163.211 191.87 161.23 186.731 161.23H105.412C100.274 161.23 95.2881 163.211 91.689 167.219C88.1943 171.111 86.7956 176.013 86.7956 180.646V229.072C86.7956 233.634 88.152 238.458 91.5309 242.32C88.152 246.183 86.7956 251.007 86.7956 255.569V266.077C86.7956 270.709 88.1943 275.612 91.689 279.504C95.2881 283.512 100.274 285.493 105.412 285.493H186.731C191.87 285.493 196.855 283.512 200.454 279.504C200.936 278.967 201.378 278.412 201.781 277.841C206.509 282.021 212.6 284.902 220.074 285.461L220.082 285.461C229.898 286.189 235.598 286.188 245.515 285.462L245.525 285.461L245.536 285.461ZM230.806 247.125C230.787 247.275 230.767 247.425 230.748 247.574C230.755 247.515 230.763 247.456 230.771 247.397C230.783 247.307 230.794 247.216 230.806 247.125Z" fill="#441FE2"/>
</g>
<rect x="428.48" y="202.593" width="22.8424" height="51.3955" fill="#D24C00"/>
<rect x="461.793" y="202.593" width="22.8424" height="51.3955" fill="#D24C00"/>
<rect x="226.706" y="202.593" width="51.3955" height="51.3955" fill="#D24C00"/>
<g filter="url(#filter7_dii_352_47702)">
<path d="M195.563 255.817V266.324C195.563 271.121 192.708 274.319 188.368 274.319H107.049C102.709 274.319 99.8536 271.121 99.8536 266.324V255.817C99.8536 251.02 102.709 247.822 107.049 247.822H128.635V237.314H107.049C102.709 237.314 99.8536 234.116 99.8536 229.319V180.893C99.8536 176.096 102.709 172.898 107.049 172.898H188.368C192.708 172.898 195.563 176.096 195.563 180.893V229.319C195.563 234.116 192.708 237.314 188.368 237.314H166.782V247.822H188.368C192.708 247.822 195.563 251.02 195.563 255.817ZM131.376 207.01C131.376 209.112 133.081 210.817 135.183 210.817H160.234C162.336 210.817 164.041 209.112 164.041 207.01V203.203C164.041 201.1 162.336 199.396 160.234 199.396H135.183C133.081 199.396 131.376 201.1 131.376 203.203V207.01Z" fill="url(#paint7_linear_352_47702)"/>
</g>
<g filter="url(#filter8_dii_352_47702)">
<path d="M400.461 255.817V266.324C400.461 271.121 397.605 274.319 393.265 274.319H311.946C307.606 274.319 304.751 271.121 304.751 266.324V255.817C304.751 251.02 307.606 247.822 311.946 247.822H333.532V237.314H311.946C307.606 237.314 304.751 234.116 304.751 229.319V180.893C304.751 176.096 307.606 172.898 311.946 172.898H393.265C397.605 172.898 400.461 176.096 400.461 180.893V229.319C400.461 234.116 397.605 237.314 393.265 237.314H371.679V247.822H393.265C397.605 247.822 400.461 251.02 400.461 255.817ZM336.273 207.01C336.273 209.112 337.978 210.817 340.081 210.817H365.131C367.234 210.817 368.938 209.112 368.938 207.01V203.203C368.938 201.1 367.234 199.396 365.131 199.396H340.081C337.978 199.396 336.273 201.1 336.273 203.203V207.01Z" fill="url(#paint8_linear_352_47702)"/>
</g>
<g filter="url(#filter9_dii_352_47702)">
<path d="M268.476 187.517V180.893C268.476 176.096 271.331 172.898 275.671 172.898H291.204C295.544 172.898 298.399 176.096 298.399 180.893V266.324C298.399 271.121 295.544 274.319 291.204 274.319H275.671C271.331 274.319 268.476 271.121 268.476 266.324V258.557H264.021C261.395 266.781 255.455 273.633 246.318 274.319C236.953 275.004 231.814 275.004 222.562 274.319C210.342 273.405 202.918 262.098 202.461 250.563C201.547 227.72 201.547 219.497 202.461 196.654C202.918 185.119 210.342 173.812 222.562 172.898C231.814 172.213 236.953 172.213 246.318 172.898C255.113 173.584 260.823 179.751 263.565 187.517H268.476ZM231.796 244.888C231.615 246.444 232.822 247.821 234.388 247.821C235.684 247.821 236.782 246.865 236.945 245.58C238.834 230.617 238.834 216.6 236.945 201.637C236.782 200.352 235.684 199.395 234.388 199.395C232.822 199.395 231.615 200.773 231.796 202.329C233.482 216.802 233.482 230.415 231.796 244.888ZM265.162 228.974C265.145 230.041 266.003 230.918 267.07 230.918H267.524C268.575 230.918 269.427 230.066 269.427 229.015V217.06C269.427 216.009 268.575 215.157 267.524 215.157H267.069C266.002 215.157 265.144 216.034 265.162 217.1C265.227 221.166 265.228 224.975 265.162 228.974Z" fill="url(#paint9_linear_352_47702)"/>
</g>
<g filter="url(#filter10_dii_352_47702)">
<path d="M473.373 187.517V180.893C473.373 176.096 476.228 172.898 480.568 172.898H496.101C500.441 172.898 503.296 176.096 503.296 180.893V266.324C503.296 271.121 500.441 274.319 496.101 274.319H480.568C476.228 274.319 473.373 271.121 473.373 266.324V258.557H468.918C466.292 266.781 460.353 273.633 451.216 274.319C441.85 275.004 436.711 275.004 427.459 274.319C415.239 273.405 407.815 262.098 407.358 250.563C406.444 227.72 406.444 219.497 407.358 196.654C407.815 185.119 415.239 173.812 427.459 172.898C436.711 172.213 441.85 172.213 451.216 172.898C460.01 173.584 465.721 179.751 468.462 187.517H473.373ZM436.693 244.888C436.512 246.444 437.719 247.821 439.285 247.821C440.581 247.821 441.68 246.865 441.842 245.58C443.731 230.617 443.731 216.6 441.842 201.637C441.68 200.352 440.581 199.395 439.285 199.395C437.719 199.395 436.512 200.773 436.693 202.329C438.379 216.802 438.379 230.415 436.693 244.888ZM470.059 228.974C470.042 230.041 470.9 230.918 471.967 230.918H472.421C473.472 230.918 474.325 230.066 474.325 229.015V217.06C474.325 216.009 473.472 215.157 472.421 215.157H471.966C470.899 215.157 470.041 216.034 470.059 217.1C470.124 221.166 470.125 224.975 470.059 228.974Z" fill="url(#paint10_linear_352_47702)"/>
</g>
<path d="M276.197 176.896L279.978 176.896C280.375 176.896 280.62 177.368 280.413 177.707C279.72 178.845 278.527 181.159 277.841 184.51C277.063 188.317 272.39 228.291 272.39 228.291L272.39 180.703C272.39 178.6 274.095 176.896 276.197 176.896Z" fill="url(#paint11_linear_352_47702)"/>
<path d="M216.928 180.227C219.907 178.185 227.23 177.87 230.629 177.839C231.117 177.834 231.284 178.478 230.862 178.723C227.234 180.828 218.291 186.386 215.284 191.648C208.997 202.65 207.843 214.533 207.67 219.994L207.67 223.057C207.67 223.057 207.608 221.928 207.67 219.994L207.67 204.973C207.67 195.931 209.263 185.482 216.928 180.227Z" fill="url(#paint12_linear_352_47702)"/>
<path d="M421.587 180.227C424.565 178.185 431.888 177.87 435.287 177.839C435.775 177.834 435.942 178.478 435.52 178.723C431.893 180.828 422.949 186.386 419.942 191.648C413.655 202.65 412.502 214.533 412.328 219.994L412.328 223.057C412.328 223.057 412.267 221.928 412.328 219.994L412.328 204.973C412.328 195.931 413.921 185.482 421.587 180.227Z" fill="url(#paint13_linear_352_47702)"/>
<path d="M102.024 254.941L102.024 258.971C102.024 259.451 102.743 259.69 103.074 259.343C103.766 258.617 104.789 257.751 106.113 257.19C108.158 256.325 129.626 251.134 129.626 251.134L105.831 251.134C103.729 251.134 102.024 252.838 102.024 254.941Z" fill="url(#paint14_linear_352_47702)"/>
<path d="M192.442 266.362L192.442 261.62C192.442 261.225 191.975 260.98 191.637 261.187C190.396 261.945 187.74 263.328 183.84 264.112C179.54 264.978 134.384 270.169 134.384 270.169L188.635 270.169C190.737 270.169 192.442 268.465 192.442 266.362Z" fill="url(#paint15_linear_352_47702)" fill-opacity="0.5"/>
<path d="M397.072 266.362L397.072 261.62C397.072 261.225 396.605 260.98 396.268 261.187C395.026 261.945 392.371 263.328 388.471 264.112C384.17 264.978 339.014 270.169 339.014 270.169L393.265 270.169C395.368 270.169 397.072 268.465 397.072 266.362Z" fill="url(#paint16_linear_352_47702)" fill-opacity="0.5"/>
<path d="M102.024 180.703L102.024 188.519C102.024 189 102.731 189.229 103.045 188.864C103.98 187.776 105.541 186.287 107.664 185.375C110.484 184.164 140.094 176.896 140.094 176.896L105.831 176.896C103.728 176.896 102.024 178.6 102.024 180.703Z" fill="url(#paint17_linear_352_47702)"/>
<path d="M308.558 180.703L308.558 188.519C308.558 189 309.265 189.229 309.579 188.864C310.514 187.776 312.075 186.287 314.198 185.375C317.018 184.164 346.628 176.896 346.628 176.896L312.365 176.896C310.262 176.896 308.558 178.6 308.558 180.703Z" fill="url(#paint18_linear_352_47702)"/>
<path d="M308.557 254.941L308.557 258.971C308.557 259.451 309.276 259.69 309.607 259.343C310.299 258.617 311.321 257.751 312.646 257.19C314.691 256.325 336.159 251.134 336.159 251.134L312.364 251.134C310.262 251.134 308.557 252.838 308.557 254.941Z" fill="url(#paint19_linear_352_47702)"/>
<path d="M494.628 267.314H492.809C492.108 267.314 491.616 266.57 491.84 265.905C492.266 264.64 492.845 262.544 493.2 259.7C493.676 255.893 496.532 215.918 496.532 215.918V265.41C496.532 266.462 495.679 267.314 494.628 267.314Z" fill="url(#paint20_linear_352_47702)"/>
<rect x="155.323" y="112.175" width="13.3248" height="18.0836" rx="6.66238" fill="#4120D5"/>
<rect x="390.41" y="91.2363" width="8.56592" height="11.4212" rx="4.28296" fill="#4120D5"/>
<rect x="279.053" y="109.32" width="8.56592" height="11.4212" rx="4.28296" fill="#4120D5"/>
<rect x="318.076" y="130.259" width="8.56592" height="11.4212" rx="4.28296" fill="#4120D5"/>
<rect x="221.947" y="135.97" width="8.56592" height="11.4212" rx="4.28296" fill="#4120D5"/>
<rect x="177.214" y="112.175" width="13.3248" height="18.0836" rx="6.66238" fill="#4120D5"/>
<rect x="292.378" y="109.32" width="8.56592" height="11.4212" rx="4.28296" fill="#4120D5"/>
<rect x="403.735" y="91.2363" width="8.56592" height="11.4212" rx="4.28296" fill="#4120D5"/>
<rect x="331.4" y="130.259" width="8.56592" height="11.4212" rx="4.28296" fill="#4120D5"/>
<rect x="235.271" y="135.97" width="8.56592" height="11.4212" rx="4.28296" fill="#4120D5"/>
<defs>
<filter id="filter0_di_352_47702" x="316.349" y="105.771" width="168.269" height="104.824" filterUnits="userSpaceOnUse" color-interpolation-filters="sRGB">
<feFlood flood-opacity="0" result="BackgroundImageFix"/>
<feColorMatrix in="SourceAlpha" type="matrix" values="0 0 0 0 0 0 0 0 0 0 0 0 0 0 0 0 0 0 127 0" result="hardAlpha"/>
<feOffset dy="5.51703"/>
<feGaussianBlur stdDeviation="13.7926"/>
<feComposite in2="hardAlpha" operator="out"/>
<feColorMatrix type="matrix" values="0 0 0 0 0.0980392 0 0 0 0 0.121569 0 0 0 0 0.176471 0 0 0 0.3 0"/>
<feBlend mode="normal" in2="BackgroundImageFix" result="effect1_dropShadow_352_47702"/>
<feBlend mode="normal" in="SourceGraphic" in2="effect1_dropShadow_352_47702" result="shape"/>
<feColorMatrix in="SourceAlpha" type="matrix" values="0 0 0 0 0 0 0 0 0 0 0 0 0 0 0 0 0 0 127 0" result="hardAlpha"/>
<feOffset dx="5.51703" dy="5.51703"/>
<feGaussianBlur stdDeviation="8.27555"/>
<feComposite in2="hardAlpha" operator="arithmetic" k2="-1" k3="1"/>
<feColorMatrix type="matrix" values="0 0 0 0 1 0 0 0 0 1 0 0 0 0 1 0 0 0 0.25 0"/>
<feBlend mode="normal" in2="shape" result="effect2_innerShadow_352_47702"/>
</filter>
<filter id="filter1_di_352_47702" x="312.381" y="54.8918" width="144.637" height="111.325" filterUnits="userSpaceOnUse" color-interpolation-filters="sRGB">
<feFlood flood-opacity="0" result="BackgroundImageFix"/>
<feColorMatrix in="SourceAlpha" type="matrix" values="0 0 0 0 0 0 0 0 0 0 0 0 0 0 0 0 0 0 127 0" result="hardAlpha"/>
<feOffset dy="5.51703"/>
<feGaussianBlur stdDeviation="13.7926"/>
<feComposite in2="hardAlpha" operator="out"/>
<feColorMatrix type="matrix" values="0 0 0 0 0.0980392 0 0 0 0 0.121569 0 0 0 0 0.176471 0 0 0 0.3 0"/>
<feBlend mode="normal" in2="BackgroundImageFix" result="effect1_dropShadow_352_47702"/>
<feBlend mode="normal" in="SourceGraphic" in2="effect1_dropShadow_352_47702" result="shape"/>
<feColorMatrix in="SourceAlpha" type="matrix" values="0 0 0 0 0 0 0 0 0 0 0 0 0 0 0 0 0 0 127 0" result="hardAlpha"/>
<feOffset dx="5.51703" dy="5.51703"/>
<feGaussianBlur stdDeviation="8.27555"/>
<feComposite in2="hardAlpha" operator="arithmetic" k2="-1" k3="1"/>
<feColorMatrix type="matrix" values="0 0 0 0 1 0 0 0 0 1 0 0 0 0 1 0 0 0 0.25 0"/>
<feBlend mode="normal" in2="shape" result="effect2_innerShadow_352_47702"/>
</filter>
<filter id="filter2_di_352_47702" x="103.944" y="36.8083" width="198.613" height="226.198" filterUnits="userSpaceOnUse" color-interpolation-filters="sRGB">
<feFlood flood-opacity="0" result="BackgroundImageFix"/>
<feColorMatrix in="SourceAlpha" type="matrix" values="0 0 0 0 0 0 0 0 0 0 0 0 0 0 0 0 0 0 127 0" result="hardAlpha"/>
<feOffset dy="5.51703"/>
<feGaussianBlur stdDeviation="13.7926"/>
<feComposite in2="hardAlpha" operator="out"/>
<feColorMatrix type="matrix" values="0 0 0 0 0.0980392 0 0 0 0 0.121569 0 0 0 0 0.176471 0 0 0 0.3 0"/>
<feBlend mode="normal" in2="BackgroundImageFix" result="effect1_dropShadow_352_47702"/>
<feBlend mode="normal" in="SourceGraphic" in2="effect1_dropShadow_352_47702" result="shape"/>
<feColorMatrix in="SourceAlpha" type="matrix" values="0 0 0 0 0 0 0 0 0 0 0 0 0 0 0 0 0 0 127 0" result="hardAlpha"/>
<feOffset dx="5.51703" dy="5.51703"/>
<feGaussianBlur stdDeviation="8.27555"/>
<feComposite in2="hardAlpha" operator="arithmetic" k2="-1" k3="1"/>
<feColorMatrix type="matrix" values="0 0 0 0 1 0 0 0 0 1 0 0 0 0 1 0 0 0 0.25 0"/>
<feBlend mode="normal" in2="shape" result="effect2_innerShadow_352_47702"/>
</filter>
<filter id="filter3_di_352_47702" x="229.456" y="64.3933" width="113.099" height="223.44" filterUnits="userSpaceOnUse" color-interpolation-filters="sRGB">
<feFlood flood-opacity="0" result="BackgroundImageFix"/>
<feColorMatrix in="SourceAlpha" type="matrix" values="0 0 0 0 0 0 0 0 0 0 0 0 0 0 0 0 0 0 127 0" result="hardAlpha"/>
<feOffset dy="5.51703"/>
<feGaussianBlur stdDeviation="13.7926"/>
<feComposite in2="hardAlpha" operator="out"/>
<feColorMatrix type="matrix" values="0 0 0 0 0.0980392 0 0 0 0 0.121569 0 0 0 0 0.176471 0 0 0 0.3 0"/>
<feBlend mode="normal" in2="BackgroundImageFix" result="effect1_dropShadow_352_47702"/>
<feBlend mode="normal" in="SourceGraphic" in2="effect1_dropShadow_352_47702" result="shape"/>
<feColorMatrix in="SourceAlpha" type="matrix" values="0 0 0 0 0 0 0 0 0 0 0 0 0 0 0 0 0 0 127 0" result="hardAlpha"/>
<feOffset dx="5.51703" dy="5.51703"/>
<feGaussianBlur stdDeviation="8.27555"/>
<feComposite in2="hardAlpha" operator="arithmetic" k2="-1" k3="1"/>
<feColorMatrix type="matrix" values="0 0 0 0 1 0 0 0 0 1 0 0 0 0 1 0 0 0 0.25 0"/>
<feBlend mode="normal" in2="shape" result="effect2_innerShadow_352_47702"/>
</filter>
<filter id="filter4_di_352_47702" x="243.323" y="53.4805" width="187.053" height="181.549" filterUnits="userSpaceOnUse" color-interpolation-filters="sRGB">
<feFlood flood-opacity="0" result="BackgroundImageFix"/>
<feColorMatrix in="SourceAlpha" type="matrix" values="0 0 0 0 0 0 0 0 0 0 0 0 0 0 0 0 0 0 127 0" result="hardAlpha"/>
<feOffset dy="5.51703"/>
<feGaussianBlur stdDeviation="27.5852"/>
<feComposite in2="hardAlpha" operator="out"/>
<feColorMatrix type="matrix" values="0 0 0 0 0.0980392 0 0 0 0 0.121569 0 0 0 0 0.176471 0 0 0 0.3 0"/>
<feBlend mode="normal" in2="BackgroundImageFix" result="effect1_dropShadow_352_47702"/>
<feBlend mode="normal" in="SourceGraphic" in2="effect1_dropShadow_352_47702" result="shape"/>
<feColorMatrix in="SourceAlpha" type="matrix" values="0 0 0 0 0 0 0 0 0 0 0 0 0 0 0 0 0 0 127 0" result="hardAlpha"/>
<feOffset dx="5.51703" dy="5.51703"/>
<feGaussianBlur stdDeviation="8.27555"/>
<feComposite in2="hardAlpha" operator="arithmetic" k2="-1" k3="1"/>
<feColorMatrix type="matrix" values="0 0 0 0 1 0 0 0 0 1 0 0 0 0 1 0 0 0 0.25 0"/>
<feBlend mode="normal" in2="shape" result="effect2_innerShadow_352_47702"/>
</filter>
<filter id="filter5_i_352_47702" x="207.388" y="119.564" width="67.5836" height="85.5141" filterUnits="userSpaceOnUse" color-interpolation-filters="sRGB">
<feFlood flood-opacity="0" result="BackgroundImageFix"/>
<feBlend mode="normal" in="SourceGraphic" in2="BackgroundImageFix" result="shape"/>
<feColorMatrix in="SourceAlpha" type="matrix" values="0 0 0 0 0 0 0 0 0 0 0 0 0 0 0 0 0 0 127 0" result="hardAlpha"/>
<feOffset dx="5.51703" dy="5.51703"/>
<feGaussianBlur stdDeviation="8.27555"/>
<feComposite in2="hardAlpha" operator="arithmetic" k2="-1" k3="1"/>
<feColorMatrix type="matrix" values="0 0 0 0 1 0 0 0 0 1 0 0 0 0 1 0 0 0 0.25 0"/>
<feBlend mode="normal" in2="shape" result="effect1_innerShadow_352_47702"/>
</filter>
<filter id="filter6_d_352_47702" x="86.7956" y="160.716" width="427.059" height="136.712" filterUnits="userSpaceOnUse" color-interpolation-filters="sRGB">
<feFlood flood-opacity="0" result="BackgroundImageFix"/>
<feColorMatrix in="SourceAlpha" type="matrix" values="0 0 0 0 0 0 0 0 0 0 0 0 0 0 0 0 0 0 127 0" result="hardAlpha"/>
<feOffset dy="11.4212"/>
<feComposite in2="hardAlpha" operator="out"/>
<feColorMatrix type="matrix" values="0 0 0 0 0.266667 0 0 0 0 0.121569 0 0 0 0 0.886275 0 0 0 1 0"/>
<feBlend mode="normal" in2="BackgroundImageFix" result="effect1_dropShadow_352_47702"/>
<feBlend mode="normal" in="SourceGraphic" in2="effect1_dropShadow_352_47702" result="shape"/>
</filter>
<filter id="filter7_dii_352_47702" x="96.0465" y="169.091" width="103.324" height="116.649" filterUnits="userSpaceOnUse" color-interpolation-filters="sRGB">
<feFlood flood-opacity="0" result="BackgroundImageFix"/>
<feColorMatrix in="SourceAlpha" type="matrix" values="0 0 0 0 0 0 0 0 0 0 0 0 0 0 0 0 0 0 127 0" result="hardAlpha"/>
<feOffset dy="11.4212"/>
<feComposite in2="hardAlpha" operator="out"/>
<feColorMatrix type="matrix" values="0 0 0 0 0.904167 0 0 0 0 0 0 0 0 0 0.5425 0 0 0 1 0"/>
<feBlend mode="normal" in2="BackgroundImageFix" result="effect1_dropShadow_352_47702"/>
<feBlend mode="normal" in="SourceGraphic" in2="effect1_dropShadow_352_47702" result="shape"/>
<feColorMatrix in="SourceAlpha" type="matrix" values="0 0 0 0 0 0 0 0 0 0 0 0 0 0 0 0 0 0 127 0" result="hardAlpha"/>
<feOffset dx="3.80707" dy="3.80707"/>
<feGaussianBlur stdDeviation="3.80707"/>
<feComposite in2="hardAlpha" operator="arithmetic" k2="-1" k3="1"/>
<feColorMatrix type="matrix" values="0 0 0 0 1 0 0 0 0 1 0 0 0 0 1 0 0 0 0.5 0"/>
<feBlend mode="normal" in2="shape" result="effect2_innerShadow_352_47702"/>
<feColorMatrix in="SourceAlpha" type="matrix" values="0 0 0 0 0 0 0 0 0 0 0 0 0 0 0 0 0 0 127 0" result="hardAlpha"/>
<feOffset dx="-3.80707" dy="-3.80707"/>
<feGaussianBlur stdDeviation="3.80707"/>
<feComposite in2="hardAlpha" operator="arithmetic" k2="-1" k3="1"/>
<feColorMatrix type="matrix" values="0 0 0 0 1 0 0 0 0 0.478431 0 0 0 0 0.00392157 0 0 0 1 0"/>
<feBlend mode="normal" in2="effect2_innerShadow_352_47702" result="effect3_innerShadow_352_47702"/>
</filter>
<filter id="filter8_dii_352_47702" x="300.944" y="169.091" width="103.324" height="116.649" filterUnits="userSpaceOnUse" color-interpolation-filters="sRGB">
<feFlood flood-opacity="0" result="BackgroundImageFix"/>
<feColorMatrix in="SourceAlpha" type="matrix" values="0 0 0 0 0 0 0 0 0 0 0 0 0 0 0 0 0 0 127 0" result="hardAlpha"/>
<feOffset dy="11.4212"/>
<feComposite in2="hardAlpha" operator="out"/>
<feColorMatrix type="matrix" values="0 0 0 0 0.904167 0 0 0 0 0 0 0 0 0 0.5425 0 0 0 1 0"/>
<feBlend mode="normal" in2="BackgroundImageFix" result="effect1_dropShadow_352_47702"/>
<feBlend mode="normal" in="SourceGraphic" in2="effect1_dropShadow_352_47702" result="shape"/>
<feColorMatrix in="SourceAlpha" type="matrix" values="0 0 0 0 0 0 0 0 0 0 0 0 0 0 0 0 0 0 127 0" result="hardAlpha"/>
<feOffset dx="3.80707" dy="3.80707"/>
<feGaussianBlur stdDeviation="3.80707"/>
<feComposite in2="hardAlpha" operator="arithmetic" k2="-1" k3="1"/>
<feColorMatrix type="matrix" values="0 0 0 0 1 0 0 0 0 1 0 0 0 0 1 0 0 0 0.5 0"/>
<feBlend mode="normal" in2="shape" result="effect2_innerShadow_352_47702"/>
<feColorMatrix in="SourceAlpha" type="matrix" values="0 0 0 0 0 0 0 0 0 0 0 0 0 0 0 0 0 0 127 0" result="hardAlpha"/>
<feOffset dx="-3.80707" dy="-3.80707"/>
<feGaussianBlur stdDeviation="3.80707"/>
<feComposite in2="hardAlpha" operator="arithmetic" k2="-1" k3="1"/>
<feColorMatrix type="matrix" values="0 0 0 0 1 0 0 0 0 0.478431 0 0 0 0 0.00392157 0 0 0 1 0"/>
<feBlend mode="normal" in2="effect2_innerShadow_352_47702" result="effect3_innerShadow_352_47702"/>
</filter>
<filter id="filter9_dii_352_47702" x="197.969" y="168.577" width="104.238" height="117.677" filterUnits="userSpaceOnUse" color-interpolation-filters="sRGB">
<feFlood flood-opacity="0" result="BackgroundImageFix"/>
<feColorMatrix in="SourceAlpha" type="matrix" values="0 0 0 0 0 0 0 0 0 0 0 0 0 0 0 0 0 0 127 0" result="hardAlpha"/>
<feOffset dy="11.4212"/>
<feComposite in2="hardAlpha" operator="out"/>
<feColorMatrix type="matrix" values="0 0 0 0 0.904167 0 0 0 0 0 0 0 0 0 0.5425 0 0 0 1 0"/>
<feBlend mode="normal" in2="BackgroundImageFix" result="effect1_dropShadow_352_47702"/>
<feBlend mode="normal" in="SourceGraphic" in2="effect1_dropShadow_352_47702" result="shape"/>
<feColorMatrix in="SourceAlpha" type="matrix" values="0 0 0 0 0 0 0 0 0 0 0 0 0 0 0 0 0 0 127 0" result="hardAlpha"/>
<feOffset dx="3.80707" dy="3.80707"/>
<feGaussianBlur stdDeviation="3.80707"/>
<feComposite in2="hardAlpha" operator="arithmetic" k2="-1" k3="1"/>
<feColorMatrix type="matrix" values="0 0 0 0 1 0 0 0 0 1 0 0 0 0 1 0 0 0 0.5 0"/>
<feBlend mode="normal" in2="shape" result="effect2_innerShadow_352_47702"/>
<feColorMatrix in="SourceAlpha" type="matrix" values="0 0 0 0 0 0 0 0 0 0 0 0 0 0 0 0 0 0 127 0" result="hardAlpha"/>
<feOffset dx="-3.80707" dy="-3.80707"/>
<feGaussianBlur stdDeviation="3.80707"/>
<feComposite in2="hardAlpha" operator="arithmetic" k2="-1" k3="1"/>
<feColorMatrix type="matrix" values="0 0 0 0 1 0 0 0 0 0.478431 0 0 0 0 0.00392157 0 0 0 1 0"/>
<feBlend mode="normal" in2="effect2_innerShadow_352_47702" result="effect3_innerShadow_352_47702"/>
</filter>
<filter id="filter10_dii_352_47702" x="402.866" y="168.577" width="104.238" height="117.677" filterUnits="userSpaceOnUse" color-interpolation-filters="sRGB">
<feFlood flood-opacity="0" result="BackgroundImageFix"/>
<feColorMatrix in="SourceAlpha" type="matrix" values="0 0 0 0 0 0 0 0 0 0 0 0 0 0 0 0 0 0 127 0" result="hardAlpha"/>
<feOffset dy="11.4212"/>
<feComposite in2="hardAlpha" operator="out"/>
<feColorMatrix type="matrix" values="0 0 0 0 0.904167 0 0 0 0 0 0 0 0 0 0.5425 0 0 0 1 0"/>
<feBlend mode="normal" in2="BackgroundImageFix" result="effect1_dropShadow_352_47702"/>
<feBlend mode="normal" in="SourceGraphic" in2="effect1_dropShadow_352_47702" result="shape"/>
<feColorMatrix in="SourceAlpha" type="matrix" values="0 0 0 0 0 0 0 0 0 0 0 0 0 0 0 0 0 0 127 0" result="hardAlpha"/>
<feOffset dx="3.80707" dy="3.80707"/>
<feGaussianBlur stdDeviation="3.80707"/>
<feComposite in2="hardAlpha" operator="arithmetic" k2="-1" k3="1"/>
<feColorMatrix type="matrix" values="0 0 0 0 1 0 0 0 0 1 0 0 0 0 1 0 0 0 0.5 0"/>
<feBlend mode="normal" in2="shape" result="effect2_innerShadow_352_47702"/>
<feColorMatrix in="SourceAlpha" type="matrix" values="0 0 0 0 0 0 0 0 0 0 0 0 0 0 0 0 0 0 127 0" result="hardAlpha"/>
<feOffset dx="-3.80707" dy="-3.80707"/>
<feGaussianBlur stdDeviation="3.80707"/>
<feComposite in2="hardAlpha" operator="arithmetic" k2="-1" k3="1"/>
<feColorMatrix type="matrix" values="0 0 0 0 1 0 0 0 0 0.478431 0 0 0 0 0.00392157 0 0 0 1 0"/>
<feBlend mode="normal" in2="effect2_innerShadow_352_47702" result="effect3_innerShadow_352_47702"/>
</filter>
<linearGradient id="paint0_linear_352_47702" x1="498.604" y1="161.449" x2="462.973" y2="177.552" gradientUnits="userSpaceOnUse">
<stop stop-color="#A500C0"/>
<stop offset="1" stop-color="#C9001A"/>
</linearGradient>
<linearGradient id="paint1_linear_352_47702" x1="429.432" y1="127.844" x2="486.609" y2="93.2977" gradientUnits="userSpaceOnUse">
<stop stop-color="#FF1717"/>
<stop offset="1" stop-color="#CB007A"/>
</linearGradient>
<linearGradient id="paint2_linear_352_47702" x1="533.473" y1="88.5053" x2="516.877" y2="135.945" gradientUnits="userSpaceOnUse">
<stop stop-color="#5434DE"/>
<stop offset="1" stop-color="#5C3BEE" stop-opacity="0"/>
</linearGradient>
<linearGradient id="paint3_linear_352_47702" x1="262.606" y1="87.8465" x2="228.677" y2="164.245" gradientUnits="userSpaceOnUse">
<stop stop-color="#FFCA51"/>
<stop offset="1" stop-color="#FF7A01"/>
</linearGradient>
<linearGradient id="paint4_linear_352_47702" x1="277.036" y1="83.32" x2="283.648" y2="156.687" gradientUnits="userSpaceOnUse">
<stop stop-color="#AC99FF"/>
<stop offset="0.974132" stop-color="#703EFF"/>
</linearGradient>
<linearGradient id="paint5_linear_352_47702" x1="317.483" y1="97.837" x2="372.399" y2="163.902" gradientUnits="userSpaceOnUse">
<stop stop-color="#7BEE20"/>
<stop offset="1" stop-color="#039E13"/>
</linearGradient>
<linearGradient id="paint6_linear_352_47702" x1="266.966" y1="124.426" x2="242.328" y2="152.65" gradientUnits="userSpaceOnUse">
<stop stop-color="#2CD8FD"/>
<stop offset="1" stop-color="#0F83F7"/>
</linearGradient>
<linearGradient id="paint7_linear_352_47702" x1="235.271" y1="283.018" x2="234.319" y2="152.15" gradientUnits="userSpaceOnUse">
<stop stop-color="#FFB200"/>
<stop offset="0.99888" stop-color="#FFDF95"/>
</linearGradient>
<linearGradient id="paint8_linear_352_47702" x1="440.169" y1="283.018" x2="439.217" y2="152.15" gradientUnits="userSpaceOnUse">
<stop stop-color="#FFB200"/>
<stop offset="0.99888" stop-color="#FFDF95"/>
</linearGradient>
<linearGradient id="paint9_linear_352_47702" x1="235.271" y1="283.018" x2="234.32" y2="152.15" gradientUnits="userSpaceOnUse">
<stop stop-color="#FFB200"/>
<stop offset="0.99888" stop-color="#FFDF95"/>
</linearGradient>
<linearGradient id="paint10_linear_352_47702" x1="440.168" y1="283.018" x2="439.217" y2="152.15" gradientUnits="userSpaceOnUse">
<stop stop-color="#FFB200"/>
<stop offset="0.99888" stop-color="#FFDF95"/>
</linearGradient>
<linearGradient id="paint11_linear_352_47702" x1="276.673" y1="228.291" x2="276.673" y2="176.896" gradientUnits="userSpaceOnUse">
<stop stop-color="white" stop-opacity="0"/>
<stop offset="1" stop-color="white" stop-opacity="0.7"/>
</linearGradient>
<linearGradient id="paint12_linear_352_47702" x1="215.76" y1="233.05" x2="215.76" y2="181.655" gradientUnits="userSpaceOnUse">
<stop stop-color="white" stop-opacity="0"/>
<stop offset="1" stop-color="white" stop-opacity="0.7"/>
</linearGradient>
<linearGradient id="paint13_linear_352_47702" x1="420.418" y1="233.05" x2="420.418" y2="181.655" gradientUnits="userSpaceOnUse">
<stop stop-color="white" stop-opacity="0"/>
<stop offset="1" stop-color="white" stop-opacity="0.7"/>
</linearGradient>
<linearGradient id="paint14_linear_352_47702" x1="129.626" y1="255.893" x2="102.024" y2="255.893" gradientUnits="userSpaceOnUse">
<stop stop-color="white" stop-opacity="0"/>
<stop offset="1" stop-color="white" stop-opacity="0.7"/>
</linearGradient>
<linearGradient id="paint15_linear_352_47702" x1="134.384" y1="265.41" x2="192.442" y2="265.41" gradientUnits="userSpaceOnUse">
<stop stop-color="white" stop-opacity="0"/>
<stop offset="1" stop-color="white" stop-opacity="0.7"/>
</linearGradient>
<linearGradient id="paint16_linear_352_47702" x1="339.014" y1="265.41" x2="397.072" y2="265.41" gradientUnits="userSpaceOnUse">
<stop stop-color="white" stop-opacity="0"/>
<stop offset="1" stop-color="white" stop-opacity="0.7"/>
</linearGradient>
<linearGradient id="paint17_linear_352_47702" x1="140.094" y1="183.558" x2="102.024" y2="183.558" gradientUnits="userSpaceOnUse">
<stop stop-color="white" stop-opacity="0"/>
<stop offset="1" stop-color="white" stop-opacity="0.7"/>
</linearGradient>
<linearGradient id="paint18_linear_352_47702" x1="346.628" y1="183.558" x2="308.558" y2="183.558" gradientUnits="userSpaceOnUse">
<stop stop-color="white" stop-opacity="0"/>
<stop offset="1" stop-color="white" stop-opacity="0.7"/>
</linearGradient>
<linearGradient id="paint19_linear_352_47702" x1="336.159" y1="255.893" x2="308.557" y2="255.893" gradientUnits="userSpaceOnUse">
<stop stop-color="white" stop-opacity="0"/>
<stop offset="1" stop-color="white" stop-opacity="0.7"/>
</linearGradient>
<linearGradient id="paint20_linear_352_47702" x1="493.914" y1="215.918" x2="493.914" y2="267.314" gradientUnits="userSpaceOnUse">
<stop stop-color="white" stop-opacity="0"/>
<stop offset="1" stop-color="white" stop-opacity="0.7"/>
</linearGradient>
</defs>
</svg>
