<svg width="600" height="400" viewBox="0 0 600 400" fill="none" xmlns="http://www.w3.org/2000/svg">
<mask id="path-1-outside-1_483_25022" maskUnits="userSpaceOnUse" x="37" y="34.5254" width="554" height="323" fill="black">
<rect fill="white" x="37" y="34.5254" width="554" height="323"/>
<path fill-rule="evenodd" clip-rule="evenodd" d="M492.331 50.0131C496.513 40.9606 507.242 37.0123 516.295 41.1943C522.058 43.857 525.753 49.1735 526.597 55.0216L558.9 69.9449C564.013 72.3069 567.367 76.9254 568.324 82.0708L577.291 86.2132C578.584 86.8108 579.778 87.5615 580.853 88.4389C581.497 88.9645 582.096 89.5332 582.646 90.138L582.646 90.1388C587.011 94.9395 588.363 102.092 585.453 108.392L566.571 149.265C562.7 157.643 552.771 161.297 544.392 157.427L533.41 152.353L533.336 152.319L532.065 151.732C528.721 150.187 525.494 148.039 523.173 145.081C521.999 143.585 520.642 141.251 520.116 138.439L496.334 127.453L480.58 161.554H495.386C500.524 161.554 505.509 163.688 509.107 168.007C512.602 172.201 514 177.483 514 182.475V274.526C514 275.345 513.962 276.172 513.884 277H537C548.046 277 557 285.955 557 297V333C557 344.046 548.046 353 537 353H61C49.9543 353 41 344.046 41 333V297C41 285.955 49.9543 277 61 277H87.116C87.0376 276.172 87 275.345 87 274.526V263.204C87 258.289 88.3562 253.091 91.7346 248.929C88.3562 244.767 87 239.569 87 234.653V182.475C87 177.483 88.3984 172.201 91.8927 168.007C95.4913 163.688 100.476 161.554 105.614 161.554H120.175C120.13 160.436 120.108 159.312 120.108 158.183V130.598C120.108 84.6796 157.332 47.4553 203.25 47.4553C229.703 47.4553 253.259 59.813 268.476 79.036C273.779 76.4775 279.728 75.0404 286.006 75.0404C301.384 75.0404 314.755 83.6361 321.576 96.2851C324.087 94.6236 326.822 93.4173 329.652 92.6629C333.898 76.9481 348.255 65.3858 365.313 65.3858L403.932 65.3858C424.332 65.3858 440.87 81.9232 440.87 102.323C440.87 107.485 439.811 112.4 437.898 116.862C445.268 118.025 451.899 121.408 457.086 126.304L492.331 50.0131ZM230.958 254.373C230.956 254.395 230.953 254.418 230.95 254.44L230.958 254.373Z"/>
</mask>
<path fill-rule="evenodd" clip-rule="evenodd" d="M492.331 50.0131C496.513 40.9606 507.242 37.0123 516.295 41.1943C522.058 43.857 525.753 49.1735 526.597 55.0216L558.9 69.9449C564.013 72.3069 567.367 76.9254 568.324 82.0708L577.291 86.2132C578.584 86.8108 579.778 87.5615 580.853 88.4389C581.497 88.9645 582.096 89.5332 582.646 90.138L582.646 90.1388C587.011 94.9395 588.363 102.092 585.453 108.392L566.571 149.265C562.7 157.643 552.771 161.297 544.392 157.427L533.41 152.353L533.336 152.319L532.065 151.732C528.721 150.187 525.494 148.039 523.173 145.081C521.999 143.585 520.642 141.251 520.116 138.439L496.334 127.453L480.58 161.554H495.386C500.524 161.554 505.509 163.688 509.107 168.007C512.602 172.201 514 177.483 514 182.475V274.526C514 275.345 513.962 276.172 513.884 277H537C548.046 277 557 285.955 557 297V333C557 344.046 548.046 353 537 353H61C49.9543 353 41 344.046 41 333V297C41 285.955 49.9543 277 61 277H87.116C87.0376 276.172 87 275.345 87 274.526V263.204C87 258.289 88.3562 253.091 91.7346 248.929C88.3562 244.767 87 239.569 87 234.653V182.475C87 177.483 88.3984 172.201 91.8927 168.007C95.4913 163.688 100.476 161.554 105.614 161.554H120.175C120.13 160.436 120.108 159.312 120.108 158.183V130.598C120.108 84.6796 157.332 47.4553 203.25 47.4553C229.703 47.4553 253.259 59.813 268.476 79.036C273.779 76.4775 279.728 75.0404 286.006 75.0404C301.384 75.0404 314.755 83.6361 321.576 96.2851C324.087 94.6236 326.822 93.4173 329.652 92.6629C333.898 76.9481 348.255 65.3858 365.313 65.3858L403.932 65.3858C424.332 65.3858 440.87 81.9232 440.87 102.323C440.87 107.485 439.811 112.4 437.898 116.862C445.268 118.025 451.899 121.408 457.086 126.304L492.331 50.0131ZM230.958 254.373C230.956 254.395 230.953 254.418 230.95 254.44L230.958 254.373Z" fill="#441FE2"/>
<path d="M316.97 125.02L316.97 115.426L312.97 115.426L312.97 125.02L316.97 125.02ZM516.295 41.1943L517.972 37.5631V37.5631L516.295 41.1943ZM492.331 50.0131L495.962 51.6907V51.6906L492.331 50.0131ZM526.597 55.0216L522.638 55.5932C522.832 56.9335 523.69 58.0849 524.92 58.6529L526.597 55.0216ZM558.9 69.9449L560.578 66.3137V66.3137L558.9 69.9449ZM568.324 82.0708L564.392 82.8028C564.629 84.0775 565.47 85.1582 566.647 85.702L568.324 82.0708ZM577.291 86.2132L575.613 89.8444L575.613 89.8445L577.291 86.2132ZM580.853 88.4389L578.324 91.5376L578.324 91.5377L580.853 88.4389ZM582.646 90.138L579.686 92.8289C579.693 92.8371 579.701 92.8452 579.708 92.8533L582.646 90.138ZM582.646 90.1388L585.606 87.4479C585.598 87.4397 585.591 87.4316 585.584 87.4235L582.646 90.1388ZM585.453 108.392L581.822 106.714L585.453 108.392ZM566.571 149.265L562.939 147.588V147.588L566.571 149.265ZM544.392 157.427L542.715 161.058L544.392 157.427ZM533.41 152.353L531.723 155.98L531.733 155.985L533.41 152.353ZM533.336 152.319L535.022 148.692L535.013 148.688L533.336 152.319ZM532.065 151.732L530.387 155.363L530.387 155.363L532.065 151.732ZM523.173 145.081L520.026 147.55V147.55L523.173 145.081ZM520.116 138.439L524.048 137.704C523.81 136.431 522.97 135.352 521.794 134.808L520.116 138.439ZM496.334 127.453L498.012 123.822C497.049 123.377 495.949 123.333 494.953 123.699C493.957 124.065 493.148 124.812 492.703 125.775L496.334 127.453ZM480.58 161.554L476.949 159.876C476.377 161.115 476.476 162.56 477.211 163.709C477.946 164.859 479.216 165.554 480.58 165.554V161.554ZM509.107 168.007L512.18 165.447L512.18 165.447L509.107 168.007ZM513.884 277L509.902 276.623C509.796 277.745 510.167 278.859 510.925 279.692C511.683 280.525 512.758 281 513.884 281V277ZM87.116 277V281C88.2424 281 89.3166 280.525 90.0746 279.692C90.8327 278.859 91.2043 277.745 91.0982 276.624L87.116 277ZM91.7346 248.929L94.8402 251.45C96.0327 249.981 96.0327 247.877 94.8402 246.408L91.7346 248.929ZM91.8927 168.007L88.8197 165.447H88.8197L91.8927 168.007ZM120.175 161.554V165.554C121.263 165.554 122.305 165.11 123.059 164.326C123.813 163.541 124.215 162.482 124.172 161.395L120.175 161.554ZM268.476 79.036L265.34 81.5187C266.502 82.987 268.528 83.4524 270.214 82.6386L268.476 79.036ZM321.576 96.2851L318.055 98.1837C318.589 99.1724 319.513 99.8914 320.603 100.165C321.692 100.438 322.847 100.241 323.783 99.621L321.576 96.2851ZM329.652 92.6629L330.682 96.5279C332.062 96.1601 333.141 95.0848 333.513 93.7064L329.652 92.6629ZM365.313 65.3858V61.3858V65.3858ZM403.932 65.3858V61.3858V65.3858ZM437.898 116.862L434.222 115.287C433.735 116.421 433.8 117.716 434.397 118.797C434.994 119.877 436.056 120.621 437.275 120.814L437.898 116.862ZM457.086 126.304L454.34 129.213C455.276 130.097 456.58 130.476 457.844 130.232C459.108 129.988 460.178 129.151 460.718 127.982L457.086 126.304ZM230.95 254.44L226.979 253.959C226.714 256.152 228.277 258.145 230.469 258.411C232.662 258.676 234.655 257.114 234.921 254.921L230.95 254.44ZM230.958 254.373L234.93 254.852C235.194 252.659 233.631 250.667 231.438 250.402C229.245 250.138 227.252 251.7 226.987 253.893L230.958 254.373ZM517.972 37.5631C506.914 32.4546 493.808 37.2775 488.7 48.3356L495.962 51.6906C499.218 44.6436 507.57 41.57 514.617 44.8256L517.972 37.5631ZM530.556 54.45C529.526 47.3184 525.016 40.8174 517.972 37.5631L514.617 44.8256C519.1 46.8966 521.979 51.0286 522.638 55.5932L530.556 54.45ZM560.578 66.3137L528.275 51.3904L524.92 58.6529L557.223 73.5761L560.578 66.3137ZM572.257 81.3388C571.072 74.9734 566.917 69.2424 560.578 66.3137L557.223 73.5761C561.109 75.3714 563.661 78.8774 564.392 82.8028L572.257 81.3388ZM578.969 82.582L570.002 78.4396L566.647 85.702L575.613 89.8444L578.969 82.582ZM583.383 85.3401C582.049 84.2519 580.57 83.3217 578.968 82.5819L575.613 89.8445C576.599 90.2999 577.507 90.8711 578.324 91.5376L583.383 85.3401ZM585.605 87.447C584.923 86.6969 584.181 85.9918 583.382 85.34L578.324 91.5377C578.814 91.9373 579.268 92.3694 579.686 92.8289L585.605 87.447ZM585.584 87.4235L585.583 87.4227L579.708 92.8533L579.709 92.8541L585.584 87.4235ZM589.084 110.069C592.694 102.255 591.01 93.3914 585.606 87.4479L579.687 92.8298C583.013 96.4876 584.032 101.93 581.822 106.714L589.084 110.069ZM570.202 150.943L589.084 110.069L581.822 106.714L562.939 147.588L570.202 150.943ZM542.715 161.058C553.099 165.855 565.405 161.326 570.202 150.943L562.939 147.588C559.995 153.96 552.443 156.74 546.07 153.796L542.715 161.058ZM531.649 155.946L531.723 155.98L535.097 148.726L535.022 148.692L531.649 155.946ZM530.387 155.363L531.658 155.95L535.013 148.688L533.742 148.1L530.387 155.363ZM520.026 147.55C522.865 151.168 526.691 153.655 530.387 155.363L533.743 148.1C530.751 146.719 528.123 144.909 526.32 142.611L520.026 147.55ZM516.184 139.175C516.858 142.78 518.57 145.695 520.026 147.55L526.32 142.611C525.428 141.475 524.425 139.722 524.048 137.704L516.184 139.175ZM494.657 131.084L518.439 142.071L521.794 134.808L498.012 123.822L494.657 131.084ZM484.212 163.232L499.966 129.13L492.703 125.775L476.949 159.876L484.212 163.232ZM495.386 157.554H480.58V165.554H495.386V157.554ZM512.18 165.447C507.793 160.181 501.665 157.554 495.386 157.554V165.554C499.382 165.554 503.224 167.196 506.034 170.568L512.18 165.447ZM518 182.475C518 176.781 516.407 170.52 512.18 165.447L506.034 170.568C508.796 173.882 510 178.186 510 182.475H518ZM518 274.526V182.475H510V274.526H518ZM517.866 277.377C517.957 276.42 518 275.467 518 274.526H510C510 275.223 509.968 275.924 509.902 276.623L517.866 277.377ZM513.884 281H537V273H513.884V281ZM537 281C545.837 281 553 288.164 553 297H561C561 283.745 550.255 273 537 273V281ZM553 297V333H561V297H553ZM553 333C553 341.837 545.837 349 537 349V357C550.255 357 561 346.255 561 333H553ZM537 349H61V357H537V349ZM61 349C52.1634 349 45 341.837 45 333H37C37 346.255 47.7451 357 61 357V349ZM45 333V297H37V333H45ZM45 297C45 288.164 52.1634 281 61 281V273C47.7451 273 37 283.745 37 297H45ZM61 281H87.116V273H61V281ZM83 274.526C83 275.467 83.0432 276.42 83.1338 277.377L91.0982 276.624C91.032 275.924 91 275.222 91 274.526H83ZM83 263.204V274.526H91V263.204H83ZM88.6289 246.408C84.5444 251.44 83 257.596 83 263.204H91C91 258.981 92.1679 254.742 94.8402 251.45L88.6289 246.408ZM83 234.653C83 240.262 84.5444 246.418 88.6289 251.45L94.8402 246.408C92.1679 243.116 91 238.876 91 234.653H83ZM83 182.475V234.653H91V182.475H83ZM88.8197 165.447C84.5926 170.519 83 176.781 83 182.475H91C91 178.186 92.2043 173.882 94.9657 170.568L88.8197 165.447ZM105.614 157.554C99.3347 157.554 93.207 160.181 88.8197 165.447L94.9657 170.568C97.7756 167.196 101.618 165.554 105.614 165.554V157.554ZM120.175 157.554H105.614V165.554H120.175V157.554ZM116.108 158.183C116.108 159.365 116.131 160.542 116.178 161.713L124.172 161.395C124.129 160.33 124.108 159.259 124.108 158.183H116.108ZM116.108 130.598V158.183H124.108V130.598H116.108ZM203.25 43.4553C155.123 43.4553 116.108 82.4704 116.108 130.598H124.108C124.108 86.8887 159.541 51.4553 203.25 51.4553V43.4553ZM271.613 76.5533C255.67 56.4139 230.978 43.4553 203.25 43.4553V51.4553C228.428 51.4553 250.848 63.2121 265.34 81.5187L271.613 76.5533ZM286.006 71.0404C279.112 71.0404 272.57 72.6197 266.738 75.4334L270.214 82.6386C274.988 80.3354 280.344 79.0404 286.006 79.0404V71.0404ZM325.097 94.3866C317.606 80.4949 302.913 71.0404 286.006 71.0404V79.0404C299.856 79.0404 311.905 86.7772 318.055 98.1837L325.097 94.3866ZM328.621 88.7979C325.386 89.6603 322.252 91.0416 319.369 92.9493L323.783 99.621C325.922 98.2057 328.258 97.1742 330.682 96.5279L328.621 88.7979ZM365.313 61.3858C346.403 61.3858 330.496 74.2043 325.79 91.6194L333.513 93.7064C337.3 79.6919 350.108 69.3858 365.313 69.3858V61.3858ZM403.932 61.3858L365.313 61.3858V69.3858L403.932 69.3858V61.3858ZM444.87 102.323C444.87 79.7141 426.541 61.3858 403.932 61.3858V69.3858C422.123 69.3858 436.87 84.1324 436.87 102.323H444.87ZM441.575 118.438C443.697 113.487 444.87 108.037 444.87 102.323H436.87C436.87 106.934 435.925 111.313 434.222 115.287L441.575 118.438ZM459.832 123.396C454.077 117.963 446.712 114.203 438.521 112.911L437.275 120.814C443.824 121.846 449.722 124.852 454.34 129.213L459.832 123.396ZM488.7 48.3356L453.455 124.627L460.718 127.982L495.962 51.6907L488.7 48.3356ZM226.987 253.895C226.984 253.915 226.982 253.936 226.979 253.958L234.921 254.921C234.924 254.899 234.927 254.875 234.93 254.852L226.987 253.895ZM531.733 155.985L542.715 161.058L546.07 153.796L535.088 148.722L531.733 155.985ZM234.921 254.92L234.929 254.854L226.987 253.893L226.979 253.959L234.921 254.92Z" fill="#FFAA05" mask="url(#path-1-outside-1_483_25022)"/>
<g filter="url(#filter0_di_483_25022)">
<rect x="457.034" y="127.841" width="49.6533" height="113.099" rx="24.8266" transform="rotate(90 457.034 127.841)" fill="url(#paint0_linear_483_25022)"/>
</g>
<g filter="url(#filter1_di_483_25022)">
<rect x="429.432" y="76.9609" width="56.1544" height="89.4662" rx="28.0772" transform="rotate(90 429.432 76.9609)" fill="url(#paint1_linear_483_25022)"/>
</g>
<rect x="390.41" y="91.2373" width="8.56592" height="11.4212" rx="4.28296" fill="#5818DF"/>
<rect x="403.735" y="91.2373" width="8.56592" height="11.4212" rx="4.28296" fill="#5818DF"/>
<g filter="url(#filter2_di_483_25022)">
<path d="M322.793 111.3C329.001 100.413 344.696 100.413 350.904 111.3L373.057 150.148C379.207 160.934 371.418 174.343 359.001 174.343H314.697C302.28 174.343 294.491 160.934 300.641 150.148L322.793 111.3Z" fill="url(#paint2_linear_483_25022)"/>
</g>
<g filter="url(#filter3_di_483_25022)">
<rect x="131.529" y="58.877" width="143.443" height="171.028" rx="71.7214" fill="url(#paint3_linear_483_25022)"/>
</g>
<rect x="155.323" y="112.176" width="13.3248" height="18.0836" rx="6.66238" fill="#5818DF"/>
<rect x="177.214" y="112.176" width="13.3248" height="18.0836" rx="6.66238" fill="#5818DF"/>
<g filter="url(#filter4_di_483_25022)">
<rect x="257.041" y="86.4619" width="57.9288" height="168.269" rx="28.9644" fill="url(#paint4_linear_483_25022)"/>
</g>
<rect x="279.053" y="109.32" width="8.56592" height="11.4212" rx="4.28296" fill="#5818DF"/>
<rect x="292.378" y="109.32" width="8.56592" height="11.4212" rx="4.28296" fill="#5818DF"/>
<g filter="url(#filter5_i_483_25022)">
<rect x="207.388" y="119.564" width="62.0666" height="79.997" rx="19.3096" fill="url(#paint5_linear_483_25022)"/>
</g>
<rect x="221.947" y="135.971" width="8.56592" height="11.4212" rx="4.28296" fill="#5818DF"/>
<rect x="235.271" y="135.971" width="8.56592" height="11.4212" rx="4.28296" fill="#5818DF"/>
<rect x="318.076" y="130.26" width="8.56592" height="11.4212" rx="4.28296" fill="#5818DF"/>
<rect x="331.4" y="130.26" width="8.56592" height="11.4212" rx="4.28296" fill="#5818DF"/>
<rect x="505.276" y="48.2207" width="14.1113" height="167.228" rx="7.05567" transform="rotate(24.7958 505.276 48.2207)" fill="#7E61FF"/>
<path d="M505.834 63.8375C507.157 60.9743 510.55 59.7256 513.413 61.0483L554.286 79.9308C557.15 81.2535 558.398 84.6468 557.076 87.5099L535.798 133.567L489.741 112.29C486.878 110.967 485.629 107.574 486.952 104.711L505.834 63.8375Z" fill="#633FFE"/>
<path d="M556.511 88.7305L572.678 96.199C575.541 97.5217 576.79 100.915 575.467 103.778L556.584 144.651C555.262 147.515 551.868 148.763 549.005 147.441L538.023 142.367C535.16 141.044 533.911 137.651 535.234 134.788L556.511 88.7305Z" fill="url(#paint6_linear_483_25022)"/>
<path d="M520.817 126.232L503.93 118.43L528.054 88.0197L552.36 86.8129L572.678 96.1994C575.541 97.5221 576.79 100.915 575.467 103.778L556.584 144.652C555.262 147.515 551.869 148.764 549.005 147.441L536.678 141.746C531.934 139.554 530.348 136.879 531.088 135.277C532.725 131.733 523.98 127.693 520.817 126.232Z" fill="#633FFE"/>
<rect x="114" y="136" width="361" height="141" fill="url(#paint7_linear_483_25022)"/>
<rect x="428.48" y="202.594" width="22.8424" height="51.3955" fill="#E7008A"/>
<rect x="461.793" y="202.594" width="22.8424" height="51.3955" fill="#E7008A"/>
<rect x="226.706" y="202.594" width="51.3955" height="51.3955" fill="#E7008A"/>
<g filter="url(#filter6_dii_483_25022)">
<path d="M195.564 255.432V265.939C195.564 270.736 192.708 273.934 188.368 273.934H107.049C102.709 273.934 99.8537 270.736 99.8537 265.939V255.432C99.8537 250.635 102.709 247.437 107.049 247.437H128.635V236.929H107.049C102.709 236.929 99.8537 233.731 99.8537 228.935V180.509C99.8537 175.712 102.709 172.514 107.049 172.514H188.368C192.708 172.514 195.564 175.712 195.564 180.509V228.935C195.564 233.731 192.708 236.929 188.368 236.929H166.782V247.437H188.368C192.708 247.437 195.564 250.635 195.564 255.432ZM131.376 206.625C131.376 208.728 133.081 210.432 135.183 210.432H160.234C162.336 210.432 164.041 208.728 164.041 206.625V202.818C164.041 200.715 162.336 199.011 160.234 199.011H135.183C133.081 199.011 131.376 200.715 131.376 202.818V206.625Z" fill="url(#paint8_linear_483_25022)"/>
</g>
<g filter="url(#filter7_dii_483_25022)">
<path d="M400.461 255.432V265.939C400.461 270.736 397.605 273.934 393.265 273.934H311.946C307.606 273.934 304.751 270.736 304.751 265.939V255.432C304.751 250.635 307.606 247.437 311.946 247.437H333.532V236.929H311.946C307.606 236.929 304.751 233.731 304.751 228.935V180.509C304.751 175.712 307.606 172.514 311.946 172.514H393.265C397.605 172.514 400.461 175.712 400.461 180.509V228.935C400.461 233.731 397.605 236.929 393.265 236.929H371.679V247.437H393.265C397.605 247.437 400.461 250.635 400.461 255.432ZM336.273 206.625C336.273 208.728 337.978 210.432 340.081 210.432H365.131C367.234 210.432 368.938 208.728 368.938 206.625V202.818C368.938 200.715 367.234 199.011 365.131 199.011H340.081C337.978 199.011 336.273 200.715 336.273 202.818V206.625Z" fill="url(#paint9_linear_483_25022)"/>
</g>
<g filter="url(#filter8_dii_483_25022)">
<path d="M268.476 187.133V180.509C268.476 175.712 271.331 172.514 275.671 172.514H291.204C295.544 172.514 298.399 175.712 298.399 180.509V265.94C298.399 270.736 295.544 273.934 291.204 273.934H275.671C271.331 273.934 268.476 270.736 268.476 265.94V258.173H264.021C261.395 266.396 255.456 273.249 246.319 273.934C236.953 274.62 231.814 274.62 222.562 273.934C210.342 273.021 202.918 261.714 202.461 250.178C201.547 227.336 201.547 219.113 202.461 196.27C202.918 184.735 210.342 173.428 222.562 172.514C231.814 171.829 236.953 171.829 246.319 172.514C255.113 173.199 260.824 179.367 263.565 187.133H268.476ZM231.796 244.504C231.615 246.059 232.822 247.437 234.388 247.437C235.684 247.437 236.783 246.481 236.945 245.195C238.834 230.233 238.834 216.215 236.945 201.253C236.783 199.968 235.684 199.011 234.388 199.011C232.822 199.011 231.615 200.389 231.796 201.945C233.482 216.418 233.482 230.031 231.796 244.504ZM265.162 228.59C265.145 229.657 266.003 230.534 267.07 230.534H267.524C268.575 230.534 269.428 229.682 269.428 228.63V216.676C269.428 215.625 268.575 214.772 267.524 214.772H267.069C266.002 214.772 265.144 215.649 265.162 216.716C265.228 220.782 265.228 224.59 265.162 228.59Z" fill="url(#paint10_linear_483_25022)"/>
</g>
<g filter="url(#filter9_dii_483_25022)">
<path d="M473.373 187.133V180.509C473.373 175.712 476.228 172.514 480.568 172.514H496.101C500.441 172.514 503.296 175.712 503.296 180.509V265.94C503.296 270.736 500.441 273.934 496.101 273.934H480.568C476.228 273.934 473.373 270.736 473.373 265.94V258.173H468.918C466.292 266.396 460.353 273.249 451.216 273.934C441.85 274.62 436.711 274.62 427.459 273.934C415.239 273.021 407.815 261.714 407.358 250.178C406.444 227.336 406.444 219.113 407.358 196.27C407.815 184.735 415.239 173.428 427.459 172.514C436.711 171.829 441.85 171.829 451.216 172.514C460.01 173.199 465.721 179.367 468.462 187.133H473.373ZM436.693 244.504C436.512 246.059 437.719 247.437 439.285 247.437C440.581 247.437 441.68 246.481 441.842 245.195C443.731 230.233 443.731 216.215 441.842 201.253C441.68 199.968 440.581 199.011 439.285 199.011C437.719 199.011 436.512 200.389 436.693 201.945C438.379 216.418 438.379 230.031 436.693 244.504ZM470.059 228.59C470.042 229.657 470.9 230.534 471.967 230.534H472.421C473.472 230.534 474.325 229.682 474.325 228.63V216.676C474.325 215.625 473.472 214.772 472.421 214.772H471.966C470.899 214.772 470.041 215.649 470.059 216.716C470.124 220.782 470.125 224.59 470.059 228.59Z" fill="url(#paint11_linear_483_25022)"/>
</g>
<g filter="url(#filter10_f_483_25022)">
<path d="M276.197 176.896L279.978 176.896C280.375 176.896 280.62 177.368 280.413 177.707C279.72 178.845 278.527 181.159 277.841 184.51C277.063 188.317 272.39 228.291 272.39 228.291L272.39 180.703C272.39 178.6 274.095 176.896 276.197 176.896Z" fill="url(#paint12_linear_483_25022)"/>
</g>
<g filter="url(#filter11_f_483_25022)">
<path d="M480.807 177L484.587 177C484.984 177 485.229 177.473 485.023 177.812C484.329 178.95 483.136 181.263 482.451 184.614C481.672 188.421 477 228.396 477 228.396L477 180.807C477 178.704 478.704 177 480.807 177Z" fill="url(#paint13_linear_483_25022)"/>
</g>
<g filter="url(#filter12_f_483_25022)">
<path d="M216.928 180.227C219.907 178.185 227.23 177.87 230.629 177.839C231.117 177.834 231.284 178.478 230.862 178.723C227.235 180.828 218.291 186.386 215.284 191.648C208.997 202.65 207.843 214.533 207.67 219.994L207.67 223.057C207.67 223.057 207.608 221.928 207.67 219.994L207.67 204.973C207.67 195.931 209.263 185.482 216.928 180.227Z" fill="url(#paint14_linear_483_25022)"/>
</g>
<g filter="url(#filter13_f_483_25022)">
<path d="M421.587 180.227C424.565 178.185 431.888 177.87 435.287 177.839C435.775 177.834 435.942 178.478 435.52 178.723C431.893 180.828 422.949 186.386 419.942 191.648C413.655 202.65 412.502 214.533 412.328 219.994L412.328 223.057C412.328 223.057 412.267 221.928 412.328 219.994L412.328 204.973C412.328 195.931 413.921 185.482 421.587 180.227Z" fill="url(#paint15_linear_483_25022)"/>
</g>
<g filter="url(#filter14_f_483_25022)">
<path d="M102.024 254.941L102.024 258.971C102.024 259.451 102.743 259.69 103.074 259.343C103.766 258.617 104.789 257.751 106.113 257.19C108.158 256.325 129.626 251.134 129.626 251.134L105.831 251.134C103.729 251.134 102.024 252.838 102.024 254.941Z" fill="url(#paint16_linear_483_25022)"/>
</g>
<g filter="url(#filter15_f_483_25022)">
<path d="M192.442 266.362L192.442 261.62C192.442 261.225 191.975 260.98 191.637 261.187C190.396 261.945 187.74 263.328 183.84 264.112C179.54 264.978 134.384 270.169 134.384 270.169L188.635 270.169C190.737 270.169 192.442 268.465 192.442 266.362Z" fill="url(#paint17_linear_483_25022)" fill-opacity="0.5"/>
</g>
<g filter="url(#filter16_f_483_25022)">
<path d="M397.072 266.362L397.072 261.62C397.072 261.225 396.605 260.98 396.268 261.187C395.026 261.945 392.371 263.328 388.471 264.112C384.17 264.978 339.014 270.169 339.014 270.169L393.265 270.169C395.368 270.169 397.072 268.465 397.072 266.362Z" fill="url(#paint18_linear_483_25022)" fill-opacity="0.5"/>
</g>
<g filter="url(#filter17_f_483_25022)">
<path d="M104.023 180.703L104.023 188.519C104.023 189 104.731 189.229 105.045 188.864C105.98 187.776 107.541 186.287 109.664 185.375C112.484 184.164 142.094 176.896 142.094 176.896L107.831 176.896C105.728 176.896 104.023 178.6 104.023 180.703Z" fill="url(#paint19_linear_483_25022)"/>
</g>
<g filter="url(#filter18_f_483_25022)">
<path d="M308.558 180.703L308.558 188.519C308.558 189 309.265 189.229 309.579 188.864C310.514 187.776 312.075 186.287 314.198 185.375C317.018 184.164 346.628 176.896 346.628 176.896L312.365 176.896C310.262 176.896 308.558 178.6 308.558 180.703Z" fill="url(#paint20_linear_483_25022)"/>
</g>
<g filter="url(#filter19_f_483_25022)">
<path d="M308.557 254.941L308.557 258.971C308.557 259.451 309.276 259.69 309.607 259.343C310.298 258.617 311.321 257.751 312.646 257.19C314.691 256.325 336.158 251.134 336.158 251.134L312.364 251.134C310.262 251.134 308.557 252.838 308.557 254.941Z" fill="url(#paint21_linear_483_25022)"/>
</g>
<g filter="url(#filter20_f_483_25022)">
<path d="M494.628 267.313H492.809C492.108 267.313 491.616 266.569 491.84 265.905C492.266 264.64 492.845 262.543 493.2 259.699C493.676 255.892 496.532 215.918 496.532 215.918V265.41C496.532 266.461 495.679 267.313 494.628 267.313Z" fill="url(#paint22_linear_483_25022)"/>
</g>
<g filter="url(#filter21_f_483_25022)">
<path d="M290.331 267.313H288.512C287.811 267.313 287.319 266.569 287.543 265.905C287.969 264.64 288.548 262.543 288.903 259.699C289.379 255.892 292.235 215.918 292.235 215.918V265.41C292.235 266.461 291.382 267.313 290.331 267.313Z" fill="url(#paint23_linear_483_25022)"/>
</g>
<path d="M88.5312 300.449H94.1602V318.761H88.5312V300.449ZM80.8715 318.44V309.498H74.7081V304.439H80.8715V300.591H86.4292V318.44H80.8715ZM79.3752 316.623C77.5582 317.3 74.3162 317.621 71.7511 317.621H64.4121V300.627H70.1123V312.669H72.2855C74.6725 312.669 77.5226 312.348 79.3752 311.742V316.623ZM66.0153 324.995V319.829H94.1602V331.23H88.2106V324.995H66.0153Z" fill="#FFC339"/>
<path d="M112.612 312.027C109.085 316.801 103.848 319.829 98.0404 319.865V314.165C104.097 314.129 109.726 308.5 110.83 300.342L116.958 301.304C116.673 303.441 116.103 305.436 115.284 307.325L128.252 315.127L125.081 320.008L112.612 312.027ZM97.4348 329.805V324.176H128.216V329.805H97.4348Z" fill="#FFC339"/>
<path d="M154.541 300.449H160.562V330.874H154.541V317.336H150.195V311.707H154.541V300.449ZM138.224 323.927H143.996C146.881 323.927 150.016 323.357 151.869 322.466V327.988C150.016 328.914 146.917 329.449 143.996 329.449H132.203V301.161H149.696V306.683H138.224V312.455H148.271V317.941H138.224V323.927Z" fill="#FFC339"/>
<path d="M179.94 313.702C176.519 317.549 171.211 319.829 165.582 319.865V314.343C170.641 314.236 175.344 311.422 176.983 306.683H166.117V301.161H193.763V306.683H183.609C183.395 307.503 183.146 308.322 182.861 309.07L195.045 315.269L192.231 320.115L179.94 313.702ZM164.549 324.176H195.33V329.805H164.549V324.176Z" fill="#FFC339"/>
<path d="M226.866 306.933H230.928V300.449H236.949V323H230.928V312.17H226.866V306.933ZM218.245 313.559C215.893 316.73 212.26 319.01 207.913 319.117V313.666C212.01 313.345 214.575 309.818 215.11 305.935H208.341V300.805H227.721V305.935H221.166C221.095 306.897 220.917 307.859 220.632 308.785L229.04 314.592L225.655 318.868L218.245 313.559ZM215.858 325.494H237.376V330.874H209.73V320.221H215.858V325.494Z" fill="#FFC339"/>
<path d="M273.071 308.287H269.508V310.78H273.071V315.875H269.508V319.402H263.487V300.449H269.508V303.192H273.071V308.287ZM241.613 307.538H253.833V305.436H241.541V300.805H259.782V311.885H247.562V314.022H255.044C257.787 314.022 260.459 313.63 262.062 312.954V317.549C260.495 318.226 257.68 318.654 254.83 318.654H241.613V307.538ZM242.503 325.494V320.471H269.508V331.23H263.38V325.494H242.503Z" fill="#FFC339"/>
<path d="M298.006 300.449H304.027V318.903H298.006V311.92H293.981V306.755H298.006V300.449ZM285.288 313.239C282.936 316.231 279.338 318.369 275.027 318.476V313.06C279.124 312.775 281.689 309.427 282.188 305.864H275.455V300.805H294.836V305.864H288.28C288.209 306.79 288.031 307.681 287.746 308.572L296.047 313.88L292.876 318.226L285.288 313.239ZM276.666 325.138V319.972H304.027V331.23H297.9V325.138H276.666Z" fill="#FFC339"/>
<path d="M340.729 300.449H346.75V318.191H340.729V300.449ZM339.126 316.587C337.523 317.264 334.566 317.656 331.716 317.656H318.32V300.805H337.345V305.365H324.27V307.111H336.739V311.35H324.27V313.096H332.108C334.851 313.096 337.523 312.704 339.126 312.099V316.587ZM319.531 330.874V319.259H346.75V330.874H319.531ZM325.517 323.962V326.171H340.765V323.962H325.517Z" fill="#FFC339"/>
<path d="M389.58 300.449V315.697H383.559V300.449H389.58ZM380.032 300.805V315.056H361.15V300.805H367.028V303.299H374.154V300.805H380.032ZM367.028 310.353H374.154V307.859H367.028V310.353ZM368.311 326.848H389.9V330.874H362.397V321.967H383.666V320.791H362.326V316.766H389.58V325.672H368.311V326.848Z" fill="#FFC339"/>
<path d="M423.137 300.449V317.193H417.116V300.449H423.137ZM413.945 300.805V305.757H400.764V311.03H408.673C411.416 311.03 414.088 310.638 415.691 309.961V314.913C414.123 315.59 411.451 315.982 408.601 315.982H394.707V300.805H413.945ZM409.528 317.621C417.294 317.621 423.422 319.366 423.422 324.425C423.422 329.484 417.294 331.23 409.528 331.23C401.761 331.23 395.633 329.484 395.633 324.425C395.633 319.366 401.761 317.621 409.528 317.621ZM409.528 322.43C405.431 322.43 402.117 323 402.117 324.425C402.117 325.886 405.431 326.42 409.528 326.42C413.625 326.42 416.938 325.886 416.938 324.425C416.938 323 413.625 322.43 409.528 322.43Z" fill="#FFC339"/>
<path d="M460.088 300.449H466.109V330.874H460.088V315.911H453.676V310.282H460.088V300.449ZM450.398 301.268C450.398 305.294 450.113 308.963 449.543 312.241L458.378 326.207L453.212 329.413L447.477 319.794C445.018 325.957 441.171 329.413 436.539 329.449V323.178C441.206 322.644 444.27 313.773 444.27 301.054L450.398 301.268Z" fill="#FFC339"/>
<path d="M493.467 300.449H499.488V330.874H493.467V300.449ZM483.563 310.103V301.161H489.477V329.449H471.45V301.161H477.364V310.103H483.563ZM477.364 323.927H483.563V315.59H477.364V323.927Z" fill="#FFC339"/>
<path d="M518.83 312.027C515.303 316.801 510.066 319.829 504.259 319.865V314.165C510.316 314.129 515.945 308.5 517.049 300.342L523.177 301.304C522.892 303.441 522.322 305.436 521.502 307.325L534.47 315.127L531.3 320.008L518.83 312.027ZM503.653 329.805V324.176H534.435V329.805H503.653Z" fill="#FFC339"/>
<defs>
<filter id="filter0_di_483_25022" x="316.349" y="105.773" width="168.269" height="104.824" filterUnits="userSpaceOnUse" color-interpolation-filters="sRGB">
<feFlood flood-opacity="0" result="BackgroundImageFix"/>
<feColorMatrix in="SourceAlpha" type="matrix" values="0 0 0 0 0 0 0 0 0 0 0 0 0 0 0 0 0 0 127 0" result="hardAlpha"/>
<feOffset dy="5.51703"/>
<feGaussianBlur stdDeviation="13.7926"/>
<feComposite in2="hardAlpha" operator="out"/>
<feColorMatrix type="matrix" values="0 0 0 0 0.0980392 0 0 0 0 0.121569 0 0 0 0 0.176471 0 0 0 0.3 0"/>
<feBlend mode="normal" in2="BackgroundImageFix" result="effect1_dropShadow_483_25022"/>
<feBlend mode="normal" in="SourceGraphic" in2="effect1_dropShadow_483_25022" result="shape"/>
<feColorMatrix in="SourceAlpha" type="matrix" values="0 0 0 0 0 0 0 0 0 0 0 0 0 0 0 0 0 0 127 0" result="hardAlpha"/>
<feOffset dx="5.51703" dy="5.51703"/>
<feGaussianBlur stdDeviation="8.27555"/>
<feComposite in2="hardAlpha" operator="arithmetic" k2="-1" k3="1"/>
<feColorMatrix type="matrix" values="0 0 0 0 1 0 0 0 0 1 0 0 0 0 1 0 0 0 0.25 0"/>
<feBlend mode="normal" in2="shape" result="effect2_innerShadow_483_25022"/>
</filter>
<filter id="filter1_di_483_25022" x="312.381" y="54.8928" width="144.637" height="111.325" filterUnits="userSpaceOnUse" color-interpolation-filters="sRGB">
<feFlood flood-opacity="0" result="BackgroundImageFix"/>
<feColorMatrix in="SourceAlpha" type="matrix" values="0 0 0 0 0 0 0 0 0 0 0 0 0 0 0 0 0 0 127 0" result="hardAlpha"/>
<feOffset dy="5.51703"/>
<feGaussianBlur stdDeviation="13.7926"/>
<feComposite in2="hardAlpha" operator="out"/>
<feColorMatrix type="matrix" values="0 0 0 0 0.0980392 0 0 0 0 0.121569 0 0 0 0 0.176471 0 0 0 0.3 0"/>
<feBlend mode="normal" in2="BackgroundImageFix" result="effect1_dropShadow_483_25022"/>
<feBlend mode="normal" in="SourceGraphic" in2="effect1_dropShadow_483_25022" result="shape"/>
<feColorMatrix in="SourceAlpha" type="matrix" values="0 0 0 0 0 0 0 0 0 0 0 0 0 0 0 0 0 0 127 0" result="hardAlpha"/>
<feOffset dx="5.51703" dy="5.51703"/>
<feGaussianBlur stdDeviation="8.27555"/>
<feComposite in2="hardAlpha" operator="arithmetic" k2="-1" k3="1"/>
<feColorMatrix type="matrix" values="0 0 0 0 1 0 0 0 0 1 0 0 0 0 1 0 0 0 0.25 0"/>
<feBlend mode="normal" in2="shape" result="effect2_innerShadow_483_25022"/>
</filter>
<filter id="filter2_di_483_25022" x="243.323" y="53.4815" width="187.053" height="181.549" filterUnits="userSpaceOnUse" color-interpolation-filters="sRGB">
<feFlood flood-opacity="0" result="BackgroundImageFix"/>
<feColorMatrix in="SourceAlpha" type="matrix" values="0 0 0 0 0 0 0 0 0 0 0 0 0 0 0 0 0 0 127 0" result="hardAlpha"/>
<feOffset dy="5.51703"/>
<feGaussianBlur stdDeviation="27.5852"/>
<feComposite in2="hardAlpha" operator="out"/>
<feColorMatrix type="matrix" values="0 0 0 0 0.0980392 0 0 0 0 0.121569 0 0 0 0 0.176471 0 0 0 0.3 0"/>
<feBlend mode="normal" in2="BackgroundImageFix" result="effect1_dropShadow_483_25022"/>
<feBlend mode="normal" in="SourceGraphic" in2="effect1_dropShadow_483_25022" result="shape"/>
<feColorMatrix in="SourceAlpha" type="matrix" values="0 0 0 0 0 0 0 0 0 0 0 0 0 0 0 0 0 0 127 0" result="hardAlpha"/>
<feOffset dx="5.51703" dy="5.51703"/>
<feGaussianBlur stdDeviation="8.27555"/>
<feComposite in2="hardAlpha" operator="arithmetic" k2="-1" k3="1"/>
<feColorMatrix type="matrix" values="0 0 0 0 1 0 0 0 0 1 0 0 0 0 1 0 0 0 0.25 0"/>
<feBlend mode="normal" in2="shape" result="effect2_innerShadow_483_25022"/>
</filter>
<filter id="filter3_di_483_25022" x="103.944" y="36.8088" width="198.613" height="226.199" filterUnits="userSpaceOnUse" color-interpolation-filters="sRGB">
<feFlood flood-opacity="0" result="BackgroundImageFix"/>
<feColorMatrix in="SourceAlpha" type="matrix" values="0 0 0 0 0 0 0 0 0 0 0 0 0 0 0 0 0 0 127 0" result="hardAlpha"/>
<feOffset dy="5.51703"/>
<feGaussianBlur stdDeviation="13.7926"/>
<feComposite in2="hardAlpha" operator="out"/>
<feColorMatrix type="matrix" values="0 0 0 0 0.0980392 0 0 0 0 0.121569 0 0 0 0 0.176471 0 0 0 0.3 0"/>
<feBlend mode="normal" in2="BackgroundImageFix" result="effect1_dropShadow_483_25022"/>
<feBlend mode="normal" in="SourceGraphic" in2="effect1_dropShadow_483_25022" result="shape"/>
<feColorMatrix in="SourceAlpha" type="matrix" values="0 0 0 0 0 0 0 0 0 0 0 0 0 0 0 0 0 0 127 0" result="hardAlpha"/>
<feOffset dx="5.51703" dy="5.51703"/>
<feGaussianBlur stdDeviation="8.27555"/>
<feComposite in2="hardAlpha" operator="arithmetic" k2="-1" k3="1"/>
<feColorMatrix type="matrix" values="0 0 0 0 1 0 0 0 0 1 0 0 0 0 1 0 0 0 0.25 0"/>
<feBlend mode="normal" in2="shape" result="effect2_innerShadow_483_25022"/>
</filter>
<filter id="filter4_di_483_25022" x="229.456" y="64.3938" width="113.099" height="223.44" filterUnits="userSpaceOnUse" color-interpolation-filters="sRGB">
<feFlood flood-opacity="0" result="BackgroundImageFix"/>
<feColorMatrix in="SourceAlpha" type="matrix" values="0 0 0 0 0 0 0 0 0 0 0 0 0 0 0 0 0 0 127 0" result="hardAlpha"/>
<feOffset dy="5.51703"/>
<feGaussianBlur stdDeviation="13.7926"/>
<feComposite in2="hardAlpha" operator="out"/>
<feColorMatrix type="matrix" values="0 0 0 0 0.0980392 0 0 0 0 0.121569 0 0 0 0 0.176471 0 0 0 0.3 0"/>
<feBlend mode="normal" in2="BackgroundImageFix" result="effect1_dropShadow_483_25022"/>
<feBlend mode="normal" in="SourceGraphic" in2="effect1_dropShadow_483_25022" result="shape"/>
<feColorMatrix in="SourceAlpha" type="matrix" values="0 0 0 0 0 0 0 0 0 0 0 0 0 0 0 0 0 0 127 0" result="hardAlpha"/>
<feOffset dx="5.51703" dy="5.51703"/>
<feGaussianBlur stdDeviation="8.27555"/>
<feComposite in2="hardAlpha" operator="arithmetic" k2="-1" k3="1"/>
<feColorMatrix type="matrix" values="0 0 0 0 1 0 0 0 0 1 0 0 0 0 1 0 0 0 0.25 0"/>
<feBlend mode="normal" in2="shape" result="effect2_innerShadow_483_25022"/>
</filter>
<filter id="filter5_i_483_25022" x="207.388" y="119.564" width="67.5836" height="85.5141" filterUnits="userSpaceOnUse" color-interpolation-filters="sRGB">
<feFlood flood-opacity="0" result="BackgroundImageFix"/>
<feBlend mode="normal" in="SourceGraphic" in2="BackgroundImageFix" result="shape"/>
<feColorMatrix in="SourceAlpha" type="matrix" values="0 0 0 0 0 0 0 0 0 0 0 0 0 0 0 0 0 0 127 0" result="hardAlpha"/>
<feOffset dx="5.51703" dy="5.51703"/>
<feGaussianBlur stdDeviation="8.27555"/>
<feComposite in2="hardAlpha" operator="arithmetic" k2="-1" k3="1"/>
<feColorMatrix type="matrix" values="0 0 0 0 1 0 0 0 0 1 0 0 0 0 1 0 0 0 0.25 0"/>
<feBlend mode="normal" in2="shape" result="effect1_innerShadow_483_25022"/>
</filter>
<filter id="filter6_dii_483_25022" x="96.0466" y="168.707" width="103.324" height="116.649" filterUnits="userSpaceOnUse" color-interpolation-filters="sRGB">
<feFlood flood-opacity="0" result="BackgroundImageFix"/>
<feColorMatrix in="SourceAlpha" type="matrix" values="0 0 0 0 0 0 0 0 0 0 0 0 0 0 0 0 0 0 127 0" result="hardAlpha"/>
<feOffset dy="11.4212"/>
<feComposite in2="hardAlpha" operator="out"/>
<feColorMatrix type="matrix" values="0 0 0 0 0.904167 0 0 0 0 0 0 0 0 0 0.5425 0 0 0 1 0"/>
<feBlend mode="normal" in2="BackgroundImageFix" result="effect1_dropShadow_483_25022"/>
<feBlend mode="normal" in="SourceGraphic" in2="effect1_dropShadow_483_25022" result="shape"/>
<feColorMatrix in="SourceAlpha" type="matrix" values="0 0 0 0 0 0 0 0 0 0 0 0 0 0 0 0 0 0 127 0" result="hardAlpha"/>
<feOffset dx="3.80707" dy="3.80707"/>
<feGaussianBlur stdDeviation="3.80707"/>
<feComposite in2="hardAlpha" operator="arithmetic" k2="-1" k3="1"/>
<feColorMatrix type="matrix" values="0 0 0 0 1 0 0 0 0 1 0 0 0 0 1 0 0 0 0.5 0"/>
<feBlend mode="normal" in2="shape" result="effect2_innerShadow_483_25022"/>
<feColorMatrix in="SourceAlpha" type="matrix" values="0 0 0 0 0 0 0 0 0 0 0 0 0 0 0 0 0 0 127 0" result="hardAlpha"/>
<feOffset dx="-3.80707" dy="-3.80707"/>
<feGaussianBlur stdDeviation="3.80707"/>
<feComposite in2="hardAlpha" operator="arithmetic" k2="-1" k3="1"/>
<feColorMatrix type="matrix" values="0 0 0 0 1 0 0 0 0 0.478431 0 0 0 0 0.00392157 0 0 0 1 0"/>
<feBlend mode="normal" in2="effect2_innerShadow_483_25022" result="effect3_innerShadow_483_25022"/>
</filter>
<filter id="filter7_dii_483_25022" x="300.944" y="168.707" width="103.324" height="116.649" filterUnits="userSpaceOnUse" color-interpolation-filters="sRGB">
<feFlood flood-opacity="0" result="BackgroundImageFix"/>
<feColorMatrix in="SourceAlpha" type="matrix" values="0 0 0 0 0 0 0 0 0 0 0 0 0 0 0 0 0 0 127 0" result="hardAlpha"/>
<feOffset dy="11.4212"/>
<feComposite in2="hardAlpha" operator="out"/>
<feColorMatrix type="matrix" values="0 0 0 0 0.904167 0 0 0 0 0 0 0 0 0 0.5425 0 0 0 1 0"/>
<feBlend mode="normal" in2="BackgroundImageFix" result="effect1_dropShadow_483_25022"/>
<feBlend mode="normal" in="SourceGraphic" in2="effect1_dropShadow_483_25022" result="shape"/>
<feColorMatrix in="SourceAlpha" type="matrix" values="0 0 0 0 0 0 0 0 0 0 0 0 0 0 0 0 0 0 127 0" result="hardAlpha"/>
<feOffset dx="3.80707" dy="3.80707"/>
<feGaussianBlur stdDeviation="3.80707"/>
<feComposite in2="hardAlpha" operator="arithmetic" k2="-1" k3="1"/>
<feColorMatrix type="matrix" values="0 0 0 0 1 0 0 0 0 1 0 0 0 0 1 0 0 0 0.5 0"/>
<feBlend mode="normal" in2="shape" result="effect2_innerShadow_483_25022"/>
<feColorMatrix in="SourceAlpha" type="matrix" values="0 0 0 0 0 0 0 0 0 0 0 0 0 0 0 0 0 0 127 0" result="hardAlpha"/>
<feOffset dx="-3.80707" dy="-3.80707"/>
<feGaussianBlur stdDeviation="3.80707"/>
<feComposite in2="hardAlpha" operator="arithmetic" k2="-1" k3="1"/>
<feColorMatrix type="matrix" values="0 0 0 0 1 0 0 0 0 0.478431 0 0 0 0 0.00392157 0 0 0 1 0"/>
<feBlend mode="normal" in2="effect2_innerShadow_483_25022" result="effect3_innerShadow_483_25022"/>
</filter>
<filter id="filter8_dii_483_25022" x="197.969" y="168.193" width="104.238" height="117.677" filterUnits="userSpaceOnUse" color-interpolation-filters="sRGB">
<feFlood flood-opacity="0" result="BackgroundImageFix"/>
<feColorMatrix in="SourceAlpha" type="matrix" values="0 0 0 0 0 0 0 0 0 0 0 0 0 0 0 0 0 0 127 0" result="hardAlpha"/>
<feOffset dy="11.4212"/>
<feComposite in2="hardAlpha" operator="out"/>
<feColorMatrix type="matrix" values="0 0 0 0 0.904167 0 0 0 0 0 0 0 0 0 0.5425 0 0 0 1 0"/>
<feBlend mode="normal" in2="BackgroundImageFix" result="effect1_dropShadow_483_25022"/>
<feBlend mode="normal" in="SourceGraphic" in2="effect1_dropShadow_483_25022" result="shape"/>
<feColorMatrix in="SourceAlpha" type="matrix" values="0 0 0 0 0 0 0 0 0 0 0 0 0 0 0 0 0 0 127 0" result="hardAlpha"/>
<feOffset dx="3.80707" dy="3.80707"/>
<feGaussianBlur stdDeviation="3.80707"/>
<feComposite in2="hardAlpha" operator="arithmetic" k2="-1" k3="1"/>
<feColorMatrix type="matrix" values="0 0 0 0 1 0 0 0 0 1 0 0 0 0 1 0 0 0 0.5 0"/>
<feBlend mode="normal" in2="shape" result="effect2_innerShadow_483_25022"/>
<feColorMatrix in="SourceAlpha" type="matrix" values="0 0 0 0 0 0 0 0 0 0 0 0 0 0 0 0 0 0 127 0" result="hardAlpha"/>
<feOffset dx="-3.80707" dy="-3.80707"/>
<feGaussianBlur stdDeviation="3.80707"/>
<feComposite in2="hardAlpha" operator="arithmetic" k2="-1" k3="1"/>
<feColorMatrix type="matrix" values="0 0 0 0 1 0 0 0 0 0.478431 0 0 0 0 0.00392157 0 0 0 1 0"/>
<feBlend mode="normal" in2="effect2_innerShadow_483_25022" result="effect3_innerShadow_483_25022"/>
</filter>
<filter id="filter9_dii_483_25022" x="402.866" y="168.193" width="104.238" height="117.677" filterUnits="userSpaceOnUse" color-interpolation-filters="sRGB">
<feFlood flood-opacity="0" result="BackgroundImageFix"/>
<feColorMatrix in="SourceAlpha" type="matrix" values="0 0 0 0 0 0 0 0 0 0 0 0 0 0 0 0 0 0 127 0" result="hardAlpha"/>
<feOffset dy="11.4212"/>
<feComposite in2="hardAlpha" operator="out"/>
<feColorMatrix type="matrix" values="0 0 0 0 0.904167 0 0 0 0 0 0 0 0 0 0.5425 0 0 0 1 0"/>
<feBlend mode="normal" in2="BackgroundImageFix" result="effect1_dropShadow_483_25022"/>
<feBlend mode="normal" in="SourceGraphic" in2="effect1_dropShadow_483_25022" result="shape"/>
<feColorMatrix in="SourceAlpha" type="matrix" values="0 0 0 0 0 0 0 0 0 0 0 0 0 0 0 0 0 0 127 0" result="hardAlpha"/>
<feOffset dx="3.80707" dy="3.80707"/>
<feGaussianBlur stdDeviation="3.80707"/>
<feComposite in2="hardAlpha" operator="arithmetic" k2="-1" k3="1"/>
<feColorMatrix type="matrix" values="0 0 0 0 1 0 0 0 0 1 0 0 0 0 1 0 0 0 0.5 0"/>
<feBlend mode="normal" in2="shape" result="effect2_innerShadow_483_25022"/>
<feColorMatrix in="SourceAlpha" type="matrix" values="0 0 0 0 0 0 0 0 0 0 0 0 0 0 0 0 0 0 127 0" result="hardAlpha"/>
<feOffset dx="-3.80707" dy="-3.80707"/>
<feGaussianBlur stdDeviation="3.80707"/>
<feComposite in2="hardAlpha" operator="arithmetic" k2="-1" k3="1"/>
<feColorMatrix type="matrix" values="0 0 0 0 1 0 0 0 0 0.478431 0 0 0 0 0.00392157 0 0 0 1 0"/>
<feBlend mode="normal" in2="effect2_innerShadow_483_25022" result="effect3_innerShadow_483_25022"/>
</filter>
<filter id="filter10_f_483_25022" x="269.39" y="173.896" width="14.0979" height="57.3955" filterUnits="userSpaceOnUse" color-interpolation-filters="sRGB">
<feFlood flood-opacity="0" result="BackgroundImageFix"/>
<feBlend mode="normal" in="SourceGraphic" in2="BackgroundImageFix" result="shape"/>
<feGaussianBlur stdDeviation="1.5" result="effect1_foregroundBlur_483_25022"/>
</filter>
<filter id="filter11_f_483_25022" x="474" y="174" width="14.0979" height="57.3955" filterUnits="userSpaceOnUse" color-interpolation-filters="sRGB">
<feFlood flood-opacity="0" result="BackgroundImageFix"/>
<feBlend mode="normal" in="SourceGraphic" in2="BackgroundImageFix" result="shape"/>
<feGaussianBlur stdDeviation="1.5" result="effect1_foregroundBlur_483_25022"/>
</filter>
<filter id="filter12_f_483_25022" x="204.643" y="174.839" width="29.4602" height="51.2178" filterUnits="userSpaceOnUse" color-interpolation-filters="sRGB">
<feFlood flood-opacity="0" result="BackgroundImageFix"/>
<feBlend mode="normal" in="SourceGraphic" in2="BackgroundImageFix" result="shape"/>
<feGaussianBlur stdDeviation="1.5" result="effect1_foregroundBlur_483_25022"/>
</filter>
<filter id="filter13_f_483_25022" x="409.301" y="174.839" width="29.4601" height="51.2178" filterUnits="userSpaceOnUse" color-interpolation-filters="sRGB">
<feFlood flood-opacity="0" result="BackgroundImageFix"/>
<feBlend mode="normal" in="SourceGraphic" in2="BackgroundImageFix" result="shape"/>
<feGaussianBlur stdDeviation="1.5" result="effect1_foregroundBlur_483_25022"/>
</filter>
<filter id="filter14_f_483_25022" x="99.0244" y="248.134" width="33.6013" height="14.374" filterUnits="userSpaceOnUse" color-interpolation-filters="sRGB">
<feFlood flood-opacity="0" result="BackgroundImageFix"/>
<feBlend mode="normal" in="SourceGraphic" in2="BackgroundImageFix" result="shape"/>
<feGaussianBlur stdDeviation="1.5" result="effect1_foregroundBlur_483_25022"/>
</filter>
<filter id="filter15_f_483_25022" x="131.384" y="258.111" width="64.0579" height="15.0576" filterUnits="userSpaceOnUse" color-interpolation-filters="sRGB">
<feFlood flood-opacity="0" result="BackgroundImageFix"/>
<feBlend mode="normal" in="SourceGraphic" in2="BackgroundImageFix" result="shape"/>
<feGaussianBlur stdDeviation="1.5" result="effect1_foregroundBlur_483_25022"/>
</filter>
<filter id="filter16_f_483_25022" x="336.014" y="258.111" width="64.0579" height="15.0576" filterUnits="userSpaceOnUse" color-interpolation-filters="sRGB">
<feFlood flood-opacity="0" result="BackgroundImageFix"/>
<feBlend mode="normal" in="SourceGraphic" in2="BackgroundImageFix" result="shape"/>
<feGaussianBlur stdDeviation="1.5" result="effect1_foregroundBlur_483_25022"/>
</filter>
<filter id="filter17_f_483_25022" x="101.023" y="173.896" width="44.0707" height="18.1484" filterUnits="userSpaceOnUse" color-interpolation-filters="sRGB">
<feFlood flood-opacity="0" result="BackgroundImageFix"/>
<feBlend mode="normal" in="SourceGraphic" in2="BackgroundImageFix" result="shape"/>
<feGaussianBlur stdDeviation="1.5" result="effect1_foregroundBlur_483_25022"/>
</filter>
<filter id="filter18_f_483_25022" x="305.558" y="173.896" width="44.0707" height="18.1484" filterUnits="userSpaceOnUse" color-interpolation-filters="sRGB">
<feFlood flood-opacity="0" result="BackgroundImageFix"/>
<feBlend mode="normal" in="SourceGraphic" in2="BackgroundImageFix" result="shape"/>
<feGaussianBlur stdDeviation="1.5" result="effect1_foregroundBlur_483_25022"/>
</filter>
<filter id="filter19_f_483_25022" x="305.557" y="248.134" width="33.6013" height="14.374" filterUnits="userSpaceOnUse" color-interpolation-filters="sRGB">
<feFlood flood-opacity="0" result="BackgroundImageFix"/>
<feBlend mode="normal" in="SourceGraphic" in2="BackgroundImageFix" result="shape"/>
<feGaussianBlur stdDeviation="1.5" result="effect1_foregroundBlur_483_25022"/>
</filter>
<filter id="filter20_f_483_25022" x="488.785" y="212.918" width="10.7462" height="57.3955" filterUnits="userSpaceOnUse" color-interpolation-filters="sRGB">
<feFlood flood-opacity="0" result="BackgroundImageFix"/>
<feBlend mode="normal" in="SourceGraphic" in2="BackgroundImageFix" result="shape"/>
<feGaussianBlur stdDeviation="1.5" result="effect1_foregroundBlur_483_25022"/>
</filter>
<filter id="filter21_f_483_25022" x="284.488" y="212.918" width="10.7462" height="57.3955" filterUnits="userSpaceOnUse" color-interpolation-filters="sRGB">
<feFlood flood-opacity="0" result="BackgroundImageFix"/>
<feBlend mode="normal" in="SourceGraphic" in2="BackgroundImageFix" result="shape"/>
<feGaussianBlur stdDeviation="1.5" result="effect1_foregroundBlur_483_25022"/>
</filter>
<linearGradient id="paint0_linear_483_25022" x1="498.604" y1="161.45" x2="462.973" y2="177.553" gradientUnits="userSpaceOnUse">
<stop stop-color="#A500C0"/>
<stop offset="1" stop-color="#C9001A"/>
</linearGradient>
<linearGradient id="paint1_linear_483_25022" x1="429.432" y1="127.845" x2="486.609" y2="93.2986" gradientUnits="userSpaceOnUse">
<stop stop-color="#FF1717"/>
<stop offset="1" stop-color="#CB007A"/>
</linearGradient>
<linearGradient id="paint2_linear_483_25022" x1="317.483" y1="97.8375" x2="372.399" y2="163.902" gradientUnits="userSpaceOnUse">
<stop stop-color="#7BEE20"/>
<stop offset="1" stop-color="#039E13"/>
</linearGradient>
<linearGradient id="paint3_linear_483_25022" x1="262.606" y1="87.847" x2="228.677" y2="164.246" gradientUnits="userSpaceOnUse">
<stop stop-color="#FFCA51"/>
<stop offset="1" stop-color="#FF7A01"/>
</linearGradient>
<linearGradient id="paint4_linear_483_25022" x1="277.036" y1="83.3205" x2="283.648" y2="156.688" gradientUnits="userSpaceOnUse">
<stop stop-color="#AC99FF"/>
<stop offset="0.974132" stop-color="#703EFF"/>
</linearGradient>
<linearGradient id="paint5_linear_483_25022" x1="266.966" y1="124.427" x2="242.328" y2="152.651" gradientUnits="userSpaceOnUse">
<stop stop-color="#2CD8FD"/>
<stop offset="1" stop-color="#0F83F7"/>
</linearGradient>
<linearGradient id="paint6_linear_483_25022" x1="533.473" y1="88.5053" x2="516.877" y2="135.945" gradientUnits="userSpaceOnUse">
<stop stop-color="#5434DE"/>
<stop offset="1" stop-color="#5C3BEE" stop-opacity="0"/>
</linearGradient>
<linearGradient id="paint7_linear_483_25022" x1="294.5" y1="136" x2="294.5" y2="277" gradientUnits="userSpaceOnUse">
<stop stop-color="#441FE2" stop-opacity="0"/>
<stop offset="0.416667" stop-color="#441FE2"/>
</linearGradient>
<linearGradient id="paint8_linear_483_25022" x1="235.271" y1="282.633" x2="234.32" y2="151.765" gradientUnits="userSpaceOnUse">
<stop stop-color="#FFB200"/>
<stop offset="0.99888" stop-color="#FFDF95"/>
</linearGradient>
<linearGradient id="paint9_linear_483_25022" x1="440.169" y1="282.633" x2="439.217" y2="151.765" gradientUnits="userSpaceOnUse">
<stop stop-color="#FFB200"/>
<stop offset="0.99888" stop-color="#FFDF95"/>
</linearGradient>
<linearGradient id="paint10_linear_483_25022" x1="235.272" y1="282.634" x2="234.32" y2="151.765" gradientUnits="userSpaceOnUse">
<stop stop-color="#FFB200"/>
<stop offset="0.99888" stop-color="#FFDF95"/>
</linearGradient>
<linearGradient id="paint11_linear_483_25022" x1="440.168" y1="282.634" x2="439.217" y2="151.765" gradientUnits="userSpaceOnUse">
<stop stop-color="#FFB200"/>
<stop offset="0.99888" stop-color="#FFDF95"/>
</linearGradient>
<linearGradient id="paint12_linear_483_25022" x1="276.673" y1="228.291" x2="276.673" y2="176.896" gradientUnits="userSpaceOnUse">
<stop stop-color="white" stop-opacity="0"/>
<stop offset="1" stop-color="white" stop-opacity="0.7"/>
</linearGradient>
<linearGradient id="paint13_linear_483_25022" x1="481.283" y1="228.396" x2="481.283" y2="177" gradientUnits="userSpaceOnUse">
<stop stop-color="white" stop-opacity="0"/>
<stop offset="1" stop-color="white" stop-opacity="0.7"/>
</linearGradient>
<linearGradient id="paint14_linear_483_25022" x1="215.76" y1="233.05" x2="215.76" y2="181.655" gradientUnits="userSpaceOnUse">
<stop stop-color="white" stop-opacity="0"/>
<stop offset="1" stop-color="white" stop-opacity="0.7"/>
</linearGradient>
<linearGradient id="paint15_linear_483_25022" x1="420.418" y1="233.05" x2="420.418" y2="181.655" gradientUnits="userSpaceOnUse">
<stop stop-color="white" stop-opacity="0"/>
<stop offset="1" stop-color="white" stop-opacity="0.7"/>
</linearGradient>
<linearGradient id="paint16_linear_483_25022" x1="129.626" y1="255.893" x2="102.024" y2="255.893" gradientUnits="userSpaceOnUse">
<stop stop-color="white" stop-opacity="0"/>
<stop offset="1" stop-color="white" stop-opacity="0.7"/>
</linearGradient>
<linearGradient id="paint17_linear_483_25022" x1="134.384" y1="265.41" x2="192.442" y2="265.41" gradientUnits="userSpaceOnUse">
<stop stop-color="white" stop-opacity="0"/>
<stop offset="1" stop-color="white" stop-opacity="0.7"/>
</linearGradient>
<linearGradient id="paint18_linear_483_25022" x1="339.014" y1="265.41" x2="397.072" y2="265.41" gradientUnits="userSpaceOnUse">
<stop stop-color="white" stop-opacity="0"/>
<stop offset="1" stop-color="white" stop-opacity="0.7"/>
</linearGradient>
<linearGradient id="paint19_linear_483_25022" x1="142.094" y1="183.558" x2="104.023" y2="183.558" gradientUnits="userSpaceOnUse">
<stop stop-color="white" stop-opacity="0"/>
<stop offset="1" stop-color="white" stop-opacity="0.7"/>
</linearGradient>
<linearGradient id="paint20_linear_483_25022" x1="346.628" y1="183.558" x2="308.558" y2="183.558" gradientUnits="userSpaceOnUse">
<stop stop-color="white" stop-opacity="0"/>
<stop offset="1" stop-color="white" stop-opacity="0.7"/>
</linearGradient>
<linearGradient id="paint21_linear_483_25022" x1="336.158" y1="255.893" x2="308.557" y2="255.893" gradientUnits="userSpaceOnUse">
<stop stop-color="white" stop-opacity="0"/>
<stop offset="1" stop-color="white" stop-opacity="0.7"/>
</linearGradient>
<linearGradient id="paint22_linear_483_25022" x1="493.914" y1="215.918" x2="493.914" y2="267.313" gradientUnits="userSpaceOnUse">
<stop stop-color="white" stop-opacity="0"/>
<stop offset="1" stop-color="white" stop-opacity="0.4"/>
</linearGradient>
<linearGradient id="paint23_linear_483_25022" x1="289.617" y1="215.918" x2="289.617" y2="267.313" gradientUnits="userSpaceOnUse">
<stop stop-color="white" stop-opacity="0"/>
<stop offset="1" stop-color="white" stop-opacity="0.4"/>
</linearGradient>
</defs>
</svg>
