<svg width="40" height="40" viewBox="0 0 40 40" fill="none" xmlns="http://www.w3.org/2000/svg">
<path d="M20 11.6668C20.9167 11.6668 21.6667 12.4168 21.6667 13.3335V20.0002C21.6667 20.9168 20.9167 21.6668 20 21.6668C19.0833 21.6668 18.3333 20.9168 18.3333 20.0002V13.3335C18.3333 12.4168 19.0833 11.6668 20 11.6668ZM19.9833 3.3335C10.7833 3.3335 3.33333 10.8002 3.33333 20.0002C3.33333 29.2002 10.7833 36.6668 19.9833 36.6668C29.2 36.6668 36.6667 29.2002 36.6667 20.0002C36.6667 10.8002 29.2 3.3335 19.9833 3.3335ZM20 33.3335C12.6333 33.3335 6.66667 27.3668 6.66667 20.0002C6.66667 12.6335 12.6333 6.66683 20 6.66683C27.3667 6.66683 33.3333 12.6335 33.3333 20.0002C33.3333 27.3668 27.3667 33.3335 20 33.3335ZM21.6667 28.3335H18.3333V25.0002H21.6667V28.3335Z" fill="#FFAA05"/>
</svg>
