<svg width="20" height="21" viewBox="0 0 20 21" fill="none" xmlns="http://www.w3.org/2000/svg">
<g clip-path="url(#clip0_1561_32802)">
<path d="M9.16602 6.33366H10.8327V8.00033H9.16602V6.33366ZM9.99935 14.667C10.4577 14.667 10.8327 14.292 10.8327 13.8337V10.5003C10.8327 10.042 10.4577 9.66699 9.99935 9.66699C9.54102 9.66699 9.16602 10.042 9.16602 10.5003V13.8337C9.16602 14.292 9.54102 14.667 9.99935 14.667ZM9.99935 2.16699C5.39935 2.16699 1.66602 5.90033 1.66602 10.5003C1.66602 15.1003 5.39935 18.8337 9.99935 18.8337C14.5993 18.8337 18.3327 15.1003 18.3327 10.5003C18.3327 5.90033 14.5993 2.16699 9.99935 2.16699ZM9.99935 17.167C6.32435 17.167 3.33268 14.1753 3.33268 10.5003C3.33268 6.82533 6.32435 3.83366 9.99935 3.83366C13.6743 3.83366 16.666 6.82533 16.666 10.5003C16.666 14.1753 13.6743 17.167 9.99935 17.167Z" fill="white"/>
</g>
<defs>
<clipPath id="clip0_1561_32802">
<rect width="20" height="20" fill="white" transform="translate(0 0.5)"/>
</clipPath>
</defs>
</svg>
