<svg width="373" height="188" viewBox="0 0 373 188" fill="none" xmlns="http://www.w3.org/2000/svg">
<mask id="path-1-outside-1_477_19633" maskUnits="userSpaceOnUse" x="27.5127" y="6.30225" width="256" height="158" fill="black">
<rect fill="white" x="27.5127" y="6.30225" width="256" height="158"/>
<path fill-rule="evenodd" clip-rule="evenodd" d="M33.5127 44.816C33.5127 26.8591 48.0696 12.3022 66.0264 12.3022H108.46C123.087 12.3022 135.459 21.9615 139.544 35.2494C142.462 33.7893 145.755 32.9677 149.24 32.9677C161.224 32.9677 170.939 42.6827 170.939 54.6666V61.8539L180.958 44.2834C182.863 40.9427 186.738 39.8633 189.917 41.045C191.681 32.311 199.399 25.735 208.653 25.735L237.585 25.735C248.142 25.735 256.701 34.2933 256.701 44.8506C256.701 55.3961 248.162 63.9471 237.621 63.9663H258.768C269.039 63.9663 277.367 72.2934 277.367 82.5653C277.367 92.8373 269.039 101.164 258.767 101.164H211.237C207.941 101.164 204.846 100.307 202.162 98.8042H170.939V137.329C170.939 149.313 161.224 159.028 149.24 159.028C137.256 159.028 127.541 149.313 127.541 137.329V134.244C122.182 138.135 115.589 140.429 108.46 140.429H66.0264C48.0695 140.429 33.5127 125.872 33.5127 107.915V44.816ZM205.449 64.8845L204.691 63.5551C205.969 63.8246 207.295 63.9663 208.653 63.9663H211.201C209.193 63.9701 207.26 64.2921 205.449 64.8845Z"/>
</mask>
<path fill-rule="evenodd" clip-rule="evenodd" d="M33.5127 44.816C33.5127 26.8591 48.0696 12.3022 66.0264 12.3022H108.46C123.087 12.3022 135.459 21.9615 139.544 35.2494C142.462 33.7893 145.755 32.9677 149.24 32.9677C161.224 32.9677 170.939 42.6827 170.939 54.6666V61.8539L180.958 44.2834C182.863 40.9427 186.738 39.8633 189.917 41.045C191.681 32.311 199.399 25.735 208.653 25.735L237.585 25.735C248.142 25.735 256.701 34.2933 256.701 44.8506C256.701 55.3961 248.162 63.9471 237.621 63.9663H258.768C269.039 63.9663 277.367 72.2934 277.367 82.5653C277.367 92.8373 269.039 101.164 258.767 101.164H211.237C207.941 101.164 204.846 100.307 202.162 98.8042H170.939V137.329C170.939 149.313 161.224 159.028 149.24 159.028C137.256 159.028 127.541 149.313 127.541 137.329V134.244C122.182 138.135 115.589 140.429 108.46 140.429H66.0264C48.0695 140.429 33.5127 125.872 33.5127 107.915V44.816ZM205.449 64.8845L204.691 63.5551C205.969 63.8246 207.295 63.9663 208.653 63.9663H211.201C209.193 63.9701 207.26 64.2921 205.449 64.8845Z" fill="#441FE2"/>
<path d="M139.544 35.2494L134.595 36.7708L136.391 42.6161L141.86 39.8798L139.544 35.2494ZM170.939 61.8539H165.761V81.3864L175.437 64.4187L170.939 61.8539ZM180.958 44.2834L176.46 41.7187V41.7187L180.958 44.2834ZM189.917 41.045L188.112 45.898L193.792 48.0098L194.992 42.0702L189.917 41.045ZM208.653 25.735V20.5573V25.735ZM237.585 25.735V20.5573V25.735ZM237.621 63.9663L237.611 58.7887L237.621 69.1439V63.9663ZM202.162 98.8042L204.692 94.2868L203.513 93.6266H202.162V98.8042ZM170.939 98.8042V93.6266H165.761V98.8042H170.939ZM127.541 134.244H132.719V124.087L124.499 130.054L127.541 134.244ZM204.691 63.5551L205.759 58.4888L194.487 56.1126L200.193 66.1198L204.691 63.5551ZM205.449 64.8845L200.951 67.4492L203.044 71.119L207.059 69.8055L205.449 64.8845ZM211.201 63.9663L211.21 69.1439L211.201 58.7887V63.9663ZM66.0264 7.12463C45.2101 7.12463 28.3351 23.9996 28.3351 44.816H38.6903C38.6903 29.7187 50.9291 17.4799 66.0264 17.4799V7.12463ZM108.46 7.12463H66.0264V17.4799H108.46V7.12463ZM144.493 33.728C139.759 18.3284 125.425 7.12463 108.46 7.12463V17.4799C120.75 17.4799 131.159 25.5946 134.595 36.7708L144.493 33.728ZM149.24 27.7901C144.933 27.7901 140.848 28.8072 137.227 30.619L141.86 39.8798C144.075 38.7715 146.577 38.1454 149.24 38.1454V27.7901ZM176.116 54.6666C176.116 39.8231 164.083 27.7901 149.24 27.7901V38.1454C158.364 38.1454 165.761 45.5422 165.761 54.6666H176.116ZM176.116 61.8539V54.6666H165.761V61.8539H176.116ZM176.46 41.7187L166.441 59.2892L175.437 64.4187L185.456 46.8481L176.46 41.7187ZM191.721 36.192C186.369 34.2022 179.727 35.9901 176.46 41.7187L185.456 46.8481C185.999 45.8953 187.107 45.5243 188.112 45.898L191.721 36.192ZM208.653 20.5573C196.887 20.5573 187.084 28.9178 184.841 40.0198L194.992 42.0702C196.278 35.7041 201.912 30.9126 208.653 30.9126V20.5573ZM237.585 20.5573L208.653 20.5573V30.9126H237.585V20.5573ZM261.878 44.8506C261.878 31.4338 251.002 20.5573 237.585 20.5573V30.9126C245.283 30.9126 251.523 37.1529 251.523 44.8506H261.878ZM237.63 69.1439C251.026 69.1196 261.878 58.2525 261.878 44.8506H251.523C251.523 52.5397 245.297 58.7747 237.611 58.7887L237.63 69.1439ZM258.768 58.7887H237.621V69.1439H258.768V58.7887ZM282.544 82.5653C282.544 69.4338 271.899 58.7887 258.768 58.7887V69.1439C266.18 69.1439 272.189 75.1529 272.189 82.5653H282.544ZM258.767 106.342C271.899 106.342 282.544 95.6968 282.544 82.5653H272.189C272.189 89.9778 266.18 95.9867 258.767 95.9867V106.342ZM211.237 106.342H258.767V95.9867H211.237V106.342ZM199.632 103.322C203.069 105.247 207.033 106.342 211.237 106.342V95.9867C208.85 95.9867 206.623 95.3683 204.692 94.2868L199.632 103.322ZM170.939 103.982H202.162V93.6266H170.939V103.982ZM176.116 137.329V98.8042H165.761V137.329H176.116ZM149.24 164.206C164.083 164.206 176.116 152.172 176.116 137.329H165.761C165.761 146.453 158.364 153.85 149.24 153.85V164.206ZM122.363 137.329C122.363 152.173 134.396 164.206 149.24 164.206V153.85C140.116 153.85 132.719 146.453 132.719 137.329H122.363ZM122.363 134.244V137.329H132.719V134.244H122.363ZM108.46 145.607C116.718 145.607 124.369 142.945 130.583 138.434L124.499 130.054C119.995 133.324 114.46 135.251 108.46 135.251V145.607ZM66.0264 145.607H108.46V135.251H66.0264V145.607ZM28.3351 107.915C28.3351 128.732 45.21 145.607 66.0264 145.607V135.251C50.9291 135.251 38.6903 123.013 38.6903 107.915H28.3351ZM28.3351 44.816V107.915H38.6903V44.816H28.3351ZM200.193 66.1198L200.951 67.4492L209.947 62.3198L209.189 60.9904L200.193 66.1198ZM208.653 58.7887C207.656 58.7887 206.688 58.6847 205.759 58.4888L203.623 68.6214C205.25 68.9644 206.934 69.1439 208.653 69.1439V58.7887ZM211.201 58.7887H208.653V69.1439H211.201V58.7887ZM207.059 69.8055C208.359 69.38 209.753 69.1467 211.21 69.1439L211.191 58.7887C208.633 58.7936 206.16 59.2042 203.839 59.9635L207.059 69.8055Z" fill="#441FE2" mask="url(#path-1-outside-1_477_19633)"/>
<mask id="path-3-outside-2_477_19633" maskUnits="userSpaceOnUse" x="267.979" y="-3.51079" width="107.784" height="111.412" fill="black">
<rect fill="white" x="267.979" y="-3.51079" width="107.784" height="111.412"/>
<path fill-rule="evenodd" clip-rule="evenodd" d="M318.208 6.49095C315.612 5.29171 312.535 6.42392 311.336 9.01982L275.407 86.7919C274.208 89.3878 275.34 92.4644 277.936 93.6636L278.133 93.7543C280.729 94.9536 283.805 93.8214 285.004 91.2255L302.784 52.7394L329.894 65.2635C331.892 66.5534 333.509 68.1002 332.845 69.538C332.338 70.6346 333.287 72.4036 336.168 73.9536C336.275 74.0235 336.388 74.0864 336.507 74.1414L347.802 79.3593C349.099 79.9589 350.638 79.3928 351.237 78.0949L366.8 44.4072C367.25 43.4336 367.044 42.3248 366.365 41.5784C366.272 41.4762 366.17 41.3808 366.06 41.2935C365.902 41.1681 365.727 41.0594 365.536 40.9711L351.891 34.6677L353.022 32.2193C353.622 30.9213 353.056 29.3831 351.758 28.7834L320.518 14.3515L320.933 13.4534C322.132 10.8575 321 7.78094 318.404 6.58169L318.208 6.49095Z"/>
</mask>
<path fill-rule="evenodd" clip-rule="evenodd" d="M318.208 6.49095C315.612 5.29171 312.535 6.42392 311.336 9.01982L275.407 86.7919C274.208 89.3878 275.34 92.4644 277.936 93.6636L278.133 93.7543C280.729 94.9536 283.805 93.8214 285.004 91.2255L302.784 52.7394L329.894 65.2635C331.892 66.5534 333.509 68.1002 332.845 69.538C332.338 70.6346 333.287 72.4036 336.168 73.9536C336.275 74.0235 336.388 74.0864 336.507 74.1414L347.802 79.3593C349.099 79.9589 350.638 79.3928 351.237 78.0949L366.8 44.4072C367.25 43.4336 367.044 42.3248 366.365 41.5784C366.272 41.4762 366.17 41.3808 366.06 41.2935C365.902 41.1681 365.727 41.0594 365.536 40.9711L351.891 34.6677L353.022 32.2193C353.622 30.9213 353.056 29.3831 351.758 28.7834L320.518 14.3515L320.933 13.4534C322.132 10.8575 321 7.78094 318.404 6.58169L318.208 6.49095Z" fill="#441FE2"/>
<path d="M311.336 9.01982L306.636 6.84839L306.636 6.84839L311.336 9.01982ZM318.208 6.49095L320.379 1.79067L320.379 1.79067L318.208 6.49095ZM275.407 86.7919L270.707 84.6205L270.707 84.6205L275.407 86.7919ZM277.936 93.6636L275.765 98.3639L275.765 98.3639L277.936 93.6636ZM278.133 93.7543L275.961 98.4546L275.961 98.4546L278.133 93.7543ZM285.004 91.2255L289.705 93.3969L289.705 93.3969L285.004 91.2255ZM302.784 52.7394L304.955 48.0391L300.255 45.8677L298.084 50.568L302.784 52.7394ZM329.894 65.2635L332.702 60.9134L332.396 60.7159L332.065 60.5632L329.894 65.2635ZM332.845 69.538L337.545 71.7095L332.845 69.538ZM336.168 73.9536L339.011 69.626L338.821 69.5014L338.621 69.3938L336.168 73.9536ZM336.507 74.1414L334.335 78.8417L334.335 78.8417L336.507 74.1414ZM347.802 79.3593L349.973 74.659L349.973 74.659L347.802 79.3593ZM351.237 78.0949L346.537 75.9234L346.537 75.9235L351.237 78.0949ZM366.8 44.4072L371.501 46.5786L371.501 46.5786L366.8 44.4072ZM366.365 41.5784L362.534 45.0614L362.535 45.0621L366.365 41.5784ZM366.06 41.2935L369.277 37.2363L369.277 37.2363L366.06 41.2935ZM365.536 40.9711L367.707 36.2708L367.707 36.2708L365.536 40.9711ZM351.891 34.6677L347.191 32.4963L345.02 37.1965L349.72 39.368L351.891 34.6677ZM353.022 32.2193L357.723 34.3907L357.723 34.3907L353.022 32.2193ZM351.758 28.7834L349.586 33.4837L349.587 33.4837L351.758 28.7834ZM320.518 14.3515L315.818 12.1801L313.647 16.8803L318.347 19.0518L320.518 14.3515ZM320.933 13.4534L316.233 11.282L316.233 11.282L320.933 13.4534ZM318.404 6.58169L316.233 11.282L316.233 11.282L318.404 6.58169ZM316.037 11.1912L316.037 11.1912L320.379 1.79067C315.188 -0.607817 309.034 1.6566 306.636 6.84839L316.037 11.1912ZM280.108 88.9633L316.037 11.1912L306.636 6.84839L270.707 84.6205L280.108 88.9633ZM280.108 88.9633L280.108 88.9633L270.707 84.6205C268.309 89.8123 270.573 95.9654 275.765 98.3639L280.108 88.9633ZM280.304 89.054L280.108 88.9633L275.765 98.3639L275.961 98.4546L280.304 89.054ZM280.304 89.054L280.304 89.054L275.961 98.4546C281.153 100.853 287.306 98.5887 289.705 93.3969L280.304 89.054ZM298.084 50.568L280.304 89.0541L289.705 93.3969L307.484 54.9108L298.084 50.568ZM332.065 60.5632L304.955 48.0391L300.613 57.4397L327.722 69.9638L332.065 60.5632ZM337.545 71.7095C339.065 68.4184 337.541 65.5512 336.441 64.1492C335.335 62.7399 333.855 61.6581 332.702 60.9134L327.086 69.6136C327.465 69.8581 327.767 70.0777 327.993 70.2647C328.23 70.4606 328.307 70.5574 328.294 70.5414C328.294 70.5408 328.054 70.2466 327.914 69.669C327.749 68.9901 327.782 68.1506 328.144 67.3666L337.545 71.7095ZM338.621 69.3938C337.629 68.8601 337.415 68.5156 337.496 68.6327C337.546 68.7054 337.741 69.0095 337.839 69.5441C337.942 70.1131 337.92 70.8972 337.545 71.7095L328.144 67.3666C326.835 70.2015 327.862 72.9063 328.976 74.5188C330.125 76.182 331.826 77.497 333.716 78.5133L338.621 69.3938ZM338.678 69.4412C338.793 69.4939 338.904 69.5557 339.011 69.626L333.326 78.2811C333.646 78.4913 333.983 78.6789 334.335 78.8417L338.678 69.4412ZM349.973 74.659L338.678 69.4411L334.335 78.8417L345.63 84.0596L349.973 74.659ZM346.537 75.9235C347.137 74.6255 348.675 74.0594 349.973 74.659L345.63 84.0596C349.524 85.8585 354.139 84.1601 355.938 80.2663L346.537 75.9235ZM362.1 42.2358L346.537 75.9234L355.938 80.2663L371.501 46.5786L362.1 42.2358ZM362.535 45.0621C361.863 44.3239 361.647 43.2168 362.1 42.2358L371.501 46.5786C372.853 43.6505 372.225 40.3257 370.195 38.0946L362.535 45.0621ZM362.844 45.3506C362.732 45.2619 362.628 45.1649 362.534 45.0614L370.196 38.0953C369.916 37.7874 369.609 37.4997 369.277 37.2363L362.844 45.3506ZM363.364 45.6713C363.18 45.5862 363.005 45.4784 362.844 45.3506L369.277 37.2363C368.8 36.8579 368.274 36.5326 367.707 36.2708L363.364 45.6713ZM349.72 39.368L363.364 45.6713L367.707 36.2708L354.063 29.9674L349.72 39.368ZM348.322 30.0479L347.191 32.4963L356.592 36.8391L357.723 34.3907L348.322 30.0479ZM349.587 33.4837C348.289 32.8841 347.722 31.3458 348.322 30.0479L357.723 34.3907C359.521 30.4969 357.823 25.882 353.929 24.0832L349.587 33.4837ZM318.347 19.0518L349.586 33.4837L353.929 24.0832L322.69 9.65119L318.347 19.0518ZM316.233 11.282L315.818 12.1801L325.219 16.5229L325.634 15.6248L316.233 11.282ZM316.233 11.282L316.233 11.282L325.634 15.6248C328.032 10.433 325.768 4.2799 320.576 1.88141L316.233 11.282ZM316.037 11.1912L316.233 11.282L320.576 1.88141L320.379 1.79067L316.037 11.1912Z" fill="#441FE2" mask="url(#path-3-outside-2_477_19633)"/>
<g filter="url(#filter0_di_477_19633)">
<rect x="277.366" y="63.9663" width="37.1981" height="84.7289" rx="18.599" transform="rotate(90 277.366 63.9663)" fill="url(#paint0_linear_477_19633)"/>
</g>
<g filter="url(#filter1_di_477_19633)">
<rect x="256.688" y="25.8496" width="42.0684" height="67.0242" rx="21.0342" transform="rotate(90 256.688 25.8496)" fill="url(#paint1_linear_477_19633)"/>
</g>
<rect x="313.508" y="4.31934" width="10.5716" height="125.28" rx="5.17762" transform="rotate(24.7958 313.508 4.31934)" fill="#7E61FF"/>
<path d="M325.15 62.7615L312.499 56.917L330.572 34.1347L348.781 33.2307L365.536 40.9711C366.834 41.5707 367.4 43.109 366.8 44.4069L351.237 78.0946C350.638 79.3925 349.1 79.9588 347.802 79.3591L337.033 74.3842C333.478 72.7421 332.29 70.7377 332.845 69.538C334.071 66.8829 327.52 63.8562 325.15 62.7615Z" fill="#633FFE"/>
<path d="M314.634 14.4849C315.234 13.187 316.772 12.6209 318.07 13.2205L351.758 28.7834C353.055 29.383 353.622 30.9213 353.022 32.2193L336.373 68.2571L300.336 51.6084C299.038 51.0088 298.471 49.4705 299.071 48.1726L314.634 14.4849Z" fill="#633FFE"/>
<path d="M351.891 34.6675L365.535 40.9711C366.833 41.5707 367.4 43.109 366.8 44.4069L351.237 78.0946C350.637 79.3925 349.099 79.9587 347.801 79.359L336.506 74.1411C335.208 73.5415 334.642 72.0032 335.242 70.7053L351.891 34.6675Z" fill="url(#paint2_linear_477_19633)"/>
<g filter="url(#filter2_di_477_19633)">
<rect x="33.5127" y="12.3022" width="107.461" height="128.127" rx="32.5137" fill="url(#paint3_linear_477_19633)"/>
</g>
<g filter="url(#filter3_di_477_19633)">
<rect x="127.541" y="32.9678" width="43.3977" height="126.06" rx="21.6989" fill="url(#paint4_linear_477_19633)"/>
</g>
<g filter="url(#filter4_di_477_19633)">
<path d="M180.957 44.2832C183.772 39.3477 190.887 39.3477 193.701 44.2832L218.536 87.8357C221.324 92.7256 217.793 98.804 212.164 98.804H162.495C156.866 98.804 153.335 92.7256 156.123 87.8357L180.957 44.2832Z" fill="url(#paint5_linear_477_19633)"/>
</g>
<g filter="url(#filter5_i_477_19633)">
<rect x="90.3428" y="57.7666" width="46.4976" height="59.9302" rx="8.75369" fill="url(#paint6_linear_477_19633)"/>
</g>
<g filter="url(#filter6_d_477_19633)">
<path fill-rule="evenodd" clip-rule="evenodd" d="M118.921 182.049C123.448 181.71 127.22 180.16 130.29 177.91C132.96 180.696 136.562 182.073 140.271 182.073H151.907C154.787 182.073 157.602 181.243 159.967 179.567C162.332 181.243 165.147 182.073 168.027 182.073H228.947C232.797 182.073 236.532 180.589 239.228 177.586C239.589 177.185 239.92 176.769 240.222 176.341C243.764 179.472 248.327 181.631 253.926 182.049L253.932 182.05C261.286 182.594 265.556 182.594 272.986 182.05L272.993 182.05L273.001 182.049C277.528 181.71 281.3 180.16 284.37 177.91C287.04 180.696 290.642 182.073 294.351 182.073H305.987C309.837 182.073 313.572 180.589 316.268 177.586C318.886 174.671 319.934 170.998 319.934 167.527V103.526C319.934 100.056 318.886 96.3831 316.268 93.4674C313.572 90.4648 309.837 88.9807 305.987 88.9807H294.351C290.645 88.9807 287.046 90.3557 284.377 93.1365C281.314 90.8974 277.547 89.3589 273.026 89.0066L273.006 89.005L272.986 89.0035C265.556 88.4599 261.286 88.4594 253.932 89.0041L253.926 89.0046C248.327 89.4232 243.764 91.5816 240.222 94.7132C239.92 94.2852 239.589 93.8691 239.228 93.4674C236.532 90.4648 232.797 88.9807 228.947 88.9807H168.027C165.147 88.9807 162.332 89.8111 159.967 91.4864C157.602 89.8111 154.787 88.9807 151.907 88.9807H140.271C136.566 88.9807 132.966 90.3557 130.297 93.1365C127.234 90.8974 123.467 89.3589 118.946 89.0066L118.926 89.005L118.906 89.0035C111.476 88.4599 107.206 88.4594 99.8521 89.0041L99.8462 89.0046C94.2469 89.4232 89.6839 91.5816 86.1423 94.7132C85.8399 94.2852 85.509 93.8691 85.1483 93.4674C82.452 90.4648 78.7169 88.9807 74.8675 88.9807H13.9467C10.0973 88.9807 6.36222 90.4648 3.66595 93.4674C1.04782 96.3831 0 100.056 0 103.526V139.805C0 143.223 1.01616 146.837 3.54746 149.73C1.01616 152.624 0 156.238 0 159.656V167.527C0 170.998 1.04782 174.671 3.66595 177.586C6.36222 180.589 10.0973 182.073 13.9467 182.073H74.8675C78.7169 182.073 82.452 180.589 85.1483 177.586C85.509 177.185 85.8399 176.769 86.1423 176.341C89.6839 179.472 94.2469 181.631 99.8462 182.049L99.8521 182.05C107.206 182.594 111.476 182.594 118.906 182.05L118.913 182.05L118.921 182.049ZM107.886 153.33C107.872 153.442 107.857 153.554 107.843 153.666C107.848 153.622 107.854 153.578 107.86 153.534C107.869 153.466 107.878 153.398 107.886 153.33Z" fill="#441FE2"/>
</g>
<rect x="255.976" y="119.969" width="17.1126" height="38.5033" fill="#D24C00"/>
<rect x="280.932" y="119.969" width="17.1126" height="38.5033" fill="#D24C00"/>
<rect x="104.814" y="119.969" width="38.5033" height="38.5033" fill="#D24C00"/>
<g filter="url(#filter7_dii_477_19633)">
<path d="M81.4839 159.841V167.713C81.4839 171.307 79.3448 173.702 76.0934 173.702H15.1727C11.9213 173.702 9.78223 171.307 9.78223 167.713V159.841C9.78223 156.248 11.9213 153.852 15.1727 153.852H31.3441V145.98H15.1727C11.9213 145.98 9.78223 143.584 9.78223 139.991V103.712C9.78223 100.118 11.9213 97.7227 15.1727 97.7227H76.0934C79.3448 97.7227 81.4839 100.118 81.4839 103.712V139.991C81.4839 143.584 79.3448 145.98 76.0934 145.98H59.922V153.852H76.0934C79.3448 153.852 81.4839 156.248 81.4839 159.841ZM33.3976 124.404C33.3976 125.357 34.1703 126.13 35.1234 126.13H56.1427C57.0958 126.13 57.8685 125.357 57.8685 124.404V119.299C57.8685 118.346 57.0958 117.573 56.1427 117.573H35.1234C34.1703 117.573 33.3976 118.346 33.3976 119.299V124.404Z" fill="url(#paint7_linear_477_19633)"/>
</g>
<g filter="url(#filter8_dii_477_19633)">
<path d="M234.984 159.841V167.713C234.984 171.307 232.845 173.702 229.593 173.702H168.673C165.421 173.702 163.282 171.307 163.282 167.713V159.841C163.282 156.248 165.421 153.852 168.673 153.852H184.844V145.98H168.673C165.421 145.98 163.282 143.584 163.282 139.991V103.712C163.282 100.118 165.421 97.7227 168.673 97.7227H229.593C232.845 97.7227 234.984 100.118 234.984 103.712V139.991C234.984 143.584 232.845 145.98 229.593 145.98H213.422V153.852H229.593C232.845 153.852 234.984 156.248 234.984 159.841ZM186.898 124.404C186.898 125.357 187.67 126.13 188.623 126.13H209.643C210.596 126.13 211.369 125.357 211.369 124.404V119.299C211.369 118.346 210.596 117.573 209.643 117.573H188.623C187.67 117.573 186.898 118.346 186.898 119.299V124.404Z" fill="url(#paint8_linear_477_19633)"/>
</g>
<g filter="url(#filter9_dii_477_19633)">
<path d="M136.106 108.674V103.712C136.106 100.118 138.245 97.7224 141.497 97.7224H153.133C156.385 97.7224 158.524 100.118 158.524 103.712V167.713C158.524 171.306 156.385 173.702 153.133 173.702H141.497C138.245 173.702 136.106 171.306 136.106 167.713V161.895H132.769C130.801 168.055 126.352 173.189 119.507 173.702C112.491 174.216 108.641 174.216 101.71 173.702C92.5549 173.018 86.9933 164.547 86.6511 155.905C85.9666 138.793 85.9666 132.632 86.6511 115.52C86.9933 106.878 92.5549 98.4069 101.71 97.7224C108.641 97.2091 112.491 97.2091 119.507 97.7224C126.096 98.2358 130.374 102.856 132.427 108.674H136.106ZM108.599 151.899C108.477 152.934 109.28 153.852 110.322 153.852H110.759C111.621 153.852 112.352 153.215 112.461 152.36C113.908 141.018 113.908 130.407 112.461 119.065C112.352 118.21 111.621 117.573 110.759 117.573H110.322C109.28 117.573 108.477 118.49 108.599 119.525C109.9 130.541 109.9 140.883 108.599 151.899ZM133.614 140.307C133.605 140.791 133.994 141.188 134.478 141.188H135.956C136.433 141.188 136.819 140.802 136.819 140.325V130.244C136.819 129.767 136.433 129.381 135.956 129.381H134.478C133.994 129.381 133.605 129.778 133.614 130.262C133.676 133.722 133.676 136.91 133.614 140.307Z" fill="url(#paint9_linear_477_19633)"/>
</g>
<g filter="url(#filter10_dii_477_19633)">
<path d="M289.606 108.674V103.712C289.606 100.118 291.745 97.7224 294.997 97.7224H306.633C309.885 97.7224 312.024 100.118 312.024 103.712V167.713C312.024 171.306 309.885 173.702 306.633 173.702H294.997C291.745 173.702 289.606 171.306 289.606 167.713V161.895H286.269C284.301 168.055 279.852 173.189 273.007 173.702C265.991 174.216 262.141 174.216 255.21 173.702C246.055 173.018 240.493 164.547 240.151 155.905C239.467 138.793 239.467 132.632 240.151 115.52C240.493 106.878 246.055 98.4069 255.21 97.7224C262.141 97.2091 265.991 97.2091 273.007 97.7224C279.596 98.2358 283.874 102.856 285.927 108.674H289.606ZM262.099 151.899C261.977 152.934 262.78 153.852 263.822 153.852H264.259C265.121 153.852 265.852 153.215 265.961 152.36C267.408 141.018 267.408 130.407 265.961 119.065C265.852 118.21 265.121 117.573 264.259 117.573H263.822C262.78 117.573 261.977 118.49 262.099 119.525C263.4 130.541 263.4 140.883 262.099 151.899ZM287.114 140.307C287.105 140.791 287.494 141.188 287.978 141.188H289.456C289.933 141.188 290.319 140.802 290.319 140.325V130.244C290.319 129.767 289.933 129.381 289.456 129.381H287.978C287.494 129.381 287.105 129.778 287.114 130.262C287.176 133.722 287.176 136.91 287.114 140.307Z" fill="url(#paint10_linear_477_19633)"/>
</g>
<path d="M140.766 100.717L145.013 100.717C145.193 100.717 145.302 100.93 145.204 101.081C144.727 101.814 143.692 103.641 143.124 106.421C142.54 109.273 139.04 139.22 139.04 139.22L139.04 102.443C139.04 101.49 139.813 100.717 140.766 100.717Z" fill="url(#paint11_linear_477_19633)"/>
<path d="M97.4901 103.213C99.8914 101.567 106.062 101.419 108.282 101.421C108.503 101.421 108.579 101.714 108.387 101.823C106.06 103.145 98.6508 107.582 96.2584 111.769C91.5484 120.011 90.6841 128.913 90.5541 133.004L90.5541 135.299C90.5541 135.299 90.508 134.453 90.5541 133.004L90.5541 121.751C90.5541 114.978 91.7473 107.15 97.4901 103.213Z" fill="url(#paint12_linear_477_19633)"/>
<path d="M250.81 103.213C253.212 101.567 259.382 101.419 261.602 101.421C261.823 101.421 261.899 101.714 261.707 101.823C259.381 103.145 251.971 107.582 249.579 111.769C244.869 120.011 244.004 128.913 243.874 133.004L243.874 135.299C243.874 135.299 243.828 134.453 243.874 133.004L243.874 121.751C243.874 114.978 245.068 107.15 250.81 103.213Z" fill="url(#paint13_linear_477_19633)"/>
<path d="M11.4083 158.059L11.4083 162.701C11.4083 162.919 11.7237 163.02 11.8634 162.853C12.3559 162.266 13.2394 161.392 14.4716 160.87C16.0033 160.222 32.0859 156.333 32.0859 156.333L13.1341 156.333C12.181 156.333 11.4083 157.105 11.4083 158.059Z" fill="url(#paint14_linear_477_19633)"/>
<path d="M79.1458 168.867L79.1458 163.902C79.1458 163.723 78.9362 163.614 78.7859 163.711C77.9935 164.225 75.9094 165.41 72.7022 166.056C69.4804 166.704 35.6514 170.593 35.6514 170.593L77.4199 170.593C78.3731 170.593 79.1458 169.82 79.1458 168.867Z" fill="url(#paint15_linear_477_19633)" fill-opacity="0.5"/>
<path d="M232.446 168.867L232.446 163.902C232.446 163.723 232.236 163.614 232.086 163.711C231.293 164.225 229.209 165.41 226.002 166.056C222.78 166.704 188.951 170.593 188.951 170.593L230.72 170.593C231.673 170.593 232.446 169.82 232.446 168.867Z" fill="url(#paint16_linear_477_19633)" fill-opacity="0.5"/>
<path d="M11.4078 102.443L11.4078 109.928C11.4078 110.146 11.7199 110.244 11.8542 110.072C12.4843 109.264 13.7696 107.87 15.6331 107.069C17.7458 106.162 39.9287 100.717 39.9287 100.717L13.1336 100.717C12.1805 100.717 11.4078 101.49 11.4078 102.443Z" fill="url(#paint17_linear_477_19633)"/>
<path d="M166.134 102.443L166.134 109.928C166.134 110.146 166.447 110.244 166.581 110.072C167.211 109.264 168.496 107.87 170.36 107.069C172.472 106.162 194.655 100.717 194.655 100.717L167.86 100.717C166.907 100.717 166.134 101.49 166.134 102.443Z" fill="url(#paint18_linear_477_19633)"/>
<path d="M166.134 158.059L166.134 162.701C166.134 162.919 166.449 163.02 166.589 162.853C167.081 162.266 167.965 161.392 169.197 160.87C170.729 160.222 186.812 156.333 186.812 156.333L167.86 156.333C166.907 156.333 166.134 157.105 166.134 158.059Z" fill="url(#paint19_linear_477_19633)"/>
<path d="M306.094 168.454H303.721C303.403 168.454 303.183 168.119 303.293 167.821C303.612 166.96 304.15 165.236 304.461 162.75C304.818 159.898 306.957 129.951 306.957 129.951V167.592C306.957 168.068 306.57 168.454 306.094 168.454Z" fill="url(#paint20_linear_477_19633)"/>
<rect x="51.3379" y="52.2314" width="9.98233" height="13.5474" rx="4.99116" fill="#4120D5"/>
<rect x="227.455" y="36.5449" width="6.41721" height="8.55628" rx="3.20861" fill="#4120D5"/>
<rect x="144.031" y="50.0923" width="6.41721" height="8.55628" rx="3.20861" fill="#4120D5"/>
<rect x="173.265" y="65.7788" width="6.41721" height="8.55628" rx="3.20861" fill="#4120D5"/>
<rect x="101.249" y="70.0571" width="6.41721" height="8.55628" rx="3.20861" fill="#4120D5"/>
<rect x="67.7373" y="52.2314" width="9.98233" height="13.5474" rx="4.99116" fill="#4120D5"/>
<rect x="154.013" y="50.0923" width="6.41721" height="8.55628" rx="3.20861" fill="#4120D5"/>
<rect x="237.438" y="36.5449" width="6.41721" height="8.55628" rx="3.20861" fill="#4120D5"/>
<rect x="183.247" y="65.7788" width="6.41721" height="8.55628" rx="3.20861" fill="#4120D5"/>
<rect x="111.231" y="70.0571" width="6.41721" height="8.55628" rx="3.20861" fill="#4120D5"/>
<defs>
<filter id="filter0_di_477_19633" x="180.132" y="53.9621" width="109.739" height="62.2088" filterUnits="userSpaceOnUse" color-interpolation-filters="sRGB">
<feFlood flood-opacity="0" result="BackgroundImageFix"/>
<feColorMatrix in="SourceAlpha" type="matrix" values="0 0 0 0 0 0 0 0 0 0 0 0 0 0 0 0 0 0 127 0" result="hardAlpha"/>
<feOffset dy="2.50105"/>
<feGaussianBlur stdDeviation="6.25264"/>
<feComposite in2="hardAlpha" operator="out"/>
<feColorMatrix type="matrix" values="0 0 0 0 0.0980392 0 0 0 0 0.121569 0 0 0 0 0.176471 0 0 0 0.3 0"/>
<feBlend mode="normal" in2="BackgroundImageFix" result="effect1_dropShadow_477_19633"/>
<feBlend mode="normal" in="SourceGraphic" in2="effect1_dropShadow_477_19633" result="shape"/>
<feColorMatrix in="SourceAlpha" type="matrix" values="0 0 0 0 0 0 0 0 0 0 0 0 0 0 0 0 0 0 127 0" result="hardAlpha"/>
<feOffset dx="2.50105" dy="2.50105"/>
<feGaussianBlur stdDeviation="3.75158"/>
<feComposite in2="hardAlpha" operator="arithmetic" k2="-1" k3="1"/>
<feColorMatrix type="matrix" values="0 0 0 0 1 0 0 0 0 1 0 0 0 0 1 0 0 0 0.25 0"/>
<feBlend mode="normal" in2="shape" result="effect2_innerShadow_477_19633"/>
</filter>
<filter id="filter1_di_477_19633" x="177.159" y="15.8454" width="92.035" height="67.0789" filterUnits="userSpaceOnUse" color-interpolation-filters="sRGB">
<feFlood flood-opacity="0" result="BackgroundImageFix"/>
<feColorMatrix in="SourceAlpha" type="matrix" values="0 0 0 0 0 0 0 0 0 0 0 0 0 0 0 0 0 0 127 0" result="hardAlpha"/>
<feOffset dy="2.50105"/>
<feGaussianBlur stdDeviation="6.25264"/>
<feComposite in2="hardAlpha" operator="out"/>
<feColorMatrix type="matrix" values="0 0 0 0 0.0980392 0 0 0 0 0.121569 0 0 0 0 0.176471 0 0 0 0.3 0"/>
<feBlend mode="normal" in2="BackgroundImageFix" result="effect1_dropShadow_477_19633"/>
<feBlend mode="normal" in="SourceGraphic" in2="effect1_dropShadow_477_19633" result="shape"/>
<feColorMatrix in="SourceAlpha" type="matrix" values="0 0 0 0 0 0 0 0 0 0 0 0 0 0 0 0 0 0 127 0" result="hardAlpha"/>
<feOffset dx="2.50105" dy="2.50105"/>
<feGaussianBlur stdDeviation="3.75158"/>
<feComposite in2="hardAlpha" operator="arithmetic" k2="-1" k3="1"/>
<feColorMatrix type="matrix" values="0 0 0 0 1 0 0 0 0 1 0 0 0 0 1 0 0 0 0.25 0"/>
<feBlend mode="normal" in2="shape" result="effect2_innerShadow_477_19633"/>
</filter>
<filter id="filter2_di_477_19633" x="21.0074" y="2.29803" width="132.471" height="153.137" filterUnits="userSpaceOnUse" color-interpolation-filters="sRGB">
<feFlood flood-opacity="0" result="BackgroundImageFix"/>
<feColorMatrix in="SourceAlpha" type="matrix" values="0 0 0 0 0 0 0 0 0 0 0 0 0 0 0 0 0 0 127 0" result="hardAlpha"/>
<feOffset dy="2.50105"/>
<feGaussianBlur stdDeviation="6.25264"/>
<feComposite in2="hardAlpha" operator="out"/>
<feColorMatrix type="matrix" values="0 0 0 0 0.0980392 0 0 0 0 0.121569 0 0 0 0 0.176471 0 0 0 0.3 0"/>
<feBlend mode="normal" in2="BackgroundImageFix" result="effect1_dropShadow_477_19633"/>
<feBlend mode="normal" in="SourceGraphic" in2="effect1_dropShadow_477_19633" result="shape"/>
<feColorMatrix in="SourceAlpha" type="matrix" values="0 0 0 0 0 0 0 0 0 0 0 0 0 0 0 0 0 0 127 0" result="hardAlpha"/>
<feOffset dx="2.50105" dy="2.50105"/>
<feGaussianBlur stdDeviation="3.75158"/>
<feComposite in2="hardAlpha" operator="arithmetic" k2="-1" k3="1"/>
<feColorMatrix type="matrix" values="0 0 0 0 1 0 0 0 0 1 0 0 0 0 1 0 0 0 0.25 0"/>
<feBlend mode="normal" in2="shape" result="effect2_innerShadow_477_19633"/>
</filter>
<filter id="filter3_di_477_19633" x="115.036" y="22.9636" width="68.408" height="151.071" filterUnits="userSpaceOnUse" color-interpolation-filters="sRGB">
<feFlood flood-opacity="0" result="BackgroundImageFix"/>
<feColorMatrix in="SourceAlpha" type="matrix" values="0 0 0 0 0 0 0 0 0 0 0 0 0 0 0 0 0 0 127 0" result="hardAlpha"/>
<feOffset dy="2.50105"/>
<feGaussianBlur stdDeviation="6.25264"/>
<feComposite in2="hardAlpha" operator="out"/>
<feColorMatrix type="matrix" values="0 0 0 0 0.0980392 0 0 0 0 0.121569 0 0 0 0 0.176471 0 0 0 0.3 0"/>
<feBlend mode="normal" in2="BackgroundImageFix" result="effect1_dropShadow_477_19633"/>
<feBlend mode="normal" in="SourceGraphic" in2="effect1_dropShadow_477_19633" result="shape"/>
<feColorMatrix in="SourceAlpha" type="matrix" values="0 0 0 0 0 0 0 0 0 0 0 0 0 0 0 0 0 0 127 0" result="hardAlpha"/>
<feOffset dx="2.50105" dy="2.50105"/>
<feGaussianBlur stdDeviation="3.75158"/>
<feComposite in2="hardAlpha" operator="arithmetic" k2="-1" k3="1"/>
<feColorMatrix type="matrix" values="0 0 0 0 1 0 0 0 0 1 0 0 0 0 1 0 0 0 0.25 0"/>
<feBlend mode="normal" in2="shape" result="effect2_innerShadow_477_19633"/>
</filter>
<filter id="filter4_di_477_19633" x="130.138" y="18.0721" width="114.382" height="108.244" filterUnits="userSpaceOnUse" color-interpolation-filters="sRGB">
<feFlood flood-opacity="0" result="BackgroundImageFix"/>
<feColorMatrix in="SourceAlpha" type="matrix" values="0 0 0 0 0 0 0 0 0 0 0 0 0 0 0 0 0 0 127 0" result="hardAlpha"/>
<feOffset dy="2.50105"/>
<feGaussianBlur stdDeviation="12.5053"/>
<feComposite in2="hardAlpha" operator="out"/>
<feColorMatrix type="matrix" values="0 0 0 0 0.0980392 0 0 0 0 0.121569 0 0 0 0 0.176471 0 0 0 0.3 0"/>
<feBlend mode="normal" in2="BackgroundImageFix" result="effect1_dropShadow_477_19633"/>
<feBlend mode="normal" in="SourceGraphic" in2="effect1_dropShadow_477_19633" result="shape"/>
<feColorMatrix in="SourceAlpha" type="matrix" values="0 0 0 0 0 0 0 0 0 0 0 0 0 0 0 0 0 0 127 0" result="hardAlpha"/>
<feOffset dx="2.50105" dy="2.50105"/>
<feGaussianBlur stdDeviation="3.75158"/>
<feComposite in2="hardAlpha" operator="arithmetic" k2="-1" k3="1"/>
<feColorMatrix type="matrix" values="0 0 0 0 1 0 0 0 0 1 0 0 0 0 1 0 0 0 0.25 0"/>
<feBlend mode="normal" in2="shape" result="effect2_innerShadow_477_19633"/>
</filter>
<filter id="filter5_i_477_19633" x="90.3428" y="57.7666" width="48.9991" height="62.4312" filterUnits="userSpaceOnUse" color-interpolation-filters="sRGB">
<feFlood flood-opacity="0" result="BackgroundImageFix"/>
<feBlend mode="normal" in="SourceGraphic" in2="BackgroundImageFix" result="shape"/>
<feColorMatrix in="SourceAlpha" type="matrix" values="0 0 0 0 0 0 0 0 0 0 0 0 0 0 0 0 0 0 127 0" result="hardAlpha"/>
<feOffset dx="2.50105" dy="2.50105"/>
<feGaussianBlur stdDeviation="3.75158"/>
<feComposite in2="hardAlpha" operator="arithmetic" k2="-1" k3="1"/>
<feColorMatrix type="matrix" values="0 0 0 0 1 0 0 0 0 1 0 0 0 0 1 0 0 0 0.25 0"/>
<feBlend mode="normal" in2="shape" result="effect1_innerShadow_477_19633"/>
</filter>
<filter id="filter6_d_477_19633" x="0" y="88.5957" width="319.934" height="99.0399" filterUnits="userSpaceOnUse" color-interpolation-filters="sRGB">
<feFlood flood-opacity="0" result="BackgroundImageFix"/>
<feColorMatrix in="SourceAlpha" type="matrix" values="0 0 0 0 0 0 0 0 0 0 0 0 0 0 0 0 0 0 127 0" result="hardAlpha"/>
<feOffset dy="5.17762"/>
<feComposite in2="hardAlpha" operator="out"/>
<feColorMatrix type="matrix" values="0 0 0 0 0.266667 0 0 0 0 0.121569 0 0 0 0 0.886275 0 0 0 1 0"/>
<feBlend mode="normal" in2="BackgroundImageFix" result="effect1_dropShadow_477_19633"/>
<feBlend mode="normal" in="SourceGraphic" in2="effect1_dropShadow_477_19633" result="shape"/>
</filter>
<filter id="filter7_dii_477_19633" x="8.05635" y="95.9968" width="75.1529" height="82.8835" filterUnits="userSpaceOnUse" color-interpolation-filters="sRGB">
<feFlood flood-opacity="0" result="BackgroundImageFix"/>
<feColorMatrix in="SourceAlpha" type="matrix" values="0 0 0 0 0 0 0 0 0 0 0 0 0 0 0 0 0 0 127 0" result="hardAlpha"/>
<feOffset dy="5.17762"/>
<feComposite in2="hardAlpha" operator="out"/>
<feColorMatrix type="matrix" values="0 0 0 0 0.904167 0 0 0 0 0 0 0 0 0 0.5425 0 0 0 1 0"/>
<feBlend mode="normal" in2="BackgroundImageFix" result="effect1_dropShadow_477_19633"/>
<feBlend mode="normal" in="SourceGraphic" in2="effect1_dropShadow_477_19633" result="shape"/>
<feColorMatrix in="SourceAlpha" type="matrix" values="0 0 0 0 0 0 0 0 0 0 0 0 0 0 0 0 0 0 127 0" result="hardAlpha"/>
<feOffset dx="1.72587" dy="1.72587"/>
<feGaussianBlur stdDeviation="1.72587"/>
<feComposite in2="hardAlpha" operator="arithmetic" k2="-1" k3="1"/>
<feColorMatrix type="matrix" values="0 0 0 0 1 0 0 0 0 1 0 0 0 0 1 0 0 0 0.5 0"/>
<feBlend mode="normal" in2="shape" result="effect2_innerShadow_477_19633"/>
<feColorMatrix in="SourceAlpha" type="matrix" values="0 0 0 0 0 0 0 0 0 0 0 0 0 0 0 0 0 0 127 0" result="hardAlpha"/>
<feOffset dx="-1.72587" dy="-1.72587"/>
<feGaussianBlur stdDeviation="1.72587"/>
<feComposite in2="hardAlpha" operator="arithmetic" k2="-1" k3="1"/>
<feColorMatrix type="matrix" values="0 0 0 0 1 0 0 0 0 0.478431 0 0 0 0 0.00392157 0 0 0 1 0"/>
<feBlend mode="normal" in2="effect2_innerShadow_477_19633" result="effect3_innerShadow_477_19633"/>
</filter>
<filter id="filter8_dii_477_19633" x="161.556" y="95.9968" width="75.1529" height="82.8835" filterUnits="userSpaceOnUse" color-interpolation-filters="sRGB">
<feFlood flood-opacity="0" result="BackgroundImageFix"/>
<feColorMatrix in="SourceAlpha" type="matrix" values="0 0 0 0 0 0 0 0 0 0 0 0 0 0 0 0 0 0 127 0" result="hardAlpha"/>
<feOffset dy="5.17762"/>
<feComposite in2="hardAlpha" operator="out"/>
<feColorMatrix type="matrix" values="0 0 0 0 0.904167 0 0 0 0 0 0 0 0 0 0.5425 0 0 0 1 0"/>
<feBlend mode="normal" in2="BackgroundImageFix" result="effect1_dropShadow_477_19633"/>
<feBlend mode="normal" in="SourceGraphic" in2="effect1_dropShadow_477_19633" result="shape"/>
<feColorMatrix in="SourceAlpha" type="matrix" values="0 0 0 0 0 0 0 0 0 0 0 0 0 0 0 0 0 0 127 0" result="hardAlpha"/>
<feOffset dx="1.72587" dy="1.72587"/>
<feGaussianBlur stdDeviation="1.72587"/>
<feComposite in2="hardAlpha" operator="arithmetic" k2="-1" k3="1"/>
<feColorMatrix type="matrix" values="0 0 0 0 1 0 0 0 0 1 0 0 0 0 1 0 0 0 0.5 0"/>
<feBlend mode="normal" in2="shape" result="effect2_innerShadow_477_19633"/>
<feColorMatrix in="SourceAlpha" type="matrix" values="0 0 0 0 0 0 0 0 0 0 0 0 0 0 0 0 0 0 127 0" result="hardAlpha"/>
<feOffset dx="-1.72587" dy="-1.72587"/>
<feGaussianBlur stdDeviation="1.72587"/>
<feComposite in2="hardAlpha" operator="arithmetic" k2="-1" k3="1"/>
<feColorMatrix type="matrix" values="0 0 0 0 1 0 0 0 0 0.478431 0 0 0 0 0.00392157 0 0 0 1 0"/>
<feBlend mode="normal" in2="effect2_innerShadow_477_19633" result="effect3_innerShadow_477_19633"/>
</filter>
<filter id="filter9_dii_477_19633" x="84.4118" y="95.6115" width="75.8375" height="83.6535" filterUnits="userSpaceOnUse" color-interpolation-filters="sRGB">
<feFlood flood-opacity="0" result="BackgroundImageFix"/>
<feColorMatrix in="SourceAlpha" type="matrix" values="0 0 0 0 0 0 0 0 0 0 0 0 0 0 0 0 0 0 127 0" result="hardAlpha"/>
<feOffset dy="5.17762"/>
<feComposite in2="hardAlpha" operator="out"/>
<feColorMatrix type="matrix" values="0 0 0 0 0.904167 0 0 0 0 0 0 0 0 0 0.5425 0 0 0 1 0"/>
<feBlend mode="normal" in2="BackgroundImageFix" result="effect1_dropShadow_477_19633"/>
<feBlend mode="normal" in="SourceGraphic" in2="effect1_dropShadow_477_19633" result="shape"/>
<feColorMatrix in="SourceAlpha" type="matrix" values="0 0 0 0 0 0 0 0 0 0 0 0 0 0 0 0 0 0 127 0" result="hardAlpha"/>
<feOffset dx="1.72587" dy="1.72587"/>
<feGaussianBlur stdDeviation="1.72587"/>
<feComposite in2="hardAlpha" operator="arithmetic" k2="-1" k3="1"/>
<feColorMatrix type="matrix" values="0 0 0 0 1 0 0 0 0 1 0 0 0 0 1 0 0 0 0.5 0"/>
<feBlend mode="normal" in2="shape" result="effect2_innerShadow_477_19633"/>
<feColorMatrix in="SourceAlpha" type="matrix" values="0 0 0 0 0 0 0 0 0 0 0 0 0 0 0 0 0 0 127 0" result="hardAlpha"/>
<feOffset dx="-1.72587" dy="-1.72587"/>
<feGaussianBlur stdDeviation="1.72587"/>
<feComposite in2="hardAlpha" operator="arithmetic" k2="-1" k3="1"/>
<feColorMatrix type="matrix" values="0 0 0 0 1 0 0 0 0 0.478431 0 0 0 0 0.00392157 0 0 0 1 0"/>
<feBlend mode="normal" in2="effect2_innerShadow_477_19633" result="effect3_innerShadow_477_19633"/>
</filter>
<filter id="filter10_dii_477_19633" x="237.912" y="95.6115" width="75.8375" height="83.6535" filterUnits="userSpaceOnUse" color-interpolation-filters="sRGB">
<feFlood flood-opacity="0" result="BackgroundImageFix"/>
<feColorMatrix in="SourceAlpha" type="matrix" values="0 0 0 0 0 0 0 0 0 0 0 0 0 0 0 0 0 0 127 0" result="hardAlpha"/>
<feOffset dy="5.17762"/>
<feComposite in2="hardAlpha" operator="out"/>
<feColorMatrix type="matrix" values="0 0 0 0 0.904167 0 0 0 0 0 0 0 0 0 0.5425 0 0 0 1 0"/>
<feBlend mode="normal" in2="BackgroundImageFix" result="effect1_dropShadow_477_19633"/>
<feBlend mode="normal" in="SourceGraphic" in2="effect1_dropShadow_477_19633" result="shape"/>
<feColorMatrix in="SourceAlpha" type="matrix" values="0 0 0 0 0 0 0 0 0 0 0 0 0 0 0 0 0 0 127 0" result="hardAlpha"/>
<feOffset dx="1.72587" dy="1.72587"/>
<feGaussianBlur stdDeviation="1.72587"/>
<feComposite in2="hardAlpha" operator="arithmetic" k2="-1" k3="1"/>
<feColorMatrix type="matrix" values="0 0 0 0 1 0 0 0 0 1 0 0 0 0 1 0 0 0 0.5 0"/>
<feBlend mode="normal" in2="shape" result="effect2_innerShadow_477_19633"/>
<feColorMatrix in="SourceAlpha" type="matrix" values="0 0 0 0 0 0 0 0 0 0 0 0 0 0 0 0 0 0 127 0" result="hardAlpha"/>
<feOffset dx="-1.72587" dy="-1.72587"/>
<feGaussianBlur stdDeviation="1.72587"/>
<feComposite in2="hardAlpha" operator="arithmetic" k2="-1" k3="1"/>
<feColorMatrix type="matrix" values="0 0 0 0 1 0 0 0 0 0.478431 0 0 0 0 0.00392157 0 0 0 1 0"/>
<feBlend mode="normal" in2="effect2_innerShadow_477_19633" result="effect3_innerShadow_477_19633"/>
</filter>
<linearGradient id="paint0_linear_477_19633" x1="308.509" y1="89.1452" x2="281.816" y2="101.209" gradientUnits="userSpaceOnUse">
<stop stop-color="#A500C0"/>
<stop offset="1" stop-color="#C9001A"/>
</linearGradient>
<linearGradient id="paint1_linear_477_19633" x1="256.688" y1="63.9696" x2="299.523" y2="38.0891" gradientUnits="userSpaceOnUse">
<stop stop-color="#FF1717"/>
<stop offset="1" stop-color="#CB007A"/>
</linearGradient>
<linearGradient id="paint2_linear_477_19633" x1="334.632" y1="34.4988" x2="322.199" y2="70.0386" gradientUnits="userSpaceOnUse">
<stop stop-color="#5434DE"/>
<stop offset="1" stop-color="#5C3BEE" stop-opacity="0"/>
</linearGradient>
<linearGradient id="paint3_linear_477_19633" x1="131.71" y1="34.0053" x2="106.292" y2="91.2399" gradientUnits="userSpaceOnUse">
<stop stop-color="#FFCA51"/>
<stop offset="1" stop-color="#FF7A01"/>
</linearGradient>
<linearGradient id="paint4_linear_477_19633" x1="142.52" y1="30.6144" x2="147.473" y2="85.5778" gradientUnits="userSpaceOnUse">
<stop stop-color="#AC99FF"/>
<stop offset="0.974132" stop-color="#703EFF"/>
</linearGradient>
<linearGradient id="paint5_linear_477_19633" x1="172.821" y1="41.4897" x2="213.962" y2="90.9825" gradientUnits="userSpaceOnUse">
<stop stop-color="#7BEE20"/>
<stop offset="1" stop-color="#039E13"/>
</linearGradient>
<linearGradient id="paint6_linear_477_19633" x1="134.976" y1="61.4092" x2="116.518" y2="82.5535" gradientUnits="userSpaceOnUse">
<stop stop-color="#2CD8FD"/>
<stop offset="1" stop-color="#0F83F7"/>
</linearGradient>
<linearGradient id="paint7_linear_477_19633" x1="111.231" y1="180.219" x2="110.518" y2="82.1787" gradientUnits="userSpaceOnUse">
<stop stop-color="#FFB200"/>
<stop offset="0.99888" stop-color="#FFDF95"/>
</linearGradient>
<linearGradient id="paint8_linear_477_19633" x1="264.731" y1="180.219" x2="264.018" y2="82.1787" gradientUnits="userSpaceOnUse">
<stop stop-color="#FFB200"/>
<stop offset="0.99888" stop-color="#FFDF95"/>
</linearGradient>
<linearGradient id="paint9_linear_477_19633" x1="111.231" y1="180.219" x2="110.518" y2="82.1785" gradientUnits="userSpaceOnUse">
<stop stop-color="#FFB200"/>
<stop offset="0.99888" stop-color="#FFDF95"/>
</linearGradient>
<linearGradient id="paint10_linear_477_19633" x1="264.731" y1="180.219" x2="264.018" y2="82.1785" gradientUnits="userSpaceOnUse">
<stop stop-color="#FFB200"/>
<stop offset="0.99888" stop-color="#FFDF95"/>
</linearGradient>
<linearGradient id="paint11_linear_477_19633" x1="142.248" y1="139.22" x2="142.248" y2="100.717" gradientUnits="userSpaceOnUse">
<stop stop-color="white" stop-opacity="0"/>
<stop offset="1" stop-color="white" stop-opacity="0.7"/>
</linearGradient>
<linearGradient id="paint12_linear_477_19633" x1="96.6149" y1="142.786" x2="96.6149" y2="104.282" gradientUnits="userSpaceOnUse">
<stop stop-color="white" stop-opacity="0"/>
<stop offset="1" stop-color="white" stop-opacity="0.7"/>
</linearGradient>
<linearGradient id="paint13_linear_477_19633" x1="249.935" y1="142.786" x2="249.935" y2="104.282" gradientUnits="userSpaceOnUse">
<stop stop-color="white" stop-opacity="0"/>
<stop offset="1" stop-color="white" stop-opacity="0.7"/>
</linearGradient>
<linearGradient id="paint14_linear_477_19633" x1="32.0859" y1="159.898" x2="11.4083" y2="159.898" gradientUnits="userSpaceOnUse">
<stop stop-color="white" stop-opacity="0"/>
<stop offset="1" stop-color="white" stop-opacity="0.7"/>
</linearGradient>
<linearGradient id="paint15_linear_477_19633" x1="35.6514" y1="167.028" x2="79.1458" y2="167.028" gradientUnits="userSpaceOnUse">
<stop stop-color="white" stop-opacity="0"/>
<stop offset="1" stop-color="white" stop-opacity="0.7"/>
</linearGradient>
<linearGradient id="paint16_linear_477_19633" x1="188.951" y1="167.028" x2="232.446" y2="167.028" gradientUnits="userSpaceOnUse">
<stop stop-color="white" stop-opacity="0"/>
<stop offset="1" stop-color="white" stop-opacity="0.7"/>
</linearGradient>
<linearGradient id="paint17_linear_477_19633" x1="39.9287" y1="105.708" x2="11.4078" y2="105.708" gradientUnits="userSpaceOnUse">
<stop stop-color="white" stop-opacity="0"/>
<stop offset="1" stop-color="white" stop-opacity="0.7"/>
</linearGradient>
<linearGradient id="paint18_linear_477_19633" x1="194.655" y1="105.708" x2="166.134" y2="105.708" gradientUnits="userSpaceOnUse">
<stop stop-color="white" stop-opacity="0"/>
<stop offset="1" stop-color="white" stop-opacity="0.7"/>
</linearGradient>
<linearGradient id="paint19_linear_477_19633" x1="186.812" y1="159.898" x2="166.134" y2="159.898" gradientUnits="userSpaceOnUse">
<stop stop-color="white" stop-opacity="0"/>
<stop offset="1" stop-color="white" stop-opacity="0.7"/>
</linearGradient>
<linearGradient id="paint20_linear_477_19633" x1="304.996" y1="129.951" x2="304.996" y2="168.454" gradientUnits="userSpaceOnUse">
<stop stop-color="white" stop-opacity="0"/>
<stop offset="1" stop-color="white" stop-opacity="0.7"/>
</linearGradient>
</defs>
</svg>
