<svg width="24" height="18" viewBox="0 0 20 18" fill="current" xmlns="http://www.w3.org/2000/svg">
<path id="Vector" d="M19.94 8.23008C19.57 5.76008 17.32 4.00008 14.82 4.00008H11.95C11.43 4.00008 11 4.43008 11 4.95008C11 5.47008 11.43 5.90008 11.95 5.90008H14.85C16.45 5.90008 17.89 7.04008 18.07 8.63008C18.24 10.0601 17.43 11.3201 16.22 11.8501L17.62 13.2501C19.25 12.2301 20.26 10.3401 19.94 8.23008ZM2.12 0.560078C1.73 0.170078 1.1 0.170078 0.71 0.560078C0.32 0.950078 0.32 1.58008 0.71 1.97008L3.11 4.37008C1.17 5.17008 -0.16 7.14008 0.0200002 9.41008C0.23 12.0501 2.59 14.0001 5.23 14.0001H8.05C8.57 14.0001 9 13.5701 9 13.0501C9 12.5301 8.57 12.1001 8.05 12.1001H5.16C3.53 12.1001 2.06 10.9101 1.91 9.28008C1.76 7.56008 3.02 6.11008 4.66 5.93008L6.76 8.03008C6.33 8.12008 6 8.49008 6 8.95008V9.05008C6 9.57008 6.43 10.0001 6.95 10.0001H8.73L11 12.2701V14.0001H12.73L16.03 17.3001C16.42 17.6901 17.05 17.6901 17.44 17.3001C17.83 16.9101 17.83 16.2801 17.44 15.8901L2.12 0.560078ZM14 8.95008C14 8.43008 13.57 8.00008 13.05 8.00008H12.39L13.88 9.49008C13.95 9.36008 14 9.21008 14 9.05008V8.95008Z" fill-opacity="0.16"/>
</svg>
