<svg xmlns="http://www.w3.org/2000/svg" width="32" height="32" viewBox="0 0 32 32" fill="none">
  <path d="M13.3334 2.6665L12 3.99984H6.66671C5.86671 3.99984 5.33337 4.53317 5.33337 5.33317C5.33337 6.13317 5.86671 6.6665 6.66671 6.6665H9.33337H22.6667H25.3334C26.1334 6.6665 26.6667 6.13317 26.6667 5.33317C26.6667 4.53317 26.1334 3.99984 25.3334 3.99984H20L18.6667 2.6665H13.3334ZM6.66671 9.33317V26.6665C6.66671 28.1332 7.86671 29.3332 9.33337 29.3332H22.6667C24.1334 29.3332 25.3334 28.1332 25.3334 26.6665V9.33317H6.66671ZM12 11.9998C12.8 11.9998 13.3334 12.5332 13.3334 13.3332V25.3332C13.3334 26.1332 12.8 26.6665 12 26.6665C11.2 26.6665 10.6667 26.1332 10.6667 25.3332V13.3332C10.6667 12.5332 11.2 11.9998 12 11.9998ZM20 11.9998C20.8 11.9998 21.3334 12.5332 21.3334 13.3332V25.3332C21.3334 26.1332 20.8 26.6665 20 26.6665C19.2 26.6665 18.6667 26.1332 18.6667 25.3332V13.3332C18.6667 12.5332 19.2 11.9998 20 11.9998Z" fill="white" />
</svg>