<svg width="16" height="17" viewBox="0 0 16 17" fill="none" xmlns="http://www.w3.org/2000/svg">
<g clip-path="url(#clip0_422_4134)">
<path d="M4.00001 13.1667C4.00001 13.9 4.60001 14.5 5.33334 14.5H10.6667C11.4 14.5 12 13.9 12 13.1667V6.5C12 5.76667 11.4 5.16667 10.6667 5.16667H5.33334C4.60001 5.16667 4.00001 5.76667 4.00001 6.5V13.1667ZM12 3.16667H10.3333L9.86001 2.69333C9.74001 2.57333 9.56668 2.5 9.39334 2.5H6.60668C6.43334 2.5 6.26001 2.57333 6.14001 2.69333L5.66668 3.16667H4.00001C3.63334 3.16667 3.33334 3.46667 3.33334 3.83333C3.33334 4.2 3.63334 4.5 4.00001 4.5H12C12.3667 4.5 12.6667 4.2 12.6667 3.83333C12.6667 3.46667 12.3667 3.16667 12 3.16667Z" fill="white"/>
</g>
<defs>
<clipPath id="clip0_422_4134">
<rect width="16" height="16" fill="white" transform="translate(0 0.5)"/>
</clipPath>
</defs>
</svg>
