<svg width="current" height="current" viewBox="0 0 34 34" fill="none" xmlns="http://www.w3.org/2000/svg">
<path d="M5.1425 5.14252C4.59 5.69502 4.59 6.58752 5.1425 7.14002L10.3275 12.325L9.91667 12.75H5.66667C4.8875 12.75 4.25 13.3875 4.25 14.1667V19.8334C4.25 20.6125 4.8875 21.25 5.66667 21.25H9.91667L14.5775 25.9109C15.47 26.8034 17 26.1659 17 24.905V18.9975L22.9217 24.9192C22.2275 25.4434 21.4767 25.8825 20.655 26.2084C20.145 26.4209 19.8333 26.9592 19.8333 27.5117C19.8333 28.5317 20.8675 29.1834 21.8025 28.8009C22.9358 28.3334 23.9983 27.71 24.9475 26.945L26.8458 28.8434C27.3983 29.3959 28.2908 29.3959 28.8433 28.8434C29.3958 28.2909 29.3958 27.3984 28.8433 26.8459L7.15417 5.14252C6.60167 4.59002 5.70917 4.59002 5.1425 5.14252ZM26.9167 17C26.9167 18.1617 26.7042 19.2809 26.3358 20.315L28.5033 22.4825C29.2967 20.825 29.75 18.9692 29.75 17C29.75 11.5742 26.35 6.92752 21.5617 5.10002C20.7258 4.77419 19.8333 5.42586 19.8333 6.31836V6.58752C19.8333 7.12586 20.1875 7.59336 20.6975 7.79169C24.3383 9.26502 26.9167 12.835 26.9167 17ZM14.5775 8.08919L14.3367 8.33002L17 10.9934V9.08086C17 7.82002 15.47 7.19669 14.5775 8.08919ZM23.375 17C23.375 14.4925 21.93 12.3392 19.8333 11.2909V13.8267L23.3467 17.34C23.3608 17.2267 23.375 17.1134 23.375 17Z" fill="white"/>
</svg>
