<svg width="600" height="520" viewBox="0 0 600 520" fill="none" xmlns="http://www.w3.org/2000/svg">
<mask id="path-1-outside-1_891_26112" maskUnits="userSpaceOnUse" x="33" y="41.5253" width="562" height="429" fill="black">
<rect fill="white" x="33" y="41.5253" width="562" height="429"/>
<path fill-rule="evenodd" clip-rule="evenodd" d="M492.331 61.013C496.513 51.9604 507.242 48.0121 516.295 52.1942C522.058 54.8569 525.753 60.1734 526.597 66.0215L558.9 80.9448C564.013 83.3068 567.367 87.9253 568.324 93.0707L577.291 97.2131C578.585 97.8106 579.778 98.5614 580.853 99.4388C581.497 99.9644 582.096 100.533 582.646 101.138L582.646 101.139C587.012 105.939 588.363 113.092 585.453 119.392L566.571 160.265C562.7 168.643 552.771 172.297 544.393 168.427L533.41 163.353L533.336 163.319L532.065 162.732C528.721 161.187 525.494 159.039 523.173 156.081C521.999 154.585 520.642 152.251 520.116 149.439L496.334 138.453L480.58 172.554H495.386C500.524 172.554 505.509 174.688 509.107 179.007C512.602 183.201 514 188.483 514 193.475V285.526C514 286.345 513.962 287.172 513.884 288H537C548.046 288 557 296.954 557 308L557 442C557 453.046 548.046 462 537 462H61.0001C49.9544 462 41.0001 453.046 41.0001 442L41 308C41 296.954 49.9543 288 61 288H87.116C87.0377 287.172 87 286.345 87 285.526V274.204C87 269.288 88.3562 264.091 91.7346 259.929C88.3562 255.767 87 250.569 87 245.653V193.475C87 188.483 88.3985 183.201 91.8928 179.007C95.4913 174.688 100.476 172.554 105.614 172.554H120.175C120.13 171.436 120.108 170.312 120.108 169.183V141.598C120.108 95.6795 157.332 58.4552 203.251 58.4552C229.703 58.4552 253.259 70.8129 268.476 90.0359C273.779 87.4774 279.728 86.0402 286.006 86.0402C301.384 86.0402 314.755 94.636 321.576 107.285C324.087 105.624 326.822 104.417 329.652 103.663C333.898 87.948 348.255 76.3856 365.313 76.3856L403.932 76.3856C424.332 76.3856 440.87 92.9231 440.87 113.323C440.87 118.485 439.811 123.4 437.898 127.862C445.268 129.024 451.9 132.407 457.086 137.304L492.331 61.013ZM230.958 265.373C230.956 265.395 230.953 265.417 230.95 265.439L230.958 265.373Z"/>
</mask>
<path fill-rule="evenodd" clip-rule="evenodd" d="M492.331 61.013C496.513 51.9604 507.242 48.0121 516.295 52.1942C522.058 54.8569 525.753 60.1734 526.597 66.0215L558.9 80.9448C564.013 83.3068 567.367 87.9253 568.324 93.0707L577.291 97.2131C578.585 97.8106 579.778 98.5614 580.853 99.4388C581.497 99.9644 582.096 100.533 582.646 101.138L582.646 101.139C587.012 105.939 588.363 113.092 585.453 119.392L566.571 160.265C562.7 168.643 552.771 172.297 544.393 168.427L533.41 163.353L533.336 163.319L532.065 162.732C528.721 161.187 525.494 159.039 523.173 156.081C521.999 154.585 520.642 152.251 520.116 149.439L496.334 138.453L480.58 172.554H495.386C500.524 172.554 505.509 174.688 509.107 179.007C512.602 183.201 514 188.483 514 193.475V285.526C514 286.345 513.962 287.172 513.884 288H537C548.046 288 557 296.954 557 308L557 442C557 453.046 548.046 462 537 462H61.0001C49.9544 462 41.0001 453.046 41.0001 442L41 308C41 296.954 49.9543 288 61 288H87.116C87.0377 287.172 87 286.345 87 285.526V274.204C87 269.288 88.3562 264.091 91.7346 259.929C88.3562 255.767 87 250.569 87 245.653V193.475C87 188.483 88.3985 183.201 91.8928 179.007C95.4913 174.688 100.476 172.554 105.614 172.554H120.175C120.13 171.436 120.108 170.312 120.108 169.183V141.598C120.108 95.6795 157.332 58.4552 203.251 58.4552C229.703 58.4552 253.259 70.8129 268.476 90.0359C273.779 87.4774 279.728 86.0402 286.006 86.0402C301.384 86.0402 314.755 94.636 321.576 107.285C324.087 105.624 326.822 104.417 329.652 103.663C333.898 87.948 348.255 76.3856 365.313 76.3856L403.932 76.3856C424.332 76.3856 440.87 92.9231 440.87 113.323C440.87 118.485 439.811 123.4 437.898 127.862C445.268 129.024 451.9 132.407 457.086 137.304L492.331 61.013ZM230.958 265.373C230.956 265.395 230.953 265.417 230.95 265.439L230.958 265.373Z" fill="#441FE2"/>
<path d="M318.97 136.02L318.97 126.426L310.97 126.426L310.97 136.02L318.97 136.02ZM516.295 52.1942L519.65 44.9318L519.65 44.9317L516.295 52.1942ZM492.331 61.013L499.594 64.3681L499.594 64.3681L492.331 61.013ZM526.597 66.0215L518.679 67.1647C519.066 69.8453 520.783 72.1481 523.242 73.284L526.597 66.0215ZM558.9 80.9448L562.255 73.6823V73.6823L558.9 80.9448ZM568.324 93.0707L560.459 94.5346C560.934 97.0842 562.615 99.2455 564.969 100.333L568.324 93.0707ZM577.291 97.2131L573.936 104.476L573.936 104.476L577.291 97.2131ZM580.853 99.4388L575.795 105.636L575.795 105.636L580.853 99.4388ZM582.646 101.138L576.727 106.52C576.808 106.609 576.891 106.697 576.976 106.782L582.646 101.138ZM582.646 101.139L588.565 95.7568C588.484 95.6675 588.401 95.58 588.316 95.4945L582.646 101.139ZM585.453 119.392L578.191 116.037V116.037L585.453 119.392ZM566.571 160.265L559.308 156.91V156.91L566.571 160.265ZM544.393 168.427L541.037 175.689L541.037 175.689L544.393 168.427ZM533.41 163.353L530.037 170.607C530.043 170.61 530.049 170.613 530.055 170.616L533.41 163.353ZM533.336 163.319L536.709 156.065C536.703 156.062 536.697 156.059 536.691 156.056L533.336 163.319ZM532.065 162.732L528.71 169.994L528.71 169.994L532.065 162.732ZM523.173 156.081L516.879 161.02L516.879 161.02L523.173 156.081ZM520.116 149.439L527.98 147.969C527.504 145.422 525.823 143.264 523.471 142.177L520.116 149.439ZM496.334 138.453L499.69 131.19C497.763 130.3 495.563 130.212 493.571 130.945C491.58 131.678 489.962 133.172 489.072 135.098L496.334 138.453ZM480.58 172.554L473.318 169.199C472.174 171.676 472.371 174.566 473.841 176.864C475.311 179.163 477.852 180.554 480.58 180.554V172.554ZM509.107 179.007L515.253 173.886V173.886L509.107 179.007ZM513.884 288L505.92 287.247C505.707 289.489 506.451 291.718 507.967 293.384C509.483 295.05 511.631 296 513.884 296V288ZM557 308H549H557ZM557 442H565H557ZM41.0001 442H49.0001H41.0001ZM41 308H33H41ZM87.116 288V296C89.3688 296 91.5172 295.05 93.0333 293.384C94.5494 291.718 95.2926 289.489 95.0805 287.247L87.116 288ZM91.7346 259.929L97.9459 264.97C100.331 262.032 100.331 257.825 97.9459 254.887L91.7346 259.929ZM91.8928 179.007L85.7468 173.886L85.7468 173.886L91.8928 179.007ZM120.175 172.554V180.554C122.352 180.554 124.435 179.667 125.943 178.097C127.452 176.527 128.255 174.41 128.169 172.235L120.175 172.554ZM268.476 90.0359L262.204 95.0012C264.528 97.9379 268.579 98.8686 271.953 97.241L268.476 90.0359ZM321.576 107.285L314.535 111.082C315.601 113.06 317.45 114.498 319.629 115.044C321.808 115.591 324.117 115.197 325.991 113.957L321.576 107.285ZM329.652 103.663L331.712 111.393C334.472 110.657 336.63 108.507 337.375 105.75L329.652 103.663ZM365.313 76.3856V68.3856V76.3856ZM403.932 76.3856V68.3856V76.3856ZM437.898 127.862L430.545 124.711C429.573 126.98 429.702 129.57 430.896 131.731C432.09 133.892 434.214 135.38 436.652 135.765L437.898 127.862ZM457.086 137.304L451.594 143.121C453.466 144.889 456.075 145.647 458.603 145.159C461.13 144.671 463.269 142.997 464.349 140.659L457.086 137.304ZM230.95 265.439L223.008 264.479C222.478 268.865 225.603 272.85 229.989 273.381C234.375 273.912 238.361 270.788 238.892 266.402L230.95 265.439ZM230.958 265.373L238.901 266.33C239.429 261.945 236.303 257.96 231.917 257.431C227.531 256.902 223.547 260.027 223.016 264.413L230.958 265.373ZM519.65 44.9317C506.586 38.8967 491.104 44.5944 485.069 57.6579L499.594 64.3681C501.923 59.3265 507.898 57.1276 512.939 59.4567L519.65 44.9317ZM534.515 64.8783C533.3 56.4632 527.974 48.7776 519.65 44.9318L512.939 59.4567C516.142 60.9362 518.205 63.8836 518.679 67.1647L534.515 64.8783ZM562.255 73.6823L529.952 58.759L523.242 73.284L555.545 88.2072L562.255 73.6823ZM576.189 91.6067C574.777 84.0213 569.822 77.1778 562.255 73.6823L555.545 88.2072C558.204 89.4358 559.956 91.8293 560.459 94.5346L576.189 91.6067ZM580.646 89.9506L571.679 85.8082L564.969 100.333L573.936 104.476L580.646 89.9506ZM585.912 93.2412C584.321 91.9422 582.555 90.8324 580.646 89.9506L573.936 104.476C574.614 104.789 575.236 105.181 575.795 105.636L585.912 93.2412ZM588.565 95.7559C587.75 94.8605 586.865 94.0189 585.912 93.2411L575.795 105.636C576.13 105.91 576.441 106.206 576.727 106.52L588.565 95.7559ZM588.316 95.4945L588.315 95.4936L576.976 106.782L576.977 106.783L588.316 95.4945ZM592.716 122.747C597.025 113.418 595.009 102.843 588.565 95.7568L576.727 106.521C579.014 109.036 579.701 112.767 578.191 116.037L592.716 122.747ZM573.833 163.62L592.716 122.747L578.191 116.037L559.308 156.91L573.833 163.62ZM541.037 175.689C553.427 181.413 568.11 176.009 573.833 163.62L559.308 156.91C557.291 161.277 552.115 163.182 547.748 161.164L541.037 175.689ZM529.963 170.573L530.037 170.607L536.783 156.099L536.709 156.065L529.963 170.573ZM528.71 169.994L529.981 170.581L536.691 156.056L535.42 155.469L528.71 169.994ZM516.879 161.02C520.237 165.298 524.661 168.123 528.71 169.994L535.42 155.469C532.782 154.25 530.751 152.779 529.466 151.142L516.879 161.02ZM512.252 150.91C513.075 155.309 515.141 158.804 516.879 161.02L529.466 151.142C528.857 150.365 528.209 149.193 527.98 147.969L512.252 150.91ZM492.979 145.715L516.761 156.702L523.471 142.177L499.69 131.19L492.979 145.715ZM487.843 175.909L503.597 141.808L489.072 135.098L473.318 169.199L487.843 175.909ZM495.386 164.554H480.58V180.554H495.386V164.554ZM515.253 173.886C510.077 167.674 502.807 164.554 495.386 164.554V180.554C498.24 180.554 500.94 181.703 502.961 184.128L515.253 173.886ZM522 193.475C522 187.078 520.213 179.838 515.253 173.886L502.961 184.128C504.99 186.563 506 189.889 506 193.475H522ZM522 285.526V193.475H506V285.526H522ZM521.848 288.754C521.951 287.668 522 286.589 522 285.526H506C506 286.1 505.974 286.675 505.92 287.247L521.848 288.754ZM513.884 296H537V280H513.884V296ZM537 296C543.627 296 549 301.373 549 308H565C565 292.536 552.464 280 537 280V296ZM549 308L549 442H565L565 308H549ZM549 442C549 448.627 543.628 454 537 454V470C552.464 470 565 457.464 565 442H549ZM537 454H61.0001V470H537V454ZM61.0001 454C54.3727 454 49.0001 448.627 49.0001 442H33.0001C33.0001 457.464 45.5362 470 61.0001 470V454ZM49.0001 442L49 308H33L33.0001 442H49.0001ZM49 308C49 301.373 54.3726 296 61 296V280C45.536 280 33 292.536 33 308H49ZM61 296H87.116V280H61V296ZM79 285.526C79 286.589 79.0489 287.668 79.1516 288.754L95.0805 287.247C95.0264 286.675 95 286.1 95 285.526H79ZM79 274.204V285.526H95V274.204H79ZM85.5233 254.887C80.7327 260.789 79 267.903 79 274.204H95C95 270.674 95.9797 267.393 97.9459 264.97L85.5233 254.887ZM79 245.653C79 251.954 80.7327 259.069 85.5233 264.97L97.9459 254.887C95.9797 252.465 95 249.183 95 245.653H79ZM79 193.475V245.653H95V193.475H79ZM85.7468 173.886C80.7868 179.838 79 187.078 79 193.475H95C95 189.889 96.0101 186.563 98.0387 184.128L85.7468 173.886ZM105.614 164.554C98.1932 164.554 90.9227 167.674 85.7468 173.886L98.0387 184.128C100.06 181.703 102.76 180.554 105.614 180.554V164.554ZM120.175 164.554H105.614V180.554H120.175V164.554ZM112.108 169.183C112.108 170.418 112.133 171.648 112.181 172.873L128.169 172.235C128.128 171.223 128.108 170.206 128.108 169.183H112.108ZM112.108 141.598V169.183H128.108V141.598H112.108ZM203.251 50.4552C152.914 50.4552 112.108 91.2612 112.108 141.598H128.108C128.108 100.098 161.75 66.4552 203.251 66.4552V50.4552ZM274.749 85.0705C258.081 64.0147 232.253 50.4552 203.251 50.4552V66.4552C227.153 66.4552 248.438 77.6111 262.204 95.0012L274.749 85.0705ZM286.006 78.0402C278.496 78.0402 271.361 79.7617 265 82.8307L271.953 97.241C276.197 95.1932 280.96 94.0402 286.006 94.0402V78.0402ZM328.618 103.488C320.457 88.3537 304.442 78.0402 286.006 78.0402V94.0402C298.327 94.0402 309.054 100.918 314.535 111.082L328.618 103.488ZM327.591 95.9328C323.951 96.9033 320.417 98.4594 317.162 100.613L325.991 113.957C327.758 112.788 329.694 111.931 331.712 111.393L327.591 95.9328ZM365.313 68.3856C344.55 68.3856 327.094 82.4604 321.929 101.576L337.375 105.75C340.702 93.4356 351.961 84.3856 365.313 84.3856V68.3856ZM403.932 68.3856L365.313 68.3856V84.3856L403.932 84.3856V68.3856ZM448.87 113.323C448.87 88.5048 428.751 68.3856 403.932 68.3856V84.3856C419.914 84.3856 432.87 97.3414 432.87 113.323H448.87ZM445.251 131.014C447.583 125.574 448.87 119.589 448.87 113.323H432.87C432.87 117.382 432.039 121.226 430.545 124.711L445.251 131.014ZM462.578 131.487C456.255 125.518 448.156 121.381 439.144 119.96L436.652 135.765C442.38 136.668 447.544 139.297 451.594 143.121L462.578 131.487ZM485.069 57.6579L449.824 133.949L464.349 140.659L499.594 64.3681L485.069 57.6579ZM223.016 264.416C223.013 264.435 223.011 264.455 223.008 264.477L238.892 266.402C238.895 266.38 238.898 266.355 238.901 266.33L223.016 264.416ZM530.055 170.616L541.037 175.689L547.748 161.164L536.765 156.091L530.055 170.616ZM238.892 266.4L238.9 266.334L223.016 264.413L223.008 264.479L238.892 266.4Z" fill="#FFAA05" mask="url(#path-1-outside-1_891_26112)"/>
<g filter="url(#filter0_di_891_26112)">
<rect x="457.034" y="138.839" width="49.6533" height="113.099" rx="24.8266" transform="rotate(90 457.034 138.839)" fill="url(#paint0_linear_891_26112)"/>
</g>
<g filter="url(#filter1_di_891_26112)">
<rect x="429.432" y="87.9598" width="56.1544" height="89.4662" rx="28.0772" transform="rotate(90 429.432 87.9598)" fill="url(#paint1_linear_891_26112)"/>
</g>
<rect x="390.41" y="102.236" width="8.56592" height="11.4212" rx="4.28296" fill="#5818DF"/>
<rect x="403.735" y="102.236" width="8.56592" height="11.4212" rx="4.28296" fill="#5818DF"/>
<g filter="url(#filter2_di_891_26112)">
<path d="M322.793 122.299C329.002 111.412 344.697 111.412 350.905 122.299L373.057 161.147C379.207 171.933 371.418 185.342 359.001 185.342H314.697C302.28 185.342 294.491 171.933 300.641 161.147L322.793 122.299Z" fill="url(#paint2_linear_891_26112)"/>
</g>
<g filter="url(#filter3_di_891_26112)">
<rect x="131.529" y="69.8763" width="143.443" height="171.028" rx="71.7214" fill="url(#paint3_linear_891_26112)"/>
</g>
<rect x="155.323" y="123.175" width="13.3248" height="18.0836" rx="6.66238" fill="#5818DF"/>
<rect x="177.214" y="123.175" width="13.3248" height="18.0836" rx="6.66238" fill="#5818DF"/>
<g filter="url(#filter4_di_891_26112)">
<rect x="257.042" y="97.4612" width="57.9288" height="168.269" rx="28.9644" fill="url(#paint4_linear_891_26112)"/>
</g>
<rect x="279.054" y="120.32" width="8.56592" height="11.4212" rx="4.28296" fill="#5818DF"/>
<rect x="292.378" y="120.32" width="8.56592" height="11.4212" rx="4.28296" fill="#5818DF"/>
<g filter="url(#filter5_i_891_26112)">
<rect x="207.389" y="130.564" width="62.0666" height="79.997" rx="19.3096" fill="url(#paint5_linear_891_26112)"/>
</g>
<rect x="221.947" y="146.969" width="8.56592" height="11.4212" rx="4.28296" fill="#5818DF"/>
<rect x="235.272" y="146.969" width="8.56592" height="11.4212" rx="4.28296" fill="#5818DF"/>
<rect x="318.076" y="141.259" width="8.56592" height="11.4212" rx="4.28296" fill="#5818DF"/>
<rect x="331.4" y="141.259" width="8.56592" height="11.4212" rx="4.28296" fill="#5818DF"/>
<rect x="505.277" y="59.2208" width="14.1113" height="167.228" rx="7.05567" transform="rotate(24.7958 505.277 59.2208)" fill="#7E61FF"/>
<path d="M505.835 74.8373C507.157 71.9742 510.551 70.7254 513.414 72.0481L554.287 90.9306C557.15 92.2533 558.399 95.6466 557.076 98.5097L535.799 144.567L489.741 123.29C486.878 121.967 485.629 118.574 486.952 115.711L505.835 74.8373Z" fill="#633FFE"/>
<path d="M556.512 99.7305L572.678 107.199C575.541 108.522 576.79 111.915 575.467 114.778L556.585 155.651C555.262 158.515 551.869 159.763 549.006 158.441L538.023 153.367C535.16 152.044 533.912 148.651 535.234 145.788L556.512 99.7305Z" fill="url(#paint6_linear_891_26112)"/>
<path d="M520.817 137.231L503.93 129.43L528.054 99.0192L552.36 97.8125L572.678 107.199C575.541 108.522 576.79 111.915 575.467 114.778L556.585 155.651C555.262 158.514 551.869 159.763 549.005 158.441L536.678 152.746C531.934 150.554 530.348 147.878 531.088 146.277C532.725 142.733 523.98 138.693 520.817 137.231Z" fill="#633FFE"/>
<rect x="114" y="147" width="361" height="141" fill="url(#paint7_linear_891_26112)"/>
<rect x="428.48" y="213.593" width="22.8424" height="51.3955" fill="#E7008A"/>
<rect x="461.793" y="213.593" width="22.8424" height="51.3955" fill="#E7008A"/>
<rect x="226.706" y="213.593" width="51.3955" height="51.3955" fill="#E7008A"/>
<g filter="url(#filter6_dii_891_26112)">
<path d="M195.564 266.432V276.94C195.564 281.737 192.709 284.935 188.368 284.935H107.049C102.709 284.935 99.854 281.737 99.854 276.94V266.432C99.854 261.635 102.709 258.437 107.049 258.437H128.635V247.93H107.049C102.709 247.93 99.854 244.732 99.854 239.935V191.509C99.854 186.712 102.709 183.514 107.049 183.514H188.368C192.709 183.514 195.564 186.712 195.564 191.509V239.935C195.564 244.732 192.709 247.93 188.368 247.93H166.782V258.437H188.368C192.709 258.437 195.564 261.635 195.564 266.432ZM131.377 217.626C131.377 219.728 133.081 221.433 135.184 221.433H160.234C162.337 221.433 164.041 219.728 164.041 217.626V213.819C164.041 211.716 162.337 210.011 160.234 210.011H135.184C133.081 210.011 131.377 211.716 131.377 213.819V217.626Z" fill="url(#paint8_linear_891_26112)"/>
</g>
<g filter="url(#filter7_dii_891_26112)">
<path d="M400.461 266.432V276.94C400.461 281.737 397.606 284.935 393.265 284.935H311.946C307.606 284.935 304.751 281.737 304.751 276.94V266.432C304.751 261.635 307.606 258.437 311.946 258.437H333.532V247.93H311.946C307.606 247.93 304.751 244.732 304.751 239.935V191.509C304.751 186.712 307.606 183.514 311.946 183.514H393.265C397.606 183.514 400.461 186.712 400.461 191.509V239.935C400.461 244.732 397.606 247.93 393.265 247.93H371.679V258.437H393.265C397.606 258.437 400.461 261.635 400.461 266.432ZM336.274 217.626C336.274 219.728 337.978 221.433 340.081 221.433H365.131C367.234 221.433 368.938 219.728 368.938 217.626V213.819C368.938 211.716 367.234 210.011 365.131 210.011H340.081C337.978 210.011 336.274 211.716 336.274 213.819V217.626Z" fill="url(#paint9_linear_891_26112)"/>
</g>
<g filter="url(#filter8_dii_891_26112)">
<path d="M268.476 198.133V191.509C268.476 186.712 271.332 183.514 275.672 183.514H291.205C295.545 183.514 298.4 186.712 298.4 191.509V276.94C298.4 281.737 295.545 284.934 291.205 284.934H275.672C271.332 284.934 268.476 281.737 268.476 276.94V269.173H264.022C261.395 277.396 255.456 284.249 246.319 284.934C236.954 285.62 231.814 285.62 222.563 284.934C210.342 284.021 202.918 272.714 202.462 261.178C201.548 238.336 201.548 230.113 202.462 207.27C202.918 195.735 210.342 184.428 222.563 183.514C231.814 182.829 236.954 182.829 246.319 183.514C255.113 184.199 260.824 190.367 263.565 198.133H268.476ZM231.797 255.504C231.615 257.059 232.823 258.437 234.389 258.437C235.684 258.437 236.783 257.481 236.945 256.195C238.835 241.233 238.835 227.216 236.945 212.253C236.783 210.968 235.684 210.011 234.389 210.011C232.823 210.011 231.615 211.389 231.797 212.945C233.482 227.418 233.482 241.031 231.797 255.504ZM265.163 239.59C265.145 240.657 266.003 241.534 267.071 241.534H267.525C268.576 241.534 269.428 240.682 269.428 239.63V227.676C269.428 226.625 268.576 225.773 267.525 225.773H267.07C266.003 225.773 265.145 226.649 265.162 227.716C265.228 231.782 265.228 235.591 265.163 239.59Z" fill="url(#paint10_linear_891_26112)"/>
</g>
<g filter="url(#filter9_dii_891_26112)">
<path d="M473.373 198.133V191.509C473.373 186.712 476.228 183.514 480.568 183.514H496.101C500.441 183.514 503.296 186.712 503.296 191.509V276.94C503.296 281.737 500.441 284.934 496.101 284.934H480.568C476.228 284.934 473.373 281.737 473.373 276.94V269.173H468.919C466.292 277.396 460.353 284.249 451.216 284.934C441.85 285.62 436.711 285.62 427.459 284.934C415.239 284.021 407.815 272.714 407.358 261.178C406.444 238.336 406.444 230.113 407.358 207.27C407.815 195.735 415.239 184.428 427.459 183.514C436.711 182.829 441.85 182.829 451.216 183.514C460.01 184.199 465.721 190.367 468.462 198.133H473.373ZM436.693 255.504C436.512 257.059 437.719 258.437 439.285 258.437C440.581 258.437 441.68 257.481 441.842 256.195C443.731 241.233 443.731 227.216 441.842 212.253C441.68 210.968 440.581 210.011 439.285 210.011C437.719 210.011 436.512 211.389 436.693 212.945C438.379 227.418 438.379 241.031 436.693 255.504ZM470.059 239.59C470.042 240.657 470.9 241.534 471.967 241.534H472.421C473.472 241.534 474.325 240.682 474.325 239.63V227.676C474.325 226.625 473.472 225.773 472.421 225.773H471.966C470.899 225.773 470.041 226.649 470.059 227.716C470.125 231.782 470.125 235.591 470.059 239.59Z" fill="url(#paint11_linear_891_26112)"/>
</g>
<g filter="url(#filter10_f_891_26112)">
<path d="M276.198 187.895L279.978 187.895C280.375 187.895 280.62 188.368 280.414 188.707C279.72 189.845 278.527 192.158 277.842 195.509C277.063 199.317 272.391 239.291 272.391 239.291L272.391 191.702C272.391 189.6 274.095 187.895 276.198 187.895Z" fill="url(#paint12_linear_891_26112)"/>
</g>
<g filter="url(#filter11_f_891_26112)">
<path d="M480.808 188L484.588 188C484.985 188 485.23 188.472 485.023 188.811C484.33 189.95 483.137 192.263 482.452 195.614C481.673 199.421 477 239.395 477 239.395L477 191.807C477 189.704 478.705 188 480.808 188Z" fill="url(#paint13_linear_891_26112)"/>
</g>
<g filter="url(#filter12_f_891_26112)">
<path d="M216.928 191.227C219.907 189.185 227.23 188.87 230.629 188.838C231.117 188.834 231.284 189.478 230.862 189.723C227.235 191.827 218.291 197.386 215.284 202.648C208.997 213.65 207.843 225.532 207.67 230.994L207.67 234.056C207.67 234.056 207.608 232.927 207.67 230.994L207.67 215.973C207.67 206.931 209.263 196.482 216.928 191.227Z" fill="url(#paint14_linear_891_26112)"/>
</g>
<g filter="url(#filter13_f_891_26112)">
<path d="M421.587 191.227C424.565 189.185 431.888 188.87 435.288 188.838C435.775 188.834 435.942 189.478 435.52 189.723C431.893 191.827 422.949 197.386 419.942 202.648C413.655 213.65 412.502 225.532 412.328 230.994L412.328 234.056C412.328 234.056 412.267 232.927 412.328 230.994L412.328 215.973C412.328 206.931 413.921 196.482 421.587 191.227Z" fill="url(#paint15_linear_891_26112)"/>
</g>
<g filter="url(#filter14_f_891_26112)">
<path d="M102.025 265.941L102.025 269.971C102.025 270.451 102.744 270.69 103.075 270.343C103.766 269.617 104.789 268.751 106.114 268.19C108.158 267.325 129.626 262.133 129.626 262.133L105.832 262.133C103.729 262.133 102.025 263.838 102.025 265.941Z" fill="url(#paint16_linear_891_26112)"/>
</g>
<g filter="url(#filter15_f_891_26112)">
<path d="M192.442 277.362L192.442 272.62C192.442 272.225 191.975 271.98 191.637 272.186C190.396 272.945 187.74 274.328 183.841 275.112C179.54 275.977 134.384 281.169 134.384 281.169L188.635 281.169C190.737 281.169 192.442 279.464 192.442 277.362Z" fill="url(#paint17_linear_891_26112)" fill-opacity="0.5"/>
</g>
<g filter="url(#filter16_f_891_26112)">
<path d="M397.073 277.362L397.073 272.62C397.073 272.225 396.606 271.98 396.268 272.186C395.027 272.945 392.371 274.328 388.471 275.112C384.171 275.977 339.015 281.169 339.015 281.169L393.265 281.169C395.368 281.169 397.073 279.464 397.073 277.362Z" fill="url(#paint18_linear_891_26112)" fill-opacity="0.5"/>
</g>
<g filter="url(#filter17_f_891_26112)">
<path d="M104.024 191.703L104.024 199.519C104.024 200 104.732 200.228 105.046 199.863C105.98 198.776 107.541 197.287 109.664 196.375C112.484 195.164 142.095 187.896 142.095 187.896L107.831 187.896C105.728 187.896 104.024 189.6 104.024 191.703Z" fill="url(#paint19_linear_891_26112)"/>
</g>
<g filter="url(#filter18_f_891_26112)">
<path d="M308.558 191.703L308.558 199.519C308.558 200 309.266 200.228 309.58 199.863C310.515 198.776 312.075 197.287 314.198 196.375C317.018 195.164 346.629 187.896 346.629 187.896L312.365 187.896C310.263 187.896 308.558 189.6 308.558 191.703Z" fill="url(#paint20_linear_891_26112)"/>
</g>
<g filter="url(#filter19_f_891_26112)">
<path d="M308.557 265.941L308.557 269.971C308.557 270.451 309.276 270.69 309.607 270.343C310.299 269.617 311.322 268.751 312.646 268.19C314.691 267.325 336.159 262.133 336.159 262.133L312.364 262.133C310.262 262.133 308.557 263.838 308.557 265.941Z" fill="url(#paint21_linear_891_26112)"/>
</g>
<g filter="url(#filter20_f_891_26112)">
<path d="M494.628 278.314H492.809C492.108 278.314 491.616 277.569 491.84 276.905C492.266 275.64 492.845 273.544 493.2 270.7C493.676 266.893 496.532 226.918 496.532 226.918V276.41C496.532 277.462 495.679 278.314 494.628 278.314Z" fill="url(#paint22_linear_891_26112)"/>
</g>
<g filter="url(#filter21_f_891_26112)">
<path d="M290.331 278.314H288.512C287.811 278.314 287.319 277.569 287.543 276.905C287.969 275.64 288.548 273.544 288.904 270.7C289.379 266.893 292.235 226.918 292.235 226.918V276.41C292.235 277.462 291.382 278.314 290.331 278.314Z" fill="url(#paint23_linear_891_26112)"/>
</g>
<path d="M132.536 353H142V380.888H132.536V353ZM130.016 378.368C127.496 379.432 122.848 380.048 118.368 380.048H97.312V353.56H127.216V360.728H106.664V363.472H126.264V370.136H106.664V372.88H118.984C123.296 372.88 127.496 372.264 130.016 371.312V378.368ZM99.216 400.824V382.568H142V400.824H99.216ZM108.624 389.96V393.432H132.592V389.96H108.624ZM198.851 376.184V362.352H165.755V353.56H208.651V376.184H198.851ZM211.451 379.04V387.832H191.851V401.944H182.051V387.832H163.067V379.04H211.451ZM252.83 379.768V366.384H244.206V357.928H252.83V353H262.294V379.768H252.83ZM232.446 370.472C228.47 375.68 222.646 379.152 215.702 379.544V371.032C223.15 370.136 228.19 362.856 228.358 353.224L237.878 353.784C237.878 357.144 237.318 360.336 236.254 363.304L249.134 371.984L243.926 378.48L232.446 370.472ZM240.902 380.44C253.11 380.44 262.742 383.128 262.742 390.912C262.742 398.696 253.11 401.384 240.902 401.384C228.694 401.384 219.062 398.696 219.062 390.912C219.062 383.128 228.694 380.44 240.902 380.44ZM240.902 393.936C247.342 393.936 252.55 393.096 252.55 390.912C252.55 388.784 247.342 387.888 240.902 387.888C234.462 387.888 229.254 388.784 229.254 390.912C229.254 393.096 234.462 393.936 240.902 393.936ZM307.16 373.328C301.728 379.152 293.552 382.736 284.76 382.792V374.112C292.6 373.944 299.992 369.744 302.68 362.744H285.6V354.12H329.056V362.744H312.928C312.648 363.92 312.256 364.984 311.808 366.104L331.072 375.568L326.76 383.184L307.16 373.328ZM312.088 390.296H331.52V399.144H283.136V390.296H302.568V380.944H312.088V390.296ZM353.019 371.368C349.267 375.736 343.555 378.928 336.723 379.096V370.808C342.883 370.472 346.971 365.936 347.923 361.4H337.395V353.56H367.859V360.392H372.899V353H382.363V379.768H372.899V368.456H366.515V361.4H357.499C357.387 362.408 357.219 363.36 356.883 364.368L369.651 371.648L365.115 378.592L353.019 371.368ZM360.971 380.44C373.179 380.44 382.811 383.128 382.811 390.912C382.811 398.696 373.179 401.384 360.971 401.384C348.763 401.384 339.131 398.696 339.131 390.912C339.131 383.128 348.763 380.44 360.971 380.44ZM360.971 393.936C367.411 393.936 372.619 393.096 372.619 390.912C372.619 388.784 367.411 387.888 360.971 387.888C354.531 387.888 349.323 388.784 349.323 390.912C349.323 393.096 354.531 393.936 360.971 393.936ZM439.998 353H449.462V400.824H439.998V353ZM426.39 354.288C426.39 361.4 425.718 367.784 424.542 373.328L438.71 393.04L431.038 398.528L421.182 384.248C417.15 393.432 410.99 398.528 403.654 398.584V388.84C411.326 387.944 416.702 373.944 416.758 353.952L426.39 354.288ZM506.465 361.288V370.36H500.865V381.448H491.401V353H500.865V361.288H506.465ZM472.641 372.768C468.945 377.36 463.289 380.608 456.513 380.776V372.264C462.897 371.816 466.929 366.832 467.769 361.512H457.185V353.56H487.649V361.512H477.345C477.233 362.856 476.953 364.2 476.561 365.488L489.441 373.496L484.569 380.384L472.641 372.768ZM458.417 391.248V383.128H500.865V401.384H491.233V391.248H458.417Z" fill="#FEB100"/>
<defs>
<filter id="filter0_di_891_26112" x="316.349" y="116.771" width="168.269" height="104.824" filterUnits="userSpaceOnUse" color-interpolation-filters="sRGB">
<feFlood flood-opacity="0" result="BackgroundImageFix"/>
<feColorMatrix in="SourceAlpha" type="matrix" values="0 0 0 0 0 0 0 0 0 0 0 0 0 0 0 0 0 0 127 0" result="hardAlpha"/>
<feOffset dy="5.51703"/>
<feGaussianBlur stdDeviation="13.7926"/>
<feComposite in2="hardAlpha" operator="out"/>
<feColorMatrix type="matrix" values="0 0 0 0 0.0980392 0 0 0 0 0.121569 0 0 0 0 0.176471 0 0 0 0.3 0"/>
<feBlend mode="normal" in2="BackgroundImageFix" result="effect1_dropShadow_891_26112"/>
<feBlend mode="normal" in="SourceGraphic" in2="effect1_dropShadow_891_26112" result="shape"/>
<feColorMatrix in="SourceAlpha" type="matrix" values="0 0 0 0 0 0 0 0 0 0 0 0 0 0 0 0 0 0 127 0" result="hardAlpha"/>
<feOffset dx="5.51703" dy="5.51703"/>
<feGaussianBlur stdDeviation="8.27555"/>
<feComposite in2="hardAlpha" operator="arithmetic" k2="-1" k3="1"/>
<feColorMatrix type="matrix" values="0 0 0 0 1 0 0 0 0 1 0 0 0 0 1 0 0 0 0.25 0"/>
<feBlend mode="normal" in2="shape" result="effect2_innerShadow_891_26112"/>
</filter>
<filter id="filter1_di_891_26112" x="312.381" y="65.8917" width="144.637" height="111.325" filterUnits="userSpaceOnUse" color-interpolation-filters="sRGB">
<feFlood flood-opacity="0" result="BackgroundImageFix"/>
<feColorMatrix in="SourceAlpha" type="matrix" values="0 0 0 0 0 0 0 0 0 0 0 0 0 0 0 0 0 0 127 0" result="hardAlpha"/>
<feOffset dy="5.51703"/>
<feGaussianBlur stdDeviation="13.7926"/>
<feComposite in2="hardAlpha" operator="out"/>
<feColorMatrix type="matrix" values="0 0 0 0 0.0980392 0 0 0 0 0.121569 0 0 0 0 0.176471 0 0 0 0.3 0"/>
<feBlend mode="normal" in2="BackgroundImageFix" result="effect1_dropShadow_891_26112"/>
<feBlend mode="normal" in="SourceGraphic" in2="effect1_dropShadow_891_26112" result="shape"/>
<feColorMatrix in="SourceAlpha" type="matrix" values="0 0 0 0 0 0 0 0 0 0 0 0 0 0 0 0 0 0 127 0" result="hardAlpha"/>
<feOffset dx="5.51703" dy="5.51703"/>
<feGaussianBlur stdDeviation="8.27555"/>
<feComposite in2="hardAlpha" operator="arithmetic" k2="-1" k3="1"/>
<feColorMatrix type="matrix" values="0 0 0 0 1 0 0 0 0 1 0 0 0 0 1 0 0 0 0.25 0"/>
<feBlend mode="normal" in2="shape" result="effect2_innerShadow_891_26112"/>
</filter>
<filter id="filter2_di_891_26112" x="243.323" y="64.4804" width="187.053" height="181.549" filterUnits="userSpaceOnUse" color-interpolation-filters="sRGB">
<feFlood flood-opacity="0" result="BackgroundImageFix"/>
<feColorMatrix in="SourceAlpha" type="matrix" values="0 0 0 0 0 0 0 0 0 0 0 0 0 0 0 0 0 0 127 0" result="hardAlpha"/>
<feOffset dy="5.51703"/>
<feGaussianBlur stdDeviation="27.5852"/>
<feComposite in2="hardAlpha" operator="out"/>
<feColorMatrix type="matrix" values="0 0 0 0 0.0980392 0 0 0 0 0.121569 0 0 0 0 0.176471 0 0 0 0.3 0"/>
<feBlend mode="normal" in2="BackgroundImageFix" result="effect1_dropShadow_891_26112"/>
<feBlend mode="normal" in="SourceGraphic" in2="effect1_dropShadow_891_26112" result="shape"/>
<feColorMatrix in="SourceAlpha" type="matrix" values="0 0 0 0 0 0 0 0 0 0 0 0 0 0 0 0 0 0 127 0" result="hardAlpha"/>
<feOffset dx="5.51703" dy="5.51703"/>
<feGaussianBlur stdDeviation="8.27555"/>
<feComposite in2="hardAlpha" operator="arithmetic" k2="-1" k3="1"/>
<feColorMatrix type="matrix" values="0 0 0 0 1 0 0 0 0 1 0 0 0 0 1 0 0 0 0.25 0"/>
<feBlend mode="normal" in2="shape" result="effect2_innerShadow_891_26112"/>
</filter>
<filter id="filter3_di_891_26112" x="103.944" y="47.8082" width="198.613" height="226.198" filterUnits="userSpaceOnUse" color-interpolation-filters="sRGB">
<feFlood flood-opacity="0" result="BackgroundImageFix"/>
<feColorMatrix in="SourceAlpha" type="matrix" values="0 0 0 0 0 0 0 0 0 0 0 0 0 0 0 0 0 0 127 0" result="hardAlpha"/>
<feOffset dy="5.51703"/>
<feGaussianBlur stdDeviation="13.7926"/>
<feComposite in2="hardAlpha" operator="out"/>
<feColorMatrix type="matrix" values="0 0 0 0 0.0980392 0 0 0 0 0.121569 0 0 0 0 0.176471 0 0 0 0.3 0"/>
<feBlend mode="normal" in2="BackgroundImageFix" result="effect1_dropShadow_891_26112"/>
<feBlend mode="normal" in="SourceGraphic" in2="effect1_dropShadow_891_26112" result="shape"/>
<feColorMatrix in="SourceAlpha" type="matrix" values="0 0 0 0 0 0 0 0 0 0 0 0 0 0 0 0 0 0 127 0" result="hardAlpha"/>
<feOffset dx="5.51703" dy="5.51703"/>
<feGaussianBlur stdDeviation="8.27555"/>
<feComposite in2="hardAlpha" operator="arithmetic" k2="-1" k3="1"/>
<feColorMatrix type="matrix" values="0 0 0 0 1 0 0 0 0 1 0 0 0 0 1 0 0 0 0.25 0"/>
<feBlend mode="normal" in2="shape" result="effect2_innerShadow_891_26112"/>
</filter>
<filter id="filter4_di_891_26112" x="229.456" y="75.3931" width="113.099" height="223.44" filterUnits="userSpaceOnUse" color-interpolation-filters="sRGB">
<feFlood flood-opacity="0" result="BackgroundImageFix"/>
<feColorMatrix in="SourceAlpha" type="matrix" values="0 0 0 0 0 0 0 0 0 0 0 0 0 0 0 0 0 0 127 0" result="hardAlpha"/>
<feOffset dy="5.51703"/>
<feGaussianBlur stdDeviation="13.7926"/>
<feComposite in2="hardAlpha" operator="out"/>
<feColorMatrix type="matrix" values="0 0 0 0 0.0980392 0 0 0 0 0.121569 0 0 0 0 0.176471 0 0 0 0.3 0"/>
<feBlend mode="normal" in2="BackgroundImageFix" result="effect1_dropShadow_891_26112"/>
<feBlend mode="normal" in="SourceGraphic" in2="effect1_dropShadow_891_26112" result="shape"/>
<feColorMatrix in="SourceAlpha" type="matrix" values="0 0 0 0 0 0 0 0 0 0 0 0 0 0 0 0 0 0 127 0" result="hardAlpha"/>
<feOffset dx="5.51703" dy="5.51703"/>
<feGaussianBlur stdDeviation="8.27555"/>
<feComposite in2="hardAlpha" operator="arithmetic" k2="-1" k3="1"/>
<feColorMatrix type="matrix" values="0 0 0 0 1 0 0 0 0 1 0 0 0 0 1 0 0 0 0.25 0"/>
<feBlend mode="normal" in2="shape" result="effect2_innerShadow_891_26112"/>
</filter>
<filter id="filter5_i_891_26112" x="207.389" y="130.564" width="67.5834" height="85.514" filterUnits="userSpaceOnUse" color-interpolation-filters="sRGB">
<feFlood flood-opacity="0" result="BackgroundImageFix"/>
<feBlend mode="normal" in="SourceGraphic" in2="BackgroundImageFix" result="shape"/>
<feColorMatrix in="SourceAlpha" type="matrix" values="0 0 0 0 0 0 0 0 0 0 0 0 0 0 0 0 0 0 127 0" result="hardAlpha"/>
<feOffset dx="5.51703" dy="5.51703"/>
<feGaussianBlur stdDeviation="8.27555"/>
<feComposite in2="hardAlpha" operator="arithmetic" k2="-1" k3="1"/>
<feColorMatrix type="matrix" values="0 0 0 0 1 0 0 0 0 1 0 0 0 0 1 0 0 0 0.25 0"/>
<feBlend mode="normal" in2="shape" result="effect1_innerShadow_891_26112"/>
</filter>
<filter id="filter6_dii_891_26112" x="96.0469" y="179.707" width="103.324" height="116.649" filterUnits="userSpaceOnUse" color-interpolation-filters="sRGB">
<feFlood flood-opacity="0" result="BackgroundImageFix"/>
<feColorMatrix in="SourceAlpha" type="matrix" values="0 0 0 0 0 0 0 0 0 0 0 0 0 0 0 0 0 0 127 0" result="hardAlpha"/>
<feOffset dy="11.4212"/>
<feComposite in2="hardAlpha" operator="out"/>
<feColorMatrix type="matrix" values="0 0 0 0 0.904167 0 0 0 0 0 0 0 0 0 0.5425 0 0 0 1 0"/>
<feBlend mode="normal" in2="BackgroundImageFix" result="effect1_dropShadow_891_26112"/>
<feBlend mode="normal" in="SourceGraphic" in2="effect1_dropShadow_891_26112" result="shape"/>
<feColorMatrix in="SourceAlpha" type="matrix" values="0 0 0 0 0 0 0 0 0 0 0 0 0 0 0 0 0 0 127 0" result="hardAlpha"/>
<feOffset dx="3.80707" dy="3.80707"/>
<feGaussianBlur stdDeviation="3.80707"/>
<feComposite in2="hardAlpha" operator="arithmetic" k2="-1" k3="1"/>
<feColorMatrix type="matrix" values="0 0 0 0 1 0 0 0 0 1 0 0 0 0 1 0 0 0 0.5 0"/>
<feBlend mode="normal" in2="shape" result="effect2_innerShadow_891_26112"/>
<feColorMatrix in="SourceAlpha" type="matrix" values="0 0 0 0 0 0 0 0 0 0 0 0 0 0 0 0 0 0 127 0" result="hardAlpha"/>
<feOffset dx="-3.80707" dy="-3.80707"/>
<feGaussianBlur stdDeviation="3.80707"/>
<feComposite in2="hardAlpha" operator="arithmetic" k2="-1" k3="1"/>
<feColorMatrix type="matrix" values="0 0 0 0 1 0 0 0 0 0.478431 0 0 0 0 0.00392157 0 0 0 1 0"/>
<feBlend mode="normal" in2="effect2_innerShadow_891_26112" result="effect3_innerShadow_891_26112"/>
</filter>
<filter id="filter7_dii_891_26112" x="300.944" y="179.707" width="103.324" height="116.649" filterUnits="userSpaceOnUse" color-interpolation-filters="sRGB">
<feFlood flood-opacity="0" result="BackgroundImageFix"/>
<feColorMatrix in="SourceAlpha" type="matrix" values="0 0 0 0 0 0 0 0 0 0 0 0 0 0 0 0 0 0 127 0" result="hardAlpha"/>
<feOffset dy="11.4212"/>
<feComposite in2="hardAlpha" operator="out"/>
<feColorMatrix type="matrix" values="0 0 0 0 0.904167 0 0 0 0 0 0 0 0 0 0.5425 0 0 0 1 0"/>
<feBlend mode="normal" in2="BackgroundImageFix" result="effect1_dropShadow_891_26112"/>
<feBlend mode="normal" in="SourceGraphic" in2="effect1_dropShadow_891_26112" result="shape"/>
<feColorMatrix in="SourceAlpha" type="matrix" values="0 0 0 0 0 0 0 0 0 0 0 0 0 0 0 0 0 0 127 0" result="hardAlpha"/>
<feOffset dx="3.80707" dy="3.80707"/>
<feGaussianBlur stdDeviation="3.80707"/>
<feComposite in2="hardAlpha" operator="arithmetic" k2="-1" k3="1"/>
<feColorMatrix type="matrix" values="0 0 0 0 1 0 0 0 0 1 0 0 0 0 1 0 0 0 0.5 0"/>
<feBlend mode="normal" in2="shape" result="effect2_innerShadow_891_26112"/>
<feColorMatrix in="SourceAlpha" type="matrix" values="0 0 0 0 0 0 0 0 0 0 0 0 0 0 0 0 0 0 127 0" result="hardAlpha"/>
<feOffset dx="-3.80707" dy="-3.80707"/>
<feGaussianBlur stdDeviation="3.80707"/>
<feComposite in2="hardAlpha" operator="arithmetic" k2="-1" k3="1"/>
<feColorMatrix type="matrix" values="0 0 0 0 1 0 0 0 0 0.478431 0 0 0 0 0.00392157 0 0 0 1 0"/>
<feBlend mode="normal" in2="effect2_innerShadow_891_26112" result="effect3_innerShadow_891_26112"/>
</filter>
<filter id="filter8_dii_891_26112" x="197.969" y="179.193" width="104.238" height="117.677" filterUnits="userSpaceOnUse" color-interpolation-filters="sRGB">
<feFlood flood-opacity="0" result="BackgroundImageFix"/>
<feColorMatrix in="SourceAlpha" type="matrix" values="0 0 0 0 0 0 0 0 0 0 0 0 0 0 0 0 0 0 127 0" result="hardAlpha"/>
<feOffset dy="11.4212"/>
<feComposite in2="hardAlpha" operator="out"/>
<feColorMatrix type="matrix" values="0 0 0 0 0.904167 0 0 0 0 0 0 0 0 0 0.5425 0 0 0 1 0"/>
<feBlend mode="normal" in2="BackgroundImageFix" result="effect1_dropShadow_891_26112"/>
<feBlend mode="normal" in="SourceGraphic" in2="effect1_dropShadow_891_26112" result="shape"/>
<feColorMatrix in="SourceAlpha" type="matrix" values="0 0 0 0 0 0 0 0 0 0 0 0 0 0 0 0 0 0 127 0" result="hardAlpha"/>
<feOffset dx="3.80707" dy="3.80707"/>
<feGaussianBlur stdDeviation="3.80707"/>
<feComposite in2="hardAlpha" operator="arithmetic" k2="-1" k3="1"/>
<feColorMatrix type="matrix" values="0 0 0 0 1 0 0 0 0 1 0 0 0 0 1 0 0 0 0.5 0"/>
<feBlend mode="normal" in2="shape" result="effect2_innerShadow_891_26112"/>
<feColorMatrix in="SourceAlpha" type="matrix" values="0 0 0 0 0 0 0 0 0 0 0 0 0 0 0 0 0 0 127 0" result="hardAlpha"/>
<feOffset dx="-3.80707" dy="-3.80707"/>
<feGaussianBlur stdDeviation="3.80707"/>
<feComposite in2="hardAlpha" operator="arithmetic" k2="-1" k3="1"/>
<feColorMatrix type="matrix" values="0 0 0 0 1 0 0 0 0 0.478431 0 0 0 0 0.00392157 0 0 0 1 0"/>
<feBlend mode="normal" in2="effect2_innerShadow_891_26112" result="effect3_innerShadow_891_26112"/>
</filter>
<filter id="filter9_dii_891_26112" x="402.866" y="179.193" width="104.238" height="117.677" filterUnits="userSpaceOnUse" color-interpolation-filters="sRGB">
<feFlood flood-opacity="0" result="BackgroundImageFix"/>
<feColorMatrix in="SourceAlpha" type="matrix" values="0 0 0 0 0 0 0 0 0 0 0 0 0 0 0 0 0 0 127 0" result="hardAlpha"/>
<feOffset dy="11.4212"/>
<feComposite in2="hardAlpha" operator="out"/>
<feColorMatrix type="matrix" values="0 0 0 0 0.904167 0 0 0 0 0 0 0 0 0 0.5425 0 0 0 1 0"/>
<feBlend mode="normal" in2="BackgroundImageFix" result="effect1_dropShadow_891_26112"/>
<feBlend mode="normal" in="SourceGraphic" in2="effect1_dropShadow_891_26112" result="shape"/>
<feColorMatrix in="SourceAlpha" type="matrix" values="0 0 0 0 0 0 0 0 0 0 0 0 0 0 0 0 0 0 127 0" result="hardAlpha"/>
<feOffset dx="3.80707" dy="3.80707"/>
<feGaussianBlur stdDeviation="3.80707"/>
<feComposite in2="hardAlpha" operator="arithmetic" k2="-1" k3="1"/>
<feColorMatrix type="matrix" values="0 0 0 0 1 0 0 0 0 1 0 0 0 0 1 0 0 0 0.5 0"/>
<feBlend mode="normal" in2="shape" result="effect2_innerShadow_891_26112"/>
<feColorMatrix in="SourceAlpha" type="matrix" values="0 0 0 0 0 0 0 0 0 0 0 0 0 0 0 0 0 0 127 0" result="hardAlpha"/>
<feOffset dx="-3.80707" dy="-3.80707"/>
<feGaussianBlur stdDeviation="3.80707"/>
<feComposite in2="hardAlpha" operator="arithmetic" k2="-1" k3="1"/>
<feColorMatrix type="matrix" values="0 0 0 0 1 0 0 0 0 0.478431 0 0 0 0 0.00392157 0 0 0 1 0"/>
<feBlend mode="normal" in2="effect2_innerShadow_891_26112" result="effect3_innerShadow_891_26112"/>
</filter>
<filter id="filter10_f_891_26112" x="269.391" y="184.895" width="14.0981" height="57.3955" filterUnits="userSpaceOnUse" color-interpolation-filters="sRGB">
<feFlood flood-opacity="0" result="BackgroundImageFix"/>
<feBlend mode="normal" in="SourceGraphic" in2="BackgroundImageFix" result="shape"/>
<feGaussianBlur stdDeviation="1.5" result="effect1_foregroundBlur_891_26112"/>
</filter>
<filter id="filter11_f_891_26112" x="474" y="185" width="14.0981" height="57.3955" filterUnits="userSpaceOnUse" color-interpolation-filters="sRGB">
<feFlood flood-opacity="0" result="BackgroundImageFix"/>
<feBlend mode="normal" in="SourceGraphic" in2="BackgroundImageFix" result="shape"/>
<feGaussianBlur stdDeviation="1.5" result="effect1_foregroundBlur_891_26112"/>
</filter>
<filter id="filter12_f_891_26112" x="204.643" y="185.838" width="29.4604" height="51.2181" filterUnits="userSpaceOnUse" color-interpolation-filters="sRGB">
<feFlood flood-opacity="0" result="BackgroundImageFix"/>
<feBlend mode="normal" in="SourceGraphic" in2="BackgroundImageFix" result="shape"/>
<feGaussianBlur stdDeviation="1.5" result="effect1_foregroundBlur_891_26112"/>
</filter>
<filter id="filter13_f_891_26112" x="409.301" y="185.838" width="29.4604" height="51.2181" filterUnits="userSpaceOnUse" color-interpolation-filters="sRGB">
<feFlood flood-opacity="0" result="BackgroundImageFix"/>
<feBlend mode="normal" in="SourceGraphic" in2="BackgroundImageFix" result="shape"/>
<feGaussianBlur stdDeviation="1.5" result="effect1_foregroundBlur_891_26112"/>
</filter>
<filter id="filter14_f_891_26112" x="99.0249" y="259.133" width="33.6011" height="14.3738" filterUnits="userSpaceOnUse" color-interpolation-filters="sRGB">
<feFlood flood-opacity="0" result="BackgroundImageFix"/>
<feBlend mode="normal" in="SourceGraphic" in2="BackgroundImageFix" result="shape"/>
<feGaussianBlur stdDeviation="1.5" result="effect1_foregroundBlur_891_26112"/>
</filter>
<filter id="filter15_f_891_26112" x="131.384" y="269.112" width="64.0581" height="15.0573" filterUnits="userSpaceOnUse" color-interpolation-filters="sRGB">
<feFlood flood-opacity="0" result="BackgroundImageFix"/>
<feBlend mode="normal" in="SourceGraphic" in2="BackgroundImageFix" result="shape"/>
<feGaussianBlur stdDeviation="1.5" result="effect1_foregroundBlur_891_26112"/>
</filter>
<filter id="filter16_f_891_26112" x="336.015" y="269.112" width="64.0581" height="15.0573" filterUnits="userSpaceOnUse" color-interpolation-filters="sRGB">
<feFlood flood-opacity="0" result="BackgroundImageFix"/>
<feBlend mode="normal" in="SourceGraphic" in2="BackgroundImageFix" result="shape"/>
<feGaussianBlur stdDeviation="1.5" result="effect1_foregroundBlur_891_26112"/>
</filter>
<filter id="filter17_f_891_26112" x="101.024" y="184.896" width="44.0708" height="18.1476" filterUnits="userSpaceOnUse" color-interpolation-filters="sRGB">
<feFlood flood-opacity="0" result="BackgroundImageFix"/>
<feBlend mode="normal" in="SourceGraphic" in2="BackgroundImageFix" result="shape"/>
<feGaussianBlur stdDeviation="1.5" result="effect1_foregroundBlur_891_26112"/>
</filter>
<filter id="filter18_f_891_26112" x="305.558" y="184.896" width="44.0708" height="18.1476" filterUnits="userSpaceOnUse" color-interpolation-filters="sRGB">
<feFlood flood-opacity="0" result="BackgroundImageFix"/>
<feBlend mode="normal" in="SourceGraphic" in2="BackgroundImageFix" result="shape"/>
<feGaussianBlur stdDeviation="1.5" result="effect1_foregroundBlur_891_26112"/>
</filter>
<filter id="filter19_f_891_26112" x="305.558" y="259.133" width="33.6011" height="14.3738" filterUnits="userSpaceOnUse" color-interpolation-filters="sRGB">
<feFlood flood-opacity="0" result="BackgroundImageFix"/>
<feBlend mode="normal" in="SourceGraphic" in2="BackgroundImageFix" result="shape"/>
<feGaussianBlur stdDeviation="1.5" result="effect1_foregroundBlur_891_26112"/>
</filter>
<filter id="filter20_f_891_26112" x="488.785" y="223.918" width="10.7466" height="57.3955" filterUnits="userSpaceOnUse" color-interpolation-filters="sRGB">
<feFlood flood-opacity="0" result="BackgroundImageFix"/>
<feBlend mode="normal" in="SourceGraphic" in2="BackgroundImageFix" result="shape"/>
<feGaussianBlur stdDeviation="1.5" result="effect1_foregroundBlur_891_26112"/>
</filter>
<filter id="filter21_f_891_26112" x="284.488" y="223.918" width="10.7466" height="57.3955" filterUnits="userSpaceOnUse" color-interpolation-filters="sRGB">
<feFlood flood-opacity="0" result="BackgroundImageFix"/>
<feBlend mode="normal" in="SourceGraphic" in2="BackgroundImageFix" result="shape"/>
<feGaussianBlur stdDeviation="1.5" result="effect1_foregroundBlur_891_26112"/>
</filter>
<linearGradient id="paint0_linear_891_26112" x1="498.604" y1="172.449" x2="462.973" y2="188.551" gradientUnits="userSpaceOnUse">
<stop stop-color="#A500C0"/>
<stop offset="1" stop-color="#C9001A"/>
</linearGradient>
<linearGradient id="paint1_linear_891_26112" x1="429.432" y1="138.844" x2="486.609" y2="104.297" gradientUnits="userSpaceOnUse">
<stop stop-color="#FF1717"/>
<stop offset="1" stop-color="#CB007A"/>
</linearGradient>
<linearGradient id="paint2_linear_891_26112" x1="317.483" y1="108.837" x2="372.399" y2="174.901" gradientUnits="userSpaceOnUse">
<stop stop-color="#7BEE20"/>
<stop offset="1" stop-color="#039E13"/>
</linearGradient>
<linearGradient id="paint3_linear_891_26112" x1="262.606" y1="98.8463" x2="228.677" y2="175.245" gradientUnits="userSpaceOnUse">
<stop stop-color="#FFCA51"/>
<stop offset="1" stop-color="#FF7A01"/>
</linearGradient>
<linearGradient id="paint4_linear_891_26112" x1="277.036" y1="94.3198" x2="283.648" y2="167.687" gradientUnits="userSpaceOnUse">
<stop stop-color="#AC99FF"/>
<stop offset="0.974132" stop-color="#703EFF"/>
</linearGradient>
<linearGradient id="paint5_linear_891_26112" x1="266.966" y1="135.426" x2="242.329" y2="163.65" gradientUnits="userSpaceOnUse">
<stop stop-color="#2CD8FD"/>
<stop offset="1" stop-color="#0F83F7"/>
</linearGradient>
<linearGradient id="paint6_linear_891_26112" x1="533.474" y1="99.5054" x2="516.878" y2="146.945" gradientUnits="userSpaceOnUse">
<stop stop-color="#5434DE"/>
<stop offset="1" stop-color="#5C3BEE" stop-opacity="0"/>
</linearGradient>
<linearGradient id="paint7_linear_891_26112" x1="294.5" y1="147" x2="294.5" y2="288" gradientUnits="userSpaceOnUse">
<stop stop-color="#441FE2" stop-opacity="0"/>
<stop offset="0.416667" stop-color="#441FE2"/>
</linearGradient>
<linearGradient id="paint8_linear_891_26112" x1="235.272" y1="293.634" x2="234.32" y2="162.766" gradientUnits="userSpaceOnUse">
<stop stop-color="#FFB200"/>
<stop offset="0.99888" stop-color="#FFDF95"/>
</linearGradient>
<linearGradient id="paint9_linear_891_26112" x1="440.169" y1="293.634" x2="439.217" y2="162.766" gradientUnits="userSpaceOnUse">
<stop stop-color="#FFB200"/>
<stop offset="0.99888" stop-color="#FFDF95"/>
</linearGradient>
<linearGradient id="paint10_linear_891_26112" x1="235.272" y1="293.634" x2="234.32" y2="162.765" gradientUnits="userSpaceOnUse">
<stop stop-color="#FFB200"/>
<stop offset="0.99888" stop-color="#FFDF95"/>
</linearGradient>
<linearGradient id="paint11_linear_891_26112" x1="440.169" y1="293.634" x2="439.217" y2="162.765" gradientUnits="userSpaceOnUse">
<stop stop-color="#FFB200"/>
<stop offset="0.99888" stop-color="#FFDF95"/>
</linearGradient>
<linearGradient id="paint12_linear_891_26112" x1="276.674" y1="239.291" x2="276.674" y2="187.895" gradientUnits="userSpaceOnUse">
<stop stop-color="white" stop-opacity="0"/>
<stop offset="1" stop-color="white" stop-opacity="0.7"/>
</linearGradient>
<linearGradient id="paint13_linear_891_26112" x1="481.283" y1="239.395" x2="481.283" y2="188" gradientUnits="userSpaceOnUse">
<stop stop-color="white" stop-opacity="0"/>
<stop offset="1" stop-color="white" stop-opacity="0.7"/>
</linearGradient>
<linearGradient id="paint14_linear_891_26112" x1="215.76" y1="244.05" x2="215.76" y2="192.654" gradientUnits="userSpaceOnUse">
<stop stop-color="white" stop-opacity="0"/>
<stop offset="1" stop-color="white" stop-opacity="0.7"/>
</linearGradient>
<linearGradient id="paint15_linear_891_26112" x1="420.418" y1="244.05" x2="420.418" y2="192.654" gradientUnits="userSpaceOnUse">
<stop stop-color="white" stop-opacity="0"/>
<stop offset="1" stop-color="white" stop-opacity="0.7"/>
</linearGradient>
<linearGradient id="paint16_linear_891_26112" x1="129.626" y1="266.892" x2="102.025" y2="266.892" gradientUnits="userSpaceOnUse">
<stop stop-color="white" stop-opacity="0"/>
<stop offset="1" stop-color="white" stop-opacity="0.7"/>
</linearGradient>
<linearGradient id="paint17_linear_891_26112" x1="134.384" y1="276.41" x2="192.442" y2="276.41" gradientUnits="userSpaceOnUse">
<stop stop-color="white" stop-opacity="0"/>
<stop offset="1" stop-color="white" stop-opacity="0.7"/>
</linearGradient>
<linearGradient id="paint18_linear_891_26112" x1="339.015" y1="276.41" x2="397.073" y2="276.41" gradientUnits="userSpaceOnUse">
<stop stop-color="white" stop-opacity="0"/>
<stop offset="1" stop-color="white" stop-opacity="0.7"/>
</linearGradient>
<linearGradient id="paint19_linear_891_26112" x1="142.095" y1="194.558" x2="104.024" y2="194.558" gradientUnits="userSpaceOnUse">
<stop stop-color="white" stop-opacity="0"/>
<stop offset="1" stop-color="white" stop-opacity="0.7"/>
</linearGradient>
<linearGradient id="paint20_linear_891_26112" x1="346.629" y1="194.558" x2="308.558" y2="194.558" gradientUnits="userSpaceOnUse">
<stop stop-color="white" stop-opacity="0"/>
<stop offset="1" stop-color="white" stop-opacity="0.7"/>
</linearGradient>
<linearGradient id="paint21_linear_891_26112" x1="336.159" y1="266.892" x2="308.557" y2="266.892" gradientUnits="userSpaceOnUse">
<stop stop-color="white" stop-opacity="0"/>
<stop offset="1" stop-color="white" stop-opacity="0.7"/>
</linearGradient>
<linearGradient id="paint22_linear_891_26112" x1="493.914" y1="226.918" x2="493.914" y2="278.314" gradientUnits="userSpaceOnUse">
<stop stop-color="white" stop-opacity="0"/>
<stop offset="1" stop-color="white" stop-opacity="0.4"/>
</linearGradient>
<linearGradient id="paint23_linear_891_26112" x1="289.617" y1="226.918" x2="289.617" y2="278.314" gradientUnits="userSpaceOnUse">
<stop stop-color="white" stop-opacity="0"/>
<stop offset="1" stop-color="white" stop-opacity="0.4"/>
</linearGradient>
</defs>
</svg>
