<svg width="900" height="700" viewBox="0 0 900 700" fill="none" xmlns="http://www.w3.org/2000/svg">
<g clip-path="url(#clip0_1299_23850)">
<path fill-rule="evenodd" clip-rule="evenodd" d="M212.608 -163.057L250.287 -176.236L383.644 239.923L337.005 -63.2268H581.421L536.879 226.299L780.227 -113.161L868.07 -39.5377L546.43 290.073L966.498 81.7061L983.287 117.922L562.652 299.604L983.525 258.281V397.572L665.62 366.358L995.999 470.529L970.711 539.028L560.442 364.662L850.233 716.256L787.885 762.491L541.003 391.228L693.852 796.756L656.142 809.845L538.373 439.263L581.421 719.079H337.005L388.959 381.381L129.422 785.657L-9.03153 669.664L301.44 382.275L-81.0673 545.489L-95.7598 508.374L307.235 361.014L-65.0983 397.572L-65.0983 258.281L340.485 298.103L-88.7518 163.896L-63.6285 95.3369L347.058 268.715L56.4217 -82.1804L118.659 -128.566L366.433 242.102L212.608 -163.057Z" fill="url(#paint0_radial_1299_23850)"/>
<g filter="url(#filter0_d_1299_23850)">
<mask id="path-2-outside-1_1299_23850" maskUnits="userSpaceOnUse" x="185" y="145" width="562" height="429" fill="black">
<rect fill="white" x="185" y="145" width="562" height="429"/>
<path fill-rule="evenodd" clip-rule="evenodd" d="M644.331 164.488C648.513 155.435 659.242 151.487 668.295 155.669C674.058 158.332 677.753 163.648 678.597 169.496L710.9 184.419C716.013 186.782 719.367 191.4 720.324 196.545L729.291 200.688C730.585 201.285 731.778 202.036 732.853 202.913C733.497 203.439 734.096 204.008 734.646 204.613L734.646 204.613C739.012 209.414 740.363 216.567 737.453 222.866L718.571 263.74C714.7 272.118 704.771 275.772 696.393 271.902L685.41 266.828L685.336 266.793L684.065 266.206C680.721 264.662 677.494 262.513 675.173 259.556C673.999 258.06 672.642 255.726 672.116 252.914L648.334 241.927L632.58 276.029H647.386C652.524 276.029 657.509 278.163 661.107 282.482C664.602 286.675 666 291.958 666 296.949V389C666 389.819 665.962 390.646 665.884 391.475H689C700.046 391.475 709 400.429 709 411.475L709 545.475C709 556.52 700.046 565.475 689 565.475H213C201.954 565.475 193 556.52 193 545.475L193 411.475C193 400.429 201.954 391.475 213 391.475H239.116C239.038 390.646 239 389.819 239 389V377.679C239 372.763 240.356 367.565 243.735 363.403C240.356 359.241 239 354.043 239 349.128V296.949C239 291.958 240.398 286.675 243.893 282.482C247.491 278.163 252.476 276.029 257.614 276.029H272.175C272.13 274.911 272.108 273.787 272.108 272.658V245.073C272.108 199.154 309.332 161.93 355.251 161.93C381.703 161.93 405.259 174.288 420.476 193.511C425.779 190.952 431.728 189.515 438.006 189.515C453.384 189.515 466.755 198.111 473.576 210.76C476.087 209.098 478.822 207.892 481.652 207.138C485.898 191.423 500.255 179.86 517.313 179.86L555.932 179.86C576.332 179.86 592.87 196.398 592.87 216.798C592.87 221.96 591.811 226.875 589.898 231.337C597.268 232.499 603.9 235.882 609.086 240.779L644.331 164.488ZM382.958 368.848C382.956 368.87 382.953 368.892 382.95 368.914L382.958 368.848Z"/>
</mask>
<path fill-rule="evenodd" clip-rule="evenodd" d="M644.331 164.488C648.513 155.435 659.242 151.487 668.295 155.669C674.058 158.332 677.753 163.648 678.597 169.496L710.9 184.419C716.013 186.782 719.367 191.4 720.324 196.545L729.291 200.688C730.585 201.285 731.778 202.036 732.853 202.913C733.497 203.439 734.096 204.008 734.646 204.613L734.646 204.613C739.012 209.414 740.363 216.567 737.453 222.866L718.571 263.74C714.7 272.118 704.771 275.772 696.393 271.902L685.41 266.828L685.336 266.793L684.065 266.206C680.721 264.662 677.494 262.513 675.173 259.556C673.999 258.06 672.642 255.726 672.116 252.914L648.334 241.927L632.58 276.029H647.386C652.524 276.029 657.509 278.163 661.107 282.482C664.602 286.675 666 291.958 666 296.949V389C666 389.819 665.962 390.646 665.884 391.475H689C700.046 391.475 709 400.429 709 411.475L709 545.475C709 556.52 700.046 565.475 689 565.475H213C201.954 565.475 193 556.52 193 545.475L193 411.475C193 400.429 201.954 391.475 213 391.475H239.116C239.038 390.646 239 389.819 239 389V377.679C239 372.763 240.356 367.565 243.735 363.403C240.356 359.241 239 354.043 239 349.128V296.949C239 291.958 240.398 286.675 243.893 282.482C247.491 278.163 252.476 276.029 257.614 276.029H272.175C272.13 274.911 272.108 273.787 272.108 272.658V245.073C272.108 199.154 309.332 161.93 355.251 161.93C381.703 161.93 405.259 174.288 420.476 193.511C425.779 190.952 431.728 189.515 438.006 189.515C453.384 189.515 466.755 198.111 473.576 210.76C476.087 209.098 478.822 207.892 481.652 207.138C485.898 191.423 500.255 179.86 517.313 179.86L555.932 179.86C576.332 179.86 592.87 196.398 592.87 216.798C592.87 221.96 591.811 226.875 589.898 231.337C597.268 232.499 603.9 235.882 609.086 240.779L644.331 164.488ZM382.958 368.848C382.956 368.87 382.953 368.892 382.95 368.914L382.958 368.848Z" fill="#441FE2"/>
<path d="M470.97 239.494L470.97 229.9L462.97 229.901L462.97 239.494L470.97 239.494ZM668.295 155.669L671.65 148.406L671.65 148.406L668.295 155.669ZM644.331 164.488L651.594 167.843L651.594 167.843L644.331 164.488ZM678.597 169.496L670.679 170.639C671.066 173.32 672.783 175.623 675.242 176.759L678.597 169.496ZM710.9 184.419L714.255 177.157V177.157L710.9 184.419ZM720.324 196.545L712.459 198.009C712.934 200.559 714.615 202.72 716.969 203.808L720.324 196.545ZM729.291 200.688L725.936 207.95L725.936 207.95L729.291 200.688ZM732.853 202.913L727.795 209.111L727.795 209.111L732.853 202.913ZM734.646 204.613L728.727 209.995C728.808 210.084 728.891 210.171 728.976 210.257L734.646 204.613ZM734.646 204.613L740.565 199.232C740.484 199.142 740.401 199.055 740.316 198.969L734.646 204.613ZM737.453 222.866L730.191 219.511V219.511L737.453 222.866ZM718.571 263.74L711.308 260.385V260.385L718.571 263.74ZM696.393 271.902L693.037 279.164L693.037 279.164L696.393 271.902ZM685.41 266.828L682.037 274.082C682.043 274.085 682.049 274.088 682.055 274.09L685.41 266.828ZM685.336 266.793L688.709 259.539C688.703 259.536 688.697 259.534 688.691 259.531L685.336 266.793ZM684.065 266.206L680.71 273.469L680.71 273.469L684.065 266.206ZM675.173 259.556L668.879 264.494L668.879 264.494L675.173 259.556ZM672.116 252.914L679.98 251.444C679.504 248.897 677.823 246.738 675.471 245.652L672.116 252.914ZM648.334 241.927L651.69 234.665C649.763 233.775 647.563 233.687 645.571 234.42C643.58 235.152 641.962 236.646 641.072 238.572L648.334 241.927ZM632.58 276.029L625.318 272.674C624.174 275.151 624.371 278.04 625.841 280.339C627.311 282.638 629.852 284.029 632.58 284.029V276.029ZM661.107 282.482L667.253 277.361V277.36L661.107 282.482ZM665.884 391.475L657.92 390.721C657.707 392.964 658.451 395.192 659.967 396.859C661.483 398.525 663.631 399.475 665.884 399.475V391.475ZM709 411.475H701H709ZM709 545.475H717H709ZM193 545.475H201H193ZM193 411.475H185H193ZM239.116 391.475V399.475C241.369 399.475 243.517 398.525 245.033 396.859C246.549 395.192 247.293 392.964 247.08 390.721L239.116 391.475ZM243.735 363.403L249.946 368.445C252.331 365.507 252.331 361.3 249.946 358.361L243.735 363.403ZM243.893 282.482L237.747 277.361L237.747 277.361L243.893 282.482ZM272.175 276.029V284.029C274.352 284.029 276.435 283.141 277.943 281.572C279.452 280.002 280.255 277.885 280.169 275.71L272.175 276.029ZM420.476 193.511L414.204 198.476C416.528 201.413 420.579 202.343 423.953 200.716L420.476 193.511ZM473.576 210.76L466.535 214.557C467.601 216.534 469.45 217.972 471.629 218.519C473.808 219.066 476.117 218.671 477.991 217.431L473.576 210.76ZM481.652 207.138L483.712 214.868C486.472 214.132 488.63 211.981 489.375 209.225L481.652 207.138ZM517.313 179.86V171.86V179.86ZM555.932 179.86V171.86V179.86ZM589.898 231.337L582.545 228.185C581.573 230.454 581.702 233.045 582.896 235.206C584.09 237.366 586.214 238.855 588.652 239.239L589.898 231.337ZM609.086 240.779L603.594 246.596C605.466 248.364 608.075 249.122 610.603 248.634C613.13 248.146 615.269 246.471 616.349 244.134L609.086 240.779ZM382.95 368.914L375.008 367.954C374.478 372.34 377.603 376.325 381.989 376.856C386.375 377.387 390.361 374.262 390.892 369.877L382.95 368.914ZM382.958 368.848L390.901 369.805C391.429 365.419 388.303 361.435 383.917 360.906C379.531 360.376 375.547 363.502 375.016 367.888L382.958 368.848ZM671.65 148.406C658.586 142.371 643.104 148.069 637.069 161.133L651.594 167.843C653.923 162.801 659.898 160.602 664.939 162.931L671.65 148.406ZM686.515 168.353C685.3 159.938 679.974 152.252 671.65 148.406L664.939 162.931C668.142 164.411 670.205 167.358 670.679 170.639L686.515 168.353ZM714.255 177.157L681.952 162.234L675.242 176.759L707.545 191.682L714.255 177.157ZM728.189 195.081C726.777 187.496 721.822 180.653 714.255 177.157L707.545 191.682C710.204 192.91 711.956 195.304 712.459 198.009L728.189 195.081ZM732.646 193.425L723.679 189.283L716.969 203.808L725.936 207.95L732.646 193.425ZM737.912 196.716C736.321 195.417 734.555 194.307 732.646 193.425L725.936 207.95C726.614 208.264 727.236 208.655 727.795 209.111L737.912 196.716ZM740.565 199.231C739.75 198.335 738.865 197.494 737.912 196.716L727.795 209.111C728.13 209.385 728.441 209.68 728.727 209.995L740.565 199.231ZM740.316 198.969L740.315 198.968L728.976 210.257L728.977 210.258L740.316 198.969ZM744.716 226.222C749.025 216.893 747.009 206.318 740.565 199.232L728.727 209.995C731.014 212.51 731.701 216.241 730.191 219.511L744.716 226.222ZM725.833 267.095L744.716 226.222L730.191 219.511L711.308 260.385L725.833 267.095ZM693.037 279.164C705.427 284.887 720.11 279.484 725.833 267.095L711.308 260.385C709.291 264.752 704.115 266.657 699.748 264.639L693.037 279.164ZM681.963 274.047L682.037 274.082L688.783 259.574L688.709 259.539L681.963 274.047ZM680.71 273.469L681.981 274.056L688.691 259.531L687.42 258.944L680.71 273.469ZM668.879 264.494C672.237 268.773 676.661 271.598 680.71 273.469L687.42 258.944C684.782 257.725 682.751 256.254 681.466 254.617L668.879 264.494ZM664.252 254.384C665.075 258.784 667.141 262.279 668.879 264.494L681.466 254.617C680.857 253.84 680.209 252.668 679.98 251.444L664.252 254.384ZM644.979 249.19L668.761 260.177L675.471 245.652L651.69 234.665L644.979 249.19ZM639.843 279.384L655.597 245.283L641.072 238.572L625.318 272.674L639.843 279.384ZM647.386 268.029H632.58V284.029H647.386V268.029ZM667.253 277.36C662.077 271.149 654.807 268.029 647.386 268.029V284.029C650.24 284.029 652.94 285.177 654.961 287.603L667.253 277.36ZM674 296.949C674 290.552 672.213 283.313 667.253 277.361L654.961 287.603C656.99 290.037 658 293.363 658 296.949H674ZM674 389V296.949H658V389H674ZM673.848 392.228C673.951 391.142 674 390.064 674 389H658C658 389.575 657.974 390.15 657.92 390.721L673.848 392.228ZM665.884 399.475H689V383.475H665.884V399.475ZM689 399.475C695.627 399.475 701 404.847 701 411.475H717C717 396.011 704.464 383.475 689 383.475V399.475ZM701 411.475L701 545.475H717L717 411.475H701ZM701 545.475C701 552.102 695.628 557.475 689 557.475V573.475C704.464 573.475 717 560.939 717 545.475H701ZM689 557.475H213V573.475H689V557.475ZM213 557.475C206.373 557.475 201 552.102 201 545.475H185C185 560.939 197.536 573.475 213 573.475V557.475ZM201 545.475L201 411.475H185L185 545.475H201ZM201 411.475C201 404.847 206.373 399.475 213 399.475V383.475C197.536 383.475 185 396.011 185 411.475H201ZM213 399.475H239.116V383.475H213V399.475ZM231 389C231 390.064 231.049 391.142 231.152 392.228L247.08 390.721C247.026 390.15 247 389.575 247 389H231ZM231 377.679V389H247V377.679H231ZM237.523 358.361C232.733 364.263 231 371.377 231 377.679H247C247 374.149 247.98 370.867 249.946 368.445L237.523 358.361ZM231 349.128C231 355.429 232.733 362.543 237.523 368.445L249.946 358.361C247.98 355.939 247 352.658 247 349.128H231ZM231 296.949V349.128H247V296.949H231ZM237.747 277.361C232.787 283.313 231 290.552 231 296.949H247C247 293.364 248.01 290.037 250.039 287.603L237.747 277.361ZM257.614 268.029C250.193 268.029 242.923 271.149 237.747 277.361L250.039 287.603C252.06 285.177 254.76 284.029 257.614 284.029V268.029ZM272.175 268.029H257.614V284.029H272.175V268.029ZM264.108 272.658C264.108 273.893 264.133 275.123 264.181 276.347L280.169 275.71C280.128 274.698 280.108 273.68 280.108 272.658H264.108ZM264.108 245.073V272.658H280.108V245.073H264.108ZM355.251 153.93C304.914 153.93 264.108 194.736 264.108 245.073H280.108C280.108 203.572 313.75 169.93 355.251 169.93V153.93ZM426.749 188.545C410.081 167.489 384.253 153.93 355.251 153.93V169.93C379.153 169.93 400.438 181.086 414.204 198.476L426.749 188.545ZM438.006 181.515C430.496 181.515 423.361 183.236 417 186.305L423.953 200.716C428.197 198.668 432.96 197.515 438.006 197.515V181.515ZM480.618 206.963C472.457 191.828 456.442 181.515 438.006 181.515V197.515C450.327 197.515 461.054 204.393 466.535 214.557L480.618 206.963ZM479.591 199.408C475.951 200.378 472.417 201.934 469.162 204.088L477.991 217.431C479.758 216.262 481.694 215.406 483.712 214.868L479.591 199.408ZM517.313 171.86C496.55 171.86 479.094 185.935 473.929 205.05L489.375 209.225C492.702 196.91 503.961 187.86 517.313 187.86V171.86ZM555.932 171.86L517.313 171.86V187.86L555.932 187.86V171.86ZM600.87 216.798C600.87 191.98 580.751 171.86 555.932 171.86V187.86C571.914 187.86 584.87 200.816 584.87 216.798H600.87ZM597.251 234.489C599.583 229.049 600.87 223.063 600.87 216.798H584.87C584.87 220.857 584.039 224.701 582.545 228.185L597.251 234.489ZM614.578 234.962C608.255 228.993 600.156 224.856 591.144 223.435L588.652 239.239C594.38 240.143 599.544 242.772 603.594 246.596L614.578 234.962ZM637.069 161.133L601.824 237.424L616.349 244.134L651.594 167.843L637.069 161.133ZM375.016 367.891C375.013 367.91 375.011 367.93 375.008 367.952L390.892 369.877C390.895 369.854 390.898 369.83 390.901 369.805L375.016 367.891ZM682.055 274.09L693.037 279.164L699.748 264.639L688.765 259.565L682.055 274.09ZM390.892 369.875L390.9 369.809L375.016 367.888L375.008 367.954L390.892 369.875Z" fill="#FFAA05" mask="url(#path-2-outside-1_1299_23850)"/>
<g filter="url(#filter1_di_1299_23850)">
<rect x="609.034" y="242.314" width="49.6533" height="113.099" rx="24.8266" transform="rotate(90 609.034 242.314)" fill="url(#paint1_linear_1299_23850)"/>
</g>
<g filter="url(#filter2_di_1299_23850)">
<rect x="581.432" y="191.435" width="56.1544" height="89.4662" rx="28.0772" transform="rotate(90 581.432 191.435)" fill="url(#paint2_linear_1299_23850)"/>
</g>
<rect x="542.41" y="205.711" width="8.56592" height="11.4212" rx="4.28296" fill="#5818DF"/>
<rect x="555.735" y="205.711" width="8.56592" height="11.4212" rx="4.28296" fill="#5818DF"/>
<g filter="url(#filter3_di_1299_23850)">
<path d="M474.793 225.774C481.002 214.887 496.697 214.887 502.905 225.774L525.057 264.622C531.207 275.408 523.418 288.817 511.001 288.817H466.697C454.28 288.817 446.491 275.408 452.641 264.622L474.793 225.774Z" fill="url(#paint3_linear_1299_23850)"/>
</g>
<g filter="url(#filter4_di_1299_23850)">
<rect x="283.529" y="173.351" width="143.443" height="171.028" rx="71.7214" fill="url(#paint4_linear_1299_23850)"/>
</g>
<rect x="307.323" y="226.65" width="13.3248" height="18.0836" rx="6.66238" fill="#5818DF"/>
<rect x="329.214" y="226.65" width="13.3248" height="18.0836" rx="6.66238" fill="#5818DF"/>
<g filter="url(#filter5_di_1299_23850)">
<rect x="409.042" y="200.936" width="57.9288" height="168.269" rx="28.9644" fill="url(#paint5_linear_1299_23850)"/>
</g>
<rect x="431.054" y="223.795" width="8.56592" height="11.4212" rx="4.28296" fill="#5818DF"/>
<rect x="444.378" y="223.795" width="8.56592" height="11.4212" rx="4.28296" fill="#5818DF"/>
<g filter="url(#filter6_i_1299_23850)">
<rect x="359.389" y="234.038" width="62.0666" height="79.997" rx="19.3096" fill="url(#paint6_linear_1299_23850)"/>
</g>
<rect x="373.947" y="250.444" width="8.56592" height="11.4212" rx="4.28296" fill="#5818DF"/>
<rect x="387.272" y="250.444" width="8.56592" height="11.4212" rx="4.28296" fill="#5818DF"/>
<rect x="470.076" y="244.734" width="8.56592" height="11.4212" rx="4.28296" fill="#5818DF"/>
<rect x="483.4" y="244.734" width="8.56592" height="11.4212" rx="4.28296" fill="#5818DF"/>
<rect x="657.277" y="162.695" width="14.1113" height="167.228" rx="7.05567" transform="rotate(24.7958 657.277 162.695)" fill="#7E61FF"/>
<path d="M657.835 178.312C659.157 175.449 662.551 174.2 665.414 175.523L706.287 194.405C709.15 195.728 710.399 199.121 709.076 201.984L687.799 248.042L641.741 226.764C638.878 225.442 637.629 222.048 638.952 219.185L657.835 178.312Z" fill="#633FFE"/>
<path d="M708.512 203.205L724.678 210.674C727.541 211.997 728.79 215.39 727.467 218.253L708.585 259.126C707.262 261.989 703.869 263.238 701.006 261.915L690.023 256.842C687.16 255.519 685.912 252.126 687.234 249.263L708.512 203.205Z" fill="url(#paint7_linear_1299_23850)"/>
<path d="M672.817 240.706L655.93 232.905L680.054 202.494L704.36 201.287L724.678 210.674C727.541 211.996 728.79 215.39 727.467 218.253L708.585 259.126C707.262 261.989 703.869 263.238 701.005 261.915L688.678 256.22C683.934 254.028 682.348 251.353 683.088 249.752C684.725 246.207 675.98 242.167 672.817 240.706Z" fill="#633FFE"/>
<rect x="266" y="250.475" width="361" height="141" fill="url(#paint8_linear_1299_23850)"/>
<rect x="580.48" y="317.068" width="22.8424" height="51.3955" fill="#E7008A"/>
<rect x="613.793" y="317.068" width="22.8424" height="51.3955" fill="#E7008A"/>
<rect x="378.706" y="317.068" width="51.3955" height="51.3955" fill="#E7008A"/>
<g filter="url(#filter7_dii_1299_23850)">
<path d="M347.564 369.907V380.415C347.564 385.211 344.709 388.409 340.368 388.409H259.049C254.709 388.409 251.854 385.211 251.854 380.415V369.907C251.854 365.11 254.709 361.912 259.049 361.912H280.635V351.405H259.049C254.709 351.405 251.854 348.207 251.854 343.41V294.984C251.854 290.187 254.709 286.989 259.049 286.989H340.368C344.709 286.989 347.564 290.187 347.564 294.984V343.41C347.564 348.207 344.709 351.405 340.368 351.405H318.782V361.912H340.368C344.709 361.912 347.564 365.11 347.564 369.907ZM283.377 321.1C283.377 323.203 285.081 324.907 287.184 324.907H312.234C314.337 324.907 316.041 323.203 316.041 321.1V317.293C316.041 315.191 314.337 313.486 312.234 313.486H287.184C285.081 313.486 283.377 315.191 283.377 317.293V321.1Z" fill="url(#paint9_linear_1299_23850)"/>
</g>
<g filter="url(#filter8_dii_1299_23850)">
<path d="M552.461 369.907V380.415C552.461 385.211 549.606 388.409 545.265 388.409H463.946C459.606 388.409 456.751 385.211 456.751 380.415V369.907C456.751 365.11 459.606 361.912 463.946 361.912H485.532V351.405H463.946C459.606 351.405 456.751 348.207 456.751 343.41V294.984C456.751 290.187 459.606 286.989 463.946 286.989H545.265C549.606 286.989 552.461 290.187 552.461 294.984V343.41C552.461 348.207 549.606 351.405 545.265 351.405H523.679V361.912H545.265C549.606 361.912 552.461 365.11 552.461 369.907ZM488.274 321.1C488.274 323.203 489.978 324.907 492.081 324.907H517.131C519.234 324.907 520.938 323.203 520.938 321.1V317.293C520.938 315.191 519.234 313.486 517.131 313.486H492.081C489.978 313.486 488.274 315.191 488.274 317.293V321.1Z" fill="url(#paint10_linear_1299_23850)"/>
</g>
<g filter="url(#filter9_dii_1299_23850)">
<path d="M420.476 301.608V294.984C420.476 290.187 423.332 286.989 427.672 286.989H443.205C447.545 286.989 450.4 290.187 450.4 294.984V380.414C450.4 385.211 447.545 388.409 443.205 388.409H427.672C423.332 388.409 420.476 385.211 420.476 380.414V372.648H416.022C413.395 380.871 407.456 387.724 398.319 388.409C388.954 389.094 383.814 389.094 374.563 388.409C362.342 387.496 354.918 376.189 354.462 364.653C353.548 341.811 353.548 333.587 354.462 310.745C354.918 299.209 362.342 287.902 374.563 286.989C383.814 286.303 388.954 286.303 398.319 286.989C407.113 287.674 412.824 293.841 415.565 301.608H420.476ZM383.797 358.979C383.615 360.534 384.823 361.912 386.389 361.912C387.684 361.912 388.783 360.955 388.945 359.67C390.835 344.708 390.835 330.69 388.945 315.728C388.783 314.443 387.684 313.486 386.389 313.486C384.823 313.486 383.615 314.864 383.797 316.419C385.482 330.893 385.482 344.505 383.797 358.979ZM417.163 343.064C417.145 344.131 418.003 345.009 419.071 345.009H419.525C420.576 345.009 421.428 344.156 421.428 343.105V331.151C421.428 330.1 420.576 329.247 419.525 329.247H419.07C418.003 329.247 417.145 330.124 417.162 331.191C417.228 335.257 417.228 339.065 417.163 343.064Z" fill="url(#paint11_linear_1299_23850)"/>
</g>
<g filter="url(#filter10_dii_1299_23850)">
<path d="M625.373 301.608V294.984C625.373 290.187 628.228 286.989 632.568 286.989H648.101C652.441 286.989 655.296 290.187 655.296 294.984V380.414C655.296 385.211 652.441 388.409 648.101 388.409H632.568C628.228 388.409 625.373 385.211 625.373 380.414V372.648H620.919C618.292 380.871 612.353 387.724 603.216 388.409C593.85 389.094 588.711 389.094 579.459 388.409C567.239 387.496 559.815 376.189 559.358 364.653C558.444 341.811 558.444 333.587 559.358 310.745C559.815 299.209 567.239 287.902 579.459 286.989C588.711 286.303 593.85 286.303 603.216 286.989C612.01 287.674 617.721 293.841 620.462 301.608H625.373ZM588.693 358.979C588.512 360.534 589.719 361.912 591.285 361.912C592.581 361.912 593.68 360.955 593.842 359.67C595.731 344.708 595.731 330.69 593.842 315.728C593.68 314.443 592.581 313.486 591.285 313.486C589.719 313.486 588.512 314.864 588.693 316.419C590.379 330.893 590.379 344.505 588.693 358.979ZM622.059 343.064C622.042 344.131 622.9 345.009 623.967 345.009H624.421C625.472 345.009 626.325 344.156 626.325 343.105V331.151C626.325 330.1 625.472 329.247 624.421 329.247H623.966C622.899 329.247 622.041 330.124 622.059 331.191C622.125 335.257 622.125 339.065 622.059 343.064Z" fill="url(#paint12_linear_1299_23850)"/>
</g>
<g filter="url(#filter11_f_1299_23850)">
<path d="M428.198 291.37L431.978 291.37C432.375 291.37 432.62 291.843 432.414 292.182C431.72 293.32 430.527 295.633 429.842 298.984C429.063 302.791 424.391 342.766 424.391 342.766L424.391 295.177C424.391 293.075 426.095 291.37 428.198 291.37Z" fill="url(#paint13_linear_1299_23850)"/>
</g>
<g filter="url(#filter12_f_1299_23850)">
<path d="M632.808 291.475L636.588 291.475C636.985 291.475 637.23 291.947 637.023 292.286C636.33 293.424 635.137 295.738 634.452 299.089C633.673 302.896 629 342.87 629 342.87L629 295.282C629 293.179 630.705 291.475 632.808 291.475Z" fill="url(#paint14_linear_1299_23850)"/>
</g>
<g filter="url(#filter13_f_1299_23850)">
<path d="M368.928 294.701C371.907 292.659 379.23 292.345 382.629 292.313C383.117 292.308 383.284 292.953 382.862 293.197C379.235 295.302 370.291 300.861 367.284 306.123C360.997 317.125 359.843 329.007 359.67 334.468L359.67 337.531C359.67 337.531 359.608 336.402 359.67 334.468L359.67 319.447C359.67 310.405 361.263 299.956 368.928 294.701Z" fill="url(#paint15_linear_1299_23850)"/>
</g>
<g filter="url(#filter14_f_1299_23850)">
<path d="M573.587 294.701C576.565 292.659 583.888 292.345 587.288 292.313C587.775 292.308 587.942 292.953 587.52 293.197C583.893 295.302 574.949 300.861 571.942 306.123C565.655 317.125 564.502 329.007 564.328 334.468L564.328 337.531C564.328 337.531 564.267 336.402 564.328 334.468L564.328 319.447C564.328 310.405 565.921 299.956 573.587 294.701Z" fill="url(#paint16_linear_1299_23850)"/>
</g>
<g filter="url(#filter15_f_1299_23850)">
<path d="M254.025 369.415L254.025 373.446C254.025 373.926 254.744 374.165 255.075 373.817C255.766 373.092 256.789 372.226 258.114 371.665C260.158 370.8 281.626 365.608 281.626 365.608L257.832 365.608C255.729 365.608 254.025 367.313 254.025 369.415Z" fill="url(#paint17_linear_1299_23850)"/>
</g>
<g filter="url(#filter16_f_1299_23850)">
<path d="M344.442 380.837L344.442 376.094C344.442 375.699 343.975 375.455 343.637 375.661C342.396 376.42 339.74 377.802 335.841 378.587C331.54 379.452 286.384 384.644 286.384 384.644L340.635 384.644C342.737 384.644 344.442 382.939 344.442 380.837Z" fill="url(#paint18_linear_1299_23850)" fill-opacity="0.5"/>
</g>
<g filter="url(#filter17_f_1299_23850)">
<path d="M549.073 380.837L549.073 376.094C549.073 375.699 548.606 375.455 548.268 375.661C547.027 376.42 544.371 377.802 540.471 378.587C536.171 379.452 491.015 384.644 491.015 384.644L545.265 384.644C547.368 384.644 549.073 382.939 549.073 380.837Z" fill="url(#paint19_linear_1299_23850)" fill-opacity="0.5"/>
</g>
<g filter="url(#filter18_f_1299_23850)">
<path d="M256.024 295.177L256.024 302.993C256.024 303.475 256.732 303.703 257.046 303.338C257.98 302.251 259.541 300.762 261.664 299.85C264.484 298.638 294.095 291.37 294.095 291.37L259.831 291.37C257.728 291.37 256.024 293.075 256.024 295.177Z" fill="url(#paint20_linear_1299_23850)"/>
</g>
<g filter="url(#filter19_f_1299_23850)">
<path d="M460.558 295.177L460.558 302.993C460.558 303.475 461.266 303.703 461.58 303.338C462.515 302.251 464.075 300.762 466.198 299.85C469.018 298.638 498.629 291.37 498.629 291.37L464.365 291.37C462.263 291.37 460.558 293.075 460.558 295.177Z" fill="url(#paint21_linear_1299_23850)"/>
</g>
<g filter="url(#filter20_f_1299_23850)">
<path d="M460.557 369.415L460.557 373.446C460.557 373.926 461.276 374.165 461.607 373.817C462.299 373.092 463.322 372.226 464.646 371.665C466.691 370.8 488.159 365.608 488.159 365.608L464.364 365.608C462.262 365.608 460.557 367.313 460.557 369.415Z" fill="url(#paint22_linear_1299_23850)"/>
</g>
<g filter="url(#filter21_f_1299_23850)">
<path d="M646.628 381.789H644.809C644.108 381.789 643.616 381.044 643.84 380.38C644.266 379.115 644.845 377.018 645.2 374.174C645.676 370.367 648.532 330.393 648.532 330.393V379.885C648.532 380.936 647.679 381.789 646.628 381.789Z" fill="url(#paint23_linear_1299_23850)"/>
</g>
<g filter="url(#filter22_f_1299_23850)">
<path d="M442.331 381.789H440.512C439.811 381.789 439.319 381.044 439.543 380.38C439.969 379.115 440.548 377.018 440.904 374.174C441.379 370.367 444.235 330.393 444.235 330.393V379.885C444.235 380.936 443.382 381.789 442.331 381.789Z" fill="url(#paint24_linear_1299_23850)"/>
</g>
<path d="M345.033 456.475H354.497V484.363H345.033V456.475ZM342.513 481.843C339.993 482.907 335.345 483.523 330.865 483.523H309.809V457.035H339.713V464.203H319.161V466.947H338.761V473.611H319.161V476.355H331.481C335.793 476.355 339.993 475.739 342.513 474.787V481.843ZM311.713 504.299V486.043H354.497V504.299H311.713ZM321.121 493.435V496.907H345.089V493.435H321.121ZM421.819 456.475V480.443H412.355V456.475H421.819ZM406.811 457.035V479.435H377.131V457.035H386.371V460.955H397.571V457.035H406.811ZM386.371 472.043H397.571V468.123H386.371V472.043ZM388.387 497.971H422.323V504.299H379.091V490.299H412.523V488.451H378.979V482.123H421.819V496.123H388.387V497.971ZM474.566 456.475V482.795H465.102V456.475H474.566ZM460.118 457.035V464.819H439.398V473.107H451.83C456.142 473.107 460.342 472.491 462.862 471.427V479.211C460.398 480.275 456.198 480.891 451.718 480.891H429.878V457.035H460.118ZM453.174 483.467C465.382 483.467 475.014 486.211 475.014 494.163C475.014 502.115 465.382 504.859 453.174 504.859C440.966 504.859 431.334 502.115 431.334 494.163C431.334 486.211 440.966 483.467 453.174 483.467ZM453.174 491.027C446.734 491.027 441.526 491.923 441.526 494.163C441.526 496.459 446.734 497.299 453.174 497.299C459.614 497.299 464.822 496.459 464.822 494.163C464.822 491.923 459.614 491.027 453.174 491.027ZM540.377 475.291L518.425 470.363C513.161 473.275 505.657 474.955 497.817 475.067V467.731C504.425 467.619 511.481 466.219 514.505 463.699H498.377V456.475H541.273V463.699H524.977C524.865 463.979 524.753 464.259 524.585 464.539L542.505 468.235L540.377 475.291ZM524.529 477.083H544.017V484.363H495.633V477.083H515.121V472.995H524.529V477.083ZM519.825 486.043C532.761 486.043 541.777 488.619 541.777 495.507C541.777 502.395 532.761 504.971 519.825 504.971C506.889 504.971 497.873 502.395 497.873 495.507C497.873 488.619 506.889 486.043 519.825 486.043ZM519.825 497.915C526.825 497.915 531.697 497.243 531.697 495.507C531.697 493.827 526.825 493.099 519.825 493.099C512.825 493.099 507.953 493.827 507.953 495.507C507.953 497.243 512.825 497.915 519.825 497.915ZM586.46 494.107H596.764V502.619H548.38V494.107H558.684V488.395H551.068V469.075H584.78V465.827H550.956V457.595H594.132V476.915H560.42V480.163H594.692V488.395H586.46V494.107ZM568.148 488.395V494.107H576.996V488.395H568.148Z" fill="#FEB100"/>
</g>
<rect x="593.153" y="93.1433" width="27" height="43" rx="4" transform="rotate(-39.1017 593.153 93.1433)" fill="#FEB100"/>
<rect x="188.471" y="270" width="19.1036" height="30.4243" rx="4" transform="rotate(60.4652 188.471 270)" fill="#FEB100"/>
<rect x="144" y="168.709" width="23.5037" height="35.7095" rx="4" transform="rotate(-38.744 144 168.709)" fill="#7B5CFE"/>
<rect x="776.646" y="128" width="22.5725" height="35.9305" rx="4" transform="rotate(52.8683 776.646 128)" fill="#7B5CFE"/>
<rect x="413.24" y="80" width="27" height="43" rx="4" transform="rotate(25.0981 413.24 80)" fill="#FF7F77"/>
<rect x="126.344" y="348" width="19.8015" height="15.1761" rx="4" transform="rotate(61.5609 126.344 348)" fill="#FF7F77"/>
<rect x="779.344" y="369" width="19.8015" height="15.1761" rx="4" transform="rotate(61.5609 779.344 369)" fill="#FF7F77"/>
<rect x="333.344" y="82" width="19.8015" height="15.1761" rx="4" transform="rotate(61.5609 333.344 82)" fill="#96BAFD"/>
<rect x="517.195" y="99" width="27" height="20.6931" rx="4" transform="rotate(61.5609 517.195 99)" fill="#7B5CFE"/>
<rect x="787.896" y="239.864" width="21.1134" height="29.2495" rx="4" transform="rotate(-37.1566 787.896 239.864)" fill="#BDDD64"/>
<rect x="238.918" y="138" width="18.6672" height="21.7863" rx="4" transform="rotate(13.0487 238.918 138)" fill="#BDDD64"/>
<rect x="746.518" y="297" width="15.5698" height="24.7837" rx="4" transform="rotate(41.7937 746.518 297)" fill="#96BAFD"/>
</g>
<defs>
<filter id="filter0_d_1299_23850" x="105" y="69.9981" width="721.999" height="587.477" filterUnits="userSpaceOnUse" color-interpolation-filters="sRGB">
<feFlood flood-opacity="0" result="BackgroundImageFix"/>
<feColorMatrix in="SourceAlpha" type="matrix" values="0 0 0 0 0 0 0 0 0 0 0 0 0 0 0 0 0 0 127 0" result="hardAlpha"/>
<feOffset dy="4"/>
<feGaussianBlur stdDeviation="40"/>
<feComposite in2="hardAlpha" operator="out"/>
<feColorMatrix type="matrix" values="0 0 0 0 1 0 0 0 0 0.69685 0 0 0 0 0 0 0 0 0.3 0"/>
<feBlend mode="normal" in2="BackgroundImageFix" result="effect1_dropShadow_1299_23850"/>
<feBlend mode="normal" in="SourceGraphic" in2="effect1_dropShadow_1299_23850" result="shape"/>
</filter>
<filter id="filter1_di_1299_23850" x="468.349" y="220.246" width="168.269" height="104.824" filterUnits="userSpaceOnUse" color-interpolation-filters="sRGB">
<feFlood flood-opacity="0" result="BackgroundImageFix"/>
<feColorMatrix in="SourceAlpha" type="matrix" values="0 0 0 0 0 0 0 0 0 0 0 0 0 0 0 0 0 0 127 0" result="hardAlpha"/>
<feOffset dy="5.51703"/>
<feGaussianBlur stdDeviation="13.7926"/>
<feComposite in2="hardAlpha" operator="out"/>
<feColorMatrix type="matrix" values="0 0 0 0 0.0980392 0 0 0 0 0.121569 0 0 0 0 0.176471 0 0 0 0.3 0"/>
<feBlend mode="normal" in2="BackgroundImageFix" result="effect1_dropShadow_1299_23850"/>
<feBlend mode="normal" in="SourceGraphic" in2="effect1_dropShadow_1299_23850" result="shape"/>
<feColorMatrix in="SourceAlpha" type="matrix" values="0 0 0 0 0 0 0 0 0 0 0 0 0 0 0 0 0 0 127 0" result="hardAlpha"/>
<feOffset dx="5.51703" dy="5.51703"/>
<feGaussianBlur stdDeviation="8.27555"/>
<feComposite in2="hardAlpha" operator="arithmetic" k2="-1" k3="1"/>
<feColorMatrix type="matrix" values="0 0 0 0 1 0 0 0 0 1 0 0 0 0 1 0 0 0 0.25 0"/>
<feBlend mode="normal" in2="shape" result="effect2_innerShadow_1299_23850"/>
</filter>
<filter id="filter2_di_1299_23850" x="464.381" y="169.366" width="144.637" height="111.325" filterUnits="userSpaceOnUse" color-interpolation-filters="sRGB">
<feFlood flood-opacity="0" result="BackgroundImageFix"/>
<feColorMatrix in="SourceAlpha" type="matrix" values="0 0 0 0 0 0 0 0 0 0 0 0 0 0 0 0 0 0 127 0" result="hardAlpha"/>
<feOffset dy="5.51703"/>
<feGaussianBlur stdDeviation="13.7926"/>
<feComposite in2="hardAlpha" operator="out"/>
<feColorMatrix type="matrix" values="0 0 0 0 0.0980392 0 0 0 0 0.121569 0 0 0 0 0.176471 0 0 0 0.3 0"/>
<feBlend mode="normal" in2="BackgroundImageFix" result="effect1_dropShadow_1299_23850"/>
<feBlend mode="normal" in="SourceGraphic" in2="effect1_dropShadow_1299_23850" result="shape"/>
<feColorMatrix in="SourceAlpha" type="matrix" values="0 0 0 0 0 0 0 0 0 0 0 0 0 0 0 0 0 0 127 0" result="hardAlpha"/>
<feOffset dx="5.51703" dy="5.51703"/>
<feGaussianBlur stdDeviation="8.27555"/>
<feComposite in2="hardAlpha" operator="arithmetic" k2="-1" k3="1"/>
<feColorMatrix type="matrix" values="0 0 0 0 1 0 0 0 0 1 0 0 0 0 1 0 0 0 0.25 0"/>
<feBlend mode="normal" in2="shape" result="effect2_innerShadow_1299_23850"/>
</filter>
<filter id="filter3_di_1299_23850" x="395.323" y="167.955" width="187.053" height="181.549" filterUnits="userSpaceOnUse" color-interpolation-filters="sRGB">
<feFlood flood-opacity="0" result="BackgroundImageFix"/>
<feColorMatrix in="SourceAlpha" type="matrix" values="0 0 0 0 0 0 0 0 0 0 0 0 0 0 0 0 0 0 127 0" result="hardAlpha"/>
<feOffset dy="5.51703"/>
<feGaussianBlur stdDeviation="27.5852"/>
<feComposite in2="hardAlpha" operator="out"/>
<feColorMatrix type="matrix" values="0 0 0 0 0.0980392 0 0 0 0 0.121569 0 0 0 0 0.176471 0 0 0 0.3 0"/>
<feBlend mode="normal" in2="BackgroundImageFix" result="effect1_dropShadow_1299_23850"/>
<feBlend mode="normal" in="SourceGraphic" in2="effect1_dropShadow_1299_23850" result="shape"/>
<feColorMatrix in="SourceAlpha" type="matrix" values="0 0 0 0 0 0 0 0 0 0 0 0 0 0 0 0 0 0 127 0" result="hardAlpha"/>
<feOffset dx="5.51703" dy="5.51703"/>
<feGaussianBlur stdDeviation="8.27555"/>
<feComposite in2="hardAlpha" operator="arithmetic" k2="-1" k3="1"/>
<feColorMatrix type="matrix" values="0 0 0 0 1 0 0 0 0 1 0 0 0 0 1 0 0 0 0.25 0"/>
<feBlend mode="normal" in2="shape" result="effect2_innerShadow_1299_23850"/>
</filter>
<filter id="filter4_di_1299_23850" x="255.944" y="151.283" width="198.613" height="226.198" filterUnits="userSpaceOnUse" color-interpolation-filters="sRGB">
<feFlood flood-opacity="0" result="BackgroundImageFix"/>
<feColorMatrix in="SourceAlpha" type="matrix" values="0 0 0 0 0 0 0 0 0 0 0 0 0 0 0 0 0 0 127 0" result="hardAlpha"/>
<feOffset dy="5.51703"/>
<feGaussianBlur stdDeviation="13.7926"/>
<feComposite in2="hardAlpha" operator="out"/>
<feColorMatrix type="matrix" values="0 0 0 0 0.0980392 0 0 0 0 0.121569 0 0 0 0 0.176471 0 0 0 0.3 0"/>
<feBlend mode="normal" in2="BackgroundImageFix" result="effect1_dropShadow_1299_23850"/>
<feBlend mode="normal" in="SourceGraphic" in2="effect1_dropShadow_1299_23850" result="shape"/>
<feColorMatrix in="SourceAlpha" type="matrix" values="0 0 0 0 0 0 0 0 0 0 0 0 0 0 0 0 0 0 127 0" result="hardAlpha"/>
<feOffset dx="5.51703" dy="5.51703"/>
<feGaussianBlur stdDeviation="8.27555"/>
<feComposite in2="hardAlpha" operator="arithmetic" k2="-1" k3="1"/>
<feColorMatrix type="matrix" values="0 0 0 0 1 0 0 0 0 1 0 0 0 0 1 0 0 0 0.25 0"/>
<feBlend mode="normal" in2="shape" result="effect2_innerShadow_1299_23850"/>
</filter>
<filter id="filter5_di_1299_23850" x="381.456" y="178.868" width="113.099" height="223.44" filterUnits="userSpaceOnUse" color-interpolation-filters="sRGB">
<feFlood flood-opacity="0" result="BackgroundImageFix"/>
<feColorMatrix in="SourceAlpha" type="matrix" values="0 0 0 0 0 0 0 0 0 0 0 0 0 0 0 0 0 0 127 0" result="hardAlpha"/>
<feOffset dy="5.51703"/>
<feGaussianBlur stdDeviation="13.7926"/>
<feComposite in2="hardAlpha" operator="out"/>
<feColorMatrix type="matrix" values="0 0 0 0 0.0980392 0 0 0 0 0.121569 0 0 0 0 0.176471 0 0 0 0.3 0"/>
<feBlend mode="normal" in2="BackgroundImageFix" result="effect1_dropShadow_1299_23850"/>
<feBlend mode="normal" in="SourceGraphic" in2="effect1_dropShadow_1299_23850" result="shape"/>
<feColorMatrix in="SourceAlpha" type="matrix" values="0 0 0 0 0 0 0 0 0 0 0 0 0 0 0 0 0 0 127 0" result="hardAlpha"/>
<feOffset dx="5.51703" dy="5.51703"/>
<feGaussianBlur stdDeviation="8.27555"/>
<feComposite in2="hardAlpha" operator="arithmetic" k2="-1" k3="1"/>
<feColorMatrix type="matrix" values="0 0 0 0 1 0 0 0 0 1 0 0 0 0 1 0 0 0 0.25 0"/>
<feBlend mode="normal" in2="shape" result="effect2_innerShadow_1299_23850"/>
</filter>
<filter id="filter6_i_1299_23850" x="359.389" y="234.038" width="67.5834" height="85.514" filterUnits="userSpaceOnUse" color-interpolation-filters="sRGB">
<feFlood flood-opacity="0" result="BackgroundImageFix"/>
<feBlend mode="normal" in="SourceGraphic" in2="BackgroundImageFix" result="shape"/>
<feColorMatrix in="SourceAlpha" type="matrix" values="0 0 0 0 0 0 0 0 0 0 0 0 0 0 0 0 0 0 127 0" result="hardAlpha"/>
<feOffset dx="5.51703" dy="5.51703"/>
<feGaussianBlur stdDeviation="8.27555"/>
<feComposite in2="hardAlpha" operator="arithmetic" k2="-1" k3="1"/>
<feColorMatrix type="matrix" values="0 0 0 0 1 0 0 0 0 1 0 0 0 0 1 0 0 0 0.25 0"/>
<feBlend mode="normal" in2="shape" result="effect1_innerShadow_1299_23850"/>
</filter>
<filter id="filter7_dii_1299_23850" x="248.047" y="283.182" width="103.324" height="116.649" filterUnits="userSpaceOnUse" color-interpolation-filters="sRGB">
<feFlood flood-opacity="0" result="BackgroundImageFix"/>
<feColorMatrix in="SourceAlpha" type="matrix" values="0 0 0 0 0 0 0 0 0 0 0 0 0 0 0 0 0 0 127 0" result="hardAlpha"/>
<feOffset dy="11.4212"/>
<feComposite in2="hardAlpha" operator="out"/>
<feColorMatrix type="matrix" values="0 0 0 0 0.904167 0 0 0 0 0 0 0 0 0 0.5425 0 0 0 1 0"/>
<feBlend mode="normal" in2="BackgroundImageFix" result="effect1_dropShadow_1299_23850"/>
<feBlend mode="normal" in="SourceGraphic" in2="effect1_dropShadow_1299_23850" result="shape"/>
<feColorMatrix in="SourceAlpha" type="matrix" values="0 0 0 0 0 0 0 0 0 0 0 0 0 0 0 0 0 0 127 0" result="hardAlpha"/>
<feOffset dx="3.80707" dy="3.80707"/>
<feGaussianBlur stdDeviation="3.80707"/>
<feComposite in2="hardAlpha" operator="arithmetic" k2="-1" k3="1"/>
<feColorMatrix type="matrix" values="0 0 0 0 1 0 0 0 0 1 0 0 0 0 1 0 0 0 0.5 0"/>
<feBlend mode="normal" in2="shape" result="effect2_innerShadow_1299_23850"/>
<feColorMatrix in="SourceAlpha" type="matrix" values="0 0 0 0 0 0 0 0 0 0 0 0 0 0 0 0 0 0 127 0" result="hardAlpha"/>
<feOffset dx="-3.80707" dy="-3.80707"/>
<feGaussianBlur stdDeviation="3.80707"/>
<feComposite in2="hardAlpha" operator="arithmetic" k2="-1" k3="1"/>
<feColorMatrix type="matrix" values="0 0 0 0 1 0 0 0 0 0.478431 0 0 0 0 0.00392157 0 0 0 1 0"/>
<feBlend mode="normal" in2="effect2_innerShadow_1299_23850" result="effect3_innerShadow_1299_23850"/>
</filter>
<filter id="filter8_dii_1299_23850" x="452.944" y="283.182" width="103.324" height="116.649" filterUnits="userSpaceOnUse" color-interpolation-filters="sRGB">
<feFlood flood-opacity="0" result="BackgroundImageFix"/>
<feColorMatrix in="SourceAlpha" type="matrix" values="0 0 0 0 0 0 0 0 0 0 0 0 0 0 0 0 0 0 127 0" result="hardAlpha"/>
<feOffset dy="11.4212"/>
<feComposite in2="hardAlpha" operator="out"/>
<feColorMatrix type="matrix" values="0 0 0 0 0.904167 0 0 0 0 0 0 0 0 0 0.5425 0 0 0 1 0"/>
<feBlend mode="normal" in2="BackgroundImageFix" result="effect1_dropShadow_1299_23850"/>
<feBlend mode="normal" in="SourceGraphic" in2="effect1_dropShadow_1299_23850" result="shape"/>
<feColorMatrix in="SourceAlpha" type="matrix" values="0 0 0 0 0 0 0 0 0 0 0 0 0 0 0 0 0 0 127 0" result="hardAlpha"/>
<feOffset dx="3.80707" dy="3.80707"/>
<feGaussianBlur stdDeviation="3.80707"/>
<feComposite in2="hardAlpha" operator="arithmetic" k2="-1" k3="1"/>
<feColorMatrix type="matrix" values="0 0 0 0 1 0 0 0 0 1 0 0 0 0 1 0 0 0 0.5 0"/>
<feBlend mode="normal" in2="shape" result="effect2_innerShadow_1299_23850"/>
<feColorMatrix in="SourceAlpha" type="matrix" values="0 0 0 0 0 0 0 0 0 0 0 0 0 0 0 0 0 0 127 0" result="hardAlpha"/>
<feOffset dx="-3.80707" dy="-3.80707"/>
<feGaussianBlur stdDeviation="3.80707"/>
<feComposite in2="hardAlpha" operator="arithmetic" k2="-1" k3="1"/>
<feColorMatrix type="matrix" values="0 0 0 0 1 0 0 0 0 0.478431 0 0 0 0 0.00392157 0 0 0 1 0"/>
<feBlend mode="normal" in2="effect2_innerShadow_1299_23850" result="effect3_innerShadow_1299_23850"/>
</filter>
<filter id="filter9_dii_1299_23850" x="349.969" y="282.668" width="104.238" height="117.677" filterUnits="userSpaceOnUse" color-interpolation-filters="sRGB">
<feFlood flood-opacity="0" result="BackgroundImageFix"/>
<feColorMatrix in="SourceAlpha" type="matrix" values="0 0 0 0 0 0 0 0 0 0 0 0 0 0 0 0 0 0 127 0" result="hardAlpha"/>
<feOffset dy="11.4212"/>
<feComposite in2="hardAlpha" operator="out"/>
<feColorMatrix type="matrix" values="0 0 0 0 0.904167 0 0 0 0 0 0 0 0 0 0.5425 0 0 0 1 0"/>
<feBlend mode="normal" in2="BackgroundImageFix" result="effect1_dropShadow_1299_23850"/>
<feBlend mode="normal" in="SourceGraphic" in2="effect1_dropShadow_1299_23850" result="shape"/>
<feColorMatrix in="SourceAlpha" type="matrix" values="0 0 0 0 0 0 0 0 0 0 0 0 0 0 0 0 0 0 127 0" result="hardAlpha"/>
<feOffset dx="3.80707" dy="3.80707"/>
<feGaussianBlur stdDeviation="3.80707"/>
<feComposite in2="hardAlpha" operator="arithmetic" k2="-1" k3="1"/>
<feColorMatrix type="matrix" values="0 0 0 0 1 0 0 0 0 1 0 0 0 0 1 0 0 0 0.5 0"/>
<feBlend mode="normal" in2="shape" result="effect2_innerShadow_1299_23850"/>
<feColorMatrix in="SourceAlpha" type="matrix" values="0 0 0 0 0 0 0 0 0 0 0 0 0 0 0 0 0 0 127 0" result="hardAlpha"/>
<feOffset dx="-3.80707" dy="-3.80707"/>
<feGaussianBlur stdDeviation="3.80707"/>
<feComposite in2="hardAlpha" operator="arithmetic" k2="-1" k3="1"/>
<feColorMatrix type="matrix" values="0 0 0 0 1 0 0 0 0 0.478431 0 0 0 0 0.00392157 0 0 0 1 0"/>
<feBlend mode="normal" in2="effect2_innerShadow_1299_23850" result="effect3_innerShadow_1299_23850"/>
</filter>
<filter id="filter10_dii_1299_23850" x="554.866" y="282.668" width="104.238" height="117.677" filterUnits="userSpaceOnUse" color-interpolation-filters="sRGB">
<feFlood flood-opacity="0" result="BackgroundImageFix"/>
<feColorMatrix in="SourceAlpha" type="matrix" values="0 0 0 0 0 0 0 0 0 0 0 0 0 0 0 0 0 0 127 0" result="hardAlpha"/>
<feOffset dy="11.4212"/>
<feComposite in2="hardAlpha" operator="out"/>
<feColorMatrix type="matrix" values="0 0 0 0 0.904167 0 0 0 0 0 0 0 0 0 0.5425 0 0 0 1 0"/>
<feBlend mode="normal" in2="BackgroundImageFix" result="effect1_dropShadow_1299_23850"/>
<feBlend mode="normal" in="SourceGraphic" in2="effect1_dropShadow_1299_23850" result="shape"/>
<feColorMatrix in="SourceAlpha" type="matrix" values="0 0 0 0 0 0 0 0 0 0 0 0 0 0 0 0 0 0 127 0" result="hardAlpha"/>
<feOffset dx="3.80707" dy="3.80707"/>
<feGaussianBlur stdDeviation="3.80707"/>
<feComposite in2="hardAlpha" operator="arithmetic" k2="-1" k3="1"/>
<feColorMatrix type="matrix" values="0 0 0 0 1 0 0 0 0 1 0 0 0 0 1 0 0 0 0.5 0"/>
<feBlend mode="normal" in2="shape" result="effect2_innerShadow_1299_23850"/>
<feColorMatrix in="SourceAlpha" type="matrix" values="0 0 0 0 0 0 0 0 0 0 0 0 0 0 0 0 0 0 127 0" result="hardAlpha"/>
<feOffset dx="-3.80707" dy="-3.80707"/>
<feGaussianBlur stdDeviation="3.80707"/>
<feComposite in2="hardAlpha" operator="arithmetic" k2="-1" k3="1"/>
<feColorMatrix type="matrix" values="0 0 0 0 1 0 0 0 0 0.478431 0 0 0 0 0.00392157 0 0 0 1 0"/>
<feBlend mode="normal" in2="effect2_innerShadow_1299_23850" result="effect3_innerShadow_1299_23850"/>
</filter>
<filter id="filter11_f_1299_23850" x="421.391" y="288.37" width="14.0981" height="57.3955" filterUnits="userSpaceOnUse" color-interpolation-filters="sRGB">
<feFlood flood-opacity="0" result="BackgroundImageFix"/>
<feBlend mode="normal" in="SourceGraphic" in2="BackgroundImageFix" result="shape"/>
<feGaussianBlur stdDeviation="1.5" result="effect1_foregroundBlur_1299_23850"/>
</filter>
<filter id="filter12_f_1299_23850" x="626" y="288.475" width="14.0981" height="57.3955" filterUnits="userSpaceOnUse" color-interpolation-filters="sRGB">
<feFlood flood-opacity="0" result="BackgroundImageFix"/>
<feBlend mode="normal" in="SourceGraphic" in2="BackgroundImageFix" result="shape"/>
<feGaussianBlur stdDeviation="1.5" result="effect1_foregroundBlur_1299_23850"/>
</filter>
<filter id="filter13_f_1299_23850" x="356.643" y="289.313" width="29.4604" height="51.2181" filterUnits="userSpaceOnUse" color-interpolation-filters="sRGB">
<feFlood flood-opacity="0" result="BackgroundImageFix"/>
<feBlend mode="normal" in="SourceGraphic" in2="BackgroundImageFix" result="shape"/>
<feGaussianBlur stdDeviation="1.5" result="effect1_foregroundBlur_1299_23850"/>
</filter>
<filter id="filter14_f_1299_23850" x="561.301" y="289.313" width="29.4604" height="51.2181" filterUnits="userSpaceOnUse" color-interpolation-filters="sRGB">
<feFlood flood-opacity="0" result="BackgroundImageFix"/>
<feBlend mode="normal" in="SourceGraphic" in2="BackgroundImageFix" result="shape"/>
<feGaussianBlur stdDeviation="1.5" result="effect1_foregroundBlur_1299_23850"/>
</filter>
<filter id="filter15_f_1299_23850" x="251.025" y="362.608" width="33.6011" height="14.3738" filterUnits="userSpaceOnUse" color-interpolation-filters="sRGB">
<feFlood flood-opacity="0" result="BackgroundImageFix"/>
<feBlend mode="normal" in="SourceGraphic" in2="BackgroundImageFix" result="shape"/>
<feGaussianBlur stdDeviation="1.5" result="effect1_foregroundBlur_1299_23850"/>
</filter>
<filter id="filter16_f_1299_23850" x="283.384" y="372.586" width="64.0581" height="15.0573" filterUnits="userSpaceOnUse" color-interpolation-filters="sRGB">
<feFlood flood-opacity="0" result="BackgroundImageFix"/>
<feBlend mode="normal" in="SourceGraphic" in2="BackgroundImageFix" result="shape"/>
<feGaussianBlur stdDeviation="1.5" result="effect1_foregroundBlur_1299_23850"/>
</filter>
<filter id="filter17_f_1299_23850" x="488.015" y="372.586" width="64.0581" height="15.0573" filterUnits="userSpaceOnUse" color-interpolation-filters="sRGB">
<feFlood flood-opacity="0" result="BackgroundImageFix"/>
<feBlend mode="normal" in="SourceGraphic" in2="BackgroundImageFix" result="shape"/>
<feGaussianBlur stdDeviation="1.5" result="effect1_foregroundBlur_1299_23850"/>
</filter>
<filter id="filter18_f_1299_23850" x="253.024" y="288.37" width="44.0708" height="18.1476" filterUnits="userSpaceOnUse" color-interpolation-filters="sRGB">
<feFlood flood-opacity="0" result="BackgroundImageFix"/>
<feBlend mode="normal" in="SourceGraphic" in2="BackgroundImageFix" result="shape"/>
<feGaussianBlur stdDeviation="1.5" result="effect1_foregroundBlur_1299_23850"/>
</filter>
<filter id="filter19_f_1299_23850" x="457.558" y="288.37" width="44.0708" height="18.1476" filterUnits="userSpaceOnUse" color-interpolation-filters="sRGB">
<feFlood flood-opacity="0" result="BackgroundImageFix"/>
<feBlend mode="normal" in="SourceGraphic" in2="BackgroundImageFix" result="shape"/>
<feGaussianBlur stdDeviation="1.5" result="effect1_foregroundBlur_1299_23850"/>
</filter>
<filter id="filter20_f_1299_23850" x="457.558" y="362.608" width="33.6011" height="14.3738" filterUnits="userSpaceOnUse" color-interpolation-filters="sRGB">
<feFlood flood-opacity="0" result="BackgroundImageFix"/>
<feBlend mode="normal" in="SourceGraphic" in2="BackgroundImageFix" result="shape"/>
<feGaussianBlur stdDeviation="1.5" result="effect1_foregroundBlur_1299_23850"/>
</filter>
<filter id="filter21_f_1299_23850" x="640.785" y="327.393" width="10.7466" height="57.3955" filterUnits="userSpaceOnUse" color-interpolation-filters="sRGB">
<feFlood flood-opacity="0" result="BackgroundImageFix"/>
<feBlend mode="normal" in="SourceGraphic" in2="BackgroundImageFix" result="shape"/>
<feGaussianBlur stdDeviation="1.5" result="effect1_foregroundBlur_1299_23850"/>
</filter>
<filter id="filter22_f_1299_23850" x="436.488" y="327.393" width="10.7466" height="57.3955" filterUnits="userSpaceOnUse" color-interpolation-filters="sRGB">
<feFlood flood-opacity="0" result="BackgroundImageFix"/>
<feBlend mode="normal" in="SourceGraphic" in2="BackgroundImageFix" result="shape"/>
<feGaussianBlur stdDeviation="1.5" result="effect1_foregroundBlur_1299_23850"/>
</filter>
<radialGradient id="paint0_radial_1299_23850" cx="0" cy="0" r="1" gradientUnits="userSpaceOnUse" gradientTransform="translate(450 355) rotate(89.299) scale(449.534 628.233)">
<stop stop-color="#FFDF95"/>
<stop offset="0.314717" stop-color="#FFDF95" stop-opacity="0.3"/>
<stop offset="0.707793" stop-color="#FFDF95" stop-opacity="0"/>
<stop offset="1" stop-color="#FFDF95" stop-opacity="0"/>
</radialGradient>
<linearGradient id="paint1_linear_1299_23850" x1="650.604" y1="275.924" x2="614.973" y2="292.026" gradientUnits="userSpaceOnUse">
<stop stop-color="#A500C0"/>
<stop offset="1" stop-color="#C9001A"/>
</linearGradient>
<linearGradient id="paint2_linear_1299_23850" x1="581.432" y1="242.318" x2="638.609" y2="207.772" gradientUnits="userSpaceOnUse">
<stop stop-color="#FF1717"/>
<stop offset="1" stop-color="#CB007A"/>
</linearGradient>
<linearGradient id="paint3_linear_1299_23850" x1="469.483" y1="212.312" x2="524.399" y2="278.376" gradientUnits="userSpaceOnUse">
<stop stop-color="#7BEE20"/>
<stop offset="1" stop-color="#039E13"/>
</linearGradient>
<linearGradient id="paint4_linear_1299_23850" x1="414.606" y1="202.321" x2="380.677" y2="278.72" gradientUnits="userSpaceOnUse">
<stop stop-color="#FFCA51"/>
<stop offset="1" stop-color="#FF7A01"/>
</linearGradient>
<linearGradient id="paint5_linear_1299_23850" x1="429.036" y1="197.795" x2="435.648" y2="271.162" gradientUnits="userSpaceOnUse">
<stop stop-color="#AC99FF"/>
<stop offset="0.974132" stop-color="#703EFF"/>
</linearGradient>
<linearGradient id="paint6_linear_1299_23850" x1="418.966" y1="238.901" x2="394.329" y2="267.125" gradientUnits="userSpaceOnUse">
<stop stop-color="#2CD8FD"/>
<stop offset="1" stop-color="#0F83F7"/>
</linearGradient>
<linearGradient id="paint7_linear_1299_23850" x1="685.474" y1="202.98" x2="668.878" y2="250.42" gradientUnits="userSpaceOnUse">
<stop stop-color="#5434DE"/>
<stop offset="1" stop-color="#5C3BEE" stop-opacity="0"/>
</linearGradient>
<linearGradient id="paint8_linear_1299_23850" x1="446.5" y1="250.475" x2="446.5" y2="391.475" gradientUnits="userSpaceOnUse">
<stop stop-color="#441FE2" stop-opacity="0"/>
<stop offset="0.416667" stop-color="#441FE2"/>
</linearGradient>
<linearGradient id="paint9_linear_1299_23850" x1="387.272" y1="397.109" x2="386.32" y2="266.24" gradientUnits="userSpaceOnUse">
<stop stop-color="#FFB200"/>
<stop offset="0.99888" stop-color="#FFDF95"/>
</linearGradient>
<linearGradient id="paint10_linear_1299_23850" x1="592.169" y1="397.109" x2="591.217" y2="266.24" gradientUnits="userSpaceOnUse">
<stop stop-color="#FFB200"/>
<stop offset="0.99888" stop-color="#FFDF95"/>
</linearGradient>
<linearGradient id="paint11_linear_1299_23850" x1="387.272" y1="397.108" x2="386.32" y2="266.24" gradientUnits="userSpaceOnUse">
<stop stop-color="#FFB200"/>
<stop offset="0.99888" stop-color="#FFDF95"/>
</linearGradient>
<linearGradient id="paint12_linear_1299_23850" x1="592.169" y1="397.108" x2="591.217" y2="266.24" gradientUnits="userSpaceOnUse">
<stop stop-color="#FFB200"/>
<stop offset="0.99888" stop-color="#FFDF95"/>
</linearGradient>
<linearGradient id="paint13_linear_1299_23850" x1="428.674" y1="342.766" x2="428.674" y2="291.37" gradientUnits="userSpaceOnUse">
<stop stop-color="white" stop-opacity="0"/>
<stop offset="1" stop-color="white" stop-opacity="0.7"/>
</linearGradient>
<linearGradient id="paint14_linear_1299_23850" x1="633.283" y1="342.87" x2="633.283" y2="291.475" gradientUnits="userSpaceOnUse">
<stop stop-color="white" stop-opacity="0"/>
<stop offset="1" stop-color="white" stop-opacity="0.7"/>
</linearGradient>
<linearGradient id="paint15_linear_1299_23850" x1="367.76" y1="347.525" x2="367.76" y2="296.129" gradientUnits="userSpaceOnUse">
<stop stop-color="white" stop-opacity="0"/>
<stop offset="1" stop-color="white" stop-opacity="0.7"/>
</linearGradient>
<linearGradient id="paint16_linear_1299_23850" x1="572.418" y1="347.525" x2="572.418" y2="296.129" gradientUnits="userSpaceOnUse">
<stop stop-color="white" stop-opacity="0"/>
<stop offset="1" stop-color="white" stop-opacity="0.7"/>
</linearGradient>
<linearGradient id="paint17_linear_1299_23850" x1="281.626" y1="370.367" x2="254.025" y2="370.367" gradientUnits="userSpaceOnUse">
<stop stop-color="white" stop-opacity="0"/>
<stop offset="1" stop-color="white" stop-opacity="0.7"/>
</linearGradient>
<linearGradient id="paint18_linear_1299_23850" x1="286.384" y1="379.885" x2="344.442" y2="379.885" gradientUnits="userSpaceOnUse">
<stop stop-color="white" stop-opacity="0"/>
<stop offset="1" stop-color="white" stop-opacity="0.7"/>
</linearGradient>
<linearGradient id="paint19_linear_1299_23850" x1="491.015" y1="379.885" x2="549.073" y2="379.885" gradientUnits="userSpaceOnUse">
<stop stop-color="white" stop-opacity="0"/>
<stop offset="1" stop-color="white" stop-opacity="0.7"/>
</linearGradient>
<linearGradient id="paint20_linear_1299_23850" x1="294.095" y1="298.033" x2="256.024" y2="298.033" gradientUnits="userSpaceOnUse">
<stop stop-color="white" stop-opacity="0"/>
<stop offset="1" stop-color="white" stop-opacity="0.7"/>
</linearGradient>
<linearGradient id="paint21_linear_1299_23850" x1="498.629" y1="298.033" x2="460.558" y2="298.033" gradientUnits="userSpaceOnUse">
<stop stop-color="white" stop-opacity="0"/>
<stop offset="1" stop-color="white" stop-opacity="0.7"/>
</linearGradient>
<linearGradient id="paint22_linear_1299_23850" x1="488.159" y1="370.367" x2="460.557" y2="370.367" gradientUnits="userSpaceOnUse">
<stop stop-color="white" stop-opacity="0"/>
<stop offset="1" stop-color="white" stop-opacity="0.7"/>
</linearGradient>
<linearGradient id="paint23_linear_1299_23850" x1="645.914" y1="330.393" x2="645.914" y2="381.789" gradientUnits="userSpaceOnUse">
<stop stop-color="white" stop-opacity="0"/>
<stop offset="1" stop-color="white" stop-opacity="0.4"/>
</linearGradient>
<linearGradient id="paint24_linear_1299_23850" x1="441.617" y1="330.393" x2="441.617" y2="381.789" gradientUnits="userSpaceOnUse">
<stop stop-color="white" stop-opacity="0"/>
<stop offset="1" stop-color="white" stop-opacity="0.4"/>
</linearGradient>
<clipPath id="clip0_1299_23850">
<rect width="900" height="700" fill="white"/>
</clipPath>
</defs>
</svg>
