<svg width="562" height="428" viewBox="0 0 562 428" fill="none" xmlns="http://www.w3.org/2000/svg">
<mask id="path-1-outside-1_1575_66419" maskUnits="userSpaceOnUse" x="0" y="-0.474609" width="562" height="429" fill="black">
<rect fill="white" y="-0.474609" width="562" height="429"/>
<path fill-rule="evenodd" clip-rule="evenodd" d="M459.331 19.0131C463.513 9.96056 474.242 6.01227 483.295 10.1943C489.058 12.857 492.753 18.1735 493.597 24.0216L525.9 38.9449C531.013 41.3069 534.367 45.9254 535.324 51.0708L544.291 55.2132C545.585 55.8108 546.778 56.5615 547.853 57.4389C548.497 57.9645 549.096 58.5332 549.646 59.138L549.646 59.1388C554.012 63.9395 555.363 71.0924 552.453 77.3918L533.571 118.265C529.7 126.643 519.771 130.297 511.393 126.427L500.41 121.353L500.336 121.319L499.065 120.732C495.721 119.187 492.494 117.039 490.173 114.081C488.999 112.585 487.642 110.251 487.116 107.439L463.334 96.4528L447.58 130.554H462.386C467.524 130.554 472.509 132.688 476.107 137.007C479.602 141.201 481 146.483 481 151.475V243.526C481 244.345 480.962 245.172 480.884 246H504C515.046 246 524 254.955 524 266L524 400C524 411.046 515.046 420 504 420H28.0001C16.9544 420 8.00012 411.046 8.00012 400L8 266C8 254.955 16.9543 246 28 246H54.116C54.0377 245.172 54 244.345 54 243.526V232.204C54 227.289 55.3562 222.091 58.7346 217.929C55.3562 213.767 54 208.569 54 203.653V151.475C54 146.483 55.3985 141.201 58.8928 137.007C62.4913 132.688 67.4764 130.554 72.614 130.554H87.175C87.1304 129.436 87.1079 128.312 87.1079 127.183V99.598C87.1079 53.6796 124.332 16.4553 170.251 16.4553C196.703 16.4553 220.259 28.813 235.476 48.036C240.779 45.4775 246.728 44.0404 253.006 44.0404C268.384 44.0404 281.755 52.6361 288.576 65.2851C291.087 63.6236 293.822 62.4173 296.652 61.6629C300.898 45.9481 315.255 34.3858 332.313 34.3858L370.932 34.3858C391.332 34.3858 407.87 50.9232 407.87 71.3233C407.87 76.4855 406.811 81.4003 404.898 85.8624C412.268 87.0246 418.9 90.4075 424.086 95.3045L459.331 19.0131ZM197.958 223.373C197.956 223.395 197.953 223.418 197.95 223.44L197.958 223.373Z"/>
</mask>
<path fill-rule="evenodd" clip-rule="evenodd" d="M459.331 19.0131C463.513 9.96056 474.242 6.01227 483.295 10.1943C489.058 12.857 492.753 18.1735 493.597 24.0216L525.9 38.9449C531.013 41.3069 534.367 45.9254 535.324 51.0708L544.291 55.2132C545.585 55.8108 546.778 56.5615 547.853 57.4389C548.497 57.9645 549.096 58.5332 549.646 59.138L549.646 59.1388C554.012 63.9395 555.363 71.0924 552.453 77.3918L533.571 118.265C529.7 126.643 519.771 130.297 511.393 126.427L500.41 121.353L500.336 121.319L499.065 120.732C495.721 119.187 492.494 117.039 490.173 114.081C488.999 112.585 487.642 110.251 487.116 107.439L463.334 96.4528L447.58 130.554H462.386C467.524 130.554 472.509 132.688 476.107 137.007C479.602 141.201 481 146.483 481 151.475V243.526C481 244.345 480.962 245.172 480.884 246H504C515.046 246 524 254.955 524 266L524 400C524 411.046 515.046 420 504 420H28.0001C16.9544 420 8.00012 411.046 8.00012 400L8 266C8 254.955 16.9543 246 28 246H54.116C54.0377 245.172 54 244.345 54 243.526V232.204C54 227.289 55.3562 222.091 58.7346 217.929C55.3562 213.767 54 208.569 54 203.653V151.475C54 146.483 55.3985 141.201 58.8928 137.007C62.4913 132.688 67.4764 130.554 72.614 130.554H87.175C87.1304 129.436 87.1079 128.312 87.1079 127.183V99.598C87.1079 53.6796 124.332 16.4553 170.251 16.4553C196.703 16.4553 220.259 28.813 235.476 48.036C240.779 45.4775 246.728 44.0404 253.006 44.0404C268.384 44.0404 281.755 52.6361 288.576 65.2851C291.087 63.6236 293.822 62.4173 296.652 61.6629C300.898 45.9481 315.255 34.3858 332.313 34.3858L370.932 34.3858C391.332 34.3858 407.87 50.9232 407.87 71.3233C407.87 76.4855 406.811 81.4003 404.898 85.8624C412.268 87.0246 418.9 90.4075 424.086 95.3045L459.331 19.0131ZM197.958 223.373C197.956 223.395 197.953 223.418 197.95 223.44L197.958 223.373Z" fill="#441FE2"/>
<path d="M285.97 94.0197L285.97 84.4259L277.97 84.426L277.97 94.0198L285.97 94.0197ZM483.295 10.1943L486.65 2.93187L486.65 2.93187L483.295 10.1943ZM459.331 19.0131L466.594 22.3682L466.594 22.3682L459.331 19.0131ZM493.597 24.0216L485.679 25.1648C486.066 27.8454 487.783 30.1482 490.242 31.2841L493.597 24.0216ZM525.9 38.9449L529.255 31.6824V31.6824L525.9 38.9449ZM535.324 51.0708L527.459 52.5348C527.934 55.0843 529.615 57.2456 531.969 58.3332L535.324 51.0708ZM544.291 55.2132L540.936 62.4757L540.936 62.4757L544.291 55.2132ZM547.853 57.4389L542.795 63.6364L542.795 63.6366L547.853 57.4389ZM549.646 59.138L543.727 64.5199C543.808 64.6092 543.891 64.6967 543.976 64.7822L549.646 59.138ZM549.646 59.1388L555.565 53.7569C555.484 53.6676 555.401 53.5801 555.316 53.4946L549.646 59.1388ZM552.453 77.3918L545.191 74.0367V74.0368L552.453 77.3918ZM533.571 118.265L526.308 114.91V114.91L533.571 118.265ZM511.393 126.427L508.037 133.689L508.037 133.689L511.393 126.427ZM500.41 121.353L497.037 128.607C497.043 128.61 497.049 128.613 497.055 128.616L500.41 121.353ZM500.336 121.319L503.709 114.065C503.703 114.062 503.697 114.059 503.691 114.056L500.336 121.319ZM499.065 120.732L495.71 127.994L495.71 127.994L499.065 120.732ZM490.173 114.081L483.879 119.02L483.879 119.02L490.173 114.081ZM487.116 107.439L494.98 105.969C494.504 103.422 492.823 101.264 490.471 100.177L487.116 107.439ZM463.334 96.4528L466.69 89.1904C464.763 88.3006 462.563 88.2123 460.571 88.9451C458.58 89.6779 456.962 91.1716 456.072 93.0978L463.334 96.4528ZM447.58 130.554L440.318 127.199C439.174 129.676 439.371 132.566 440.841 134.864C442.311 137.163 444.852 138.554 447.58 138.554V130.554ZM476.107 137.007L482.253 131.886V131.886L476.107 137.007ZM480.884 246L472.92 245.247C472.707 247.489 473.451 249.718 474.967 251.384C476.483 253.05 478.631 254 480.884 254V246ZM524 266H516H524ZM524 400H532H524ZM8.00012 400H16.0001H8.00012ZM8 266H0H8ZM54.116 246V254C56.3688 254 58.5172 253.05 60.0333 251.384C61.5494 249.718 62.2926 247.49 62.0805 245.247L54.116 246ZM58.7346 217.929L64.9459 222.971C67.3309 220.032 67.3309 215.825 64.9459 212.887L58.7346 217.929ZM58.8928 137.007L52.7468 131.886L52.7468 131.886L58.8928 137.007ZM87.175 130.554V138.554C89.352 138.554 91.435 137.667 92.9435 136.097C94.4519 134.527 95.2554 132.411 95.1686 130.235L87.175 130.554ZM235.476 48.036L229.204 53.0013C231.528 55.938 235.579 56.8687 238.953 55.2412L235.476 48.036ZM288.576 65.2851L281.535 69.0822C282.601 71.0597 284.45 72.4977 286.629 73.0446C288.808 73.5914 291.117 73.1966 292.991 71.9569L288.576 65.2851ZM296.652 61.6629L298.712 69.3929C301.472 68.6573 303.63 66.5067 304.375 63.7499L296.652 61.6629ZM332.313 34.3858V26.3858V34.3858ZM370.932 34.3858V26.3858V34.3858ZM404.898 85.8624L397.545 82.7109C396.573 84.9797 396.702 87.5704 397.896 89.731C399.09 91.8917 401.214 93.3803 403.652 93.7648L404.898 85.8624ZM424.086 95.3045L418.594 101.122C420.466 102.889 423.075 103.647 425.603 103.159C428.13 102.672 430.269 100.997 431.349 98.6596L424.086 95.3045ZM197.95 223.44L190.008 222.479C189.478 226.865 192.603 230.851 196.989 231.382C201.375 231.913 205.361 228.788 205.892 224.402L197.95 223.44ZM197.958 223.373L205.901 224.331C206.429 219.945 203.303 215.961 198.917 215.431C194.531 214.902 190.547 218.027 190.016 222.413L197.958 223.373ZM486.65 2.93187C473.586 -3.10315 458.104 2.5945 452.069 15.658L466.594 22.3682C468.923 17.3266 474.898 15.1277 479.939 17.4568L486.65 2.93187ZM501.515 22.8784C500.3 14.4633 494.974 6.77774 486.65 2.93187L479.939 17.4568C483.142 18.9363 485.205 21.8837 485.679 25.1648L501.515 22.8784ZM529.255 31.6824L496.952 16.7592L490.242 31.2841L522.545 46.2073L529.255 31.6824ZM543.189 49.6068C541.777 42.0214 536.822 35.1779 529.255 31.6824L522.545 46.2073C525.204 47.4359 526.956 49.8295 527.459 52.5348L543.189 49.6068ZM547.646 47.9508L538.679 43.8083L531.969 58.3332L540.936 62.4757L547.646 47.9508ZM552.912 51.2414C551.321 49.9423 549.555 48.8326 547.646 47.9507L540.936 62.4757C541.614 62.7889 542.236 63.1807 542.795 63.6364L552.912 51.2414ZM555.565 53.756C554.75 52.8606 553.865 52.019 552.912 51.2412L542.795 63.6366C543.13 63.9101 543.441 64.2057 543.727 64.5199L555.565 53.756ZM555.316 53.4946L555.315 53.4937L543.976 64.7822L543.977 64.7831L555.316 53.4946ZM559.716 80.7469C564.025 71.418 562.009 60.8433 555.565 53.7569L543.727 64.5207C546.014 67.0357 546.701 70.7667 545.191 74.0367L559.716 80.7469ZM540.833 121.62L559.716 80.7469L545.191 74.0368L526.308 114.91L540.833 121.62ZM508.037 133.689C520.427 139.413 535.11 134.009 540.833 121.62L526.308 114.91C524.291 119.277 519.115 121.182 514.748 119.164L508.037 133.689ZM496.963 128.573L497.037 128.607L503.783 114.099L503.709 114.065L496.963 128.573ZM495.71 127.994L496.981 128.581L503.691 114.056L502.42 113.469L495.71 127.994ZM483.879 119.02C487.237 123.298 491.661 126.124 495.71 127.994L502.42 113.469C499.782 112.25 497.751 110.779 496.466 109.142L483.879 119.02ZM479.252 108.91C480.075 113.309 482.141 116.805 483.879 119.02L496.466 109.142C495.857 108.365 495.209 107.193 494.98 105.969L479.252 108.91ZM459.979 103.715L483.761 114.702L490.471 100.177L466.69 89.1904L459.979 103.715ZM454.843 133.909L470.597 99.8079L456.072 93.0978L440.318 127.199L454.843 133.909ZM462.386 122.554H447.58V138.554H462.386V122.554ZM482.253 131.886C477.077 125.674 469.807 122.554 462.386 122.554V138.554C465.24 138.554 467.94 139.703 469.961 142.128L482.253 131.886ZM489 151.475C489 145.078 487.213 137.838 482.253 131.886L469.961 142.128C471.99 144.563 473 147.889 473 151.475H489ZM489 243.526V151.475H473V243.526H489ZM488.848 246.754C488.951 245.668 489 244.589 489 243.526H473C473 244.1 472.974 244.676 472.92 245.247L488.848 246.754ZM480.884 254H504V238H480.884V254ZM504 254C510.627 254 516 259.373 516 266H532C532 250.536 519.464 238 504 238V254ZM516 266L516 400H532L532 266H516ZM516 400C516 406.628 510.628 412 504 412V428C519.464 428 532 415.464 532 400H516ZM504 412H28.0001V428H504V412ZM28.0001 412C21.3727 412 16.0001 406.628 16.0001 400H0.00012207C0.00012207 415.464 12.5362 428 28.0001 428V412ZM16.0001 400L16 266H0L0.00012207 400H16.0001ZM16 266C16 259.373 21.3726 254 28 254V238C12.536 238 0 250.536 0 266H16ZM28 254H54.116V238H28V254ZM46 243.526C46 244.589 46.0489 245.668 46.1516 246.754L62.0805 245.247C62.0264 244.675 62 244.1 62 243.526H46ZM46 232.204V243.526H62V232.204H46ZM52.5233 212.887C47.7327 218.789 46 225.903 46 232.204H62C62 228.674 62.9797 225.393 64.9459 222.971L52.5233 212.887ZM46 203.653C46 209.955 47.7327 217.069 52.5233 222.971L64.9459 212.887C62.9797 210.465 62 207.183 62 203.653H46ZM46 151.475V203.653H62V151.475H46ZM52.7468 131.886C47.7868 137.838 46 145.078 46 151.475H62C62 147.889 63.0101 144.563 65.0387 142.128L52.7468 131.886ZM72.614 122.554C65.1932 122.554 57.9227 125.674 52.7468 131.886L65.0387 142.128C67.06 139.703 69.7596 138.554 72.614 138.554V122.554ZM87.175 122.554H72.614V138.554H87.175V122.554ZM79.1079 127.183C79.1079 128.418 79.1325 129.648 79.1814 130.873L95.1686 130.235C95.1283 129.223 95.1079 128.206 95.1079 127.183H79.1079ZM79.1079 99.598V127.183H95.1079V99.598H79.1079ZM170.251 8.45532C119.914 8.45532 79.1079 49.2613 79.1079 99.598H95.1079C95.1079 58.0979 128.75 24.4553 170.251 24.4553V8.45532ZM241.749 43.0706C225.081 22.0149 199.253 8.45532 170.251 8.45532V24.4553C194.153 24.4553 215.438 35.6112 229.204 53.0013L241.749 43.0706ZM253.006 36.0404C245.496 36.0404 238.361 37.7618 232 40.8308L238.953 55.2412C243.197 53.1933 247.96 52.0404 253.006 52.0404V36.0404ZM295.618 61.4881C287.457 46.3538 271.442 36.0404 253.006 36.0404V52.0404C265.327 52.0404 276.054 58.9184 281.535 69.0822L295.618 61.4881ZM294.591 53.9329C290.951 54.9034 287.417 56.4595 284.162 58.6134L292.991 71.9569C294.758 70.7877 296.694 69.9311 298.712 69.3929L294.591 53.9329ZM332.313 26.3858C311.55 26.3858 294.094 40.4605 288.929 59.5759L304.375 63.7499C307.702 51.4357 318.961 42.3858 332.313 42.3858V26.3858ZM370.932 26.3858L332.313 26.3858V42.3858L370.932 42.3858V26.3858ZM415.87 71.3233C415.87 46.505 395.751 26.3858 370.932 26.3858V42.3858C386.914 42.3858 399.87 55.3415 399.87 71.3233H415.87ZM412.251 89.014C414.583 83.5744 415.87 77.5887 415.87 71.3233H399.87C399.87 75.3822 399.039 79.2263 397.545 82.7109L412.251 89.014ZM429.578 89.4874C423.255 83.5179 415.156 79.3812 406.144 77.9601L403.652 93.7648C409.38 94.668 414.544 97.2972 418.594 101.122L429.578 89.4874ZM452.069 15.658L416.824 91.9494L431.349 98.6596L466.594 22.3682L452.069 15.658ZM190.016 222.416C190.013 222.436 190.011 222.455 190.008 222.477L205.892 224.402C205.895 224.38 205.898 224.355 205.901 224.331L190.016 222.416ZM497.055 128.616L508.037 133.689L514.748 119.164L503.765 114.091L497.055 128.616ZM205.892 224.4L205.9 224.334L190.016 222.413L190.008 222.479L205.892 224.4Z" fill="#FFAA05" mask="url(#path-1-outside-1_1575_66419)"/>
<g filter="url(#filter0_di_1575_66419)">
<rect x="424.031" y="96.8389" width="49.6533" height="113.099" rx="24.8266" transform="rotate(90 424.031 96.8389)" fill="url(#paint0_linear_1575_66419)"/>
</g>
<g filter="url(#filter1_di_1575_66419)">
<rect x="396.43" y="45.959" width="56.1544" height="89.4662" rx="28.0772" transform="rotate(90 396.43 45.959)" fill="url(#paint1_linear_1575_66419)"/>
</g>
<rect x="357.41" y="60.2354" width="8.56592" height="11.4212" rx="4.28296" fill="#5818DF"/>
<rect x="370.734" y="60.2354" width="8.56592" height="11.4212" rx="4.28296" fill="#5818DF"/>
<g filter="url(#filter2_di_1575_66419)">
<path d="M289.793 80.2986C296.002 69.4116 311.697 69.4116 317.905 80.2986L340.057 119.147C346.207 129.933 338.418 143.342 326.001 143.342H281.697C269.28 143.342 261.491 129.933 267.641 119.147L289.793 80.2986Z" fill="url(#paint2_linear_1575_66419)"/>
</g>
<g filter="url(#filter3_di_1575_66419)">
<rect x="98.5273" y="27.876" width="143.443" height="171.028" rx="71.7214" fill="url(#paint3_linear_1575_66419)"/>
</g>
<rect x="122.32" y="81.1748" width="13.3248" height="18.0836" rx="6.66238" fill="#5818DF"/>
<rect x="144.211" y="81.1748" width="13.3248" height="18.0836" rx="6.66238" fill="#5818DF"/>
<g filter="url(#filter4_di_1575_66419)">
<rect x="224.039" y="55.4609" width="57.9288" height="168.269" rx="28.9644" fill="url(#paint4_linear_1575_66419)"/>
</g>
<rect x="246.051" y="78.3193" width="8.56592" height="11.4212" rx="4.28296" fill="#5818DF"/>
<rect x="259.375" y="78.3193" width="8.56592" height="11.4212" rx="4.28296" fill="#5818DF"/>
<g filter="url(#filter5_i_1575_66419)">
<rect x="174.387" y="88.5635" width="62.0666" height="79.997" rx="19.3096" fill="url(#paint5_linear_1575_66419)"/>
</g>
<rect x="188.945" y="104.969" width="8.56592" height="11.4212" rx="4.28296" fill="#5818DF"/>
<rect x="202.27" y="104.969" width="8.56592" height="11.4212" rx="4.28296" fill="#5818DF"/>
<rect x="285.074" y="99.2588" width="8.56592" height="11.4212" rx="4.28296" fill="#5818DF"/>
<rect x="298.398" y="99.2588" width="8.56592" height="11.4212" rx="4.28296" fill="#5818DF"/>
<rect x="472.277" y="17.2207" width="14.1113" height="167.228" rx="7.05567" transform="rotate(24.7958 472.277 17.2207)" fill="#7E61FF"/>
<path d="M472.836 32.8375C474.158 29.9743 477.551 28.7256 480.415 30.0483L521.288 48.9308C524.151 50.2535 525.4 53.6468 524.077 56.5099L502.8 102.567L456.742 81.2898C453.879 79.9672 452.63 76.5739 453.953 73.7108L472.836 32.8375Z" fill="#633FFE"/>
<path d="M523.512 57.7305L539.678 65.199C542.541 66.5217 543.79 69.915 542.467 72.7781L523.585 113.651C522.262 116.515 518.869 117.763 516.006 116.441L505.023 111.367C502.16 110.044 500.912 106.651 502.234 103.788L523.512 57.7305Z" fill="url(#paint6_linear_1575_66419)"/>
<path d="M487.82 95.2317L470.933 87.4303L495.057 57.0197L519.363 55.8129L539.681 65.1994C542.544 66.5221 543.793 69.9153 542.47 72.7785L523.587 113.652C522.265 116.515 518.872 117.764 516.008 116.441L503.681 110.746C498.937 108.554 497.351 105.879 498.091 104.277C499.728 100.733 490.983 96.693 487.82 95.2317Z" fill="#633FFE"/>
<rect x="81" y="105" width="361" height="141" fill="url(#paint7_linear_1575_66419)"/>
<rect x="395.48" y="171.594" width="22.8424" height="51.3955" fill="#E7008A"/>
<rect x="428.793" y="171.594" width="22.8424" height="51.3955" fill="#E7008A"/>
<rect x="193.707" y="171.594" width="51.3955" height="51.3955" fill="#E7008A"/>
<g filter="url(#filter6_dii_1575_66419)">
<path d="M162.565 224.432V234.939C162.565 239.736 159.71 242.934 155.37 242.934H74.0508C69.7108 242.934 66.8555 239.736 66.8555 234.939V224.432C66.8555 219.635 69.7108 216.437 74.0508 216.437H95.6369V205.929H74.0508C69.7108 205.929 66.8555 202.731 66.8555 197.935V149.509C66.8555 144.712 69.7108 141.514 74.0508 141.514H155.37C159.71 141.514 162.565 144.712 162.565 149.509V197.935C162.565 202.731 159.71 205.929 155.37 205.929H133.784V216.437H155.37C159.71 216.437 162.565 219.635 162.565 224.432ZM98.378 175.625C98.378 177.728 100.083 179.432 102.185 179.432H127.236C129.338 179.432 131.043 177.728 131.043 175.625V171.818C131.043 169.715 129.338 168.011 127.236 168.011H102.185C100.083 168.011 98.378 169.715 98.378 171.818V175.625Z" fill="url(#paint8_linear_1575_66419)"/>
</g>
<g filter="url(#filter7_dii_1575_66419)">
<path d="M367.464 224.432V234.939C367.464 239.736 364.608 242.934 360.268 242.934H278.949C274.609 242.934 271.754 239.736 271.754 234.939V224.432C271.754 219.635 274.609 216.437 278.949 216.437H300.535V205.929H278.949C274.609 205.929 271.754 202.731 271.754 197.935V149.509C271.754 144.712 274.609 141.514 278.949 141.514H360.268C364.608 141.514 367.464 144.712 367.464 149.509V197.935C367.464 202.731 364.608 205.929 360.268 205.929H338.682V216.437H360.268C364.608 216.437 367.464 219.635 367.464 224.432ZM303.276 175.625C303.276 177.728 304.981 179.432 307.084 179.432H332.134C334.237 179.432 335.941 177.728 335.941 175.625V171.818C335.941 169.715 334.237 168.011 332.134 168.011H307.084C304.981 168.011 303.276 169.715 303.276 171.818V175.625Z" fill="url(#paint9_linear_1575_66419)"/>
</g>
<g filter="url(#filter8_dii_1575_66419)">
<path d="M235.477 156.133V149.509C235.477 144.712 238.333 141.514 242.673 141.514H258.206C262.546 141.514 265.401 144.712 265.401 149.509V234.94C265.401 239.736 262.546 242.934 258.206 242.934H242.673C238.333 242.934 235.477 239.736 235.477 234.94V227.173H231.023C228.396 235.396 222.457 242.249 213.32 242.934C203.955 243.62 198.815 243.62 189.564 242.934C177.343 242.021 169.919 230.714 169.463 219.178C168.549 196.336 168.549 188.113 169.463 165.27C169.919 153.735 177.343 142.428 189.564 141.514C198.815 140.829 203.955 140.829 213.32 141.514C222.114 142.199 227.825 148.367 230.566 156.133H235.477ZM198.798 213.504C198.616 215.059 199.824 216.437 201.39 216.437C202.685 216.437 203.784 215.481 203.946 214.195C205.836 199.233 205.836 185.215 203.946 170.253C203.784 168.968 202.685 168.011 201.39 168.011C199.824 168.011 198.616 169.389 198.798 170.945C200.483 185.418 200.483 199.031 198.798 213.504ZM232.164 197.59C232.146 198.657 233.004 199.534 234.072 199.534H234.526C235.577 199.534 236.429 198.682 236.429 197.63V185.676C236.429 184.625 235.577 183.772 234.526 183.772H234.071C233.004 183.772 232.146 184.649 232.163 185.716C232.229 189.782 232.229 193.59 232.164 197.59Z" fill="url(#paint10_linear_1575_66419)"/>
</g>
<g filter="url(#filter9_dii_1575_66419)">
<path d="M440.376 156.133V149.509C440.376 144.712 443.231 141.514 447.571 141.514H463.104C467.444 141.514 470.299 144.712 470.299 149.509V234.94C470.299 239.736 467.444 242.934 463.104 242.934H447.571C443.231 242.934 440.376 239.736 440.376 234.94V227.173H435.921C433.295 235.396 427.356 242.249 418.219 242.934C408.853 243.62 403.714 243.62 394.462 242.934C382.242 242.021 374.818 230.714 374.361 219.178C373.447 196.336 373.447 188.113 374.361 165.27C374.818 153.735 382.242 142.428 394.462 141.514C403.714 140.829 408.853 140.829 418.219 141.514C427.013 142.199 432.724 148.367 435.465 156.133H440.376ZM403.696 213.504C403.515 215.059 404.722 216.437 406.288 216.437C407.584 216.437 408.683 215.481 408.845 214.195C410.734 199.233 410.734 185.215 408.845 170.253C408.683 168.968 407.584 168.011 406.288 168.011C404.722 168.011 403.515 169.389 403.696 170.945C405.382 185.418 405.382 199.031 403.696 213.504ZM437.062 197.59C437.045 198.657 437.903 199.534 438.97 199.534H439.424C440.475 199.534 441.327 198.682 441.327 197.63V185.676C441.327 184.625 440.475 183.772 439.424 183.772H438.969C437.902 183.772 437.044 184.649 437.062 185.716C437.127 189.782 437.128 193.59 437.062 197.59Z" fill="url(#paint11_linear_1575_66419)"/>
</g>
<g filter="url(#filter10_f_1575_66419)">
<path d="M243.198 145.896L246.979 145.896C247.376 145.896 247.621 146.368 247.414 146.707C246.72 147.845 245.528 150.159 244.842 153.51C244.063 157.317 239.391 197.291 239.391 197.291L239.391 149.703C239.391 147.6 241.096 145.896 243.198 145.896Z" fill="url(#paint12_linear_1575_66419)"/>
</g>
<g filter="url(#filter11_f_1575_66419)">
<path d="M447.808 146L451.588 146C451.985 146 452.23 146.473 452.023 146.812C451.33 147.95 450.137 150.263 449.452 153.614C448.673 157.421 444 197.396 444 197.396L444 149.807C444 147.704 445.705 146 447.808 146Z" fill="url(#paint13_linear_1575_66419)"/>
</g>
<g filter="url(#filter12_f_1575_66419)">
<path d="M183.93 149.227C186.909 147.185 194.232 146.87 197.631 146.839C198.119 146.834 198.286 147.478 197.864 147.723C194.237 149.828 185.293 155.386 182.286 160.648C175.999 171.65 174.845 183.533 174.672 188.994L174.672 192.057C174.672 192.057 174.61 190.928 174.672 188.994L174.672 173.973C174.672 164.931 176.265 154.482 183.93 149.227Z" fill="url(#paint14_linear_1575_66419)"/>
</g>
<g filter="url(#filter13_f_1575_66419)">
<path d="M388.587 149.227C391.565 147.185 398.888 146.87 402.288 146.839C402.775 146.834 402.942 147.478 402.52 147.723C398.893 149.828 389.949 155.386 386.942 160.648C380.655 171.65 379.502 183.533 379.328 188.994L379.328 192.057C379.328 192.057 379.267 190.928 379.328 188.994L379.328 173.973C379.328 164.931 380.921 154.482 388.587 149.227Z" fill="url(#paint15_linear_1575_66419)"/>
</g>
<g filter="url(#filter14_f_1575_66419)">
<path d="M69.0276 223.941L69.0276 227.971C69.0276 228.451 69.7467 228.69 70.0777 228.343C70.769 227.617 71.7918 226.751 73.1167 226.19C75.1612 225.325 96.6289 220.134 96.6289 220.134L72.8347 220.134C70.7321 220.134 69.0276 221.838 69.0276 223.941Z" fill="url(#paint16_linear_1575_66419)"/>
</g>
<g filter="url(#filter15_f_1575_66419)">
<path d="M159.445 235.362L159.445 230.62C159.445 230.225 158.978 229.98 158.64 230.187C157.399 230.945 154.743 232.328 150.843 233.112C146.543 233.978 101.387 239.169 101.387 239.169L155.638 239.169C157.74 239.169 159.445 237.465 159.445 235.362Z" fill="url(#paint17_linear_1575_66419)" fill-opacity="0.5"/>
</g>
<g filter="url(#filter16_f_1575_66419)">
<path d="M364.074 235.362L364.074 230.62C364.074 230.225 363.607 229.98 363.269 230.187C362.027 230.945 359.372 232.328 355.472 233.112C351.172 233.978 306.016 239.169 306.016 239.169L360.266 239.169C362.369 239.169 364.074 237.465 364.074 235.362Z" fill="url(#paint18_linear_1575_66419)" fill-opacity="0.5"/>
</g>
<g filter="url(#filter17_f_1575_66419)">
<path d="M71.0269 149.703L71.0269 157.519C71.0269 158 71.7347 158.229 72.0486 157.864C72.9833 156.776 74.544 155.287 76.667 154.375C79.4871 153.164 109.098 145.896 109.098 145.896L74.834 145.896C72.7314 145.896 71.0269 147.6 71.0269 149.703Z" fill="url(#paint19_linear_1575_66419)"/>
</g>
<g filter="url(#filter18_f_1575_66419)">
<path d="M275.558 149.703L275.558 157.519C275.558 158 276.266 158.229 276.58 157.864C277.515 156.776 279.075 155.287 281.198 154.375C284.018 153.164 313.629 145.896 313.629 145.896L279.365 145.896C277.263 145.896 275.558 147.6 275.558 149.703Z" fill="url(#paint20_linear_1575_66419)"/>
</g>
<g filter="url(#filter19_f_1575_66419)">
<path d="M275.559 223.941L275.559 227.971C275.559 228.451 276.278 228.69 276.609 228.343C277.3 227.617 278.323 226.751 279.648 226.19C281.692 225.325 303.16 220.134 303.16 220.134L279.366 220.134C277.263 220.134 275.559 221.838 275.559 223.941Z" fill="url(#paint21_linear_1575_66419)"/>
</g>
<g filter="url(#filter20_f_1575_66419)">
<path d="M461.628 236.313H459.809C459.108 236.313 458.616 235.569 458.84 234.905C459.266 233.64 459.845 231.543 460.2 228.699C460.676 224.892 463.532 184.918 463.532 184.918V234.41C463.532 235.461 462.679 236.313 461.628 236.313Z" fill="url(#paint22_linear_1575_66419)"/>
</g>
<g filter="url(#filter21_f_1575_66419)">
<path d="M257.331 236.313H255.512C254.811 236.313 254.319 235.569 254.543 234.905C254.969 233.64 255.548 231.543 255.904 228.699C256.379 224.892 259.235 184.918 259.235 184.918V234.41C259.235 235.461 258.382 236.313 257.331 236.313Z" fill="url(#paint23_linear_1575_66419)"/>
</g>
<path d="M160.536 311H170V358.824H160.536V311ZM146.928 312.288C146.928 319.4 146.256 325.784 145.08 331.328L159.248 351.04L151.576 356.528L141.72 342.248C137.688 351.432 131.528 356.528 124.192 356.584V346.84C131.864 345.944 137.24 331.944 137.296 311.952L146.928 312.288ZM227.003 319.288V328.36H221.403V339.448H211.939V311H221.403V319.288H227.003ZM193.179 330.768C189.483 335.36 183.827 338.608 177.051 338.776V330.264C183.435 329.816 187.467 324.832 188.307 319.512H177.723V311.56H208.187V319.512H197.883C197.771 320.856 197.491 322.2 197.099 323.488L209.979 331.496L205.107 338.384L193.179 330.768ZM178.955 349.248V341.128H221.403V359.384H211.771V349.248H178.955ZM282.566 311H291.414V358.824H282.566V337.544H278.59V357.984H269.854V311.224H278.59V328.584H282.566V311ZM253.782 348.296H256.47C260.222 348.296 264.702 347.736 267.614 346.672V354.848C264.758 356.024 259.662 356.584 255.63 356.584H244.654V312.12H265.542V320.408H253.782V348.296ZM342.817 311V358.824H333.353V311H342.817ZM325.961 312.12V325.056C325.961 344.488 315.153 356.584 298.409 356.584V347.624C310.001 347.512 316.273 338.888 316.273 325.056V320.744H298.409V312.12H325.961ZM394.108 329.816L372.212 325.112C366.948 327.968 359.444 329.48 351.492 329.592V322.256C358.156 322.144 365.324 320.688 368.292 318.224H352.052V311H394.948V318.224H378.876C378.764 318.616 378.596 318.952 378.428 319.344L396.124 322.76L394.108 329.816ZM397.692 338.552H378.204V340.792C388.508 341.352 395.34 344.04 395.34 350.032C395.34 356.92 386.38 359.384 373.5 359.384C360.62 359.384 351.66 356.92 351.66 350.032C351.66 344.04 358.492 341.352 368.796 340.792V338.552H349.308V331.272H397.692V338.552ZM385.26 350.032C385.26 348.352 380.444 347.736 373.5 347.736C366.556 347.736 361.74 348.352 361.74 350.032C361.74 351.768 366.556 352.328 373.5 352.328C380.444 352.328 385.26 351.768 385.26 350.032Z" fill="#FEB100"/>
<defs>
<filter id="filter0_di_1575_66419" x="283.348" y="74.7707" width="168.268" height="104.824" filterUnits="userSpaceOnUse" color-interpolation-filters="sRGB">
<feFlood flood-opacity="0" result="BackgroundImageFix"/>
<feColorMatrix in="SourceAlpha" type="matrix" values="0 0 0 0 0 0 0 0 0 0 0 0 0 0 0 0 0 0 127 0" result="hardAlpha"/>
<feOffset dy="5.51703"/>
<feGaussianBlur stdDeviation="13.7926"/>
<feComposite in2="hardAlpha" operator="out"/>
<feColorMatrix type="matrix" values="0 0 0 0 0.0980392 0 0 0 0 0.121569 0 0 0 0 0.176471 0 0 0 0.3 0"/>
<feBlend mode="normal" in2="BackgroundImageFix" result="effect1_dropShadow_1575_66419"/>
<feBlend mode="normal" in="SourceGraphic" in2="effect1_dropShadow_1575_66419" result="shape"/>
<feColorMatrix in="SourceAlpha" type="matrix" values="0 0 0 0 0 0 0 0 0 0 0 0 0 0 0 0 0 0 127 0" result="hardAlpha"/>
<feOffset dx="5.51703" dy="5.51703"/>
<feGaussianBlur stdDeviation="8.27555"/>
<feComposite in2="hardAlpha" operator="arithmetic" k2="-1" k3="1"/>
<feColorMatrix type="matrix" values="0 0 0 0 1 0 0 0 0 1 0 0 0 0 1 0 0 0 0.25 0"/>
<feBlend mode="normal" in2="shape" result="effect2_innerShadow_1575_66419"/>
</filter>
<filter id="filter1_di_1575_66419" x="279.38" y="23.8909" width="144.635" height="111.325" filterUnits="userSpaceOnUse" color-interpolation-filters="sRGB">
<feFlood flood-opacity="0" result="BackgroundImageFix"/>
<feColorMatrix in="SourceAlpha" type="matrix" values="0 0 0 0 0 0 0 0 0 0 0 0 0 0 0 0 0 0 127 0" result="hardAlpha"/>
<feOffset dy="5.51703"/>
<feGaussianBlur stdDeviation="13.7926"/>
<feComposite in2="hardAlpha" operator="out"/>
<feColorMatrix type="matrix" values="0 0 0 0 0.0980392 0 0 0 0 0.121569 0 0 0 0 0.176471 0 0 0 0.3 0"/>
<feBlend mode="normal" in2="BackgroundImageFix" result="effect1_dropShadow_1575_66419"/>
<feBlend mode="normal" in="SourceGraphic" in2="effect1_dropShadow_1575_66419" result="shape"/>
<feColorMatrix in="SourceAlpha" type="matrix" values="0 0 0 0 0 0 0 0 0 0 0 0 0 0 0 0 0 0 127 0" result="hardAlpha"/>
<feOffset dx="5.51703" dy="5.51703"/>
<feGaussianBlur stdDeviation="8.27555"/>
<feComposite in2="hardAlpha" operator="arithmetic" k2="-1" k3="1"/>
<feColorMatrix type="matrix" values="0 0 0 0 1 0 0 0 0 1 0 0 0 0 1 0 0 0 0.25 0"/>
<feBlend mode="normal" in2="shape" result="effect2_innerShadow_1575_66419"/>
</filter>
<filter id="filter2_di_1575_66419" x="210.322" y="22.4805" width="187.052" height="181.549" filterUnits="userSpaceOnUse" color-interpolation-filters="sRGB">
<feFlood flood-opacity="0" result="BackgroundImageFix"/>
<feColorMatrix in="SourceAlpha" type="matrix" values="0 0 0 0 0 0 0 0 0 0 0 0 0 0 0 0 0 0 127 0" result="hardAlpha"/>
<feOffset dy="5.51703"/>
<feGaussianBlur stdDeviation="27.5852"/>
<feComposite in2="hardAlpha" operator="out"/>
<feColorMatrix type="matrix" values="0 0 0 0 0.0980392 0 0 0 0 0.121569 0 0 0 0 0.176471 0 0 0 0.3 0"/>
<feBlend mode="normal" in2="BackgroundImageFix" result="effect1_dropShadow_1575_66419"/>
<feBlend mode="normal" in="SourceGraphic" in2="effect1_dropShadow_1575_66419" result="shape"/>
<feColorMatrix in="SourceAlpha" type="matrix" values="0 0 0 0 0 0 0 0 0 0 0 0 0 0 0 0 0 0 127 0" result="hardAlpha"/>
<feOffset dx="5.51703" dy="5.51703"/>
<feGaussianBlur stdDeviation="8.27555"/>
<feComposite in2="hardAlpha" operator="arithmetic" k2="-1" k3="1"/>
<feColorMatrix type="matrix" values="0 0 0 0 1 0 0 0 0 1 0 0 0 0 1 0 0 0 0.25 0"/>
<feBlend mode="normal" in2="shape" result="effect2_innerShadow_1575_66419"/>
</filter>
<filter id="filter3_di_1575_66419" x="70.9422" y="5.80785" width="198.612" height="226.199" filterUnits="userSpaceOnUse" color-interpolation-filters="sRGB">
<feFlood flood-opacity="0" result="BackgroundImageFix"/>
<feColorMatrix in="SourceAlpha" type="matrix" values="0 0 0 0 0 0 0 0 0 0 0 0 0 0 0 0 0 0 127 0" result="hardAlpha"/>
<feOffset dy="5.51703"/>
<feGaussianBlur stdDeviation="13.7926"/>
<feComposite in2="hardAlpha" operator="out"/>
<feColorMatrix type="matrix" values="0 0 0 0 0.0980392 0 0 0 0 0.121569 0 0 0 0 0.176471 0 0 0 0.3 0"/>
<feBlend mode="normal" in2="BackgroundImageFix" result="effect1_dropShadow_1575_66419"/>
<feBlend mode="normal" in="SourceGraphic" in2="effect1_dropShadow_1575_66419" result="shape"/>
<feColorMatrix in="SourceAlpha" type="matrix" values="0 0 0 0 0 0 0 0 0 0 0 0 0 0 0 0 0 0 127 0" result="hardAlpha"/>
<feOffset dx="5.51703" dy="5.51703"/>
<feGaussianBlur stdDeviation="8.27555"/>
<feComposite in2="hardAlpha" operator="arithmetic" k2="-1" k3="1"/>
<feColorMatrix type="matrix" values="0 0 0 0 1 0 0 0 0 1 0 0 0 0 1 0 0 0 0.25 0"/>
<feBlend mode="normal" in2="shape" result="effect2_innerShadow_1575_66419"/>
</filter>
<filter id="filter4_di_1575_66419" x="196.454" y="33.3928" width="113.1" height="223.44" filterUnits="userSpaceOnUse" color-interpolation-filters="sRGB">
<feFlood flood-opacity="0" result="BackgroundImageFix"/>
<feColorMatrix in="SourceAlpha" type="matrix" values="0 0 0 0 0 0 0 0 0 0 0 0 0 0 0 0 0 0 127 0" result="hardAlpha"/>
<feOffset dy="5.51703"/>
<feGaussianBlur stdDeviation="13.7926"/>
<feComposite in2="hardAlpha" operator="out"/>
<feColorMatrix type="matrix" values="0 0 0 0 0.0980392 0 0 0 0 0.121569 0 0 0 0 0.176471 0 0 0 0.3 0"/>
<feBlend mode="normal" in2="BackgroundImageFix" result="effect1_dropShadow_1575_66419"/>
<feBlend mode="normal" in="SourceGraphic" in2="effect1_dropShadow_1575_66419" result="shape"/>
<feColorMatrix in="SourceAlpha" type="matrix" values="0 0 0 0 0 0 0 0 0 0 0 0 0 0 0 0 0 0 127 0" result="hardAlpha"/>
<feOffset dx="5.51703" dy="5.51703"/>
<feGaussianBlur stdDeviation="8.27555"/>
<feComposite in2="hardAlpha" operator="arithmetic" k2="-1" k3="1"/>
<feColorMatrix type="matrix" values="0 0 0 0 1 0 0 0 0 1 0 0 0 0 1 0 0 0 0.25 0"/>
<feBlend mode="normal" in2="shape" result="effect2_innerShadow_1575_66419"/>
</filter>
<filter id="filter5_i_1575_66419" x="174.387" y="88.5635" width="67.5834" height="85.5141" filterUnits="userSpaceOnUse" color-interpolation-filters="sRGB">
<feFlood flood-opacity="0" result="BackgroundImageFix"/>
<feBlend mode="normal" in="SourceGraphic" in2="BackgroundImageFix" result="shape"/>
<feColorMatrix in="SourceAlpha" type="matrix" values="0 0 0 0 0 0 0 0 0 0 0 0 0 0 0 0 0 0 127 0" result="hardAlpha"/>
<feOffset dx="5.51703" dy="5.51703"/>
<feGaussianBlur stdDeviation="8.27555"/>
<feComposite in2="hardAlpha" operator="arithmetic" k2="-1" k3="1"/>
<feColorMatrix type="matrix" values="0 0 0 0 1 0 0 0 0 1 0 0 0 0 1 0 0 0 0.25 0"/>
<feBlend mode="normal" in2="shape" result="effect1_innerShadow_1575_66419"/>
</filter>
<filter id="filter6_dii_1575_66419" x="63.0484" y="137.707" width="103.325" height="116.649" filterUnits="userSpaceOnUse" color-interpolation-filters="sRGB">
<feFlood flood-opacity="0" result="BackgroundImageFix"/>
<feColorMatrix in="SourceAlpha" type="matrix" values="0 0 0 0 0 0 0 0 0 0 0 0 0 0 0 0 0 0 127 0" result="hardAlpha"/>
<feOffset dy="11.4212"/>
<feComposite in2="hardAlpha" operator="out"/>
<feColorMatrix type="matrix" values="0 0 0 0 0.904167 0 0 0 0 0 0 0 0 0 0.5425 0 0 0 1 0"/>
<feBlend mode="normal" in2="BackgroundImageFix" result="effect1_dropShadow_1575_66419"/>
<feBlend mode="normal" in="SourceGraphic" in2="effect1_dropShadow_1575_66419" result="shape"/>
<feColorMatrix in="SourceAlpha" type="matrix" values="0 0 0 0 0 0 0 0 0 0 0 0 0 0 0 0 0 0 127 0" result="hardAlpha"/>
<feOffset dx="3.80707" dy="3.80707"/>
<feGaussianBlur stdDeviation="3.80707"/>
<feComposite in2="hardAlpha" operator="arithmetic" k2="-1" k3="1"/>
<feColorMatrix type="matrix" values="0 0 0 0 1 0 0 0 0 1 0 0 0 0 1 0 0 0 0.5 0"/>
<feBlend mode="normal" in2="shape" result="effect2_innerShadow_1575_66419"/>
<feColorMatrix in="SourceAlpha" type="matrix" values="0 0 0 0 0 0 0 0 0 0 0 0 0 0 0 0 0 0 127 0" result="hardAlpha"/>
<feOffset dx="-3.80707" dy="-3.80707"/>
<feGaussianBlur stdDeviation="3.80707"/>
<feComposite in2="hardAlpha" operator="arithmetic" k2="-1" k3="1"/>
<feColorMatrix type="matrix" values="0 0 0 0 1 0 0 0 0 0.478431 0 0 0 0 0.00392157 0 0 0 1 0"/>
<feBlend mode="normal" in2="effect2_innerShadow_1575_66419" result="effect3_innerShadow_1575_66419"/>
</filter>
<filter id="filter7_dii_1575_66419" x="267.947" y="137.707" width="103.325" height="116.649" filterUnits="userSpaceOnUse" color-interpolation-filters="sRGB">
<feFlood flood-opacity="0" result="BackgroundImageFix"/>
<feColorMatrix in="SourceAlpha" type="matrix" values="0 0 0 0 0 0 0 0 0 0 0 0 0 0 0 0 0 0 127 0" result="hardAlpha"/>
<feOffset dy="11.4212"/>
<feComposite in2="hardAlpha" operator="out"/>
<feColorMatrix type="matrix" values="0 0 0 0 0.904167 0 0 0 0 0 0 0 0 0 0.5425 0 0 0 1 0"/>
<feBlend mode="normal" in2="BackgroundImageFix" result="effect1_dropShadow_1575_66419"/>
<feBlend mode="normal" in="SourceGraphic" in2="effect1_dropShadow_1575_66419" result="shape"/>
<feColorMatrix in="SourceAlpha" type="matrix" values="0 0 0 0 0 0 0 0 0 0 0 0 0 0 0 0 0 0 127 0" result="hardAlpha"/>
<feOffset dx="3.80707" dy="3.80707"/>
<feGaussianBlur stdDeviation="3.80707"/>
<feComposite in2="hardAlpha" operator="arithmetic" k2="-1" k3="1"/>
<feColorMatrix type="matrix" values="0 0 0 0 1 0 0 0 0 1 0 0 0 0 1 0 0 0 0.5 0"/>
<feBlend mode="normal" in2="shape" result="effect2_innerShadow_1575_66419"/>
<feColorMatrix in="SourceAlpha" type="matrix" values="0 0 0 0 0 0 0 0 0 0 0 0 0 0 0 0 0 0 127 0" result="hardAlpha"/>
<feOffset dx="-3.80707" dy="-3.80707"/>
<feGaussianBlur stdDeviation="3.80707"/>
<feComposite in2="hardAlpha" operator="arithmetic" k2="-1" k3="1"/>
<feColorMatrix type="matrix" values="0 0 0 0 1 0 0 0 0 0.478431 0 0 0 0 0.00392157 0 0 0 1 0"/>
<feBlend mode="normal" in2="effect2_innerShadow_1575_66419" result="effect3_innerShadow_1575_66419"/>
</filter>
<filter id="filter8_dii_1575_66419" x="164.97" y="137.193" width="104.239" height="117.677" filterUnits="userSpaceOnUse" color-interpolation-filters="sRGB">
<feFlood flood-opacity="0" result="BackgroundImageFix"/>
<feColorMatrix in="SourceAlpha" type="matrix" values="0 0 0 0 0 0 0 0 0 0 0 0 0 0 0 0 0 0 127 0" result="hardAlpha"/>
<feOffset dy="11.4212"/>
<feComposite in2="hardAlpha" operator="out"/>
<feColorMatrix type="matrix" values="0 0 0 0 0.904167 0 0 0 0 0 0 0 0 0 0.5425 0 0 0 1 0"/>
<feBlend mode="normal" in2="BackgroundImageFix" result="effect1_dropShadow_1575_66419"/>
<feBlend mode="normal" in="SourceGraphic" in2="effect1_dropShadow_1575_66419" result="shape"/>
<feColorMatrix in="SourceAlpha" type="matrix" values="0 0 0 0 0 0 0 0 0 0 0 0 0 0 0 0 0 0 127 0" result="hardAlpha"/>
<feOffset dx="3.80707" dy="3.80707"/>
<feGaussianBlur stdDeviation="3.80707"/>
<feComposite in2="hardAlpha" operator="arithmetic" k2="-1" k3="1"/>
<feColorMatrix type="matrix" values="0 0 0 0 1 0 0 0 0 1 0 0 0 0 1 0 0 0 0.5 0"/>
<feBlend mode="normal" in2="shape" result="effect2_innerShadow_1575_66419"/>
<feColorMatrix in="SourceAlpha" type="matrix" values="0 0 0 0 0 0 0 0 0 0 0 0 0 0 0 0 0 0 127 0" result="hardAlpha"/>
<feOffset dx="-3.80707" dy="-3.80707"/>
<feGaussianBlur stdDeviation="3.80707"/>
<feComposite in2="hardAlpha" operator="arithmetic" k2="-1" k3="1"/>
<feColorMatrix type="matrix" values="0 0 0 0 1 0 0 0 0 0.478431 0 0 0 0 0.00392157 0 0 0 1 0"/>
<feBlend mode="normal" in2="effect2_innerShadow_1575_66419" result="effect3_innerShadow_1575_66419"/>
</filter>
<filter id="filter9_dii_1575_66419" x="369.869" y="137.193" width="104.239" height="117.677" filterUnits="userSpaceOnUse" color-interpolation-filters="sRGB">
<feFlood flood-opacity="0" result="BackgroundImageFix"/>
<feColorMatrix in="SourceAlpha" type="matrix" values="0 0 0 0 0 0 0 0 0 0 0 0 0 0 0 0 0 0 127 0" result="hardAlpha"/>
<feOffset dy="11.4212"/>
<feComposite in2="hardAlpha" operator="out"/>
<feColorMatrix type="matrix" values="0 0 0 0 0.904167 0 0 0 0 0 0 0 0 0 0.5425 0 0 0 1 0"/>
<feBlend mode="normal" in2="BackgroundImageFix" result="effect1_dropShadow_1575_66419"/>
<feBlend mode="normal" in="SourceGraphic" in2="effect1_dropShadow_1575_66419" result="shape"/>
<feColorMatrix in="SourceAlpha" type="matrix" values="0 0 0 0 0 0 0 0 0 0 0 0 0 0 0 0 0 0 127 0" result="hardAlpha"/>
<feOffset dx="3.80707" dy="3.80707"/>
<feGaussianBlur stdDeviation="3.80707"/>
<feComposite in2="hardAlpha" operator="arithmetic" k2="-1" k3="1"/>
<feColorMatrix type="matrix" values="0 0 0 0 1 0 0 0 0 1 0 0 0 0 1 0 0 0 0.5 0"/>
<feBlend mode="normal" in2="shape" result="effect2_innerShadow_1575_66419"/>
<feColorMatrix in="SourceAlpha" type="matrix" values="0 0 0 0 0 0 0 0 0 0 0 0 0 0 0 0 0 0 127 0" result="hardAlpha"/>
<feOffset dx="-3.80707" dy="-3.80707"/>
<feGaussianBlur stdDeviation="3.80707"/>
<feComposite in2="hardAlpha" operator="arithmetic" k2="-1" k3="1"/>
<feColorMatrix type="matrix" values="0 0 0 0 1 0 0 0 0 0.478431 0 0 0 0 0.00392157 0 0 0 1 0"/>
<feBlend mode="normal" in2="effect2_innerShadow_1575_66419" result="effect3_innerShadow_1575_66419"/>
</filter>
<filter id="filter10_f_1575_66419" x="236.391" y="142.896" width="14.0977" height="57.3955" filterUnits="userSpaceOnUse" color-interpolation-filters="sRGB">
<feFlood flood-opacity="0" result="BackgroundImageFix"/>
<feBlend mode="normal" in="SourceGraphic" in2="BackgroundImageFix" result="shape"/>
<feGaussianBlur stdDeviation="1.5" result="effect1_foregroundBlur_1575_66419"/>
</filter>
<filter id="filter11_f_1575_66419" x="441" y="143" width="14.0977" height="57.3955" filterUnits="userSpaceOnUse" color-interpolation-filters="sRGB">
<feFlood flood-opacity="0" result="BackgroundImageFix"/>
<feBlend mode="normal" in="SourceGraphic" in2="BackgroundImageFix" result="shape"/>
<feGaussianBlur stdDeviation="1.5" result="effect1_foregroundBlur_1575_66419"/>
</filter>
<filter id="filter12_f_1575_66419" x="171.645" y="143.839" width="29.4609" height="51.2178" filterUnits="userSpaceOnUse" color-interpolation-filters="sRGB">
<feFlood flood-opacity="0" result="BackgroundImageFix"/>
<feBlend mode="normal" in="SourceGraphic" in2="BackgroundImageFix" result="shape"/>
<feGaussianBlur stdDeviation="1.5" result="effect1_foregroundBlur_1575_66419"/>
</filter>
<filter id="filter13_f_1575_66419" x="376.301" y="143.839" width="29.4609" height="51.2178" filterUnits="userSpaceOnUse" color-interpolation-filters="sRGB">
<feFlood flood-opacity="0" result="BackgroundImageFix"/>
<feBlend mode="normal" in="SourceGraphic" in2="BackgroundImageFix" result="shape"/>
<feGaussianBlur stdDeviation="1.5" result="effect1_foregroundBlur_1575_66419"/>
</filter>
<filter id="filter14_f_1575_66419" x="66.0273" y="217.134" width="33.6016" height="14.374" filterUnits="userSpaceOnUse" color-interpolation-filters="sRGB">
<feFlood flood-opacity="0" result="BackgroundImageFix"/>
<feBlend mode="normal" in="SourceGraphic" in2="BackgroundImageFix" result="shape"/>
<feGaussianBlur stdDeviation="1.5" result="effect1_foregroundBlur_1575_66419"/>
</filter>
<filter id="filter15_f_1575_66419" x="98.3867" y="227.111" width="64.0586" height="15.0576" filterUnits="userSpaceOnUse" color-interpolation-filters="sRGB">
<feFlood flood-opacity="0" result="BackgroundImageFix"/>
<feBlend mode="normal" in="SourceGraphic" in2="BackgroundImageFix" result="shape"/>
<feGaussianBlur stdDeviation="1.5" result="effect1_foregroundBlur_1575_66419"/>
</filter>
<filter id="filter16_f_1575_66419" x="303.016" y="227.111" width="64.0586" height="15.0576" filterUnits="userSpaceOnUse" color-interpolation-filters="sRGB">
<feFlood flood-opacity="0" result="BackgroundImageFix"/>
<feBlend mode="normal" in="SourceGraphic" in2="BackgroundImageFix" result="shape"/>
<feGaussianBlur stdDeviation="1.5" result="effect1_foregroundBlur_1575_66419"/>
</filter>
<filter id="filter17_f_1575_66419" x="68.0273" y="142.896" width="44.0703" height="18.1484" filterUnits="userSpaceOnUse" color-interpolation-filters="sRGB">
<feFlood flood-opacity="0" result="BackgroundImageFix"/>
<feBlend mode="normal" in="SourceGraphic" in2="BackgroundImageFix" result="shape"/>
<feGaussianBlur stdDeviation="1.5" result="effect1_foregroundBlur_1575_66419"/>
</filter>
<filter id="filter18_f_1575_66419" x="272.559" y="142.896" width="44.0703" height="18.1484" filterUnits="userSpaceOnUse" color-interpolation-filters="sRGB">
<feFlood flood-opacity="0" result="BackgroundImageFix"/>
<feBlend mode="normal" in="SourceGraphic" in2="BackgroundImageFix" result="shape"/>
<feGaussianBlur stdDeviation="1.5" result="effect1_foregroundBlur_1575_66419"/>
</filter>
<filter id="filter19_f_1575_66419" x="272.559" y="217.134" width="33.6016" height="14.374" filterUnits="userSpaceOnUse" color-interpolation-filters="sRGB">
<feFlood flood-opacity="0" result="BackgroundImageFix"/>
<feBlend mode="normal" in="SourceGraphic" in2="BackgroundImageFix" result="shape"/>
<feGaussianBlur stdDeviation="1.5" result="effect1_foregroundBlur_1575_66419"/>
</filter>
<filter id="filter20_f_1575_66419" x="455.785" y="181.918" width="10.7461" height="57.3955" filterUnits="userSpaceOnUse" color-interpolation-filters="sRGB">
<feFlood flood-opacity="0" result="BackgroundImageFix"/>
<feBlend mode="normal" in="SourceGraphic" in2="BackgroundImageFix" result="shape"/>
<feGaussianBlur stdDeviation="1.5" result="effect1_foregroundBlur_1575_66419"/>
</filter>
<filter id="filter21_f_1575_66419" x="251.488" y="181.918" width="10.7461" height="57.3955" filterUnits="userSpaceOnUse" color-interpolation-filters="sRGB">
<feFlood flood-opacity="0" result="BackgroundImageFix"/>
<feBlend mode="normal" in="SourceGraphic" in2="BackgroundImageFix" result="shape"/>
<feGaussianBlur stdDeviation="1.5" result="effect1_foregroundBlur_1575_66419"/>
</filter>
<linearGradient id="paint0_linear_1575_66419" x1="465.601" y1="130.449" x2="429.971" y2="146.551" gradientUnits="userSpaceOnUse">
<stop stop-color="#A500C0"/>
<stop offset="1" stop-color="#C9001A"/>
</linearGradient>
<linearGradient id="paint1_linear_1575_66419" x1="396.43" y1="96.8429" x2="453.607" y2="62.2967" gradientUnits="userSpaceOnUse">
<stop stop-color="#FF1717"/>
<stop offset="1" stop-color="#CB007A"/>
</linearGradient>
<linearGradient id="paint2_linear_1575_66419" x1="284.483" y1="66.8365" x2="339.399" y2="132.901" gradientUnits="userSpaceOnUse">
<stop stop-color="#7BEE20"/>
<stop offset="1" stop-color="#039E13"/>
</linearGradient>
<linearGradient id="paint3_linear_1575_66419" x1="229.604" y1="56.846" x2="195.675" y2="133.245" gradientUnits="userSpaceOnUse">
<stop stop-color="#FFCA51"/>
<stop offset="1" stop-color="#FF7A01"/>
</linearGradient>
<linearGradient id="paint4_linear_1575_66419" x1="244.034" y1="52.3195" x2="250.646" y2="125.687" gradientUnits="userSpaceOnUse">
<stop stop-color="#AC99FF"/>
<stop offset="0.974132" stop-color="#703EFF"/>
</linearGradient>
<linearGradient id="paint5_linear_1575_66419" x1="233.964" y1="93.4257" x2="209.327" y2="121.65" gradientUnits="userSpaceOnUse">
<stop stop-color="#2CD8FD"/>
<stop offset="1" stop-color="#0F83F7"/>
</linearGradient>
<linearGradient id="paint6_linear_1575_66419" x1="500.474" y1="57.5053" x2="483.878" y2="104.945" gradientUnits="userSpaceOnUse">
<stop stop-color="#5434DE"/>
<stop offset="1" stop-color="#5C3BEE" stop-opacity="0"/>
</linearGradient>
<linearGradient id="paint7_linear_1575_66419" x1="261.5" y1="105" x2="261.5" y2="246" gradientUnits="userSpaceOnUse">
<stop stop-color="#441FE2" stop-opacity="0"/>
<stop offset="0.416667" stop-color="#441FE2"/>
</linearGradient>
<linearGradient id="paint8_linear_1575_66419" x1="202.273" y1="251.633" x2="201.321" y2="120.765" gradientUnits="userSpaceOnUse">
<stop stop-color="#FFB200"/>
<stop offset="0.99888" stop-color="#FFDF95"/>
</linearGradient>
<linearGradient id="paint9_linear_1575_66419" x1="407.172" y1="251.633" x2="406.22" y2="120.765" gradientUnits="userSpaceOnUse">
<stop stop-color="#FFB200"/>
<stop offset="0.99888" stop-color="#FFDF95"/>
</linearGradient>
<linearGradient id="paint10_linear_1575_66419" x1="202.273" y1="251.634" x2="201.321" y2="120.765" gradientUnits="userSpaceOnUse">
<stop stop-color="#FFB200"/>
<stop offset="0.99888" stop-color="#FFDF95"/>
</linearGradient>
<linearGradient id="paint11_linear_1575_66419" x1="407.171" y1="251.634" x2="406.22" y2="120.765" gradientUnits="userSpaceOnUse">
<stop stop-color="#FFB200"/>
<stop offset="0.99888" stop-color="#FFDF95"/>
</linearGradient>
<linearGradient id="paint12_linear_1575_66419" x1="243.674" y1="197.291" x2="243.674" y2="145.896" gradientUnits="userSpaceOnUse">
<stop stop-color="white" stop-opacity="0"/>
<stop offset="1" stop-color="white" stop-opacity="0.7"/>
</linearGradient>
<linearGradient id="paint13_linear_1575_66419" x1="448.283" y1="197.396" x2="448.283" y2="146" gradientUnits="userSpaceOnUse">
<stop stop-color="white" stop-opacity="0"/>
<stop offset="1" stop-color="white" stop-opacity="0.7"/>
</linearGradient>
<linearGradient id="paint14_linear_1575_66419" x1="182.762" y1="202.05" x2="182.762" y2="150.655" gradientUnits="userSpaceOnUse">
<stop stop-color="white" stop-opacity="0"/>
<stop offset="1" stop-color="white" stop-opacity="0.7"/>
</linearGradient>
<linearGradient id="paint15_linear_1575_66419" x1="387.418" y1="202.05" x2="387.418" y2="150.655" gradientUnits="userSpaceOnUse">
<stop stop-color="white" stop-opacity="0"/>
<stop offset="1" stop-color="white" stop-opacity="0.7"/>
</linearGradient>
<linearGradient id="paint16_linear_1575_66419" x1="96.6289" y1="224.893" x2="69.0276" y2="224.893" gradientUnits="userSpaceOnUse">
<stop stop-color="white" stop-opacity="0"/>
<stop offset="1" stop-color="white" stop-opacity="0.7"/>
</linearGradient>
<linearGradient id="paint17_linear_1575_66419" x1="101.387" y1="234.41" x2="159.445" y2="234.41" gradientUnits="userSpaceOnUse">
<stop stop-color="white" stop-opacity="0"/>
<stop offset="1" stop-color="white" stop-opacity="0.7"/>
</linearGradient>
<linearGradient id="paint18_linear_1575_66419" x1="306.016" y1="234.41" x2="364.074" y2="234.41" gradientUnits="userSpaceOnUse">
<stop stop-color="white" stop-opacity="0"/>
<stop offset="1" stop-color="white" stop-opacity="0.7"/>
</linearGradient>
<linearGradient id="paint19_linear_1575_66419" x1="109.098" y1="152.558" x2="71.0269" y2="152.558" gradientUnits="userSpaceOnUse">
<stop stop-color="white" stop-opacity="0"/>
<stop offset="1" stop-color="white" stop-opacity="0.7"/>
</linearGradient>
<linearGradient id="paint20_linear_1575_66419" x1="313.629" y1="152.558" x2="275.558" y2="152.558" gradientUnits="userSpaceOnUse">
<stop stop-color="white" stop-opacity="0"/>
<stop offset="1" stop-color="white" stop-opacity="0.7"/>
</linearGradient>
<linearGradient id="paint21_linear_1575_66419" x1="303.16" y1="224.893" x2="275.559" y2="224.893" gradientUnits="userSpaceOnUse">
<stop stop-color="white" stop-opacity="0"/>
<stop offset="1" stop-color="white" stop-opacity="0.7"/>
</linearGradient>
<linearGradient id="paint22_linear_1575_66419" x1="460.914" y1="184.918" x2="460.914" y2="236.313" gradientUnits="userSpaceOnUse">
<stop stop-color="white" stop-opacity="0"/>
<stop offset="1" stop-color="white" stop-opacity="0.4"/>
</linearGradient>
<linearGradient id="paint23_linear_1575_66419" x1="256.617" y1="184.918" x2="256.617" y2="236.313" gradientUnits="userSpaceOnUse">
<stop stop-color="white" stop-opacity="0"/>
<stop offset="1" stop-color="white" stop-opacity="0.4"/>
</linearGradient>
</defs>
</svg>
